M48
;DRILL file {KiCad 4.0.2-4+6225~38~ubuntu14.04.1-stable} date lun 04 abr 2016 12:32:59 ART
;FORMAT={-:-/ absolute / metric / decimal}
FMAT,2
METRIC,TZ
T1C0.400
T2C0.998
%
G90
G05
M71
T1
X138.6Y-109.9
X140.Y-102.2
X140.Y-107.5
X143.5Y-107.5
X145.717Y-100.183
X146.283Y-99.617
X146.8Y-107.
X149.Y-110.
X149.1Y-107.7
X151.7Y-101.2
X153.5Y-102.9
X155.5Y-103.3
X156.5Y-108.6
X157.Y-100.1
X162.9Y-102.1
X167.3Y-100.2
T2
X134.72Y-112.3
X134.78Y-97.1
X137.26Y-112.3
X137.32Y-97.1
X139.8Y-112.3
X139.86Y-97.1
X142.34Y-112.3
X142.4Y-97.1
X144.88Y-112.3
X144.94Y-97.1
X147.42Y-112.3
X147.48Y-97.1
X149.96Y-112.3
X150.02Y-97.1
X152.5Y-112.3
X152.56Y-97.1
X155.04Y-112.3
X155.1Y-97.1
X157.58Y-112.3
X157.64Y-97.1
X160.12Y-112.3
X160.18Y-97.1
X162.66Y-112.3
X162.72Y-97.1
X165.2Y-112.3
X165.26Y-97.1
X167.74Y-112.3
X167.8Y-97.1
T0
M30
