G04 #@! TF.FileFunction,Copper,L2,Bot,Signal*
%FSLAX46Y46*%
G04 Gerber Fmt 4.6, Leading zero omitted, Abs format (unit mm)*
G04 Created by KiCad (PCBNEW 4.0.2-4+6225~38~ubuntu14.04.1-stable) date lun 04 abr 2016 12:34:46 ART*
%MOMM*%
G01*
G04 APERTURE LIST*
%ADD10C,0.100000*%
%ADD11R,5.400000X5.000000*%
%ADD12O,1.506220X3.014980*%
%ADD13R,1.506220X3.014980*%
%ADD14C,0.600000*%
%ADD15C,0.500000*%
%ADD16C,0.203200*%
%ADD17C,0.300000*%
G04 APERTURE END LIST*
D10*
D11*
X152350000Y-87030000D03*
X140850000Y-87030000D03*
D12*
X144940000Y-97100000D03*
X147480000Y-97100000D03*
X150020000Y-97100000D03*
X152560000Y-97100000D03*
X155100000Y-97100000D03*
X157640000Y-97100000D03*
X160180000Y-97100000D03*
X162720000Y-97100000D03*
X165260000Y-97100000D03*
X142400000Y-97100000D03*
X139860000Y-97100000D03*
X137320000Y-97100000D03*
X167800000Y-97100000D03*
D13*
X134780000Y-97100000D03*
D12*
X157580000Y-112300000D03*
X155040000Y-112300000D03*
X152500000Y-112300000D03*
X149960000Y-112300000D03*
X147420000Y-112300000D03*
X144880000Y-112300000D03*
X142340000Y-112300000D03*
X139800000Y-112300000D03*
X137260000Y-112300000D03*
X160120000Y-112300000D03*
X162660000Y-112300000D03*
X165200000Y-112300000D03*
X134720000Y-112300000D03*
D13*
X167740000Y-112300000D03*
D14*
X143500000Y-107500000D03*
X140000000Y-107500000D03*
X156500000Y-108600000D03*
X146800000Y-107000000D03*
X162900000Y-102100000D03*
X151700000Y-101200000D03*
X138600000Y-109900000D03*
X140000000Y-102200000D03*
X157000000Y-100100000D03*
X167300000Y-100200000D03*
X149000000Y-110000000D03*
X149100000Y-107700000D03*
X146282842Y-99617158D03*
X145717158Y-100182842D03*
X153500000Y-102900000D03*
X155500000Y-103300000D03*
D15*
X140000000Y-107500000D02*
X143500000Y-107500000D01*
X150900000Y-103000000D02*
X150800000Y-103000000D01*
X156500000Y-108600000D02*
X150900000Y-103000000D01*
X151700000Y-102100000D02*
X151700000Y-101200000D01*
X146800000Y-107000000D02*
X150800000Y-103000000D01*
X150800000Y-103000000D02*
X151700000Y-102100000D01*
X162900000Y-102100000D02*
X161900000Y-101100000D01*
X162300000Y-101200000D02*
X151700000Y-101200000D01*
X138600000Y-109900000D02*
X138800000Y-109700000D01*
X138800000Y-109700000D02*
X138800000Y-107500000D01*
X138800000Y-107500000D02*
X139950000Y-106350000D01*
X139950000Y-106350000D02*
X139900000Y-102300000D01*
X139900000Y-102300000D02*
X140000000Y-102200000D01*
D16*
X167200000Y-100100000D02*
X157000000Y-100100000D01*
X167300000Y-100200000D02*
X167200000Y-100100000D01*
X149000000Y-110000000D02*
X149100000Y-109900000D01*
X149100000Y-109900000D02*
X149100000Y-107700000D01*
D17*
X146070711Y-99617158D02*
X146282842Y-99617158D01*
X133203552Y-99450000D02*
X145903553Y-99450000D01*
X145903553Y-99450000D02*
X146070711Y-99617158D01*
X140850000Y-87030000D02*
X137923552Y-87030000D01*
X137923552Y-87030000D02*
X132650000Y-92303552D01*
X132650000Y-98896448D02*
X133203552Y-99450000D01*
X132650000Y-92303552D02*
X132650000Y-98896448D01*
D16*
X140260000Y-88200000D02*
X140600000Y-88540000D01*
D17*
X146060004Y-85200000D02*
X143830001Y-84179999D01*
X132996448Y-99950000D02*
X145696447Y-99950000D01*
X145696447Y-99950000D02*
X145717158Y-99970711D01*
X145717158Y-99970711D02*
X145717158Y-100182842D01*
X151730002Y-85200000D02*
X146060004Y-85200000D01*
X152350000Y-87030000D02*
X151730002Y-85200000D01*
X137716448Y-86530000D02*
X132150000Y-92096448D01*
X143830001Y-84179999D02*
X137869999Y-84179999D01*
X137869999Y-84179999D02*
X137716448Y-84333550D01*
X137716448Y-84333550D02*
X137716448Y-86530000D01*
X132150000Y-92096448D02*
X132150000Y-99103552D01*
X132150000Y-99103552D02*
X132996448Y-99950000D01*
X151950000Y-87170000D02*
X151450000Y-87670000D01*
D16*
X153500000Y-103300000D02*
X153500000Y-102900000D01*
X155500000Y-103300000D02*
X153500000Y-103300000D01*
M02*
