G04 #@! TF.FileFunction,Copper,L2,Bot,Signal*
%FSLAX46Y46*%
G04 Gerber Fmt 4.6, Leading zero omitted, Abs format (unit mm)*
G04 Created by KiCad (PCBNEW 4.0.2-4+6225~38~ubuntu14.04.1-stable) date jue 07 abr 2016 16:44:47 ART*
%MOMM*%
G01*
G04 APERTURE LIST*
%ADD10C,0.100000*%
%ADD11O,1.506220X3.014980*%
%ADD12R,1.506220X3.014980*%
%ADD13R,0.750000X1.200000*%
%ADD14R,1.200000X0.750000*%
%ADD15R,1.500000X1.300000*%
%ADD16R,0.650000X1.060000*%
%ADD17R,0.350520X1.399540*%
%ADD18C,0.600000*%
%ADD19C,0.300000*%
%ADD20C,0.500000*%
%ADD21C,0.203200*%
%ADD22C,0.200000*%
%ADD23C,0.300000*%
G04 APERTURE END LIST*
D10*
D11*
X144940000Y-97100000D03*
X147480000Y-97100000D03*
X150020000Y-97100000D03*
X152560000Y-97100000D03*
X155100000Y-97100000D03*
X157640000Y-97100000D03*
X160180000Y-97100000D03*
X162720000Y-97100000D03*
X165260000Y-97100000D03*
X142400000Y-97100000D03*
X139860000Y-97100000D03*
X137320000Y-97100000D03*
X167800000Y-97100000D03*
D12*
X134780000Y-97100000D03*
D11*
X157580000Y-112300000D03*
X155040000Y-112300000D03*
X152500000Y-112300000D03*
X149960000Y-112300000D03*
X147420000Y-112300000D03*
X144880000Y-112300000D03*
X142340000Y-112300000D03*
X139800000Y-112300000D03*
X137260000Y-112300000D03*
X160120000Y-112300000D03*
X162660000Y-112300000D03*
X165200000Y-112300000D03*
X134720000Y-112300000D03*
D12*
X167740000Y-112300000D03*
D13*
X146812000Y-100208000D03*
X146812000Y-102108000D03*
X149352000Y-102108000D03*
X149352000Y-100208000D03*
D14*
X163708000Y-100330000D03*
X165608000Y-100330000D03*
X139700000Y-109220000D03*
X141600000Y-109220000D03*
X163708000Y-102108000D03*
X165608000Y-102108000D03*
D13*
X145034000Y-105278000D03*
X145034000Y-103378000D03*
D15*
X158844000Y-108712000D03*
X161544000Y-108712000D03*
X161544000Y-105918000D03*
X158844000Y-105918000D03*
X149352000Y-108712000D03*
X146652000Y-108712000D03*
X152748000Y-108712000D03*
X155448000Y-108712000D03*
D16*
X159136000Y-100162000D03*
X160086000Y-100162000D03*
X161036000Y-100162000D03*
X161036000Y-102362000D03*
X159136000Y-102362000D03*
X160086000Y-102362000D03*
D17*
X143570960Y-106588560D03*
X142920720Y-106588560D03*
X142270480Y-106588560D03*
X141620240Y-106588560D03*
X140970000Y-106588560D03*
X140319760Y-106588560D03*
X139669520Y-106588560D03*
X139019280Y-106588560D03*
X139019280Y-100838000D03*
X139669520Y-100838000D03*
X140319760Y-100838000D03*
X140970000Y-100838000D03*
X141620240Y-100838000D03*
X142270480Y-100838000D03*
X142920720Y-100838000D03*
X143570960Y-100838000D03*
D16*
X163388000Y-105834000D03*
X164338000Y-105834000D03*
X165288000Y-105834000D03*
X165288000Y-108034000D03*
X163388000Y-108034000D03*
X164338000Y-108034000D03*
D18*
X137414000Y-100838000D03*
X134620000Y-103632000D03*
X146050000Y-107188000D03*
X155702000Y-101092000D03*
X164338000Y-103632000D03*
X166878000Y-103632000D03*
X165354000Y-109982000D03*
X160274000Y-107442000D03*
X137668000Y-106172000D03*
X139954000Y-104140000D03*
X162306000Y-99568000D03*
X158335610Y-102406402D03*
X143764000Y-108110390D03*
X146050000Y-110744000D03*
X165100000Y-109220000D03*
X165312991Y-104648000D03*
D19*
X152100000Y-87800000D03*
X140600000Y-87800000D03*
D18*
X151130000Y-108712000D03*
X152654000Y-102407991D03*
X159258000Y-109982000D03*
X156210000Y-109982000D03*
D20*
X137414000Y-100838000D02*
X139019280Y-100838000D01*
X134720000Y-112300000D02*
X134720000Y-103732000D01*
X134720000Y-103732000D02*
X134620000Y-103632000D01*
X139860000Y-97100000D02*
X139019280Y-97940720D01*
X139019280Y-97940720D02*
X139019280Y-100838000D01*
X145909000Y-104478000D02*
X145909000Y-107047000D01*
X145909000Y-107047000D02*
X146050000Y-107188000D01*
X145633440Y-106588560D02*
X145909000Y-106313000D01*
X145909000Y-106313000D02*
X145909000Y-104478000D01*
X145909000Y-104478000D02*
X145034000Y-103603000D01*
X145034000Y-103603000D02*
X145034000Y-103378000D01*
X143570960Y-106588560D02*
X145633440Y-106588560D01*
X145034000Y-103378000D02*
X140359510Y-103378000D01*
X140359510Y-103378000D02*
X139019280Y-102037770D01*
X139019280Y-102037770D02*
X139019280Y-100838000D01*
X143256000Y-100838000D02*
X142270480Y-100838000D01*
X143256000Y-100838000D02*
X142920720Y-100838000D01*
X143570960Y-100838000D02*
X143256000Y-100838000D01*
X146812000Y-100208000D02*
X144200960Y-100208000D01*
X144200960Y-100208000D02*
X143570960Y-100838000D01*
X149352000Y-100208000D02*
X146812000Y-100208000D01*
X149352000Y-100208000D02*
X154818000Y-100208000D01*
X154818000Y-100208000D02*
X155702000Y-101092000D01*
X160086000Y-100162000D02*
X160086000Y-99446998D01*
X160086000Y-99446998D02*
X159821001Y-99181999D01*
X156001999Y-100792001D02*
X155702000Y-101092000D01*
X159821001Y-99181999D02*
X157612001Y-99181999D01*
X157612001Y-99181999D02*
X156001999Y-100792001D01*
X164338000Y-103632000D02*
X164338000Y-105834000D01*
X166878000Y-100500000D02*
X166878000Y-103632000D01*
X165608000Y-100330000D02*
X166708000Y-100330000D01*
X166708000Y-100330000D02*
X166878000Y-100500000D01*
X161544000Y-108712000D02*
X161544000Y-107562000D01*
X164338000Y-106520706D02*
X164338000Y-105834000D01*
X161544000Y-107562000D02*
X162052001Y-107053999D01*
X162052001Y-107053999D02*
X163804707Y-107053999D01*
X163804707Y-107053999D02*
X164338000Y-106520706D01*
X166116000Y-108458000D02*
X166116000Y-110121620D01*
X166116000Y-108204000D02*
X166116000Y-108458000D01*
X166116000Y-108458000D02*
X166116000Y-108037000D01*
X166113000Y-108034000D02*
X165288000Y-108034000D01*
X166116000Y-108037000D02*
X166113000Y-108034000D01*
X166116000Y-110490000D02*
X165200000Y-111406000D01*
X165200000Y-111406000D02*
X165200000Y-112300000D01*
X166116000Y-110121620D02*
X166116000Y-110490000D01*
X166116000Y-110121620D02*
X165976380Y-109982000D01*
X165976380Y-109982000D02*
X165354000Y-109982000D01*
X161544000Y-105918000D02*
X161544000Y-106172000D01*
X161544000Y-106172000D02*
X160274000Y-107442000D01*
X165200000Y-111545620D02*
X165200000Y-112300000D01*
X162052000Y-103632000D02*
X162052000Y-103539000D01*
X162052000Y-103539000D02*
X163483000Y-102108000D01*
X163483000Y-102108000D02*
X163708000Y-102108000D01*
X160086000Y-103632000D02*
X160086000Y-102362000D01*
X160086000Y-104460000D02*
X160086000Y-103632000D01*
X160086000Y-103632000D02*
X162052000Y-103632000D01*
X163708000Y-100330000D02*
X163708000Y-102108000D01*
X161544000Y-105918000D02*
X160086000Y-104460000D01*
X161544000Y-105918000D02*
X163304000Y-105918000D01*
X163304000Y-105918000D02*
X163388000Y-105834000D01*
X137668000Y-106172000D02*
X138602720Y-106172000D01*
X138602720Y-106172000D02*
X139019280Y-106588560D01*
X145034000Y-105278000D02*
X141092000Y-105278000D01*
X141092000Y-105278000D02*
X139954000Y-104140000D01*
X139800000Y-112300000D02*
X139800000Y-111545620D01*
X139800000Y-111545620D02*
X138649999Y-110395619D01*
X138649999Y-110395619D02*
X138649999Y-108157611D01*
X138649999Y-108157611D02*
X139019280Y-107788330D01*
X139019280Y-107788330D02*
X139019280Y-106588560D01*
D21*
X162306000Y-99568000D02*
X165989000Y-99568000D01*
D22*
X167800000Y-97100000D02*
X167800000Y-97854380D01*
X167800000Y-97854380D02*
X166086380Y-99568000D01*
X166086380Y-99568000D02*
X165989000Y-99568000D01*
D21*
X159136000Y-102362000D02*
X158380012Y-102362000D01*
X158380012Y-102362000D02*
X158335610Y-102406402D01*
X158844000Y-108712000D02*
X158744000Y-108712000D01*
X158744000Y-108712000D02*
X157580000Y-109876000D01*
X157580000Y-109876000D02*
X157580000Y-110589310D01*
X157580000Y-110589310D02*
X157580000Y-112300000D01*
X158844000Y-108712000D02*
X158844000Y-105918000D01*
X142494000Y-106636820D02*
X142318740Y-106636820D01*
X142318740Y-106636820D02*
X142270480Y-106588560D01*
X142920720Y-106588560D02*
X142542260Y-106588560D01*
X142542260Y-106588560D02*
X142494000Y-106636820D01*
X143764000Y-108110390D02*
X143339736Y-108110390D01*
X143339736Y-108110390D02*
X142920720Y-107691374D01*
X142920720Y-107691374D02*
X142920720Y-107491530D01*
X142920720Y-107491530D02*
X142920720Y-106588560D01*
X147420000Y-112300000D02*
X147420000Y-111545620D01*
X147420000Y-111545620D02*
X146618380Y-110744000D01*
X146618380Y-110744000D02*
X146050000Y-110744000D01*
X165100000Y-109220000D02*
X163934790Y-110385210D01*
X161280410Y-110385210D02*
X160120000Y-111545620D01*
X163934790Y-110385210D02*
X161280410Y-110385210D01*
X160120000Y-111545620D02*
X160120000Y-112300000D01*
X165288000Y-105834000D02*
X165288000Y-104672991D01*
X165288000Y-104672991D02*
X165312991Y-104648000D01*
D22*
X135231552Y-90039000D02*
X134997000Y-90273552D01*
X152100000Y-87800000D02*
X150838000Y-89062000D01*
X137800335Y-103097277D02*
X137805490Y-103098453D01*
X141513000Y-88566054D02*
X141513000Y-88862000D01*
X137732564Y-103143230D02*
X137737719Y-103142053D01*
X150838000Y-89062000D02*
X142113000Y-89062000D01*
X141588302Y-88409687D02*
X141556633Y-88441356D01*
X141513000Y-88862000D02*
X141507985Y-88906504D01*
X141493193Y-88948776D02*
X141469366Y-88986697D01*
X141913000Y-88862000D02*
X141913000Y-88566054D01*
X141437697Y-89018366D02*
X141399776Y-89042193D01*
X142113000Y-89062000D02*
X142068495Y-89056985D01*
X141918014Y-88906504D02*
X141913000Y-88862000D01*
X142068495Y-89056985D02*
X142026223Y-89042193D01*
X137805490Y-103098453D02*
X137810254Y-103100747D01*
X141907985Y-88521549D02*
X141893193Y-88479277D01*
X137789892Y-103098454D02*
X137795047Y-103097276D01*
X133726889Y-95607663D02*
X133600000Y-95734552D01*
X141932806Y-88948776D02*
X141918014Y-88906504D01*
X141869366Y-88441356D02*
X141837697Y-88409687D01*
X142026223Y-89042193D02*
X141988302Y-89018366D01*
X133600000Y-95734552D02*
X133600000Y-98956448D01*
X141893193Y-88479277D02*
X141869366Y-88441356D01*
X141469366Y-88986697D02*
X141437697Y-89018366D01*
X136628552Y-90039000D02*
X135231552Y-90039000D01*
X141988302Y-89018366D02*
X141956633Y-88986697D01*
X141956633Y-88986697D02*
X141932806Y-88948776D01*
X137605552Y-89062000D02*
X136628552Y-90039000D01*
X140244640Y-105988930D02*
X140319760Y-106064050D01*
X141913000Y-88566054D02*
X141907985Y-88521549D01*
X137780995Y-103104046D02*
X137785128Y-103100748D01*
X137795047Y-103097276D02*
X137800335Y-103097277D01*
X137814389Y-103104045D02*
X138240613Y-103530269D01*
X141507985Y-88906504D02*
X141493193Y-88948776D01*
X141799776Y-88385860D02*
X141757504Y-88371068D01*
X141837697Y-88409687D02*
X141799776Y-88385860D01*
X141757504Y-88371068D02*
X141713000Y-88366054D01*
X137292591Y-102652346D02*
X137293767Y-102657501D01*
X141713000Y-88366054D02*
X141668495Y-88371068D01*
X141556633Y-88441356D02*
X141532806Y-88479277D01*
X141668495Y-88371068D02*
X141626223Y-88385860D01*
X141532806Y-88479277D02*
X141518014Y-88521549D01*
X137722121Y-103142053D02*
X137727276Y-103143230D01*
X138243910Y-103559530D02*
X138237314Y-103567797D01*
X141399776Y-89042193D02*
X141357504Y-89056985D01*
X141626223Y-88385860D02*
X141588302Y-88409687D01*
X141518014Y-88521549D02*
X141513000Y-88566054D01*
X137763316Y-103119763D02*
X137764296Y-103120744D01*
X141357504Y-89056985D02*
X141313000Y-89062000D01*
X137746618Y-103136461D02*
X137763316Y-103119763D01*
X141313000Y-89062000D02*
X137605552Y-89062000D01*
X134997000Y-90273552D02*
X134997000Y-94337552D01*
X137281408Y-102701340D02*
X137283702Y-102706104D01*
X134042043Y-95292509D02*
X133786889Y-95292509D01*
X134997000Y-94337552D02*
X134042043Y-95292509D01*
X133786889Y-95292509D02*
X133726889Y-95352509D01*
X138237314Y-103567797D02*
X138235021Y-103572563D01*
X137713223Y-103136462D02*
X137717357Y-103139759D01*
X133726889Y-95352509D02*
X133726889Y-95607663D01*
X137737719Y-103142053D02*
X137742484Y-103139759D01*
X133600000Y-98956448D02*
X137287000Y-102643448D01*
X137287000Y-102643448D02*
X137290296Y-102647582D01*
X137281408Y-102685742D02*
X137280231Y-102690897D01*
X137290296Y-102647582D02*
X137292591Y-102652346D01*
X137293767Y-102657501D02*
X137293767Y-102662789D01*
X137293767Y-102662789D02*
X137292591Y-102667944D01*
X137292591Y-102667944D02*
X137290296Y-102672709D01*
X138233844Y-103583006D02*
X138235021Y-103588161D01*
X137283702Y-102706104D02*
X137286999Y-102710238D01*
X137290296Y-102672709D02*
X137283702Y-102680977D01*
X137283702Y-102680977D02*
X137281408Y-102685742D01*
X137280231Y-102690897D02*
X137280231Y-102696185D01*
X137280231Y-102696185D02*
X137281408Y-102701340D01*
X137286999Y-102710238D02*
X137713223Y-103136462D01*
X137717357Y-103139759D02*
X137722121Y-103142053D01*
X137727276Y-103143230D02*
X137732564Y-103143230D01*
X137810254Y-103100747D02*
X137814389Y-103104045D01*
X137742484Y-103139759D02*
X137746618Y-103136461D01*
X137764296Y-103120744D02*
X137780995Y-103104046D01*
X137785128Y-103100748D02*
X137789892Y-103098454D01*
X138240613Y-103530269D02*
X138243909Y-103534402D01*
X138243909Y-103534402D02*
X138246203Y-103539166D01*
X138246203Y-103539166D02*
X138247380Y-103544321D01*
X138247380Y-103544321D02*
X138247380Y-103549609D01*
X138247380Y-103549609D02*
X138246203Y-103554764D01*
X138240611Y-103597058D02*
X140244640Y-105601088D01*
X138246203Y-103554764D02*
X138243910Y-103559530D01*
X138235021Y-103572563D02*
X138233844Y-103577718D01*
X138233844Y-103577718D02*
X138233844Y-103583006D01*
X138235021Y-103588161D02*
X138237315Y-103592925D01*
X138237315Y-103592925D02*
X138240611Y-103597058D01*
X140244640Y-105601088D02*
X140244640Y-105988930D01*
X140319760Y-106064050D02*
X140319760Y-106588560D01*
X140600000Y-87800000D02*
X139954000Y-87800000D01*
X134623538Y-100684007D02*
X134623732Y-100684162D01*
X138997633Y-88574698D02*
X138973806Y-88536777D01*
X138934193Y-87913224D02*
X138910366Y-87875303D01*
X133226898Y-95145406D02*
X133226898Y-95400550D01*
X134905166Y-100965635D02*
X134905273Y-100965858D01*
X133589876Y-100557088D02*
X133630226Y-100537656D01*
X139954000Y-87800000D02*
X139909495Y-87794985D01*
X136036374Y-102098365D02*
X136035593Y-102099145D01*
X138840776Y-87819807D02*
X138798504Y-87805015D01*
X139640776Y-86969806D02*
X139598504Y-86955014D01*
X134057857Y-100118326D02*
X134058051Y-100118481D01*
X134339332Y-100399762D02*
X134339485Y-100399954D01*
X139909495Y-87794985D02*
X139867223Y-87780193D01*
X136885551Y-102946568D02*
X136885799Y-102946569D01*
X139509495Y-86955014D02*
X139467223Y-86969806D01*
X139867223Y-87780193D02*
X139829302Y-87756366D01*
X135327268Y-102234699D02*
X135362283Y-102206776D01*
X135198469Y-102264097D02*
X135243255Y-102264097D01*
X133501427Y-100567054D02*
X133546213Y-100567054D01*
X139373806Y-87063223D02*
X139359014Y-87105495D01*
X134497000Y-90066448D02*
X134497000Y-94130448D01*
X136602316Y-102662901D02*
X136602371Y-102663142D01*
X139829302Y-87756366D02*
X139797633Y-87724697D01*
X133631448Y-99695000D02*
X133659371Y-99730014D01*
X139797633Y-87724697D02*
X139773806Y-87686776D01*
X139773806Y-87686776D02*
X139759014Y-87644504D01*
X137591217Y-103654770D02*
X137829235Y-103892787D01*
X135032086Y-102131411D02*
X135051518Y-102171761D01*
X134057635Y-100118219D02*
X134057857Y-100118326D01*
X133659371Y-99730014D02*
X133678803Y-99770365D01*
X139759014Y-87644504D02*
X139754000Y-87600000D01*
X139754000Y-87600000D02*
X139754000Y-87150000D01*
X134338550Y-100402102D02*
X133948079Y-100792572D01*
X139754000Y-87150000D02*
X139748985Y-87105495D01*
X139598504Y-86955014D02*
X139554000Y-86950000D01*
X134339648Y-100400666D02*
X134339593Y-100400907D01*
X138954000Y-88000000D02*
X138948985Y-87955496D01*
X139748985Y-87105495D02*
X139734193Y-87063223D01*
X139397633Y-87025302D02*
X139373806Y-87063223D01*
X133354475Y-100474718D02*
X133382399Y-100509733D01*
X139734193Y-87063223D02*
X139710366Y-87025302D01*
X134339647Y-100400418D02*
X134339648Y-100400666D01*
X139710366Y-87025302D02*
X139678697Y-86993633D01*
X133678803Y-99902477D02*
X133659371Y-99942827D01*
X134905328Y-100966099D02*
X134905329Y-100966347D01*
X139678697Y-86993633D02*
X139640776Y-86969806D01*
X139278697Y-88606367D02*
X139240776Y-88630194D01*
X136885088Y-102946732D02*
X136885310Y-102946623D01*
X135852599Y-102819812D02*
X135892949Y-102800380D01*
X139354000Y-87150000D02*
X139354000Y-88450000D01*
X139554000Y-86950000D02*
X139509495Y-86955014D01*
X139354000Y-88450000D02*
X139348985Y-88494505D01*
X138754000Y-87800000D02*
X138160448Y-87800000D01*
X139467223Y-86969806D02*
X139429302Y-86993633D01*
X136153482Y-103174324D02*
X136153482Y-103219110D01*
X135470955Y-101532269D02*
X135470848Y-101532492D01*
X134622827Y-100683844D02*
X134623075Y-100683845D01*
X139198504Y-88644986D02*
X139154000Y-88650000D01*
X133688769Y-99814028D02*
X133688769Y-99858814D01*
X139429302Y-86993633D02*
X139397633Y-87025302D01*
X139359014Y-87105495D02*
X139354000Y-87150000D01*
X133948079Y-101075414D02*
X133983093Y-101103337D01*
X136602209Y-102662678D02*
X136602316Y-102662901D01*
X135286918Y-102254131D02*
X135327268Y-102234699D01*
X136719163Y-103740005D02*
X136719163Y-103784791D01*
X139348985Y-88494505D02*
X139334193Y-88536777D01*
X139310366Y-88574698D02*
X139278697Y-88606367D01*
X139334193Y-88536777D02*
X139310366Y-88574698D01*
X136036528Y-102096997D02*
X136036635Y-102097220D01*
X133834930Y-94792518D02*
X133579785Y-94792519D01*
X139240776Y-88630194D02*
X139198504Y-88644986D01*
X139154000Y-88650000D02*
X139109495Y-88644986D01*
X135024448Y-89539000D02*
X134497000Y-90066448D01*
X139109495Y-88644986D02*
X139067223Y-88630194D01*
X135617199Y-102737442D02*
X135645122Y-102772457D01*
X138959014Y-88494505D02*
X138954000Y-88450000D01*
X135189413Y-101249843D02*
X135470694Y-101531124D01*
X139067223Y-88630194D02*
X139029302Y-88606367D01*
X138948985Y-87955496D02*
X138934193Y-87913224D01*
X137167737Y-103228167D02*
X137167890Y-103228359D01*
X139029302Y-88606367D02*
X138997633Y-88574698D01*
X138973806Y-88536777D02*
X138959014Y-88494505D01*
X136602056Y-102662486D02*
X136602209Y-102662678D01*
X138954000Y-88450000D02*
X138954000Y-88000000D01*
X138910366Y-87875303D02*
X138878697Y-87843634D01*
X134622586Y-100683899D02*
X134622827Y-100683844D01*
X135754189Y-101815206D02*
X135754437Y-101815207D01*
X138160448Y-87800000D02*
X136421448Y-89539000D01*
X138878697Y-87843634D02*
X138840776Y-87819807D01*
X138798504Y-87805015D02*
X138754000Y-87800000D01*
X134339485Y-100399954D02*
X134339592Y-100400177D01*
X136421448Y-89539000D02*
X135024448Y-89539000D01*
X136748561Y-103655991D02*
X136729129Y-103696342D01*
X136036690Y-102097461D02*
X136036691Y-102097709D01*
X134497000Y-94130448D02*
X133834930Y-94792518D01*
X134023444Y-101122769D02*
X134067107Y-101132735D01*
X135189219Y-101249688D02*
X135189413Y-101249843D01*
X133579785Y-94792519D02*
X133226898Y-95145406D01*
X133226898Y-95400550D02*
X133100000Y-95527448D01*
X133100000Y-95527448D02*
X133100000Y-99163552D01*
X135645122Y-102772457D02*
X135680136Y-102800380D01*
X133100000Y-99163552D02*
X133631448Y-99695000D01*
X135471010Y-101532028D02*
X135470955Y-101532269D01*
X133890758Y-100911600D02*
X133890758Y-100956386D01*
X133678803Y-99770365D02*
X133688769Y-99814028D01*
X134057146Y-100118163D02*
X134057394Y-100118164D01*
X135471009Y-101531780D02*
X135471010Y-101532028D01*
X133688769Y-99858814D02*
X133678803Y-99902477D01*
X134339331Y-100401322D02*
X134338550Y-100402102D01*
X134622364Y-100684008D02*
X134622586Y-100683899D01*
X133659371Y-99942827D02*
X133631448Y-99977842D01*
X135470694Y-101531124D02*
X135470847Y-101531316D01*
X134513760Y-101358253D02*
X134485837Y-101393267D01*
X135079441Y-101923934D02*
X135051518Y-101958948D01*
X136163448Y-103262773D02*
X136182880Y-103303123D01*
X135470954Y-101531539D02*
X135471009Y-101531780D01*
X133631448Y-99977842D02*
X133382399Y-100226890D01*
X136153482Y-103219110D02*
X136163448Y-103262773D01*
X133382399Y-100226890D02*
X133354475Y-100261905D01*
X133354475Y-100261905D02*
X133335044Y-100302256D01*
X134548774Y-101669018D02*
X134589125Y-101688450D01*
X135753948Y-101815261D02*
X135754189Y-101815206D01*
X133335044Y-100302256D02*
X133325078Y-100345919D01*
X136319215Y-102381206D02*
X136319407Y-102381051D01*
X133325078Y-100345919D02*
X133325078Y-100390704D01*
X133325078Y-100390704D02*
X133335044Y-100434367D01*
X134057394Y-100118164D02*
X134057635Y-100118219D01*
X133335044Y-100434367D02*
X133354475Y-100474718D01*
X135154806Y-102254131D02*
X135198469Y-102264097D01*
X133382399Y-100509733D02*
X133417413Y-100537656D01*
X133417413Y-100537656D02*
X133457764Y-100557088D01*
X134339486Y-100401130D02*
X134339331Y-100401322D01*
X133457764Y-100557088D02*
X133501427Y-100567054D01*
X137167891Y-103229535D02*
X137167736Y-103229727D01*
X134056491Y-100118482D02*
X134056683Y-100118327D01*
X136245817Y-103366061D02*
X136286168Y-103385493D01*
X133546213Y-100567054D02*
X133589876Y-100557088D01*
X133630226Y-100537656D02*
X133665241Y-100509733D01*
X133665241Y-100509733D02*
X134056491Y-100118482D01*
X134056683Y-100118327D02*
X134056905Y-100118218D01*
X134230921Y-101075414D02*
X134622172Y-100684163D01*
X136374617Y-103395459D02*
X136418280Y-103385493D01*
X134456439Y-101477281D02*
X134456439Y-101522067D01*
X134056905Y-100118218D02*
X134057146Y-100118163D01*
X136886040Y-102946624D02*
X136886262Y-102946731D01*
X133983093Y-101103337D02*
X134023444Y-101122769D01*
X134058051Y-100118481D02*
X134339332Y-100399762D01*
X135470848Y-101532492D02*
X135470693Y-101532684D01*
X134339592Y-100400177D02*
X134339647Y-100400418D01*
X136729129Y-103696342D02*
X136719163Y-103740005D01*
X136329831Y-103395459D02*
X136374617Y-103395459D01*
X136182880Y-103303123D02*
X136210803Y-103338138D01*
X134067107Y-101132735D02*
X134111893Y-101132735D01*
X134339593Y-100400907D02*
X134339486Y-100401130D01*
X133948079Y-100792572D02*
X133920156Y-100827586D01*
X134195906Y-101103337D02*
X134230921Y-101075414D01*
X135680136Y-102800380D02*
X135720487Y-102819812D01*
X133900724Y-101000049D02*
X133920156Y-101040399D01*
X133920156Y-100827586D02*
X133900724Y-100867937D01*
X133900724Y-100867937D02*
X133890758Y-100911600D01*
X134155556Y-101122769D02*
X134195906Y-101103337D01*
X133890758Y-100956386D02*
X133900724Y-101000049D01*
X135051518Y-102171761D02*
X135079441Y-102206776D01*
X136602210Y-102663854D02*
X136602055Y-102664046D01*
X133920156Y-101040399D02*
X133948079Y-101075414D01*
X134111893Y-101132735D02*
X134155556Y-101122769D01*
X134622172Y-100684163D02*
X134622364Y-100684008D01*
X134623075Y-100683845D02*
X134623316Y-100683900D01*
X135032086Y-101999299D02*
X135022120Y-102042962D01*
X135470693Y-101532684D02*
X135469912Y-101533464D01*
X134623316Y-100683900D02*
X134623538Y-100684007D01*
X134623732Y-100684162D02*
X134905013Y-100965443D01*
X134905013Y-100965443D02*
X134905166Y-100965635D01*
X135022120Y-102042962D02*
X135022120Y-102087748D01*
X134905273Y-100965858D02*
X134905328Y-100966099D01*
X134905329Y-100966347D02*
X134905274Y-100966588D01*
X134905274Y-100966588D02*
X134905167Y-100966811D01*
X134905167Y-100966811D02*
X134905012Y-100967003D01*
X137167997Y-103228582D02*
X137168052Y-103228823D01*
X134905012Y-100967003D02*
X134904231Y-100967783D01*
X134904231Y-100967783D02*
X134513760Y-101358253D01*
X136602371Y-102663142D02*
X136602372Y-102663390D01*
X134485837Y-101393267D02*
X134466405Y-101433618D01*
X134466405Y-101433618D02*
X134456439Y-101477281D01*
X134456439Y-101522067D02*
X134466405Y-101565730D01*
X135469912Y-101533464D02*
X135079441Y-101923934D01*
X135587801Y-102608643D02*
X135587801Y-102653429D01*
X134466405Y-101565730D02*
X134485837Y-101606080D01*
X134485837Y-101606080D02*
X134513760Y-101641095D01*
X134513760Y-101641095D02*
X134548774Y-101669018D01*
X134589125Y-101688450D02*
X134632788Y-101698416D01*
X136210803Y-103338138D02*
X136245817Y-103366061D01*
X136602317Y-102663631D02*
X136602210Y-102663854D01*
X134632788Y-101698416D02*
X134677574Y-101698416D01*
X134677574Y-101698416D02*
X134721237Y-101688450D01*
X135470847Y-101531316D02*
X135470954Y-101531539D01*
X134721237Y-101688450D02*
X134761587Y-101669018D01*
X134761587Y-101669018D02*
X134796602Y-101641095D01*
X135754437Y-101815207D02*
X135754678Y-101815262D01*
X134796602Y-101641095D02*
X135187853Y-101249844D01*
X135187853Y-101249844D02*
X135188045Y-101249689D01*
X135188045Y-101249689D02*
X135188267Y-101249580D01*
X135188267Y-101249580D02*
X135188508Y-101249525D01*
X135188508Y-101249525D02*
X135188756Y-101249526D01*
X135188756Y-101249526D02*
X135188997Y-101249581D01*
X136036636Y-102097950D02*
X136036529Y-102098173D01*
X136036691Y-102097709D02*
X136036636Y-102097950D01*
X135188997Y-101249581D02*
X135189219Y-101249688D01*
X139744640Y-105808192D02*
X139744640Y-105988930D01*
X135051518Y-101958948D02*
X135032086Y-101999299D01*
X135022120Y-102087748D02*
X135032086Y-102131411D01*
X136163448Y-103130661D02*
X136153482Y-103174324D01*
X135079441Y-102206776D02*
X135114455Y-102234699D01*
X135114455Y-102234699D02*
X135154806Y-102254131D01*
X135243255Y-102264097D02*
X135286918Y-102254131D01*
X135362283Y-102206776D02*
X135753534Y-101815525D01*
X136319629Y-102380942D02*
X136319870Y-102380887D01*
X135753534Y-101815525D02*
X135753726Y-101815370D01*
X135753726Y-101815370D02*
X135753948Y-101815261D01*
X135754678Y-101815262D02*
X135754900Y-101815369D01*
X135754900Y-101815369D02*
X135755094Y-101815524D01*
X135755094Y-101815524D02*
X136036375Y-102096805D01*
X136036529Y-102098173D02*
X136036374Y-102098365D01*
X136036375Y-102096805D02*
X136036528Y-102096997D01*
X136036635Y-102097220D02*
X136036690Y-102097461D01*
X136886456Y-102946886D02*
X137167737Y-103228167D01*
X136035593Y-102099145D02*
X135645122Y-102489615D01*
X135645122Y-102489615D02*
X135617199Y-102524629D01*
X135617199Y-102524629D02*
X135597767Y-102564980D01*
X135597767Y-102564980D02*
X135587801Y-102608643D01*
X135587801Y-102653429D02*
X135597767Y-102697092D01*
X135597767Y-102697092D02*
X135617199Y-102737442D01*
X135720487Y-102819812D02*
X135764150Y-102829778D01*
X135764150Y-102829778D02*
X135808936Y-102829778D01*
X136319870Y-102380887D02*
X136320118Y-102380888D01*
X135808936Y-102829778D02*
X135852599Y-102819812D01*
X135892949Y-102800380D02*
X135927964Y-102772457D01*
X135927964Y-102772457D02*
X136319215Y-102381206D01*
X136319407Y-102381051D02*
X136319629Y-102380942D01*
X136493645Y-103338138D02*
X136884896Y-102946887D01*
X136320118Y-102380888D02*
X136320359Y-102380943D01*
X136320359Y-102380943D02*
X136320581Y-102381050D01*
X136320581Y-102381050D02*
X136320775Y-102381205D01*
X136320775Y-102381205D02*
X136602056Y-102662486D01*
X136602372Y-102663390D02*
X136602317Y-102663631D01*
X137168053Y-103229071D02*
X137167998Y-103229312D01*
X136602055Y-102664046D02*
X136601274Y-102664826D01*
X136601274Y-102664826D02*
X136210803Y-103055296D01*
X136286168Y-103385493D02*
X136329831Y-103395459D01*
X136210803Y-103055296D02*
X136182880Y-103090310D01*
X136182880Y-103090310D02*
X136163448Y-103130661D01*
X136418280Y-103385493D02*
X136458630Y-103366061D01*
X136458630Y-103366061D02*
X136493645Y-103338138D01*
X136884896Y-102946887D02*
X136885088Y-102946732D01*
X139669520Y-106064050D02*
X139669520Y-106588560D01*
X136885310Y-102946623D02*
X136885551Y-102946568D01*
X136885799Y-102946569D02*
X136886040Y-102946624D01*
X136886262Y-102946731D02*
X136886456Y-102946886D01*
X137167890Y-103228359D02*
X137167997Y-103228582D01*
X137168052Y-103228823D02*
X137168053Y-103229071D01*
X137167998Y-103229312D02*
X137167891Y-103229535D01*
X137167736Y-103229727D02*
X137166955Y-103230507D01*
X137166955Y-103230507D02*
X136776484Y-103620977D01*
X136776484Y-103620977D02*
X136748561Y-103655991D01*
X136719163Y-103784791D02*
X136729129Y-103828454D01*
X136729129Y-103828454D02*
X136748561Y-103868804D01*
X136748561Y-103868804D02*
X136776484Y-103903819D01*
X137343389Y-103626846D02*
X137383740Y-103607415D01*
X136776484Y-103903819D02*
X136811498Y-103931742D01*
X136811498Y-103931742D02*
X136851849Y-103951174D01*
X136851849Y-103951174D02*
X136895512Y-103961140D01*
X136895512Y-103961140D02*
X136940298Y-103961140D01*
X136940298Y-103961140D02*
X136983961Y-103951174D01*
X136983961Y-103951174D02*
X137024311Y-103931742D01*
X137024311Y-103931742D02*
X137059326Y-103903819D01*
X137059326Y-103903819D02*
X137308374Y-103654770D01*
X137308374Y-103654770D02*
X137343389Y-103626846D01*
X137383740Y-103607415D02*
X137427403Y-103597449D01*
X137427403Y-103597449D02*
X137472188Y-103597449D01*
X137472188Y-103597449D02*
X137515851Y-103607415D01*
X137515851Y-103607415D02*
X137556202Y-103626846D01*
X137556202Y-103626846D02*
X137591217Y-103654770D01*
X137829235Y-103892787D02*
X139744640Y-105808192D01*
X139744640Y-105988930D02*
X139669520Y-106064050D01*
X140600000Y-87800000D02*
X140589000Y-87800000D01*
D21*
X146812000Y-102108000D02*
X147390200Y-102108000D01*
X147390200Y-102108000D02*
X148291801Y-103009601D01*
X148291801Y-103009601D02*
X156262175Y-103009601D01*
X156262175Y-103009601D02*
X158278175Y-100993601D01*
X158278175Y-100993601D02*
X160937599Y-100993601D01*
X160937599Y-100993601D02*
X161036000Y-100895200D01*
X161036000Y-100895200D02*
X161036000Y-100162000D01*
X146652000Y-108712000D02*
X146652000Y-102870000D01*
X146652000Y-102870000D02*
X146652000Y-102268000D01*
X146652000Y-102268000D02*
X146812000Y-102108000D01*
X146652000Y-108712000D02*
X142840710Y-108712000D01*
X142840710Y-108712000D02*
X141620240Y-107491530D01*
X141620240Y-107491530D02*
X141620240Y-106588560D01*
X151130000Y-108712000D02*
X152748000Y-108712000D01*
X149352000Y-102108000D02*
X152354009Y-102108000D01*
X152354009Y-102108000D02*
X152654000Y-102407991D01*
X145034000Y-102108000D02*
X139954000Y-102108000D01*
X139954000Y-102108000D02*
X139669520Y-101823520D01*
X139669520Y-101740970D02*
X139669520Y-100838000D01*
X139669520Y-101823520D02*
X139669520Y-101740970D01*
X145935601Y-101206399D02*
X145034000Y-102108000D01*
X149352000Y-102108000D02*
X148773800Y-102108000D01*
X148773800Y-102108000D02*
X147872199Y-101206399D01*
X147872199Y-101206399D02*
X145935601Y-101206399D01*
X139700000Y-109220000D02*
X139700000Y-108641800D01*
X139700000Y-108641800D02*
X140970000Y-107371800D01*
X140970000Y-107371800D02*
X140970000Y-106588560D01*
X159258000Y-109982000D02*
X162814000Y-109982000D01*
X162814000Y-109982000D02*
X163388000Y-109408000D01*
X163388000Y-109408000D02*
X163388000Y-108767200D01*
X163388000Y-108767200D02*
X163388000Y-108034000D01*
X141600000Y-109220000D02*
X142403200Y-109220000D01*
X142403200Y-109220000D02*
X143165200Y-109982000D01*
X143165200Y-109982000D02*
X156210000Y-109982000D01*
X165608000Y-102108000D02*
X165608000Y-102686200D01*
X165608000Y-102686200D02*
X165914601Y-102992801D01*
X165914601Y-102992801D02*
X165914601Y-106605281D01*
X164338000Y-107300800D02*
X164338000Y-108034000D01*
X165914601Y-106605281D02*
X165317483Y-107202399D01*
X165317483Y-107202399D02*
X164436401Y-107202399D01*
X164436401Y-107202399D02*
X164338000Y-107300800D01*
X161036000Y-102362000D02*
X161036000Y-101628800D01*
X161036000Y-101628800D02*
X160937599Y-101530399D01*
X160937599Y-101530399D02*
X158311601Y-101530399D01*
X158311601Y-101530399D02*
X157734000Y-102108000D01*
X157734000Y-107188000D02*
X156718000Y-107188000D01*
X157734000Y-102108000D02*
X157734000Y-107188000D01*
X156718000Y-107188000D02*
X156401200Y-107504800D01*
X156401200Y-107504800D02*
X156401200Y-108712000D01*
X156401200Y-108712000D02*
X155448000Y-108712000D01*
X149352000Y-108712000D02*
X149452000Y-108712000D01*
X155348000Y-108712000D02*
X155448000Y-108712000D01*
X149452000Y-108712000D02*
X150403601Y-107760399D01*
X150403601Y-107760399D02*
X154396399Y-107760399D01*
X154396399Y-107760399D02*
X155348000Y-108712000D01*
D23*
G36*
X133581572Y-101732587D02*
X133638273Y-101769369D01*
X133643504Y-101771458D01*
X133648277Y-101774454D01*
X133657680Y-101779064D01*
X133698031Y-101798496D01*
X133703319Y-101800433D01*
X133708173Y-101803287D01*
X133765477Y-101823307D01*
X133781552Y-101871469D01*
X133784338Y-101876362D01*
X133786203Y-101881683D01*
X133790681Y-101891149D01*
X133810113Y-101931499D01*
X133813035Y-101936303D01*
X133815050Y-101941559D01*
X133851068Y-101998818D01*
X133886190Y-102056550D01*
X133889991Y-102060695D01*
X133892987Y-102065459D01*
X133899459Y-102073692D01*
X133927382Y-102108707D01*
X133931309Y-102112749D01*
X133934445Y-102117429D01*
X133982293Y-102165230D01*
X134029377Y-102213696D01*
X134034009Y-102216895D01*
X134037998Y-102220880D01*
X134046140Y-102227466D01*
X134081154Y-102255390D01*
X134085881Y-102258456D01*
X134089981Y-102262322D01*
X134147253Y-102298268D01*
X134203954Y-102335050D01*
X134209185Y-102337139D01*
X134213958Y-102340135D01*
X134223361Y-102344745D01*
X134263712Y-102364177D01*
X134269000Y-102366114D01*
X134273854Y-102368968D01*
X134331158Y-102388988D01*
X134347233Y-102437150D01*
X134350019Y-102442043D01*
X134351884Y-102447364D01*
X134356362Y-102456830D01*
X134375794Y-102497180D01*
X134378716Y-102501984D01*
X134380731Y-102507240D01*
X134416749Y-102564499D01*
X134451871Y-102622231D01*
X134455672Y-102626376D01*
X134458668Y-102631140D01*
X134465140Y-102639373D01*
X134493063Y-102674388D01*
X134496990Y-102678430D01*
X134500126Y-102683110D01*
X134547974Y-102730911D01*
X134595058Y-102779377D01*
X134599690Y-102782576D01*
X134603679Y-102786561D01*
X134611821Y-102793147D01*
X134646835Y-102821071D01*
X134651562Y-102824137D01*
X134655662Y-102828003D01*
X134712934Y-102863949D01*
X134769635Y-102900731D01*
X134774866Y-102902820D01*
X134779639Y-102905816D01*
X134789042Y-102910426D01*
X134829393Y-102929858D01*
X134834681Y-102931795D01*
X134839535Y-102934649D01*
X134896839Y-102954669D01*
X134912914Y-103002831D01*
X134915700Y-103007724D01*
X134917565Y-103013045D01*
X134922043Y-103022511D01*
X134941475Y-103062861D01*
X134944397Y-103067665D01*
X134946412Y-103072921D01*
X134982430Y-103130180D01*
X135017552Y-103187912D01*
X135021353Y-103192057D01*
X135024349Y-103196821D01*
X135030821Y-103205054D01*
X135058744Y-103240069D01*
X135062671Y-103244111D01*
X135065807Y-103248791D01*
X135113655Y-103296592D01*
X135160739Y-103345058D01*
X135165371Y-103348257D01*
X135169360Y-103352242D01*
X135177502Y-103358828D01*
X135212516Y-103386752D01*
X135217243Y-103389818D01*
X135221343Y-103393684D01*
X135278615Y-103429630D01*
X135335316Y-103466412D01*
X135340547Y-103468501D01*
X135345320Y-103471497D01*
X135354723Y-103476107D01*
X135395074Y-103495539D01*
X135400362Y-103497476D01*
X135405216Y-103500330D01*
X135462520Y-103520350D01*
X135478595Y-103568512D01*
X135481381Y-103573405D01*
X135483246Y-103578726D01*
X135487724Y-103588192D01*
X135507156Y-103628542D01*
X135510078Y-103633346D01*
X135512093Y-103638602D01*
X135548111Y-103695861D01*
X135583233Y-103753593D01*
X135587034Y-103757738D01*
X135590030Y-103762502D01*
X135596502Y-103770735D01*
X135624425Y-103805750D01*
X135628352Y-103809792D01*
X135631488Y-103814472D01*
X135679336Y-103862273D01*
X135726420Y-103910739D01*
X135731052Y-103913938D01*
X135735041Y-103917923D01*
X135743183Y-103924509D01*
X135778197Y-103952433D01*
X135782924Y-103955499D01*
X135787024Y-103959365D01*
X135844296Y-103995311D01*
X135900997Y-104032093D01*
X135906228Y-104034182D01*
X135911001Y-104037178D01*
X135920404Y-104041788D01*
X135960755Y-104061220D01*
X135966043Y-104063157D01*
X135970897Y-104066011D01*
X136028201Y-104086031D01*
X136044276Y-104134193D01*
X136047062Y-104139086D01*
X136048927Y-104144407D01*
X136053405Y-104153873D01*
X136072837Y-104194223D01*
X136075759Y-104199027D01*
X136077774Y-104204283D01*
X136113792Y-104261542D01*
X136148914Y-104319274D01*
X136152715Y-104323419D01*
X136155711Y-104328183D01*
X136162183Y-104336416D01*
X136190106Y-104371431D01*
X136194033Y-104375473D01*
X136197169Y-104380153D01*
X136245017Y-104427954D01*
X136292101Y-104476420D01*
X136296733Y-104479619D01*
X136300722Y-104483604D01*
X136308864Y-104490190D01*
X136343878Y-104518114D01*
X136348605Y-104521180D01*
X136352705Y-104525046D01*
X136409977Y-104560992D01*
X136466678Y-104597774D01*
X136471909Y-104599863D01*
X136476682Y-104602859D01*
X136486085Y-104607469D01*
X136526436Y-104626901D01*
X136531724Y-104628838D01*
X136536578Y-104631692D01*
X136600409Y-104653992D01*
X136663883Y-104677238D01*
X136669445Y-104678110D01*
X136674762Y-104679968D01*
X136684955Y-104682369D01*
X136728618Y-104692335D01*
X136734204Y-104693046D01*
X136739578Y-104694751D01*
X136806790Y-104702290D01*
X136873820Y-104710826D01*
X136879439Y-104710439D01*
X136885040Y-104711067D01*
X136895512Y-104711140D01*
X136940298Y-104711140D01*
X136945906Y-104710590D01*
X136951521Y-104711056D01*
X137018700Y-104703452D01*
X137085974Y-104696856D01*
X137091367Y-104695228D01*
X137096966Y-104694594D01*
X137107192Y-104692335D01*
X137150855Y-104682369D01*
X137156198Y-104680586D01*
X137161778Y-104679790D01*
X137225606Y-104657420D01*
X137289700Y-104636027D01*
X137294593Y-104633241D01*
X137299914Y-104631376D01*
X137309380Y-104626898D01*
X137349730Y-104607466D01*
X137354534Y-104604544D01*
X137359790Y-104602529D01*
X137417049Y-104566511D01*
X137432748Y-104556960D01*
X138147788Y-105272000D01*
X137978605Y-105272000D01*
X137950282Y-105260094D01*
X137767783Y-105222632D01*
X137581482Y-105221332D01*
X137398478Y-105256242D01*
X137225739Y-105326033D01*
X137069846Y-105428046D01*
X136936736Y-105558397D01*
X136831480Y-105712119D01*
X136758087Y-105883359D01*
X136719352Y-106065592D01*
X136717475Y-106200060D01*
X136352477Y-106243584D01*
X135948358Y-106374890D01*
X135577440Y-106582190D01*
X135253850Y-106857586D01*
X134989914Y-107190590D01*
X134795686Y-107568517D01*
X134678563Y-107976973D01*
X134643007Y-108400399D01*
X134690372Y-108822666D01*
X134818854Y-109227692D01*
X135023559Y-109600049D01*
X135296689Y-109925553D01*
X135627843Y-110191807D01*
X136004405Y-110388669D01*
X136336035Y-110486274D01*
X136278295Y-110532697D01*
X136102275Y-110742470D01*
X135989812Y-110947039D01*
X135978037Y-110916285D01*
X135831087Y-110682947D01*
X135641439Y-110482761D01*
X135416380Y-110323420D01*
X135164560Y-110211047D01*
X135037705Y-110178952D01*
X134820000Y-110309047D01*
X134820000Y-112200000D01*
X134840000Y-112200000D01*
X134840000Y-112400000D01*
X134820000Y-112400000D01*
X134820000Y-114290953D01*
X135037705Y-114421048D01*
X135164560Y-114388953D01*
X135416380Y-114276580D01*
X135641439Y-114117239D01*
X135831087Y-113917053D01*
X135978037Y-113683715D01*
X135990387Y-113651461D01*
X136091320Y-113841288D01*
X136264394Y-114053498D01*
X136475391Y-114228050D01*
X136716273Y-114358294D01*
X136977866Y-114439271D01*
X137250205Y-114467895D01*
X137522917Y-114443076D01*
X137785614Y-114365760D01*
X138028291Y-114238891D01*
X138241705Y-114067303D01*
X138417725Y-113857530D01*
X138530694Y-113652040D01*
X138631320Y-113841288D01*
X138804394Y-114053498D01*
X139015391Y-114228050D01*
X139256273Y-114358294D01*
X139517866Y-114439271D01*
X139790205Y-114467895D01*
X140062917Y-114443076D01*
X140325614Y-114365760D01*
X140568291Y-114238891D01*
X140781705Y-114067303D01*
X140957725Y-113857530D01*
X141070694Y-113652040D01*
X141171320Y-113841288D01*
X141344394Y-114053498D01*
X141555391Y-114228050D01*
X141796273Y-114358294D01*
X142057866Y-114439271D01*
X142330205Y-114467895D01*
X142602917Y-114443076D01*
X142865614Y-114365760D01*
X143108291Y-114238891D01*
X143321705Y-114067303D01*
X143497725Y-113857530D01*
X143610694Y-113652040D01*
X143711320Y-113841288D01*
X143884394Y-114053498D01*
X144095391Y-114228050D01*
X144336273Y-114358294D01*
X144597866Y-114439271D01*
X144870205Y-114467895D01*
X145142917Y-114443076D01*
X145405614Y-114365760D01*
X145648291Y-114238891D01*
X145861705Y-114067303D01*
X146037725Y-113857530D01*
X146150694Y-113652040D01*
X146251320Y-113841288D01*
X146424394Y-114053498D01*
X146635391Y-114228050D01*
X146876273Y-114358294D01*
X147137866Y-114439271D01*
X147410205Y-114467895D01*
X147682917Y-114443076D01*
X147945614Y-114365760D01*
X148188291Y-114238891D01*
X148401705Y-114067303D01*
X148577725Y-113857530D01*
X148690694Y-113652040D01*
X148791320Y-113841288D01*
X148964394Y-114053498D01*
X149175391Y-114228050D01*
X149416273Y-114358294D01*
X149677866Y-114439271D01*
X149950205Y-114467895D01*
X150222917Y-114443076D01*
X150485614Y-114365760D01*
X150728291Y-114238891D01*
X150941705Y-114067303D01*
X151117725Y-113857530D01*
X151230694Y-113652040D01*
X151331320Y-113841288D01*
X151504394Y-114053498D01*
X151715391Y-114228050D01*
X151956273Y-114358294D01*
X152217866Y-114439271D01*
X152490205Y-114467895D01*
X152762917Y-114443076D01*
X153025614Y-114365760D01*
X153268291Y-114238891D01*
X153481705Y-114067303D01*
X153657725Y-113857530D01*
X153770694Y-113652040D01*
X153871320Y-113841288D01*
X154044394Y-114053498D01*
X154255391Y-114228050D01*
X154496273Y-114358294D01*
X154757866Y-114439271D01*
X155030205Y-114467895D01*
X155302917Y-114443076D01*
X155565614Y-114365760D01*
X155808291Y-114238891D01*
X156021705Y-114067303D01*
X156197725Y-113857530D01*
X156310694Y-113652040D01*
X156411320Y-113841288D01*
X156584394Y-114053498D01*
X156795391Y-114228050D01*
X157036273Y-114358294D01*
X157297866Y-114439271D01*
X157570205Y-114467895D01*
X157842917Y-114443076D01*
X158105614Y-114365760D01*
X158348291Y-114238891D01*
X158561705Y-114067303D01*
X158737725Y-113857530D01*
X158850694Y-113652040D01*
X158951320Y-113841288D01*
X159124394Y-114053498D01*
X159335391Y-114228050D01*
X159576273Y-114358294D01*
X159837866Y-114439271D01*
X160110205Y-114467895D01*
X160382917Y-114443076D01*
X160645614Y-114365760D01*
X160888291Y-114238891D01*
X161101705Y-114067303D01*
X161277725Y-113857530D01*
X161390694Y-113652040D01*
X161491320Y-113841288D01*
X161664394Y-114053498D01*
X161875391Y-114228050D01*
X162116273Y-114358294D01*
X162377866Y-114439271D01*
X162650205Y-114467895D01*
X162922917Y-114443076D01*
X163185614Y-114365760D01*
X163428291Y-114238891D01*
X163641705Y-114067303D01*
X163817725Y-113857530D01*
X163930694Y-113652040D01*
X164031320Y-113841288D01*
X164204394Y-114053498D01*
X164415391Y-114228050D01*
X164656273Y-114358294D01*
X164917866Y-114439271D01*
X165190205Y-114467895D01*
X165462917Y-114443076D01*
X165725614Y-114365760D01*
X165968291Y-114238891D01*
X166181705Y-114067303D01*
X166339470Y-113879285D01*
X166341999Y-113911000D01*
X166396368Y-114086564D01*
X166497496Y-114240031D01*
X166637374Y-114359248D01*
X166804928Y-114434776D01*
X166986890Y-114460635D01*
X168493110Y-114460635D01*
X168596620Y-114452381D01*
X168772184Y-114398012D01*
X168925651Y-114296884D01*
X169044868Y-114157006D01*
X169120396Y-113989452D01*
X169146255Y-113807490D01*
X169146255Y-110792510D01*
X169138001Y-110689000D01*
X169083632Y-110513436D01*
X168982504Y-110359969D01*
X168842626Y-110240752D01*
X168675072Y-110165224D01*
X168493110Y-110139365D01*
X167016000Y-110139365D01*
X167016000Y-108037000D01*
X167007888Y-107954268D01*
X167000642Y-107871444D01*
X166999322Y-107866900D01*
X166998860Y-107862189D01*
X166974844Y-107782646D01*
X166951638Y-107702769D01*
X166949457Y-107698562D01*
X166948091Y-107694037D01*
X166909103Y-107620711D01*
X166870804Y-107546825D01*
X166867849Y-107543124D01*
X166865629Y-107538948D01*
X166813093Y-107474532D01*
X166761220Y-107409552D01*
X166754728Y-107402969D01*
X166754614Y-107402829D01*
X166754485Y-107402722D01*
X166752396Y-107400604D01*
X166749396Y-107397604D01*
X166685141Y-107344824D01*
X166621470Y-107291398D01*
X166617324Y-107289119D01*
X166613666Y-107286114D01*
X166540407Y-107246833D01*
X166467548Y-107206778D01*
X166463035Y-107205346D01*
X166458866Y-107203111D01*
X166398232Y-107184573D01*
X166446062Y-107136743D01*
X166490140Y-107083082D01*
X166534756Y-107029910D01*
X166536659Y-107026449D01*
X166539169Y-107023393D01*
X166571979Y-106962202D01*
X166605423Y-106901368D01*
X166606619Y-106897599D01*
X166608485Y-106894118D01*
X166628779Y-106827739D01*
X166649777Y-106761547D01*
X166650217Y-106757621D01*
X166651373Y-106753841D01*
X166658386Y-106684796D01*
X166666128Y-106615775D01*
X166666182Y-106608045D01*
X166666196Y-106607905D01*
X166666184Y-106607774D01*
X166666201Y-106605281D01*
X166666201Y-102992801D01*
X166661759Y-102947499D01*
X166664843Y-102943880D01*
X166678167Y-103062666D01*
X166806649Y-103467692D01*
X167011354Y-103840049D01*
X167284484Y-104165553D01*
X167615638Y-104431807D01*
X167992200Y-104628669D01*
X168399827Y-104748641D01*
X168822995Y-104787152D01*
X169245583Y-104742736D01*
X169651496Y-104617085D01*
X170025273Y-104414985D01*
X170352676Y-104144133D01*
X170621235Y-103814847D01*
X170775000Y-103525657D01*
X170775000Y-114675000D01*
X133525000Y-114675000D01*
X133525000Y-113783810D01*
X133608913Y-113917053D01*
X133798561Y-114117239D01*
X134023620Y-114276580D01*
X134275440Y-114388953D01*
X134402295Y-114421048D01*
X134620000Y-114290953D01*
X134620000Y-112400000D01*
X134600000Y-112400000D01*
X134600000Y-112200000D01*
X134620000Y-112200000D01*
X134620000Y-110309047D01*
X134402295Y-110178952D01*
X134275440Y-110211047D01*
X134023620Y-110323420D01*
X133798561Y-110482761D01*
X133608913Y-110682947D01*
X133525000Y-110816190D01*
X133525000Y-101697080D01*
X133581572Y-101732587D01*
X133581572Y-101732587D01*
G37*
X133581572Y-101732587D02*
X133638273Y-101769369D01*
X133643504Y-101771458D01*
X133648277Y-101774454D01*
X133657680Y-101779064D01*
X133698031Y-101798496D01*
X133703319Y-101800433D01*
X133708173Y-101803287D01*
X133765477Y-101823307D01*
X133781552Y-101871469D01*
X133784338Y-101876362D01*
X133786203Y-101881683D01*
X133790681Y-101891149D01*
X133810113Y-101931499D01*
X133813035Y-101936303D01*
X133815050Y-101941559D01*
X133851068Y-101998818D01*
X133886190Y-102056550D01*
X133889991Y-102060695D01*
X133892987Y-102065459D01*
X133899459Y-102073692D01*
X133927382Y-102108707D01*
X133931309Y-102112749D01*
X133934445Y-102117429D01*
X133982293Y-102165230D01*
X134029377Y-102213696D01*
X134034009Y-102216895D01*
X134037998Y-102220880D01*
X134046140Y-102227466D01*
X134081154Y-102255390D01*
X134085881Y-102258456D01*
X134089981Y-102262322D01*
X134147253Y-102298268D01*
X134203954Y-102335050D01*
X134209185Y-102337139D01*
X134213958Y-102340135D01*
X134223361Y-102344745D01*
X134263712Y-102364177D01*
X134269000Y-102366114D01*
X134273854Y-102368968D01*
X134331158Y-102388988D01*
X134347233Y-102437150D01*
X134350019Y-102442043D01*
X134351884Y-102447364D01*
X134356362Y-102456830D01*
X134375794Y-102497180D01*
X134378716Y-102501984D01*
X134380731Y-102507240D01*
X134416749Y-102564499D01*
X134451871Y-102622231D01*
X134455672Y-102626376D01*
X134458668Y-102631140D01*
X134465140Y-102639373D01*
X134493063Y-102674388D01*
X134496990Y-102678430D01*
X134500126Y-102683110D01*
X134547974Y-102730911D01*
X134595058Y-102779377D01*
X134599690Y-102782576D01*
X134603679Y-102786561D01*
X134611821Y-102793147D01*
X134646835Y-102821071D01*
X134651562Y-102824137D01*
X134655662Y-102828003D01*
X134712934Y-102863949D01*
X134769635Y-102900731D01*
X134774866Y-102902820D01*
X134779639Y-102905816D01*
X134789042Y-102910426D01*
X134829393Y-102929858D01*
X134834681Y-102931795D01*
X134839535Y-102934649D01*
X134896839Y-102954669D01*
X134912914Y-103002831D01*
X134915700Y-103007724D01*
X134917565Y-103013045D01*
X134922043Y-103022511D01*
X134941475Y-103062861D01*
X134944397Y-103067665D01*
X134946412Y-103072921D01*
X134982430Y-103130180D01*
X135017552Y-103187912D01*
X135021353Y-103192057D01*
X135024349Y-103196821D01*
X135030821Y-103205054D01*
X135058744Y-103240069D01*
X135062671Y-103244111D01*
X135065807Y-103248791D01*
X135113655Y-103296592D01*
X135160739Y-103345058D01*
X135165371Y-103348257D01*
X135169360Y-103352242D01*
X135177502Y-103358828D01*
X135212516Y-103386752D01*
X135217243Y-103389818D01*
X135221343Y-103393684D01*
X135278615Y-103429630D01*
X135335316Y-103466412D01*
X135340547Y-103468501D01*
X135345320Y-103471497D01*
X135354723Y-103476107D01*
X135395074Y-103495539D01*
X135400362Y-103497476D01*
X135405216Y-103500330D01*
X135462520Y-103520350D01*
X135478595Y-103568512D01*
X135481381Y-103573405D01*
X135483246Y-103578726D01*
X135487724Y-103588192D01*
X135507156Y-103628542D01*
X135510078Y-103633346D01*
X135512093Y-103638602D01*
X135548111Y-103695861D01*
X135583233Y-103753593D01*
X135587034Y-103757738D01*
X135590030Y-103762502D01*
X135596502Y-103770735D01*
X135624425Y-103805750D01*
X135628352Y-103809792D01*
X135631488Y-103814472D01*
X135679336Y-103862273D01*
X135726420Y-103910739D01*
X135731052Y-103913938D01*
X135735041Y-103917923D01*
X135743183Y-103924509D01*
X135778197Y-103952433D01*
X135782924Y-103955499D01*
X135787024Y-103959365D01*
X135844296Y-103995311D01*
X135900997Y-104032093D01*
X135906228Y-104034182D01*
X135911001Y-104037178D01*
X135920404Y-104041788D01*
X135960755Y-104061220D01*
X135966043Y-104063157D01*
X135970897Y-104066011D01*
X136028201Y-104086031D01*
X136044276Y-104134193D01*
X136047062Y-104139086D01*
X136048927Y-104144407D01*
X136053405Y-104153873D01*
X136072837Y-104194223D01*
X136075759Y-104199027D01*
X136077774Y-104204283D01*
X136113792Y-104261542D01*
X136148914Y-104319274D01*
X136152715Y-104323419D01*
X136155711Y-104328183D01*
X136162183Y-104336416D01*
X136190106Y-104371431D01*
X136194033Y-104375473D01*
X136197169Y-104380153D01*
X136245017Y-104427954D01*
X136292101Y-104476420D01*
X136296733Y-104479619D01*
X136300722Y-104483604D01*
X136308864Y-104490190D01*
X136343878Y-104518114D01*
X136348605Y-104521180D01*
X136352705Y-104525046D01*
X136409977Y-104560992D01*
X136466678Y-104597774D01*
X136471909Y-104599863D01*
X136476682Y-104602859D01*
X136486085Y-104607469D01*
X136526436Y-104626901D01*
X136531724Y-104628838D01*
X136536578Y-104631692D01*
X136600409Y-104653992D01*
X136663883Y-104677238D01*
X136669445Y-104678110D01*
X136674762Y-104679968D01*
X136684955Y-104682369D01*
X136728618Y-104692335D01*
X136734204Y-104693046D01*
X136739578Y-104694751D01*
X136806790Y-104702290D01*
X136873820Y-104710826D01*
X136879439Y-104710439D01*
X136885040Y-104711067D01*
X136895512Y-104711140D01*
X136940298Y-104711140D01*
X136945906Y-104710590D01*
X136951521Y-104711056D01*
X137018700Y-104703452D01*
X137085974Y-104696856D01*
X137091367Y-104695228D01*
X137096966Y-104694594D01*
X137107192Y-104692335D01*
X137150855Y-104682369D01*
X137156198Y-104680586D01*
X137161778Y-104679790D01*
X137225606Y-104657420D01*
X137289700Y-104636027D01*
X137294593Y-104633241D01*
X137299914Y-104631376D01*
X137309380Y-104626898D01*
X137349730Y-104607466D01*
X137354534Y-104604544D01*
X137359790Y-104602529D01*
X137417049Y-104566511D01*
X137432748Y-104556960D01*
X138147788Y-105272000D01*
X137978605Y-105272000D01*
X137950282Y-105260094D01*
X137767783Y-105222632D01*
X137581482Y-105221332D01*
X137398478Y-105256242D01*
X137225739Y-105326033D01*
X137069846Y-105428046D01*
X136936736Y-105558397D01*
X136831480Y-105712119D01*
X136758087Y-105883359D01*
X136719352Y-106065592D01*
X136717475Y-106200060D01*
X136352477Y-106243584D01*
X135948358Y-106374890D01*
X135577440Y-106582190D01*
X135253850Y-106857586D01*
X134989914Y-107190590D01*
X134795686Y-107568517D01*
X134678563Y-107976973D01*
X134643007Y-108400399D01*
X134690372Y-108822666D01*
X134818854Y-109227692D01*
X135023559Y-109600049D01*
X135296689Y-109925553D01*
X135627843Y-110191807D01*
X136004405Y-110388669D01*
X136336035Y-110486274D01*
X136278295Y-110532697D01*
X136102275Y-110742470D01*
X135989812Y-110947039D01*
X135978037Y-110916285D01*
X135831087Y-110682947D01*
X135641439Y-110482761D01*
X135416380Y-110323420D01*
X135164560Y-110211047D01*
X135037705Y-110178952D01*
X134820000Y-110309047D01*
X134820000Y-112200000D01*
X134840000Y-112200000D01*
X134840000Y-112400000D01*
X134820000Y-112400000D01*
X134820000Y-114290953D01*
X135037705Y-114421048D01*
X135164560Y-114388953D01*
X135416380Y-114276580D01*
X135641439Y-114117239D01*
X135831087Y-113917053D01*
X135978037Y-113683715D01*
X135990387Y-113651461D01*
X136091320Y-113841288D01*
X136264394Y-114053498D01*
X136475391Y-114228050D01*
X136716273Y-114358294D01*
X136977866Y-114439271D01*
X137250205Y-114467895D01*
X137522917Y-114443076D01*
X137785614Y-114365760D01*
X138028291Y-114238891D01*
X138241705Y-114067303D01*
X138417725Y-113857530D01*
X138530694Y-113652040D01*
X138631320Y-113841288D01*
X138804394Y-114053498D01*
X139015391Y-114228050D01*
X139256273Y-114358294D01*
X139517866Y-114439271D01*
X139790205Y-114467895D01*
X140062917Y-114443076D01*
X140325614Y-114365760D01*
X140568291Y-114238891D01*
X140781705Y-114067303D01*
X140957725Y-113857530D01*
X141070694Y-113652040D01*
X141171320Y-113841288D01*
X141344394Y-114053498D01*
X141555391Y-114228050D01*
X141796273Y-114358294D01*
X142057866Y-114439271D01*
X142330205Y-114467895D01*
X142602917Y-114443076D01*
X142865614Y-114365760D01*
X143108291Y-114238891D01*
X143321705Y-114067303D01*
X143497725Y-113857530D01*
X143610694Y-113652040D01*
X143711320Y-113841288D01*
X143884394Y-114053498D01*
X144095391Y-114228050D01*
X144336273Y-114358294D01*
X144597866Y-114439271D01*
X144870205Y-114467895D01*
X145142917Y-114443076D01*
X145405614Y-114365760D01*
X145648291Y-114238891D01*
X145861705Y-114067303D01*
X146037725Y-113857530D01*
X146150694Y-113652040D01*
X146251320Y-113841288D01*
X146424394Y-114053498D01*
X146635391Y-114228050D01*
X146876273Y-114358294D01*
X147137866Y-114439271D01*
X147410205Y-114467895D01*
X147682917Y-114443076D01*
X147945614Y-114365760D01*
X148188291Y-114238891D01*
X148401705Y-114067303D01*
X148577725Y-113857530D01*
X148690694Y-113652040D01*
X148791320Y-113841288D01*
X148964394Y-114053498D01*
X149175391Y-114228050D01*
X149416273Y-114358294D01*
X149677866Y-114439271D01*
X149950205Y-114467895D01*
X150222917Y-114443076D01*
X150485614Y-114365760D01*
X150728291Y-114238891D01*
X150941705Y-114067303D01*
X151117725Y-113857530D01*
X151230694Y-113652040D01*
X151331320Y-113841288D01*
X151504394Y-114053498D01*
X151715391Y-114228050D01*
X151956273Y-114358294D01*
X152217866Y-114439271D01*
X152490205Y-114467895D01*
X152762917Y-114443076D01*
X153025614Y-114365760D01*
X153268291Y-114238891D01*
X153481705Y-114067303D01*
X153657725Y-113857530D01*
X153770694Y-113652040D01*
X153871320Y-113841288D01*
X154044394Y-114053498D01*
X154255391Y-114228050D01*
X154496273Y-114358294D01*
X154757866Y-114439271D01*
X155030205Y-114467895D01*
X155302917Y-114443076D01*
X155565614Y-114365760D01*
X155808291Y-114238891D01*
X156021705Y-114067303D01*
X156197725Y-113857530D01*
X156310694Y-113652040D01*
X156411320Y-113841288D01*
X156584394Y-114053498D01*
X156795391Y-114228050D01*
X157036273Y-114358294D01*
X157297866Y-114439271D01*
X157570205Y-114467895D01*
X157842917Y-114443076D01*
X158105614Y-114365760D01*
X158348291Y-114238891D01*
X158561705Y-114067303D01*
X158737725Y-113857530D01*
X158850694Y-113652040D01*
X158951320Y-113841288D01*
X159124394Y-114053498D01*
X159335391Y-114228050D01*
X159576273Y-114358294D01*
X159837866Y-114439271D01*
X160110205Y-114467895D01*
X160382917Y-114443076D01*
X160645614Y-114365760D01*
X160888291Y-114238891D01*
X161101705Y-114067303D01*
X161277725Y-113857530D01*
X161390694Y-113652040D01*
X161491320Y-113841288D01*
X161664394Y-114053498D01*
X161875391Y-114228050D01*
X162116273Y-114358294D01*
X162377866Y-114439271D01*
X162650205Y-114467895D01*
X162922917Y-114443076D01*
X163185614Y-114365760D01*
X163428291Y-114238891D01*
X163641705Y-114067303D01*
X163817725Y-113857530D01*
X163930694Y-113652040D01*
X164031320Y-113841288D01*
X164204394Y-114053498D01*
X164415391Y-114228050D01*
X164656273Y-114358294D01*
X164917866Y-114439271D01*
X165190205Y-114467895D01*
X165462917Y-114443076D01*
X165725614Y-114365760D01*
X165968291Y-114238891D01*
X166181705Y-114067303D01*
X166339470Y-113879285D01*
X166341999Y-113911000D01*
X166396368Y-114086564D01*
X166497496Y-114240031D01*
X166637374Y-114359248D01*
X166804928Y-114434776D01*
X166986890Y-114460635D01*
X168493110Y-114460635D01*
X168596620Y-114452381D01*
X168772184Y-114398012D01*
X168925651Y-114296884D01*
X169044868Y-114157006D01*
X169120396Y-113989452D01*
X169146255Y-113807490D01*
X169146255Y-110792510D01*
X169138001Y-110689000D01*
X169083632Y-110513436D01*
X168982504Y-110359969D01*
X168842626Y-110240752D01*
X168675072Y-110165224D01*
X168493110Y-110139365D01*
X167016000Y-110139365D01*
X167016000Y-108037000D01*
X167007888Y-107954268D01*
X167000642Y-107871444D01*
X166999322Y-107866900D01*
X166998860Y-107862189D01*
X166974844Y-107782646D01*
X166951638Y-107702769D01*
X166949457Y-107698562D01*
X166948091Y-107694037D01*
X166909103Y-107620711D01*
X166870804Y-107546825D01*
X166867849Y-107543124D01*
X166865629Y-107538948D01*
X166813093Y-107474532D01*
X166761220Y-107409552D01*
X166754728Y-107402969D01*
X166754614Y-107402829D01*
X166754485Y-107402722D01*
X166752396Y-107400604D01*
X166749396Y-107397604D01*
X166685141Y-107344824D01*
X166621470Y-107291398D01*
X166617324Y-107289119D01*
X166613666Y-107286114D01*
X166540407Y-107246833D01*
X166467548Y-107206778D01*
X166463035Y-107205346D01*
X166458866Y-107203111D01*
X166398232Y-107184573D01*
X166446062Y-107136743D01*
X166490140Y-107083082D01*
X166534756Y-107029910D01*
X166536659Y-107026449D01*
X166539169Y-107023393D01*
X166571979Y-106962202D01*
X166605423Y-106901368D01*
X166606619Y-106897599D01*
X166608485Y-106894118D01*
X166628779Y-106827739D01*
X166649777Y-106761547D01*
X166650217Y-106757621D01*
X166651373Y-106753841D01*
X166658386Y-106684796D01*
X166666128Y-106615775D01*
X166666182Y-106608045D01*
X166666196Y-106607905D01*
X166666184Y-106607774D01*
X166666201Y-106605281D01*
X166666201Y-102992801D01*
X166661759Y-102947499D01*
X166664843Y-102943880D01*
X166678167Y-103062666D01*
X166806649Y-103467692D01*
X167011354Y-103840049D01*
X167284484Y-104165553D01*
X167615638Y-104431807D01*
X167992200Y-104628669D01*
X168399827Y-104748641D01*
X168822995Y-104787152D01*
X169245583Y-104742736D01*
X169651496Y-104617085D01*
X170025273Y-104414985D01*
X170352676Y-104144133D01*
X170621235Y-103814847D01*
X170775000Y-103525657D01*
X170775000Y-114675000D01*
X133525000Y-114675000D01*
X133525000Y-113783810D01*
X133608913Y-113917053D01*
X133798561Y-114117239D01*
X134023620Y-114276580D01*
X134275440Y-114388953D01*
X134402295Y-114421048D01*
X134620000Y-114290953D01*
X134620000Y-112400000D01*
X134600000Y-112400000D01*
X134600000Y-112200000D01*
X134620000Y-112200000D01*
X134620000Y-110309047D01*
X134402295Y-110178952D01*
X134275440Y-110211047D01*
X134023620Y-110323420D01*
X133798561Y-110482761D01*
X133608913Y-110682947D01*
X133525000Y-110816190D01*
X133525000Y-101697080D01*
X133581572Y-101732587D01*
G36*
X161644000Y-108612000D02*
X161664000Y-108612000D01*
X161664000Y-108812000D01*
X161644000Y-108812000D01*
X161644000Y-108832000D01*
X161444000Y-108832000D01*
X161444000Y-108812000D01*
X161424000Y-108812000D01*
X161424000Y-108612000D01*
X161444000Y-108612000D01*
X161444000Y-108592000D01*
X161644000Y-108592000D01*
X161644000Y-108612000D01*
X161644000Y-108612000D01*
G37*
X161644000Y-108612000D02*
X161664000Y-108612000D01*
X161664000Y-108812000D01*
X161644000Y-108812000D01*
X161644000Y-108832000D01*
X161444000Y-108832000D01*
X161444000Y-108812000D01*
X161424000Y-108812000D01*
X161424000Y-108612000D01*
X161444000Y-108612000D01*
X161444000Y-108592000D01*
X161644000Y-108592000D01*
X161644000Y-108612000D01*
G36*
X145900400Y-107408983D02*
X145798490Y-107417109D01*
X145622926Y-107471478D01*
X145469459Y-107572606D01*
X145350242Y-107712484D01*
X145274714Y-107880038D01*
X145263294Y-107960400D01*
X144702787Y-107960400D01*
X144677854Y-107834481D01*
X144606859Y-107662234D01*
X144503760Y-107507057D01*
X144388528Y-107391018D01*
X144396220Y-107352349D01*
X144396220Y-106851060D01*
X144233720Y-106688560D01*
X143749125Y-106688560D01*
X143749125Y-106488560D01*
X144233720Y-106488560D01*
X144300327Y-106421953D01*
X144309484Y-106429758D01*
X144477038Y-106505286D01*
X144659000Y-106531145D01*
X145409000Y-106531145D01*
X145512510Y-106522891D01*
X145688074Y-106468522D01*
X145841541Y-106367394D01*
X145900400Y-106298334D01*
X145900400Y-107408983D01*
X145900400Y-107408983D01*
G37*
X145900400Y-107408983D02*
X145798490Y-107417109D01*
X145622926Y-107471478D01*
X145469459Y-107572606D01*
X145350242Y-107712484D01*
X145274714Y-107880038D01*
X145263294Y-107960400D01*
X144702787Y-107960400D01*
X144677854Y-107834481D01*
X144606859Y-107662234D01*
X144503760Y-107507057D01*
X144388528Y-107391018D01*
X144396220Y-107352349D01*
X144396220Y-106851060D01*
X144233720Y-106688560D01*
X143749125Y-106688560D01*
X143749125Y-106488560D01*
X144233720Y-106488560D01*
X144300327Y-106421953D01*
X144309484Y-106429758D01*
X144477038Y-106505286D01*
X144659000Y-106531145D01*
X145409000Y-106531145D01*
X145512510Y-106522891D01*
X145688074Y-106468522D01*
X145841541Y-106367394D01*
X145900400Y-106298334D01*
X145900400Y-107408983D01*
G36*
X164658484Y-103034758D02*
X164826038Y-103110286D01*
X165008000Y-103136145D01*
X165009719Y-103136145D01*
X165025851Y-103155925D01*
X165069170Y-103210189D01*
X165074593Y-103215688D01*
X165074687Y-103215803D01*
X165074794Y-103215891D01*
X165076539Y-103217661D01*
X165163001Y-103304123D01*
X165163001Y-103709440D01*
X165043469Y-103732242D01*
X164870730Y-103802033D01*
X164714837Y-103904046D01*
X164581727Y-104034397D01*
X164476471Y-104188119D01*
X164403078Y-104359359D01*
X164364343Y-104541592D01*
X164361742Y-104727879D01*
X164395373Y-104911123D01*
X164412129Y-104953443D01*
X164411242Y-104954484D01*
X164335714Y-105122038D01*
X164335048Y-105126726D01*
X164303522Y-105024926D01*
X164238000Y-104925493D01*
X164238000Y-104816500D01*
X164075500Y-104654000D01*
X163948980Y-104654000D01*
X163859864Y-104671726D01*
X163713000Y-104650855D01*
X163063000Y-104650855D01*
X162959490Y-104659109D01*
X162783926Y-104713478D01*
X162702911Y-104766864D01*
X162643516Y-104716242D01*
X162475962Y-104640714D01*
X162294000Y-104614855D01*
X161513647Y-104614855D01*
X161430792Y-104532000D01*
X162052000Y-104532000D01*
X162136289Y-104523736D01*
X162220643Y-104516059D01*
X162223671Y-104515168D01*
X162226811Y-104514860D01*
X162307890Y-104490380D01*
X162389146Y-104466465D01*
X162391943Y-104465003D01*
X162394963Y-104464091D01*
X162469708Y-104424349D01*
X162544807Y-104385088D01*
X162547268Y-104383109D01*
X162550052Y-104381629D01*
X162615701Y-104328088D01*
X162681697Y-104275025D01*
X162683723Y-104272611D01*
X162686171Y-104270614D01*
X162740221Y-104205279D01*
X162794602Y-104140470D01*
X162796120Y-104137708D01*
X162798134Y-104135274D01*
X162838433Y-104060742D01*
X162879222Y-103986548D01*
X162880141Y-103983651D01*
X163727647Y-103136145D01*
X164308000Y-103136145D01*
X164411510Y-103127891D01*
X164587074Y-103073522D01*
X164652997Y-103030082D01*
X164658484Y-103034758D01*
X164658484Y-103034758D01*
G37*
X164658484Y-103034758D02*
X164826038Y-103110286D01*
X165008000Y-103136145D01*
X165009719Y-103136145D01*
X165025851Y-103155925D01*
X165069170Y-103210189D01*
X165074593Y-103215688D01*
X165074687Y-103215803D01*
X165074794Y-103215891D01*
X165076539Y-103217661D01*
X165163001Y-103304123D01*
X165163001Y-103709440D01*
X165043469Y-103732242D01*
X164870730Y-103802033D01*
X164714837Y-103904046D01*
X164581727Y-104034397D01*
X164476471Y-104188119D01*
X164403078Y-104359359D01*
X164364343Y-104541592D01*
X164361742Y-104727879D01*
X164395373Y-104911123D01*
X164412129Y-104953443D01*
X164411242Y-104954484D01*
X164335714Y-105122038D01*
X164335048Y-105126726D01*
X164303522Y-105024926D01*
X164238000Y-104925493D01*
X164238000Y-104816500D01*
X164075500Y-104654000D01*
X163948980Y-104654000D01*
X163859864Y-104671726D01*
X163713000Y-104650855D01*
X163063000Y-104650855D01*
X162959490Y-104659109D01*
X162783926Y-104713478D01*
X162702911Y-104766864D01*
X162643516Y-104716242D01*
X162475962Y-104640714D01*
X162294000Y-104614855D01*
X161513647Y-104614855D01*
X161430792Y-104532000D01*
X162052000Y-104532000D01*
X162136289Y-104523736D01*
X162220643Y-104516059D01*
X162223671Y-104515168D01*
X162226811Y-104514860D01*
X162307890Y-104490380D01*
X162389146Y-104466465D01*
X162391943Y-104465003D01*
X162394963Y-104464091D01*
X162469708Y-104424349D01*
X162544807Y-104385088D01*
X162547268Y-104383109D01*
X162550052Y-104381629D01*
X162615701Y-104328088D01*
X162681697Y-104275025D01*
X162683723Y-104272611D01*
X162686171Y-104270614D01*
X162740221Y-104205279D01*
X162794602Y-104140470D01*
X162796120Y-104137708D01*
X162798134Y-104135274D01*
X162838433Y-104060742D01*
X162879222Y-103986548D01*
X162880141Y-103983651D01*
X163727647Y-103136145D01*
X164308000Y-103136145D01*
X164411510Y-103127891D01*
X164587074Y-103073522D01*
X164652997Y-103030082D01*
X164658484Y-103034758D01*
G36*
X139960000Y-97000000D02*
X139980000Y-97000000D01*
X139980000Y-97200000D01*
X139960000Y-97200000D01*
X139960000Y-99090953D01*
X140177705Y-99221048D01*
X140304560Y-99188953D01*
X140556380Y-99076580D01*
X140781439Y-98917239D01*
X140971087Y-98717053D01*
X141118037Y-98483715D01*
X141130387Y-98451461D01*
X141231320Y-98641288D01*
X141404394Y-98853498D01*
X141615391Y-99028050D01*
X141856273Y-99158294D01*
X142117866Y-99239271D01*
X142390205Y-99267895D01*
X142662917Y-99243076D01*
X142925614Y-99165760D01*
X143168291Y-99038891D01*
X143381705Y-98867303D01*
X143557725Y-98657530D01*
X143670694Y-98452040D01*
X143771320Y-98641288D01*
X143944394Y-98853498D01*
X144155391Y-99028050D01*
X144396273Y-99158294D01*
X144657866Y-99239271D01*
X144930205Y-99267895D01*
X145202917Y-99243076D01*
X145465614Y-99165760D01*
X145708291Y-99038891D01*
X145921705Y-98867303D01*
X146097725Y-98657530D01*
X146210694Y-98452040D01*
X146311320Y-98641288D01*
X146484394Y-98853498D01*
X146695391Y-99028050D01*
X146711998Y-99037029D01*
X146711998Y-99120498D01*
X146549500Y-98958000D01*
X146372980Y-98958000D01*
X146247402Y-98982979D01*
X146129109Y-99031978D01*
X146022649Y-99103112D01*
X145932112Y-99193649D01*
X145860977Y-99300110D01*
X145811979Y-99418402D01*
X145787000Y-99543981D01*
X145787000Y-99945500D01*
X145949500Y-100108000D01*
X146712000Y-100108000D01*
X146712000Y-100088000D01*
X146912000Y-100088000D01*
X146912000Y-100108000D01*
X147674500Y-100108000D01*
X147837000Y-99945500D01*
X147837000Y-99543981D01*
X147812021Y-99418402D01*
X147763023Y-99300110D01*
X147725946Y-99244620D01*
X147742917Y-99243076D01*
X148005614Y-99165760D01*
X148248291Y-99038891D01*
X148461705Y-98867303D01*
X148637725Y-98657530D01*
X148750694Y-98452040D01*
X148851320Y-98641288D01*
X149024394Y-98853498D01*
X149235391Y-99028050D01*
X149251998Y-99037029D01*
X149251998Y-99120498D01*
X149089500Y-98958000D01*
X148912980Y-98958000D01*
X148787402Y-98982979D01*
X148669109Y-99031978D01*
X148562649Y-99103112D01*
X148472112Y-99193649D01*
X148400977Y-99300110D01*
X148351979Y-99418402D01*
X148327000Y-99543981D01*
X148327000Y-99945500D01*
X148489500Y-100108000D01*
X149252000Y-100108000D01*
X149252000Y-100088000D01*
X149452000Y-100088000D01*
X149452000Y-100108000D01*
X150214500Y-100108000D01*
X150377000Y-99945500D01*
X150377000Y-99543981D01*
X150352021Y-99418402D01*
X150303023Y-99300110D01*
X150265946Y-99244620D01*
X150282917Y-99243076D01*
X150545614Y-99165760D01*
X150788291Y-99038891D01*
X151001705Y-98867303D01*
X151177725Y-98657530D01*
X151290694Y-98452040D01*
X151391320Y-98641288D01*
X151564394Y-98853498D01*
X151775391Y-99028050D01*
X152016273Y-99158294D01*
X152277866Y-99239271D01*
X152550205Y-99267895D01*
X152822917Y-99243076D01*
X153085614Y-99165760D01*
X153328291Y-99038891D01*
X153541705Y-98867303D01*
X153717725Y-98657530D01*
X153830694Y-98452040D01*
X153931320Y-98641288D01*
X154104394Y-98853498D01*
X154315391Y-99028050D01*
X154556273Y-99158294D01*
X154817866Y-99239271D01*
X155090205Y-99267895D01*
X155362917Y-99243076D01*
X155625614Y-99165760D01*
X155868291Y-99038891D01*
X156081705Y-98867303D01*
X156257725Y-98657530D01*
X156370694Y-98452040D01*
X156471320Y-98641288D01*
X156644394Y-98853498D01*
X156855391Y-99028050D01*
X157096273Y-99158294D01*
X157357866Y-99239271D01*
X157630205Y-99267895D01*
X157902917Y-99243076D01*
X158165614Y-99165760D01*
X158408291Y-99038891D01*
X158621705Y-98867303D01*
X158797725Y-98657530D01*
X158910694Y-98452040D01*
X159011320Y-98641288D01*
X159184394Y-98853498D01*
X159335924Y-98978855D01*
X158811000Y-98978855D01*
X158707490Y-98987109D01*
X158531926Y-99041478D01*
X158378459Y-99142606D01*
X158259242Y-99282484D01*
X158183714Y-99450038D01*
X158157855Y-99632000D01*
X158157855Y-100253258D01*
X158139918Y-100254827D01*
X158136125Y-100255929D01*
X158132188Y-100256315D01*
X158065681Y-100276395D01*
X157999056Y-100295751D01*
X157995549Y-100297569D01*
X157991763Y-100298712D01*
X157930449Y-100331313D01*
X157868824Y-100363256D01*
X157865735Y-100365722D01*
X157862246Y-100367577D01*
X157808481Y-100411427D01*
X157754186Y-100454770D01*
X157748681Y-100460199D01*
X157748572Y-100460288D01*
X157748488Y-100460389D01*
X157746714Y-100462139D01*
X155950853Y-102258001D01*
X153592787Y-102258001D01*
X153567854Y-102132082D01*
X153496859Y-101959835D01*
X153393760Y-101804658D01*
X153262483Y-101672461D01*
X153108029Y-101568281D01*
X152936282Y-101496085D01*
X152753783Y-101458623D01*
X152725484Y-101458426D01*
X152710895Y-101450603D01*
X152650096Y-101417178D01*
X152646331Y-101415984D01*
X152642846Y-101414115D01*
X152576421Y-101393807D01*
X152510275Y-101372824D01*
X152506349Y-101372384D01*
X152502569Y-101371228D01*
X152433528Y-101364215D01*
X152364503Y-101356473D01*
X152356772Y-101356419D01*
X152356632Y-101356405D01*
X152356501Y-101356417D01*
X152354009Y-101356400D01*
X150356998Y-101356400D01*
X150317522Y-101228926D01*
X150272821Y-101161090D01*
X150303023Y-101115890D01*
X150352021Y-100997598D01*
X150377000Y-100872019D01*
X150377000Y-100470500D01*
X150214500Y-100308000D01*
X149452000Y-100308000D01*
X149452000Y-100328000D01*
X149252000Y-100328000D01*
X149252000Y-100308000D01*
X148489500Y-100308000D01*
X148327000Y-100470500D01*
X148327000Y-100611561D01*
X148296828Y-100586244D01*
X148293367Y-100584341D01*
X148290311Y-100581831D01*
X148229085Y-100549002D01*
X148168286Y-100515577D01*
X148164521Y-100514383D01*
X148161036Y-100512514D01*
X148094611Y-100492206D01*
X148028465Y-100471223D01*
X148024539Y-100470783D01*
X148020759Y-100469627D01*
X147951718Y-100462614D01*
X147882693Y-100454872D01*
X147874962Y-100454818D01*
X147874822Y-100454804D01*
X147874691Y-100454816D01*
X147872199Y-100454799D01*
X147821299Y-100454799D01*
X147674500Y-100308000D01*
X146912000Y-100308000D01*
X146912000Y-100328000D01*
X146712000Y-100328000D01*
X146712000Y-100308000D01*
X145949500Y-100308000D01*
X145787856Y-100469644D01*
X145723132Y-100489185D01*
X145656481Y-100508549D01*
X145652972Y-100510368D01*
X145649189Y-100511510D01*
X145587854Y-100544122D01*
X145526250Y-100576055D01*
X145523165Y-100578518D01*
X145519672Y-100580375D01*
X145465873Y-100624252D01*
X145411611Y-100667569D01*
X145406107Y-100672997D01*
X145405998Y-100673086D01*
X145405914Y-100673187D01*
X145404139Y-100674938D01*
X144722678Y-101356400D01*
X144396220Y-101356400D01*
X144396220Y-101100500D01*
X144233720Y-100938000D01*
X143658590Y-100938000D01*
X143658590Y-100958000D01*
X143603480Y-100958000D01*
X143583480Y-100938000D01*
X142800720Y-100938000D01*
X142800720Y-100738000D01*
X143583480Y-100738000D01*
X143658590Y-100662890D01*
X143658590Y-100738000D01*
X144233720Y-100738000D01*
X144396220Y-100575500D01*
X144396220Y-100074211D01*
X144371241Y-99948632D01*
X144322243Y-99830340D01*
X144251108Y-99723879D01*
X144160571Y-99633342D01*
X144054111Y-99562208D01*
X143935818Y-99513209D01*
X143819290Y-99490030D01*
X143658590Y-99650730D01*
X143658590Y-99810266D01*
X143600868Y-99723879D01*
X143510331Y-99633342D01*
X143403871Y-99562208D01*
X143388399Y-99555799D01*
X143322630Y-99490030D01*
X143245840Y-99505305D01*
X143169050Y-99490030D01*
X143103281Y-99555799D01*
X143087809Y-99562208D01*
X142981349Y-99633342D01*
X142920720Y-99693971D01*
X142860091Y-99633342D01*
X142753631Y-99562208D01*
X142738159Y-99555799D01*
X142672390Y-99490030D01*
X142595600Y-99505305D01*
X142518810Y-99490030D01*
X142453041Y-99555799D01*
X142437569Y-99562208D01*
X142331109Y-99633342D01*
X142270786Y-99693665D01*
X142145016Y-99586472D01*
X142096905Y-99564785D01*
X142022150Y-99490030D01*
X141942201Y-99505933D01*
X141817631Y-99488230D01*
X142020350Y-99488230D01*
X142022150Y-99490030D01*
X142031200Y-99488230D01*
X142509760Y-99488230D01*
X142518810Y-99490030D01*
X142520610Y-99488230D01*
X142670590Y-99488230D01*
X142672390Y-99490030D01*
X142681440Y-99488230D01*
X143160000Y-99488230D01*
X143169050Y-99490030D01*
X143170850Y-99488230D01*
X143320830Y-99488230D01*
X143322630Y-99490030D01*
X143331680Y-99488230D01*
X143810240Y-99488230D01*
X143819290Y-99490030D01*
X143821090Y-99488230D01*
X143810240Y-99488230D01*
X143331680Y-99488230D01*
X143320830Y-99488230D01*
X143170850Y-99488230D01*
X143160000Y-99488230D01*
X142681440Y-99488230D01*
X142670590Y-99488230D01*
X142520610Y-99488230D01*
X142509760Y-99488230D01*
X142031200Y-99488230D01*
X142020350Y-99488230D01*
X141817631Y-99488230D01*
X141795500Y-99485085D01*
X141444980Y-99485085D01*
X141341470Y-99493339D01*
X141298021Y-99506794D01*
X141145260Y-99485085D01*
X140794740Y-99485085D01*
X140691230Y-99493339D01*
X140647781Y-99506794D01*
X140495020Y-99485085D01*
X140144500Y-99485085D01*
X140040990Y-99493339D01*
X139997541Y-99506794D01*
X139844780Y-99485085D01*
X139494260Y-99485085D01*
X139390750Y-99493339D01*
X139349096Y-99506239D01*
X139267610Y-99490030D01*
X139199780Y-99557860D01*
X139061719Y-99648836D01*
X138942502Y-99788714D01*
X138931650Y-99812788D01*
X138931650Y-99650730D01*
X138770950Y-99490030D01*
X138654422Y-99513209D01*
X138536129Y-99562208D01*
X138429669Y-99633342D01*
X138339132Y-99723879D01*
X138267997Y-99830340D01*
X138218999Y-99948632D01*
X138194020Y-100074211D01*
X138194020Y-100575500D01*
X138356520Y-100738000D01*
X138841115Y-100738000D01*
X138841115Y-100938000D01*
X138356520Y-100938000D01*
X138194020Y-101100500D01*
X138194020Y-101601789D01*
X138218999Y-101727368D01*
X138267997Y-101845660D01*
X138339132Y-101952121D01*
X138429669Y-102042658D01*
X138536129Y-102113792D01*
X138654422Y-102162791D01*
X138770950Y-102185970D01*
X138919278Y-102037642D01*
X138919278Y-102187770D01*
X139015797Y-102187770D01*
X139039175Y-102232871D01*
X139041641Y-102235960D01*
X139043496Y-102239449D01*
X139087371Y-102293245D01*
X139130690Y-102347509D01*
X139136113Y-102353008D01*
X139136207Y-102353123D01*
X139136314Y-102353211D01*
X139138059Y-102354981D01*
X139422538Y-102639461D01*
X139476199Y-102683539D01*
X139529371Y-102728155D01*
X139532832Y-102730058D01*
X139535888Y-102732568D01*
X139597079Y-102765378D01*
X139657913Y-102798822D01*
X139661682Y-102800018D01*
X139665163Y-102801884D01*
X139731542Y-102822178D01*
X139797734Y-102843176D01*
X139801660Y-102843616D01*
X139805440Y-102844772D01*
X139874485Y-102851785D01*
X139943506Y-102859527D01*
X139951236Y-102859581D01*
X139951376Y-102859595D01*
X139951507Y-102859583D01*
X139954000Y-102859600D01*
X144009000Y-102859600D01*
X144009000Y-103115500D01*
X144171500Y-103278000D01*
X144934000Y-103278000D01*
X144934000Y-103258000D01*
X145134000Y-103258000D01*
X145134000Y-103278000D01*
X145154000Y-103278000D01*
X145154000Y-103478000D01*
X145134000Y-103478000D01*
X145134000Y-103498000D01*
X144934000Y-103498000D01*
X144934000Y-103478000D01*
X144171500Y-103478000D01*
X144009000Y-103640500D01*
X144009000Y-104042019D01*
X144033979Y-104167598D01*
X144082977Y-104285890D01*
X144109594Y-104325725D01*
X144107242Y-104328484D01*
X144084922Y-104378000D01*
X141464792Y-104378000D01*
X140809636Y-103722844D01*
X140796859Y-103691844D01*
X140693760Y-103536667D01*
X140562483Y-103404470D01*
X140408029Y-103300290D01*
X140236282Y-103228094D01*
X140053783Y-103190632D01*
X139867482Y-103189332D01*
X139684478Y-103224242D01*
X139511739Y-103294033D01*
X139355846Y-103396046D01*
X139226714Y-103522501D01*
X138925487Y-103221275D01*
X138921942Y-103213779D01*
X138919648Y-103209015D01*
X138916712Y-103204189D01*
X138914690Y-103198913D01*
X138885725Y-103152867D01*
X138869616Y-103121790D01*
X138862181Y-103112476D01*
X138858598Y-103106185D01*
X138853539Y-103100337D01*
X138843577Y-103083960D01*
X138839761Y-103079797D01*
X138836752Y-103075014D01*
X138830279Y-103066781D01*
X138826984Y-103062648D01*
X138801292Y-103036202D01*
X138778296Y-103007396D01*
X138770943Y-102999939D01*
X138344719Y-102573715D01*
X138316251Y-102550331D01*
X138290186Y-102524289D01*
X138282045Y-102517702D01*
X138277910Y-102514404D01*
X138273156Y-102511320D01*
X138269026Y-102507426D01*
X138252360Y-102496966D01*
X138246867Y-102492081D01*
X138241479Y-102488914D01*
X138231610Y-102480807D01*
X138200006Y-102463861D01*
X138155115Y-102434736D01*
X138149851Y-102432633D01*
X138145045Y-102429617D01*
X138135642Y-102425008D01*
X138130877Y-102422714D01*
X138125564Y-102420768D01*
X138120683Y-102417899D01*
X138102248Y-102411461D01*
X138095921Y-102407981D01*
X138071494Y-102400227D01*
X138070264Y-102399597D01*
X138062778Y-102397461D01*
X138058033Y-102395955D01*
X138019186Y-102380436D01*
X138017552Y-102380131D01*
X137971876Y-102334455D01*
X137968274Y-102326844D01*
X137965979Y-102322080D01*
X137963102Y-102317352D01*
X137961117Y-102312172D01*
X137932127Y-102266075D01*
X137916003Y-102234968D01*
X137908617Y-102225715D01*
X137905066Y-102219478D01*
X137899924Y-102213531D01*
X137889887Y-102197038D01*
X137886144Y-102192956D01*
X137883193Y-102188264D01*
X137882805Y-102187770D01*
X138769150Y-102187770D01*
X138780000Y-102187770D01*
X138770950Y-102185970D01*
X138769150Y-102187770D01*
X137882805Y-102187770D01*
X137876722Y-102180030D01*
X137873426Y-102175896D01*
X137847712Y-102149422D01*
X137824683Y-102120574D01*
X137817330Y-102113118D01*
X135192442Y-99488230D01*
X138769150Y-99488230D01*
X138770950Y-99490030D01*
X138780000Y-99488230D01*
X139258560Y-99488230D01*
X139267610Y-99490030D01*
X139269410Y-99488230D01*
X139258560Y-99488230D01*
X138780000Y-99488230D01*
X138769150Y-99488230D01*
X135192442Y-99488230D01*
X134964847Y-99260635D01*
X135533110Y-99260635D01*
X135636620Y-99252381D01*
X135812184Y-99198012D01*
X135965651Y-99096884D01*
X136084868Y-98957006D01*
X136160396Y-98789452D01*
X136176981Y-98672751D01*
X136324394Y-98853498D01*
X136535391Y-99028050D01*
X136776273Y-99158294D01*
X137037866Y-99239271D01*
X137310205Y-99267895D01*
X137582917Y-99243076D01*
X137845614Y-99165760D01*
X138088291Y-99038891D01*
X138301705Y-98867303D01*
X138477725Y-98657530D01*
X138590188Y-98452961D01*
X138601963Y-98483715D01*
X138748913Y-98717053D01*
X138938561Y-98917239D01*
X139163620Y-99076580D01*
X139415440Y-99188953D01*
X139542295Y-99221048D01*
X139760000Y-99090953D01*
X139760000Y-97200000D01*
X139740000Y-97200000D01*
X139740000Y-97000000D01*
X139760000Y-97000000D01*
X139760000Y-96980000D01*
X139960000Y-96980000D01*
X139960000Y-97000000D01*
X139960000Y-97000000D01*
G37*
X139960000Y-97000000D02*
X139980000Y-97000000D01*
X139980000Y-97200000D01*
X139960000Y-97200000D01*
X139960000Y-99090953D01*
X140177705Y-99221048D01*
X140304560Y-99188953D01*
X140556380Y-99076580D01*
X140781439Y-98917239D01*
X140971087Y-98717053D01*
X141118037Y-98483715D01*
X141130387Y-98451461D01*
X141231320Y-98641288D01*
X141404394Y-98853498D01*
X141615391Y-99028050D01*
X141856273Y-99158294D01*
X142117866Y-99239271D01*
X142390205Y-99267895D01*
X142662917Y-99243076D01*
X142925614Y-99165760D01*
X143168291Y-99038891D01*
X143381705Y-98867303D01*
X143557725Y-98657530D01*
X143670694Y-98452040D01*
X143771320Y-98641288D01*
X143944394Y-98853498D01*
X144155391Y-99028050D01*
X144396273Y-99158294D01*
X144657866Y-99239271D01*
X144930205Y-99267895D01*
X145202917Y-99243076D01*
X145465614Y-99165760D01*
X145708291Y-99038891D01*
X145921705Y-98867303D01*
X146097725Y-98657530D01*
X146210694Y-98452040D01*
X146311320Y-98641288D01*
X146484394Y-98853498D01*
X146695391Y-99028050D01*
X146711998Y-99037029D01*
X146711998Y-99120498D01*
X146549500Y-98958000D01*
X146372980Y-98958000D01*
X146247402Y-98982979D01*
X146129109Y-99031978D01*
X146022649Y-99103112D01*
X145932112Y-99193649D01*
X145860977Y-99300110D01*
X145811979Y-99418402D01*
X145787000Y-99543981D01*
X145787000Y-99945500D01*
X145949500Y-100108000D01*
X146712000Y-100108000D01*
X146712000Y-100088000D01*
X146912000Y-100088000D01*
X146912000Y-100108000D01*
X147674500Y-100108000D01*
X147837000Y-99945500D01*
X147837000Y-99543981D01*
X147812021Y-99418402D01*
X147763023Y-99300110D01*
X147725946Y-99244620D01*
X147742917Y-99243076D01*
X148005614Y-99165760D01*
X148248291Y-99038891D01*
X148461705Y-98867303D01*
X148637725Y-98657530D01*
X148750694Y-98452040D01*
X148851320Y-98641288D01*
X149024394Y-98853498D01*
X149235391Y-99028050D01*
X149251998Y-99037029D01*
X149251998Y-99120498D01*
X149089500Y-98958000D01*
X148912980Y-98958000D01*
X148787402Y-98982979D01*
X148669109Y-99031978D01*
X148562649Y-99103112D01*
X148472112Y-99193649D01*
X148400977Y-99300110D01*
X148351979Y-99418402D01*
X148327000Y-99543981D01*
X148327000Y-99945500D01*
X148489500Y-100108000D01*
X149252000Y-100108000D01*
X149252000Y-100088000D01*
X149452000Y-100088000D01*
X149452000Y-100108000D01*
X150214500Y-100108000D01*
X150377000Y-99945500D01*
X150377000Y-99543981D01*
X150352021Y-99418402D01*
X150303023Y-99300110D01*
X150265946Y-99244620D01*
X150282917Y-99243076D01*
X150545614Y-99165760D01*
X150788291Y-99038891D01*
X151001705Y-98867303D01*
X151177725Y-98657530D01*
X151290694Y-98452040D01*
X151391320Y-98641288D01*
X151564394Y-98853498D01*
X151775391Y-99028050D01*
X152016273Y-99158294D01*
X152277866Y-99239271D01*
X152550205Y-99267895D01*
X152822917Y-99243076D01*
X153085614Y-99165760D01*
X153328291Y-99038891D01*
X153541705Y-98867303D01*
X153717725Y-98657530D01*
X153830694Y-98452040D01*
X153931320Y-98641288D01*
X154104394Y-98853498D01*
X154315391Y-99028050D01*
X154556273Y-99158294D01*
X154817866Y-99239271D01*
X155090205Y-99267895D01*
X155362917Y-99243076D01*
X155625614Y-99165760D01*
X155868291Y-99038891D01*
X156081705Y-98867303D01*
X156257725Y-98657530D01*
X156370694Y-98452040D01*
X156471320Y-98641288D01*
X156644394Y-98853498D01*
X156855391Y-99028050D01*
X157096273Y-99158294D01*
X157357866Y-99239271D01*
X157630205Y-99267895D01*
X157902917Y-99243076D01*
X158165614Y-99165760D01*
X158408291Y-99038891D01*
X158621705Y-98867303D01*
X158797725Y-98657530D01*
X158910694Y-98452040D01*
X159011320Y-98641288D01*
X159184394Y-98853498D01*
X159335924Y-98978855D01*
X158811000Y-98978855D01*
X158707490Y-98987109D01*
X158531926Y-99041478D01*
X158378459Y-99142606D01*
X158259242Y-99282484D01*
X158183714Y-99450038D01*
X158157855Y-99632000D01*
X158157855Y-100253258D01*
X158139918Y-100254827D01*
X158136125Y-100255929D01*
X158132188Y-100256315D01*
X158065681Y-100276395D01*
X157999056Y-100295751D01*
X157995549Y-100297569D01*
X157991763Y-100298712D01*
X157930449Y-100331313D01*
X157868824Y-100363256D01*
X157865735Y-100365722D01*
X157862246Y-100367577D01*
X157808481Y-100411427D01*
X157754186Y-100454770D01*
X157748681Y-100460199D01*
X157748572Y-100460288D01*
X157748488Y-100460389D01*
X157746714Y-100462139D01*
X155950853Y-102258001D01*
X153592787Y-102258001D01*
X153567854Y-102132082D01*
X153496859Y-101959835D01*
X153393760Y-101804658D01*
X153262483Y-101672461D01*
X153108029Y-101568281D01*
X152936282Y-101496085D01*
X152753783Y-101458623D01*
X152725484Y-101458426D01*
X152710895Y-101450603D01*
X152650096Y-101417178D01*
X152646331Y-101415984D01*
X152642846Y-101414115D01*
X152576421Y-101393807D01*
X152510275Y-101372824D01*
X152506349Y-101372384D01*
X152502569Y-101371228D01*
X152433528Y-101364215D01*
X152364503Y-101356473D01*
X152356772Y-101356419D01*
X152356632Y-101356405D01*
X152356501Y-101356417D01*
X152354009Y-101356400D01*
X150356998Y-101356400D01*
X150317522Y-101228926D01*
X150272821Y-101161090D01*
X150303023Y-101115890D01*
X150352021Y-100997598D01*
X150377000Y-100872019D01*
X150377000Y-100470500D01*
X150214500Y-100308000D01*
X149452000Y-100308000D01*
X149452000Y-100328000D01*
X149252000Y-100328000D01*
X149252000Y-100308000D01*
X148489500Y-100308000D01*
X148327000Y-100470500D01*
X148327000Y-100611561D01*
X148296828Y-100586244D01*
X148293367Y-100584341D01*
X148290311Y-100581831D01*
X148229085Y-100549002D01*
X148168286Y-100515577D01*
X148164521Y-100514383D01*
X148161036Y-100512514D01*
X148094611Y-100492206D01*
X148028465Y-100471223D01*
X148024539Y-100470783D01*
X148020759Y-100469627D01*
X147951718Y-100462614D01*
X147882693Y-100454872D01*
X147874962Y-100454818D01*
X147874822Y-100454804D01*
X147874691Y-100454816D01*
X147872199Y-100454799D01*
X147821299Y-100454799D01*
X147674500Y-100308000D01*
X146912000Y-100308000D01*
X146912000Y-100328000D01*
X146712000Y-100328000D01*
X146712000Y-100308000D01*
X145949500Y-100308000D01*
X145787856Y-100469644D01*
X145723132Y-100489185D01*
X145656481Y-100508549D01*
X145652972Y-100510368D01*
X145649189Y-100511510D01*
X145587854Y-100544122D01*
X145526250Y-100576055D01*
X145523165Y-100578518D01*
X145519672Y-100580375D01*
X145465873Y-100624252D01*
X145411611Y-100667569D01*
X145406107Y-100672997D01*
X145405998Y-100673086D01*
X145405914Y-100673187D01*
X145404139Y-100674938D01*
X144722678Y-101356400D01*
X144396220Y-101356400D01*
X144396220Y-101100500D01*
X144233720Y-100938000D01*
X143658590Y-100938000D01*
X143658590Y-100958000D01*
X143603480Y-100958000D01*
X143583480Y-100938000D01*
X142800720Y-100938000D01*
X142800720Y-100738000D01*
X143583480Y-100738000D01*
X143658590Y-100662890D01*
X143658590Y-100738000D01*
X144233720Y-100738000D01*
X144396220Y-100575500D01*
X144396220Y-100074211D01*
X144371241Y-99948632D01*
X144322243Y-99830340D01*
X144251108Y-99723879D01*
X144160571Y-99633342D01*
X144054111Y-99562208D01*
X143935818Y-99513209D01*
X143819290Y-99490030D01*
X143658590Y-99650730D01*
X143658590Y-99810266D01*
X143600868Y-99723879D01*
X143510331Y-99633342D01*
X143403871Y-99562208D01*
X143388399Y-99555799D01*
X143322630Y-99490030D01*
X143245840Y-99505305D01*
X143169050Y-99490030D01*
X143103281Y-99555799D01*
X143087809Y-99562208D01*
X142981349Y-99633342D01*
X142920720Y-99693971D01*
X142860091Y-99633342D01*
X142753631Y-99562208D01*
X142738159Y-99555799D01*
X142672390Y-99490030D01*
X142595600Y-99505305D01*
X142518810Y-99490030D01*
X142453041Y-99555799D01*
X142437569Y-99562208D01*
X142331109Y-99633342D01*
X142270786Y-99693665D01*
X142145016Y-99586472D01*
X142096905Y-99564785D01*
X142022150Y-99490030D01*
X141942201Y-99505933D01*
X141817631Y-99488230D01*
X142020350Y-99488230D01*
X142022150Y-99490030D01*
X142031200Y-99488230D01*
X142509760Y-99488230D01*
X142518810Y-99490030D01*
X142520610Y-99488230D01*
X142670590Y-99488230D01*
X142672390Y-99490030D01*
X142681440Y-99488230D01*
X143160000Y-99488230D01*
X143169050Y-99490030D01*
X143170850Y-99488230D01*
X143320830Y-99488230D01*
X143322630Y-99490030D01*
X143331680Y-99488230D01*
X143810240Y-99488230D01*
X143819290Y-99490030D01*
X143821090Y-99488230D01*
X143810240Y-99488230D01*
X143331680Y-99488230D01*
X143320830Y-99488230D01*
X143170850Y-99488230D01*
X143160000Y-99488230D01*
X142681440Y-99488230D01*
X142670590Y-99488230D01*
X142520610Y-99488230D01*
X142509760Y-99488230D01*
X142031200Y-99488230D01*
X142020350Y-99488230D01*
X141817631Y-99488230D01*
X141795500Y-99485085D01*
X141444980Y-99485085D01*
X141341470Y-99493339D01*
X141298021Y-99506794D01*
X141145260Y-99485085D01*
X140794740Y-99485085D01*
X140691230Y-99493339D01*
X140647781Y-99506794D01*
X140495020Y-99485085D01*
X140144500Y-99485085D01*
X140040990Y-99493339D01*
X139997541Y-99506794D01*
X139844780Y-99485085D01*
X139494260Y-99485085D01*
X139390750Y-99493339D01*
X139349096Y-99506239D01*
X139267610Y-99490030D01*
X139199780Y-99557860D01*
X139061719Y-99648836D01*
X138942502Y-99788714D01*
X138931650Y-99812788D01*
X138931650Y-99650730D01*
X138770950Y-99490030D01*
X138654422Y-99513209D01*
X138536129Y-99562208D01*
X138429669Y-99633342D01*
X138339132Y-99723879D01*
X138267997Y-99830340D01*
X138218999Y-99948632D01*
X138194020Y-100074211D01*
X138194020Y-100575500D01*
X138356520Y-100738000D01*
X138841115Y-100738000D01*
X138841115Y-100938000D01*
X138356520Y-100938000D01*
X138194020Y-101100500D01*
X138194020Y-101601789D01*
X138218999Y-101727368D01*
X138267997Y-101845660D01*
X138339132Y-101952121D01*
X138429669Y-102042658D01*
X138536129Y-102113792D01*
X138654422Y-102162791D01*
X138770950Y-102185970D01*
X138919278Y-102037642D01*
X138919278Y-102187770D01*
X139015797Y-102187770D01*
X139039175Y-102232871D01*
X139041641Y-102235960D01*
X139043496Y-102239449D01*
X139087371Y-102293245D01*
X139130690Y-102347509D01*
X139136113Y-102353008D01*
X139136207Y-102353123D01*
X139136314Y-102353211D01*
X139138059Y-102354981D01*
X139422538Y-102639461D01*
X139476199Y-102683539D01*
X139529371Y-102728155D01*
X139532832Y-102730058D01*
X139535888Y-102732568D01*
X139597079Y-102765378D01*
X139657913Y-102798822D01*
X139661682Y-102800018D01*
X139665163Y-102801884D01*
X139731542Y-102822178D01*
X139797734Y-102843176D01*
X139801660Y-102843616D01*
X139805440Y-102844772D01*
X139874485Y-102851785D01*
X139943506Y-102859527D01*
X139951236Y-102859581D01*
X139951376Y-102859595D01*
X139951507Y-102859583D01*
X139954000Y-102859600D01*
X144009000Y-102859600D01*
X144009000Y-103115500D01*
X144171500Y-103278000D01*
X144934000Y-103278000D01*
X144934000Y-103258000D01*
X145134000Y-103258000D01*
X145134000Y-103278000D01*
X145154000Y-103278000D01*
X145154000Y-103478000D01*
X145134000Y-103478000D01*
X145134000Y-103498000D01*
X144934000Y-103498000D01*
X144934000Y-103478000D01*
X144171500Y-103478000D01*
X144009000Y-103640500D01*
X144009000Y-104042019D01*
X144033979Y-104167598D01*
X144082977Y-104285890D01*
X144109594Y-104325725D01*
X144107242Y-104328484D01*
X144084922Y-104378000D01*
X141464792Y-104378000D01*
X140809636Y-103722844D01*
X140796859Y-103691844D01*
X140693760Y-103536667D01*
X140562483Y-103404470D01*
X140408029Y-103300290D01*
X140236282Y-103228094D01*
X140053783Y-103190632D01*
X139867482Y-103189332D01*
X139684478Y-103224242D01*
X139511739Y-103294033D01*
X139355846Y-103396046D01*
X139226714Y-103522501D01*
X138925487Y-103221275D01*
X138921942Y-103213779D01*
X138919648Y-103209015D01*
X138916712Y-103204189D01*
X138914690Y-103198913D01*
X138885725Y-103152867D01*
X138869616Y-103121790D01*
X138862181Y-103112476D01*
X138858598Y-103106185D01*
X138853539Y-103100337D01*
X138843577Y-103083960D01*
X138839761Y-103079797D01*
X138836752Y-103075014D01*
X138830279Y-103066781D01*
X138826984Y-103062648D01*
X138801292Y-103036202D01*
X138778296Y-103007396D01*
X138770943Y-102999939D01*
X138344719Y-102573715D01*
X138316251Y-102550331D01*
X138290186Y-102524289D01*
X138282045Y-102517702D01*
X138277910Y-102514404D01*
X138273156Y-102511320D01*
X138269026Y-102507426D01*
X138252360Y-102496966D01*
X138246867Y-102492081D01*
X138241479Y-102488914D01*
X138231610Y-102480807D01*
X138200006Y-102463861D01*
X138155115Y-102434736D01*
X138149851Y-102432633D01*
X138145045Y-102429617D01*
X138135642Y-102425008D01*
X138130877Y-102422714D01*
X138125564Y-102420768D01*
X138120683Y-102417899D01*
X138102248Y-102411461D01*
X138095921Y-102407981D01*
X138071494Y-102400227D01*
X138070264Y-102399597D01*
X138062778Y-102397461D01*
X138058033Y-102395955D01*
X138019186Y-102380436D01*
X138017552Y-102380131D01*
X137971876Y-102334455D01*
X137968274Y-102326844D01*
X137965979Y-102322080D01*
X137963102Y-102317352D01*
X137961117Y-102312172D01*
X137932127Y-102266075D01*
X137916003Y-102234968D01*
X137908617Y-102225715D01*
X137905066Y-102219478D01*
X137899924Y-102213531D01*
X137889887Y-102197038D01*
X137886144Y-102192956D01*
X137883193Y-102188264D01*
X137882805Y-102187770D01*
X138769150Y-102187770D01*
X138780000Y-102187770D01*
X138770950Y-102185970D01*
X138769150Y-102187770D01*
X137882805Y-102187770D01*
X137876722Y-102180030D01*
X137873426Y-102175896D01*
X137847712Y-102149422D01*
X137824683Y-102120574D01*
X137817330Y-102113118D01*
X135192442Y-99488230D01*
X138769150Y-99488230D01*
X138770950Y-99490030D01*
X138780000Y-99488230D01*
X139258560Y-99488230D01*
X139267610Y-99490030D01*
X139269410Y-99488230D01*
X139258560Y-99488230D01*
X138780000Y-99488230D01*
X138769150Y-99488230D01*
X135192442Y-99488230D01*
X134964847Y-99260635D01*
X135533110Y-99260635D01*
X135636620Y-99252381D01*
X135812184Y-99198012D01*
X135965651Y-99096884D01*
X136084868Y-98957006D01*
X136160396Y-98789452D01*
X136176981Y-98672751D01*
X136324394Y-98853498D01*
X136535391Y-99028050D01*
X136776273Y-99158294D01*
X137037866Y-99239271D01*
X137310205Y-99267895D01*
X137582917Y-99243076D01*
X137845614Y-99165760D01*
X138088291Y-99038891D01*
X138301705Y-98867303D01*
X138477725Y-98657530D01*
X138590188Y-98452961D01*
X138601963Y-98483715D01*
X138748913Y-98717053D01*
X138938561Y-98917239D01*
X139163620Y-99076580D01*
X139415440Y-99188953D01*
X139542295Y-99221048D01*
X139760000Y-99090953D01*
X139760000Y-97200000D01*
X139740000Y-97200000D01*
X139740000Y-97000000D01*
X139760000Y-97000000D01*
X139760000Y-96980000D01*
X139960000Y-96980000D01*
X139960000Y-97000000D01*
G36*
X159075000Y-93400000D02*
X159081659Y-93467913D01*
X159087842Y-93535851D01*
X159088560Y-93538290D01*
X159088808Y-93540820D01*
X159108533Y-93606153D01*
X159127792Y-93671590D01*
X159128969Y-93673841D01*
X159129704Y-93676276D01*
X159161758Y-93736562D01*
X159193346Y-93796983D01*
X159194937Y-93798962D01*
X159196132Y-93801209D01*
X159239275Y-93854107D01*
X159282007Y-93907256D01*
X159283954Y-93908890D01*
X159285561Y-93910860D01*
X159338146Y-93954362D01*
X159390399Y-93998207D01*
X159392626Y-93999431D01*
X159394585Y-94001052D01*
X159454631Y-94033519D01*
X159514392Y-94066373D01*
X159516813Y-94067141D01*
X159519051Y-94068351D01*
X159584240Y-94088530D01*
X159649264Y-94109157D01*
X159651791Y-94109440D01*
X159654219Y-94110192D01*
X159722061Y-94117322D01*
X159789877Y-94124929D01*
X159794761Y-94124963D01*
X159794939Y-94124982D01*
X159795117Y-94124966D01*
X159800000Y-94125000D01*
X170775000Y-94125000D01*
X170775000Y-101686127D01*
X170586887Y-101354989D01*
X170309238Y-101033329D01*
X169974400Y-100771725D01*
X169595126Y-100580140D01*
X169185863Y-100465872D01*
X168762199Y-100433272D01*
X168340272Y-100483584D01*
X167936153Y-100614890D01*
X167565235Y-100822190D01*
X167241645Y-101097586D01*
X166977709Y-101430590D01*
X166855926Y-101667554D01*
X166852891Y-101629490D01*
X166798522Y-101453926D01*
X166697394Y-101300459D01*
X166604848Y-101221583D01*
X166622351Y-101209888D01*
X166712888Y-101119351D01*
X166784022Y-101012891D01*
X166833021Y-100894598D01*
X166858000Y-100769020D01*
X166858000Y-100592500D01*
X166695500Y-100430000D01*
X165708000Y-100430000D01*
X165708000Y-100450000D01*
X165508000Y-100450000D01*
X165508000Y-100430000D01*
X165488000Y-100430000D01*
X165488000Y-100319600D01*
X165989000Y-100319600D01*
X166005318Y-100318000D01*
X166086380Y-100318000D01*
X166155287Y-100311243D01*
X166224344Y-100305201D01*
X166228131Y-100304101D01*
X166232056Y-100303716D01*
X166298404Y-100283685D01*
X166364907Y-100264364D01*
X166368406Y-100262550D01*
X166372183Y-100261410D01*
X166431256Y-100230000D01*
X166695500Y-100230000D01*
X166858000Y-100067500D01*
X166858000Y-99890980D01*
X166852369Y-99862671D01*
X167485720Y-99229320D01*
X167517866Y-99239271D01*
X167790205Y-99267895D01*
X168062917Y-99243076D01*
X168325614Y-99165760D01*
X168568291Y-99038891D01*
X168781705Y-98867303D01*
X168957725Y-98657530D01*
X169089648Y-98417563D01*
X169172449Y-98156542D01*
X169202973Y-97884409D01*
X169203110Y-97864819D01*
X169203110Y-96335181D01*
X169176388Y-96062649D01*
X169097240Y-95800497D01*
X168968680Y-95558712D01*
X168795606Y-95346502D01*
X168584609Y-95171950D01*
X168343727Y-95041706D01*
X168082134Y-94960729D01*
X167809795Y-94932105D01*
X167537083Y-94956924D01*
X167274386Y-95034240D01*
X167031709Y-95161109D01*
X166818295Y-95332697D01*
X166642275Y-95542470D01*
X166529306Y-95747960D01*
X166428680Y-95558712D01*
X166255606Y-95346502D01*
X166044609Y-95171950D01*
X165803727Y-95041706D01*
X165542134Y-94960729D01*
X165269795Y-94932105D01*
X164997083Y-94956924D01*
X164734386Y-95034240D01*
X164491709Y-95161109D01*
X164278295Y-95332697D01*
X164102275Y-95542470D01*
X163989306Y-95747960D01*
X163888680Y-95558712D01*
X163715606Y-95346502D01*
X163504609Y-95171950D01*
X163263727Y-95041706D01*
X163002134Y-94960729D01*
X162729795Y-94932105D01*
X162457083Y-94956924D01*
X162194386Y-95034240D01*
X161951709Y-95161109D01*
X161738295Y-95332697D01*
X161562275Y-95542470D01*
X161449306Y-95747960D01*
X161348680Y-95558712D01*
X161175606Y-95346502D01*
X160964609Y-95171950D01*
X160723727Y-95041706D01*
X160462134Y-94960729D01*
X160189795Y-94932105D01*
X159917083Y-94956924D01*
X159654386Y-95034240D01*
X159411709Y-95161109D01*
X159198295Y-95332697D01*
X159022275Y-95542470D01*
X158909306Y-95747960D01*
X158808680Y-95558712D01*
X158635606Y-95346502D01*
X158424609Y-95171950D01*
X158183727Y-95041706D01*
X158025000Y-94992572D01*
X158025000Y-90300000D01*
X158018341Y-90232087D01*
X158012158Y-90164149D01*
X158011440Y-90161710D01*
X158011192Y-90159180D01*
X157991467Y-90093847D01*
X157972208Y-90028410D01*
X157971031Y-90026159D01*
X157970296Y-90023724D01*
X157938242Y-89963438D01*
X157906654Y-89903017D01*
X157905063Y-89901038D01*
X157903868Y-89898791D01*
X157860725Y-89845893D01*
X157817993Y-89792744D01*
X157816046Y-89791110D01*
X157814439Y-89789140D01*
X157761854Y-89745638D01*
X157709601Y-89701793D01*
X157707374Y-89700569D01*
X157705415Y-89698948D01*
X157645369Y-89666481D01*
X157585608Y-89633627D01*
X157583187Y-89632859D01*
X157580949Y-89631649D01*
X157515760Y-89611470D01*
X157450736Y-89590843D01*
X157448209Y-89590560D01*
X157445781Y-89589808D01*
X157377939Y-89582678D01*
X157310123Y-89575071D01*
X157305239Y-89575037D01*
X157305061Y-89575018D01*
X157304883Y-89575034D01*
X157300000Y-89575000D01*
X151385660Y-89575000D01*
X152430900Y-88529760D01*
X152462447Y-88517524D01*
X152594912Y-88433459D01*
X152708526Y-88325266D01*
X152798962Y-88197066D01*
X152862774Y-88053741D01*
X152897532Y-87900752D01*
X152900034Y-87721556D01*
X152869561Y-87567656D01*
X152809776Y-87422605D01*
X152722955Y-87291930D01*
X152612407Y-87180607D01*
X152482341Y-87092876D01*
X152337711Y-87032079D01*
X152184027Y-87000533D01*
X152027143Y-86999437D01*
X151873034Y-87028835D01*
X151727570Y-87087607D01*
X151596291Y-87173513D01*
X151484199Y-87283282D01*
X151395562Y-87412732D01*
X151372275Y-87467065D01*
X150527340Y-88312000D01*
X148189931Y-88312000D01*
X148322926Y-88061873D01*
X148445740Y-87655093D01*
X148487205Y-87232205D01*
X148486356Y-87171414D01*
X148433100Y-86749849D01*
X148298976Y-86346656D01*
X148089092Y-85977194D01*
X147811443Y-85655534D01*
X147476605Y-85393930D01*
X147097331Y-85202345D01*
X146688068Y-85088077D01*
X146264404Y-85055477D01*
X145842477Y-85105789D01*
X145438358Y-85237095D01*
X145067440Y-85444395D01*
X144743850Y-85719791D01*
X144479914Y-86052795D01*
X144285686Y-86430722D01*
X144168563Y-86839178D01*
X144133007Y-87262604D01*
X144180372Y-87684871D01*
X144308854Y-88089897D01*
X144430956Y-88312000D01*
X142626511Y-88312000D01*
X142622762Y-88294407D01*
X142620541Y-88289233D01*
X142619285Y-88283742D01*
X142615895Y-88273834D01*
X142601103Y-88231562D01*
X142598737Y-88226463D01*
X142597323Y-88221010D01*
X142567937Y-88160066D01*
X142539506Y-88098779D01*
X142536193Y-88094233D01*
X142533748Y-88089163D01*
X142528239Y-88080257D01*
X142504412Y-88042336D01*
X142500962Y-88037879D01*
X142498369Y-88032877D01*
X142456205Y-87980059D01*
X142414814Y-87926588D01*
X142410564Y-87922886D01*
X142407049Y-87918483D01*
X142399696Y-87911026D01*
X142368027Y-87879357D01*
X142363675Y-87875782D01*
X142360031Y-87871479D01*
X142307109Y-87829319D01*
X142254918Y-87786449D01*
X142249957Y-87783789D01*
X142245545Y-87780274D01*
X142236717Y-87774641D01*
X142198796Y-87750814D01*
X142193761Y-87748299D01*
X142189261Y-87744922D01*
X142128340Y-87715621D01*
X142067849Y-87685405D01*
X142062422Y-87683916D01*
X142057351Y-87681477D01*
X142047491Y-87677949D01*
X142005219Y-87663158D01*
X141999744Y-87661825D01*
X141994590Y-87659527D01*
X141928645Y-87644511D01*
X141863001Y-87628525D01*
X141857369Y-87628280D01*
X141851869Y-87627028D01*
X141841471Y-87625783D01*
X141796967Y-87620769D01*
X141791347Y-87620688D01*
X141785824Y-87619597D01*
X141718167Y-87619630D01*
X141650607Y-87618654D01*
X141645076Y-87619666D01*
X141639450Y-87619669D01*
X141629036Y-87620769D01*
X141584530Y-87625783D01*
X141579015Y-87626958D01*
X141573376Y-87627124D01*
X141507463Y-87642203D01*
X141441369Y-87656286D01*
X141436187Y-87658510D01*
X141430688Y-87659768D01*
X141420780Y-87663158D01*
X141390564Y-87673731D01*
X141369561Y-87567656D01*
X141309776Y-87422605D01*
X141222955Y-87291930D01*
X141112407Y-87180607D01*
X140982341Y-87092876D01*
X140837711Y-87032079D01*
X140684027Y-87000533D01*
X140527143Y-86999437D01*
X140491962Y-87006148D01*
X140477847Y-86944450D01*
X140463762Y-86878353D01*
X140461541Y-86873179D01*
X140460285Y-86867688D01*
X140456895Y-86857780D01*
X140442103Y-86815508D01*
X140439737Y-86810409D01*
X140438323Y-86804956D01*
X140408937Y-86744012D01*
X140380506Y-86682725D01*
X140377193Y-86678179D01*
X140374748Y-86673109D01*
X140369239Y-86664203D01*
X140345412Y-86626282D01*
X140341962Y-86621825D01*
X140339369Y-86616823D01*
X140297205Y-86564005D01*
X140255814Y-86510534D01*
X140251564Y-86506832D01*
X140248049Y-86502429D01*
X140240696Y-86494972D01*
X140209027Y-86463303D01*
X140204675Y-86459728D01*
X140201031Y-86455425D01*
X140148109Y-86413265D01*
X140095918Y-86370395D01*
X140090957Y-86367735D01*
X140086545Y-86364220D01*
X140077717Y-86358587D01*
X140039796Y-86334760D01*
X140034761Y-86332245D01*
X140030261Y-86328868D01*
X139969340Y-86299567D01*
X139908849Y-86269351D01*
X139903422Y-86267862D01*
X139898351Y-86265423D01*
X139888491Y-86261895D01*
X139846219Y-86247104D01*
X139840744Y-86245771D01*
X139835590Y-86243473D01*
X139769645Y-86228457D01*
X139704001Y-86212471D01*
X139698369Y-86212226D01*
X139692869Y-86210974D01*
X139682471Y-86209729D01*
X139637967Y-86204715D01*
X139632347Y-86204634D01*
X139626824Y-86203543D01*
X139559167Y-86203576D01*
X139491607Y-86202600D01*
X139486076Y-86203612D01*
X139480450Y-86203615D01*
X139470036Y-86204715D01*
X139425530Y-86209729D01*
X139420015Y-86210904D01*
X139414376Y-86211070D01*
X139348463Y-86226149D01*
X139282369Y-86240232D01*
X139277187Y-86242456D01*
X139271688Y-86243714D01*
X139261780Y-86247104D01*
X139219508Y-86261896D01*
X139214409Y-86264262D01*
X139208956Y-86265676D01*
X139148012Y-86295062D01*
X139086725Y-86323493D01*
X139082179Y-86326806D01*
X139077109Y-86329251D01*
X139068203Y-86334760D01*
X139030282Y-86358587D01*
X139025825Y-86362037D01*
X139020823Y-86364630D01*
X138968005Y-86406794D01*
X138914534Y-86448185D01*
X138910832Y-86452435D01*
X138906429Y-86455950D01*
X138898972Y-86463303D01*
X138867303Y-86494972D01*
X138863728Y-86499324D01*
X138859425Y-86502968D01*
X138817265Y-86555890D01*
X138774395Y-86608081D01*
X138771735Y-86613042D01*
X138768220Y-86617454D01*
X138762587Y-86626282D01*
X138738760Y-86664203D01*
X138736245Y-86669238D01*
X138732868Y-86673738D01*
X138703567Y-86734659D01*
X138673351Y-86795150D01*
X138671862Y-86800577D01*
X138669423Y-86805648D01*
X138665895Y-86815508D01*
X138651104Y-86857780D01*
X138649771Y-86863254D01*
X138647472Y-86868411D01*
X138632455Y-86934359D01*
X138616471Y-86999998D01*
X138616226Y-87005632D01*
X138614974Y-87011132D01*
X138613729Y-87021530D01*
X138610522Y-87050000D01*
X138160448Y-87050000D01*
X138091497Y-87056761D01*
X138022484Y-87062799D01*
X138018697Y-87063899D01*
X138014772Y-87064284D01*
X137948424Y-87084315D01*
X137881921Y-87103636D01*
X137878422Y-87105450D01*
X137874645Y-87106590D01*
X137813469Y-87139118D01*
X137751968Y-87170997D01*
X137748885Y-87173458D01*
X137745404Y-87175309D01*
X137691724Y-87219090D01*
X137637574Y-87262317D01*
X137632087Y-87267728D01*
X137631972Y-87267822D01*
X137631884Y-87267928D01*
X137630118Y-87269670D01*
X136110788Y-88789000D01*
X135024448Y-88789000D01*
X134955497Y-88795761D01*
X134886484Y-88801799D01*
X134882697Y-88802899D01*
X134878772Y-88803284D01*
X134812424Y-88823315D01*
X134745921Y-88842636D01*
X134742422Y-88844450D01*
X134738645Y-88845590D01*
X134677448Y-88878129D01*
X134615969Y-88909997D01*
X134612888Y-88912457D01*
X134609404Y-88914309D01*
X134555702Y-88958107D01*
X134501574Y-89001317D01*
X134496087Y-89006728D01*
X134495972Y-89006822D01*
X134495884Y-89006928D01*
X134494118Y-89008670D01*
X133966670Y-89536118D01*
X133922733Y-89589608D01*
X133878165Y-89642723D01*
X133876264Y-89646181D01*
X133873762Y-89649227D01*
X133841028Y-89710274D01*
X133807648Y-89770992D01*
X133806456Y-89774750D01*
X133804592Y-89778226D01*
X133784332Y-89844494D01*
X133763389Y-89910514D01*
X133762950Y-89914432D01*
X133761796Y-89918205D01*
X133754791Y-89987164D01*
X133747073Y-90055976D01*
X133747019Y-90063679D01*
X133747004Y-90063830D01*
X133747017Y-90063970D01*
X133747000Y-90066448D01*
X133747000Y-93819788D01*
X133525000Y-94041788D01*
X133525000Y-84725000D01*
X159075000Y-84725000D01*
X159075000Y-93400000D01*
X159075000Y-93400000D01*
G37*
X159075000Y-93400000D02*
X159081659Y-93467913D01*
X159087842Y-93535851D01*
X159088560Y-93538290D01*
X159088808Y-93540820D01*
X159108533Y-93606153D01*
X159127792Y-93671590D01*
X159128969Y-93673841D01*
X159129704Y-93676276D01*
X159161758Y-93736562D01*
X159193346Y-93796983D01*
X159194937Y-93798962D01*
X159196132Y-93801209D01*
X159239275Y-93854107D01*
X159282007Y-93907256D01*
X159283954Y-93908890D01*
X159285561Y-93910860D01*
X159338146Y-93954362D01*
X159390399Y-93998207D01*
X159392626Y-93999431D01*
X159394585Y-94001052D01*
X159454631Y-94033519D01*
X159514392Y-94066373D01*
X159516813Y-94067141D01*
X159519051Y-94068351D01*
X159584240Y-94088530D01*
X159649264Y-94109157D01*
X159651791Y-94109440D01*
X159654219Y-94110192D01*
X159722061Y-94117322D01*
X159789877Y-94124929D01*
X159794761Y-94124963D01*
X159794939Y-94124982D01*
X159795117Y-94124966D01*
X159800000Y-94125000D01*
X170775000Y-94125000D01*
X170775000Y-101686127D01*
X170586887Y-101354989D01*
X170309238Y-101033329D01*
X169974400Y-100771725D01*
X169595126Y-100580140D01*
X169185863Y-100465872D01*
X168762199Y-100433272D01*
X168340272Y-100483584D01*
X167936153Y-100614890D01*
X167565235Y-100822190D01*
X167241645Y-101097586D01*
X166977709Y-101430590D01*
X166855926Y-101667554D01*
X166852891Y-101629490D01*
X166798522Y-101453926D01*
X166697394Y-101300459D01*
X166604848Y-101221583D01*
X166622351Y-101209888D01*
X166712888Y-101119351D01*
X166784022Y-101012891D01*
X166833021Y-100894598D01*
X166858000Y-100769020D01*
X166858000Y-100592500D01*
X166695500Y-100430000D01*
X165708000Y-100430000D01*
X165708000Y-100450000D01*
X165508000Y-100450000D01*
X165508000Y-100430000D01*
X165488000Y-100430000D01*
X165488000Y-100319600D01*
X165989000Y-100319600D01*
X166005318Y-100318000D01*
X166086380Y-100318000D01*
X166155287Y-100311243D01*
X166224344Y-100305201D01*
X166228131Y-100304101D01*
X166232056Y-100303716D01*
X166298404Y-100283685D01*
X166364907Y-100264364D01*
X166368406Y-100262550D01*
X166372183Y-100261410D01*
X166431256Y-100230000D01*
X166695500Y-100230000D01*
X166858000Y-100067500D01*
X166858000Y-99890980D01*
X166852369Y-99862671D01*
X167485720Y-99229320D01*
X167517866Y-99239271D01*
X167790205Y-99267895D01*
X168062917Y-99243076D01*
X168325614Y-99165760D01*
X168568291Y-99038891D01*
X168781705Y-98867303D01*
X168957725Y-98657530D01*
X169089648Y-98417563D01*
X169172449Y-98156542D01*
X169202973Y-97884409D01*
X169203110Y-97864819D01*
X169203110Y-96335181D01*
X169176388Y-96062649D01*
X169097240Y-95800497D01*
X168968680Y-95558712D01*
X168795606Y-95346502D01*
X168584609Y-95171950D01*
X168343727Y-95041706D01*
X168082134Y-94960729D01*
X167809795Y-94932105D01*
X167537083Y-94956924D01*
X167274386Y-95034240D01*
X167031709Y-95161109D01*
X166818295Y-95332697D01*
X166642275Y-95542470D01*
X166529306Y-95747960D01*
X166428680Y-95558712D01*
X166255606Y-95346502D01*
X166044609Y-95171950D01*
X165803727Y-95041706D01*
X165542134Y-94960729D01*
X165269795Y-94932105D01*
X164997083Y-94956924D01*
X164734386Y-95034240D01*
X164491709Y-95161109D01*
X164278295Y-95332697D01*
X164102275Y-95542470D01*
X163989306Y-95747960D01*
X163888680Y-95558712D01*
X163715606Y-95346502D01*
X163504609Y-95171950D01*
X163263727Y-95041706D01*
X163002134Y-94960729D01*
X162729795Y-94932105D01*
X162457083Y-94956924D01*
X162194386Y-95034240D01*
X161951709Y-95161109D01*
X161738295Y-95332697D01*
X161562275Y-95542470D01*
X161449306Y-95747960D01*
X161348680Y-95558712D01*
X161175606Y-95346502D01*
X160964609Y-95171950D01*
X160723727Y-95041706D01*
X160462134Y-94960729D01*
X160189795Y-94932105D01*
X159917083Y-94956924D01*
X159654386Y-95034240D01*
X159411709Y-95161109D01*
X159198295Y-95332697D01*
X159022275Y-95542470D01*
X158909306Y-95747960D01*
X158808680Y-95558712D01*
X158635606Y-95346502D01*
X158424609Y-95171950D01*
X158183727Y-95041706D01*
X158025000Y-94992572D01*
X158025000Y-90300000D01*
X158018341Y-90232087D01*
X158012158Y-90164149D01*
X158011440Y-90161710D01*
X158011192Y-90159180D01*
X157991467Y-90093847D01*
X157972208Y-90028410D01*
X157971031Y-90026159D01*
X157970296Y-90023724D01*
X157938242Y-89963438D01*
X157906654Y-89903017D01*
X157905063Y-89901038D01*
X157903868Y-89898791D01*
X157860725Y-89845893D01*
X157817993Y-89792744D01*
X157816046Y-89791110D01*
X157814439Y-89789140D01*
X157761854Y-89745638D01*
X157709601Y-89701793D01*
X157707374Y-89700569D01*
X157705415Y-89698948D01*
X157645369Y-89666481D01*
X157585608Y-89633627D01*
X157583187Y-89632859D01*
X157580949Y-89631649D01*
X157515760Y-89611470D01*
X157450736Y-89590843D01*
X157448209Y-89590560D01*
X157445781Y-89589808D01*
X157377939Y-89582678D01*
X157310123Y-89575071D01*
X157305239Y-89575037D01*
X157305061Y-89575018D01*
X157304883Y-89575034D01*
X157300000Y-89575000D01*
X151385660Y-89575000D01*
X152430900Y-88529760D01*
X152462447Y-88517524D01*
X152594912Y-88433459D01*
X152708526Y-88325266D01*
X152798962Y-88197066D01*
X152862774Y-88053741D01*
X152897532Y-87900752D01*
X152900034Y-87721556D01*
X152869561Y-87567656D01*
X152809776Y-87422605D01*
X152722955Y-87291930D01*
X152612407Y-87180607D01*
X152482341Y-87092876D01*
X152337711Y-87032079D01*
X152184027Y-87000533D01*
X152027143Y-86999437D01*
X151873034Y-87028835D01*
X151727570Y-87087607D01*
X151596291Y-87173513D01*
X151484199Y-87283282D01*
X151395562Y-87412732D01*
X151372275Y-87467065D01*
X150527340Y-88312000D01*
X148189931Y-88312000D01*
X148322926Y-88061873D01*
X148445740Y-87655093D01*
X148487205Y-87232205D01*
X148486356Y-87171414D01*
X148433100Y-86749849D01*
X148298976Y-86346656D01*
X148089092Y-85977194D01*
X147811443Y-85655534D01*
X147476605Y-85393930D01*
X147097331Y-85202345D01*
X146688068Y-85088077D01*
X146264404Y-85055477D01*
X145842477Y-85105789D01*
X145438358Y-85237095D01*
X145067440Y-85444395D01*
X144743850Y-85719791D01*
X144479914Y-86052795D01*
X144285686Y-86430722D01*
X144168563Y-86839178D01*
X144133007Y-87262604D01*
X144180372Y-87684871D01*
X144308854Y-88089897D01*
X144430956Y-88312000D01*
X142626511Y-88312000D01*
X142622762Y-88294407D01*
X142620541Y-88289233D01*
X142619285Y-88283742D01*
X142615895Y-88273834D01*
X142601103Y-88231562D01*
X142598737Y-88226463D01*
X142597323Y-88221010D01*
X142567937Y-88160066D01*
X142539506Y-88098779D01*
X142536193Y-88094233D01*
X142533748Y-88089163D01*
X142528239Y-88080257D01*
X142504412Y-88042336D01*
X142500962Y-88037879D01*
X142498369Y-88032877D01*
X142456205Y-87980059D01*
X142414814Y-87926588D01*
X142410564Y-87922886D01*
X142407049Y-87918483D01*
X142399696Y-87911026D01*
X142368027Y-87879357D01*
X142363675Y-87875782D01*
X142360031Y-87871479D01*
X142307109Y-87829319D01*
X142254918Y-87786449D01*
X142249957Y-87783789D01*
X142245545Y-87780274D01*
X142236717Y-87774641D01*
X142198796Y-87750814D01*
X142193761Y-87748299D01*
X142189261Y-87744922D01*
X142128340Y-87715621D01*
X142067849Y-87685405D01*
X142062422Y-87683916D01*
X142057351Y-87681477D01*
X142047491Y-87677949D01*
X142005219Y-87663158D01*
X141999744Y-87661825D01*
X141994590Y-87659527D01*
X141928645Y-87644511D01*
X141863001Y-87628525D01*
X141857369Y-87628280D01*
X141851869Y-87627028D01*
X141841471Y-87625783D01*
X141796967Y-87620769D01*
X141791347Y-87620688D01*
X141785824Y-87619597D01*
X141718167Y-87619630D01*
X141650607Y-87618654D01*
X141645076Y-87619666D01*
X141639450Y-87619669D01*
X141629036Y-87620769D01*
X141584530Y-87625783D01*
X141579015Y-87626958D01*
X141573376Y-87627124D01*
X141507463Y-87642203D01*
X141441369Y-87656286D01*
X141436187Y-87658510D01*
X141430688Y-87659768D01*
X141420780Y-87663158D01*
X141390564Y-87673731D01*
X141369561Y-87567656D01*
X141309776Y-87422605D01*
X141222955Y-87291930D01*
X141112407Y-87180607D01*
X140982341Y-87092876D01*
X140837711Y-87032079D01*
X140684027Y-87000533D01*
X140527143Y-86999437D01*
X140491962Y-87006148D01*
X140477847Y-86944450D01*
X140463762Y-86878353D01*
X140461541Y-86873179D01*
X140460285Y-86867688D01*
X140456895Y-86857780D01*
X140442103Y-86815508D01*
X140439737Y-86810409D01*
X140438323Y-86804956D01*
X140408937Y-86744012D01*
X140380506Y-86682725D01*
X140377193Y-86678179D01*
X140374748Y-86673109D01*
X140369239Y-86664203D01*
X140345412Y-86626282D01*
X140341962Y-86621825D01*
X140339369Y-86616823D01*
X140297205Y-86564005D01*
X140255814Y-86510534D01*
X140251564Y-86506832D01*
X140248049Y-86502429D01*
X140240696Y-86494972D01*
X140209027Y-86463303D01*
X140204675Y-86459728D01*
X140201031Y-86455425D01*
X140148109Y-86413265D01*
X140095918Y-86370395D01*
X140090957Y-86367735D01*
X140086545Y-86364220D01*
X140077717Y-86358587D01*
X140039796Y-86334760D01*
X140034761Y-86332245D01*
X140030261Y-86328868D01*
X139969340Y-86299567D01*
X139908849Y-86269351D01*
X139903422Y-86267862D01*
X139898351Y-86265423D01*
X139888491Y-86261895D01*
X139846219Y-86247104D01*
X139840744Y-86245771D01*
X139835590Y-86243473D01*
X139769645Y-86228457D01*
X139704001Y-86212471D01*
X139698369Y-86212226D01*
X139692869Y-86210974D01*
X139682471Y-86209729D01*
X139637967Y-86204715D01*
X139632347Y-86204634D01*
X139626824Y-86203543D01*
X139559167Y-86203576D01*
X139491607Y-86202600D01*
X139486076Y-86203612D01*
X139480450Y-86203615D01*
X139470036Y-86204715D01*
X139425530Y-86209729D01*
X139420015Y-86210904D01*
X139414376Y-86211070D01*
X139348463Y-86226149D01*
X139282369Y-86240232D01*
X139277187Y-86242456D01*
X139271688Y-86243714D01*
X139261780Y-86247104D01*
X139219508Y-86261896D01*
X139214409Y-86264262D01*
X139208956Y-86265676D01*
X139148012Y-86295062D01*
X139086725Y-86323493D01*
X139082179Y-86326806D01*
X139077109Y-86329251D01*
X139068203Y-86334760D01*
X139030282Y-86358587D01*
X139025825Y-86362037D01*
X139020823Y-86364630D01*
X138968005Y-86406794D01*
X138914534Y-86448185D01*
X138910832Y-86452435D01*
X138906429Y-86455950D01*
X138898972Y-86463303D01*
X138867303Y-86494972D01*
X138863728Y-86499324D01*
X138859425Y-86502968D01*
X138817265Y-86555890D01*
X138774395Y-86608081D01*
X138771735Y-86613042D01*
X138768220Y-86617454D01*
X138762587Y-86626282D01*
X138738760Y-86664203D01*
X138736245Y-86669238D01*
X138732868Y-86673738D01*
X138703567Y-86734659D01*
X138673351Y-86795150D01*
X138671862Y-86800577D01*
X138669423Y-86805648D01*
X138665895Y-86815508D01*
X138651104Y-86857780D01*
X138649771Y-86863254D01*
X138647472Y-86868411D01*
X138632455Y-86934359D01*
X138616471Y-86999998D01*
X138616226Y-87005632D01*
X138614974Y-87011132D01*
X138613729Y-87021530D01*
X138610522Y-87050000D01*
X138160448Y-87050000D01*
X138091497Y-87056761D01*
X138022484Y-87062799D01*
X138018697Y-87063899D01*
X138014772Y-87064284D01*
X137948424Y-87084315D01*
X137881921Y-87103636D01*
X137878422Y-87105450D01*
X137874645Y-87106590D01*
X137813469Y-87139118D01*
X137751968Y-87170997D01*
X137748885Y-87173458D01*
X137745404Y-87175309D01*
X137691724Y-87219090D01*
X137637574Y-87262317D01*
X137632087Y-87267728D01*
X137631972Y-87267822D01*
X137631884Y-87267928D01*
X137630118Y-87269670D01*
X136110788Y-88789000D01*
X135024448Y-88789000D01*
X134955497Y-88795761D01*
X134886484Y-88801799D01*
X134882697Y-88802899D01*
X134878772Y-88803284D01*
X134812424Y-88823315D01*
X134745921Y-88842636D01*
X134742422Y-88844450D01*
X134738645Y-88845590D01*
X134677448Y-88878129D01*
X134615969Y-88909997D01*
X134612888Y-88912457D01*
X134609404Y-88914309D01*
X134555702Y-88958107D01*
X134501574Y-89001317D01*
X134496087Y-89006728D01*
X134495972Y-89006822D01*
X134495884Y-89006928D01*
X134494118Y-89008670D01*
X133966670Y-89536118D01*
X133922733Y-89589608D01*
X133878165Y-89642723D01*
X133876264Y-89646181D01*
X133873762Y-89649227D01*
X133841028Y-89710274D01*
X133807648Y-89770992D01*
X133806456Y-89774750D01*
X133804592Y-89778226D01*
X133784332Y-89844494D01*
X133763389Y-89910514D01*
X133762950Y-89914432D01*
X133761796Y-89918205D01*
X133754791Y-89987164D01*
X133747073Y-90055976D01*
X133747019Y-90063679D01*
X133747004Y-90063830D01*
X133747017Y-90063970D01*
X133747000Y-90066448D01*
X133747000Y-93819788D01*
X133525000Y-94041788D01*
X133525000Y-84725000D01*
X159075000Y-84725000D01*
X159075000Y-93400000D01*
M02*
