G04 #@! TF.FileFunction,Legend,Top*
%FSLAX46Y46*%
G04 Gerber Fmt 4.6, Leading zero omitted, Abs format (unit mm)*
G04 Created by KiCad (PCBNEW 4.0.2-4+6225~38~ubuntu14.04.1-stable) date jue 07 abr 2016 16:44:47 ART*
%MOMM*%
G01*
G04 APERTURE LIST*
%ADD10C,0.100000*%
%ADD11C,0.150000*%
G04 APERTURE END LIST*
D10*
D11*
X133290000Y-98100000D02*
X134290000Y-99100000D01*
X133290000Y-96100000D02*
X133290000Y-98100000D01*
X134290000Y-95100000D02*
X133290000Y-96100000D01*
X168290000Y-95100000D02*
X134290000Y-95100000D01*
X169290000Y-96100000D02*
X168290000Y-95100000D01*
X169290000Y-98100000D02*
X169290000Y-96100000D01*
X168290000Y-99100000D02*
X169290000Y-98100000D01*
X134290000Y-99100000D02*
X168290000Y-99100000D01*
X169230000Y-111300000D02*
X168230000Y-110300000D01*
X169230000Y-113300000D02*
X169230000Y-111300000D01*
X168230000Y-114300000D02*
X169230000Y-113300000D01*
X134230000Y-114300000D02*
X168230000Y-114300000D01*
X133230000Y-113300000D02*
X134230000Y-114300000D01*
X133230000Y-111300000D02*
X133230000Y-113300000D01*
X134230000Y-110300000D02*
X133230000Y-111300000D01*
X168230000Y-110300000D02*
X134230000Y-110300000D01*
X145540476Y-88622381D02*
X146207143Y-89622381D01*
X146207143Y-88622381D02*
X145540476Y-89622381D01*
X147111905Y-89622381D02*
X146540476Y-89622381D01*
X146826190Y-89622381D02*
X146826190Y-88622381D01*
X146730952Y-88765238D01*
X146635714Y-88860476D01*
X146540476Y-88908095D01*
X150551905Y-94552381D02*
X150551905Y-93552381D01*
X150932858Y-93552381D01*
X151028096Y-93600000D01*
X151075715Y-93647619D01*
X151123334Y-93742857D01*
X151123334Y-93885714D01*
X151075715Y-93980952D01*
X151028096Y-94028571D01*
X150932858Y-94076190D01*
X150551905Y-94076190D01*
X152075715Y-94552381D02*
X151504286Y-94552381D01*
X151790000Y-94552381D02*
X151790000Y-93552381D01*
X151694762Y-93695238D01*
X151599524Y-93790476D01*
X151504286Y-93838095D01*
X150491905Y-115752381D02*
X150491905Y-114752381D01*
X150872858Y-114752381D01*
X150968096Y-114800000D01*
X151015715Y-114847619D01*
X151063334Y-114942857D01*
X151063334Y-115085714D01*
X151015715Y-115180952D01*
X150968096Y-115228571D01*
X150872858Y-115276190D01*
X150491905Y-115276190D01*
X151444286Y-114847619D02*
X151491905Y-114800000D01*
X151587143Y-114752381D01*
X151825239Y-114752381D01*
X151920477Y-114800000D01*
X151968096Y-114847619D01*
X152015715Y-114942857D01*
X152015715Y-115038095D01*
X151968096Y-115180952D01*
X151396667Y-115752381D01*
X152015715Y-115752381D01*
M02*
