M48
;DRILL file {KiCad 4.0.2-4+6225~38~ubuntu14.04.1-stable} date jue 07 abr 2016 16:46:02 ART
;FORMAT={-:-/ absolute / metric / decimal}
FMAT,2
METRIC,TZ
T1C0.250
T2C0.400
T3C0.998
%
G90
G05
M71
T1
X140.6Y-87.8
X152.1Y-87.8
T2
X134.62Y-103.632
X137.414Y-100.838
X137.668Y-106.172
X139.954Y-104.14
X143.764Y-108.11
X146.05Y-107.188
X146.05Y-110.744
X151.13Y-108.712
X152.654Y-102.408
X155.702Y-101.092
X156.21Y-109.982
X158.336Y-102.406
X159.258Y-109.982
X160.274Y-107.442
X162.306Y-99.568
X164.338Y-103.632
X165.1Y-109.22
X165.313Y-104.648
X165.354Y-109.982
X166.878Y-103.632
T3
X134.72Y-112.3
X134.78Y-97.1
X137.26Y-112.3
X137.32Y-97.1
X139.8Y-112.3
X139.86Y-97.1
X142.34Y-112.3
X142.4Y-97.1
X144.88Y-112.3
X144.94Y-97.1
X147.42Y-112.3
X147.48Y-97.1
X149.96Y-112.3
X150.02Y-97.1
X152.5Y-112.3
X152.56Y-97.1
X155.04Y-112.3
X155.1Y-97.1
X157.58Y-112.3
X157.64Y-97.1
X160.12Y-112.3
X160.18Y-97.1
X162.66Y-112.3
X162.72Y-97.1
X165.2Y-112.3
X165.26Y-97.1
X167.74Y-112.3
X167.8Y-97.1
T0
M30
