G04 #@! TF.FileFunction,Legend,Bot*
%FSLAX46Y46*%
G04 Gerber Fmt 4.6, Leading zero omitted, Abs format (unit mm)*
G04 Created by KiCad (PCBNEW 4.0.2-4+6225~38~ubuntu14.04.1-stable) date jue 07 abr 2016 16:44:47 ART*
%MOMM*%
G01*
G04 APERTURE LIST*
%ADD10C,0.100000*%
%ADD11C,0.010000*%
%ADD12C,0.150000*%
%ADD13C,0.203200*%
%ADD14C,0.152400*%
G04 APERTURE END LIST*
D10*
D11*
G36*
X157141333Y-103420333D02*
X147150667Y-103420333D01*
X147150667Y-105178057D01*
X147383500Y-105178057D01*
X147385794Y-104974865D01*
X147395966Y-104829792D01*
X147418947Y-104716342D01*
X147459669Y-104608019D01*
X147508398Y-104507125D01*
X147666057Y-104264576D01*
X147877467Y-104036542D01*
X148118257Y-103845571D01*
X148364059Y-103714211D01*
X148366286Y-103713342D01*
X148617034Y-103645982D01*
X148898958Y-103618337D01*
X149177957Y-103631134D01*
X149419930Y-103685104D01*
X149434773Y-103690508D01*
X149623379Y-103761376D01*
X149772734Y-103612022D01*
X149862445Y-103526143D01*
X149926227Y-103472144D01*
X149943024Y-103462667D01*
X149979671Y-103490693D01*
X150062882Y-103566637D01*
X150179606Y-103678300D01*
X150292980Y-103789757D01*
X150426276Y-103925834D01*
X150533643Y-104042222D01*
X150602683Y-104125040D01*
X150622000Y-104158158D01*
X150594764Y-104211275D01*
X150526119Y-104296780D01*
X150489512Y-104336162D01*
X150357025Y-104472855D01*
X150431825Y-104749189D01*
X150488973Y-105109832D01*
X150484878Y-105178057D01*
X150727833Y-105178057D01*
X150730252Y-104973679D01*
X150740788Y-104826994D01*
X150764361Y-104711090D01*
X150805894Y-104599054D01*
X150851413Y-104502140D01*
X151044671Y-104201281D01*
X151299907Y-103947586D01*
X151602314Y-103753058D01*
X151923577Y-103633036D01*
X152135086Y-103606912D01*
X152387328Y-103617040D01*
X152476807Y-103632000D01*
X153372636Y-103632000D01*
X153712333Y-103632000D01*
X155573969Y-103632000D01*
X156294151Y-103632000D01*
X156557631Y-103632663D01*
X156748141Y-103635452D01*
X156877375Y-103641567D01*
X156957026Y-103652209D01*
X156998785Y-103668577D01*
X157014346Y-103691871D01*
X157015947Y-103706083D01*
X157016615Y-103776850D01*
X157017223Y-103917512D01*
X157017767Y-104116248D01*
X157018239Y-104361235D01*
X157018634Y-104640651D01*
X157018944Y-104942674D01*
X157019164Y-105255482D01*
X157019288Y-105567252D01*
X157019308Y-105866164D01*
X157019218Y-106140393D01*
X157019013Y-106378119D01*
X157018685Y-106567519D01*
X157018228Y-106696772D01*
X157017637Y-106754054D01*
X157017588Y-106755107D01*
X156997688Y-106775540D01*
X156934437Y-106789542D01*
X156818190Y-106797687D01*
X156639305Y-106800547D01*
X156388139Y-106798697D01*
X156305250Y-106797440D01*
X155596167Y-106785833D01*
X155585068Y-105208917D01*
X155573969Y-103632000D01*
X153712333Y-103632000D01*
X153713697Y-103811917D01*
X153713970Y-103904257D01*
X153714008Y-104067114D01*
X153713826Y-104286335D01*
X153713438Y-104547770D01*
X153712860Y-104837268D01*
X153712375Y-105039583D01*
X153712955Y-105327351D01*
X153715999Y-105584912D01*
X153721165Y-105800877D01*
X153728112Y-105963853D01*
X153736497Y-106062449D01*
X153743821Y-106087333D01*
X153785974Y-106059037D01*
X153873199Y-105982541D01*
X153991635Y-105870436D01*
X154093333Y-105769833D01*
X154254993Y-105611354D01*
X154382564Y-105506817D01*
X154491404Y-105457390D01*
X154596876Y-105464242D01*
X154714337Y-105528544D01*
X154859149Y-105651464D01*
X155046673Y-105834172D01*
X155055621Y-105843081D01*
X155448000Y-106233828D01*
X155448000Y-106478081D01*
X155442885Y-106609119D01*
X155429637Y-106697772D01*
X155415456Y-106722333D01*
X155375412Y-106693891D01*
X155287763Y-106615787D01*
X155164135Y-106498854D01*
X155016156Y-106353927D01*
X154961878Y-106299715D01*
X154540845Y-105877096D01*
X154066193Y-106345399D01*
X153874050Y-106531879D01*
X153730186Y-106663362D01*
X153625472Y-106747088D01*
X153550781Y-106790292D01*
X153496987Y-106800213D01*
X153493187Y-106799768D01*
X153394833Y-106785833D01*
X153383735Y-105208917D01*
X153372636Y-103632000D01*
X152476807Y-103632000D01*
X152646082Y-103660301D01*
X152832854Y-103715945D01*
X153003478Y-103786100D01*
X153098627Y-103846003D01*
X153124907Y-103906155D01*
X153088927Y-103977062D01*
X153033783Y-104035333D01*
X152947805Y-104110678D01*
X152880848Y-104134218D01*
X152792981Y-104114914D01*
X152748807Y-104099300D01*
X152515349Y-104026658D01*
X152322029Y-103997264D01*
X152138643Y-104007246D01*
X152092443Y-104015129D01*
X151777823Y-104110897D01*
X151519093Y-104269703D01*
X151312605Y-104494384D01*
X151182724Y-104723142D01*
X151125171Y-104863999D01*
X151096527Y-104988298D01*
X151090824Y-105133519D01*
X151094055Y-105201622D01*
X151984348Y-105201622D01*
X152020698Y-105077471D01*
X152122854Y-104970493D01*
X152260425Y-104904684D01*
X152300429Y-104918143D01*
X152377856Y-104951591D01*
X152480380Y-105037594D01*
X152524474Y-105157954D01*
X152511143Y-105286733D01*
X152441394Y-105397991D01*
X152358455Y-105452007D01*
X152254264Y-105482355D01*
X152170653Y-105462415D01*
X152125755Y-105435664D01*
X152017977Y-105326501D01*
X151984348Y-105201622D01*
X151094055Y-105201622D01*
X151096924Y-105262079D01*
X151155536Y-105579494D01*
X151285460Y-105853213D01*
X151482843Y-106078507D01*
X151743831Y-106250646D01*
X151976461Y-106341272D01*
X152184861Y-106420532D01*
X152338159Y-106514485D01*
X152370154Y-106543941D01*
X152459210Y-106647954D01*
X152484734Y-106715171D01*
X152441522Y-106751258D01*
X152324369Y-106761883D01*
X152175434Y-106755956D01*
X151813893Y-106692837D01*
X151488812Y-106555098D01*
X151207340Y-106347509D01*
X150976624Y-106074840D01*
X150865414Y-105881746D01*
X150801326Y-105744925D01*
X150760930Y-105631836D01*
X150738821Y-105514832D01*
X150729593Y-105366268D01*
X150727833Y-105178057D01*
X150484878Y-105178057D01*
X150467863Y-105461468D01*
X150373260Y-105793276D01*
X150209927Y-106094438D01*
X149982628Y-106354135D01*
X149696127Y-106561546D01*
X149614997Y-106604361D01*
X149472302Y-106670931D01*
X149354920Y-106712116D01*
X149233267Y-106733920D01*
X149077753Y-106742346D01*
X148929309Y-106743500D01*
X148723862Y-106740155D01*
X148574203Y-106726767D01*
X148451600Y-106698302D01*
X148327321Y-106649729D01*
X148286252Y-106630876D01*
X147972203Y-106438313D01*
X147713343Y-106183412D01*
X147521080Y-105881746D01*
X147456993Y-105744925D01*
X147416597Y-105631836D01*
X147394488Y-105514832D01*
X147385260Y-105366268D01*
X147383500Y-105178057D01*
X147150667Y-105178057D01*
X147150667Y-106849333D01*
X157141333Y-106849333D01*
X157141333Y-103420333D01*
X157141333Y-103420333D01*
G37*
X157141333Y-103420333D02*
X147150667Y-103420333D01*
X147150667Y-105178057D01*
X147383500Y-105178057D01*
X147385794Y-104974865D01*
X147395966Y-104829792D01*
X147418947Y-104716342D01*
X147459669Y-104608019D01*
X147508398Y-104507125D01*
X147666057Y-104264576D01*
X147877467Y-104036542D01*
X148118257Y-103845571D01*
X148364059Y-103714211D01*
X148366286Y-103713342D01*
X148617034Y-103645982D01*
X148898958Y-103618337D01*
X149177957Y-103631134D01*
X149419930Y-103685104D01*
X149434773Y-103690508D01*
X149623379Y-103761376D01*
X149772734Y-103612022D01*
X149862445Y-103526143D01*
X149926227Y-103472144D01*
X149943024Y-103462667D01*
X149979671Y-103490693D01*
X150062882Y-103566637D01*
X150179606Y-103678300D01*
X150292980Y-103789757D01*
X150426276Y-103925834D01*
X150533643Y-104042222D01*
X150602683Y-104125040D01*
X150622000Y-104158158D01*
X150594764Y-104211275D01*
X150526119Y-104296780D01*
X150489512Y-104336162D01*
X150357025Y-104472855D01*
X150431825Y-104749189D01*
X150488973Y-105109832D01*
X150484878Y-105178057D01*
X150727833Y-105178057D01*
X150730252Y-104973679D01*
X150740788Y-104826994D01*
X150764361Y-104711090D01*
X150805894Y-104599054D01*
X150851413Y-104502140D01*
X151044671Y-104201281D01*
X151299907Y-103947586D01*
X151602314Y-103753058D01*
X151923577Y-103633036D01*
X152135086Y-103606912D01*
X152387328Y-103617040D01*
X152476807Y-103632000D01*
X153372636Y-103632000D01*
X153712333Y-103632000D01*
X155573969Y-103632000D01*
X156294151Y-103632000D01*
X156557631Y-103632663D01*
X156748141Y-103635452D01*
X156877375Y-103641567D01*
X156957026Y-103652209D01*
X156998785Y-103668577D01*
X157014346Y-103691871D01*
X157015947Y-103706083D01*
X157016615Y-103776850D01*
X157017223Y-103917512D01*
X157017767Y-104116248D01*
X157018239Y-104361235D01*
X157018634Y-104640651D01*
X157018944Y-104942674D01*
X157019164Y-105255482D01*
X157019288Y-105567252D01*
X157019308Y-105866164D01*
X157019218Y-106140393D01*
X157019013Y-106378119D01*
X157018685Y-106567519D01*
X157018228Y-106696772D01*
X157017637Y-106754054D01*
X157017588Y-106755107D01*
X156997688Y-106775540D01*
X156934437Y-106789542D01*
X156818190Y-106797687D01*
X156639305Y-106800547D01*
X156388139Y-106798697D01*
X156305250Y-106797440D01*
X155596167Y-106785833D01*
X155585068Y-105208917D01*
X155573969Y-103632000D01*
X153712333Y-103632000D01*
X153713697Y-103811917D01*
X153713970Y-103904257D01*
X153714008Y-104067114D01*
X153713826Y-104286335D01*
X153713438Y-104547770D01*
X153712860Y-104837268D01*
X153712375Y-105039583D01*
X153712955Y-105327351D01*
X153715999Y-105584912D01*
X153721165Y-105800877D01*
X153728112Y-105963853D01*
X153736497Y-106062449D01*
X153743821Y-106087333D01*
X153785974Y-106059037D01*
X153873199Y-105982541D01*
X153991635Y-105870436D01*
X154093333Y-105769833D01*
X154254993Y-105611354D01*
X154382564Y-105506817D01*
X154491404Y-105457390D01*
X154596876Y-105464242D01*
X154714337Y-105528544D01*
X154859149Y-105651464D01*
X155046673Y-105834172D01*
X155055621Y-105843081D01*
X155448000Y-106233828D01*
X155448000Y-106478081D01*
X155442885Y-106609119D01*
X155429637Y-106697772D01*
X155415456Y-106722333D01*
X155375412Y-106693891D01*
X155287763Y-106615787D01*
X155164135Y-106498854D01*
X155016156Y-106353927D01*
X154961878Y-106299715D01*
X154540845Y-105877096D01*
X154066193Y-106345399D01*
X153874050Y-106531879D01*
X153730186Y-106663362D01*
X153625472Y-106747088D01*
X153550781Y-106790292D01*
X153496987Y-106800213D01*
X153493187Y-106799768D01*
X153394833Y-106785833D01*
X153383735Y-105208917D01*
X153372636Y-103632000D01*
X152476807Y-103632000D01*
X152646082Y-103660301D01*
X152832854Y-103715945D01*
X153003478Y-103786100D01*
X153098627Y-103846003D01*
X153124907Y-103906155D01*
X153088927Y-103977062D01*
X153033783Y-104035333D01*
X152947805Y-104110678D01*
X152880848Y-104134218D01*
X152792981Y-104114914D01*
X152748807Y-104099300D01*
X152515349Y-104026658D01*
X152322029Y-103997264D01*
X152138643Y-104007246D01*
X152092443Y-104015129D01*
X151777823Y-104110897D01*
X151519093Y-104269703D01*
X151312605Y-104494384D01*
X151182724Y-104723142D01*
X151125171Y-104863999D01*
X151096527Y-104988298D01*
X151090824Y-105133519D01*
X151094055Y-105201622D01*
X151984348Y-105201622D01*
X152020698Y-105077471D01*
X152122854Y-104970493D01*
X152260425Y-104904684D01*
X152300429Y-104918143D01*
X152377856Y-104951591D01*
X152480380Y-105037594D01*
X152524474Y-105157954D01*
X152511143Y-105286733D01*
X152441394Y-105397991D01*
X152358455Y-105452007D01*
X152254264Y-105482355D01*
X152170653Y-105462415D01*
X152125755Y-105435664D01*
X152017977Y-105326501D01*
X151984348Y-105201622D01*
X151094055Y-105201622D01*
X151096924Y-105262079D01*
X151155536Y-105579494D01*
X151285460Y-105853213D01*
X151482843Y-106078507D01*
X151743831Y-106250646D01*
X151976461Y-106341272D01*
X152184861Y-106420532D01*
X152338159Y-106514485D01*
X152370154Y-106543941D01*
X152459210Y-106647954D01*
X152484734Y-106715171D01*
X152441522Y-106751258D01*
X152324369Y-106761883D01*
X152175434Y-106755956D01*
X151813893Y-106692837D01*
X151488812Y-106555098D01*
X151207340Y-106347509D01*
X150976624Y-106074840D01*
X150865414Y-105881746D01*
X150801326Y-105744925D01*
X150760930Y-105631836D01*
X150738821Y-105514832D01*
X150729593Y-105366268D01*
X150727833Y-105178057D01*
X150484878Y-105178057D01*
X150467863Y-105461468D01*
X150373260Y-105793276D01*
X150209927Y-106094438D01*
X149982628Y-106354135D01*
X149696127Y-106561546D01*
X149614997Y-106604361D01*
X149472302Y-106670931D01*
X149354920Y-106712116D01*
X149233267Y-106733920D01*
X149077753Y-106742346D01*
X148929309Y-106743500D01*
X148723862Y-106740155D01*
X148574203Y-106726767D01*
X148451600Y-106698302D01*
X148327321Y-106649729D01*
X148286252Y-106630876D01*
X147972203Y-106438313D01*
X147713343Y-106183412D01*
X147521080Y-105881746D01*
X147456993Y-105744925D01*
X147416597Y-105631836D01*
X147394488Y-105514832D01*
X147385260Y-105366268D01*
X147383500Y-105178057D01*
X147150667Y-105178057D01*
X147150667Y-106849333D01*
X157141333Y-106849333D01*
X157141333Y-103420333D01*
G36*
X149134137Y-106359615D02*
X149404523Y-106276419D01*
X149650965Y-106129721D01*
X149860314Y-105921545D01*
X149987126Y-105722283D01*
X150043789Y-105594082D01*
X150076169Y-105466367D01*
X150090299Y-105307397D01*
X150092560Y-105167578D01*
X150092833Y-104819322D01*
X149716147Y-104440775D01*
X149540877Y-104269406D01*
X149406614Y-104151135D01*
X149298972Y-104075030D01*
X149203560Y-104030159D01*
X149157651Y-104016447D01*
X149006529Y-103983888D01*
X148885377Y-103977297D01*
X148753653Y-103997618D01*
X148632333Y-104028665D01*
X148440008Y-104101690D01*
X148244608Y-104208732D01*
X148081681Y-104329072D01*
X148031061Y-104379074D01*
X147975204Y-104460208D01*
X147903721Y-104588500D01*
X147845880Y-104706785D01*
X147783879Y-104856347D01*
X147765677Y-104930800D01*
X148336000Y-104930800D01*
X148360628Y-104858111D01*
X148420246Y-104764030D01*
X148423739Y-104759543D01*
X148533190Y-104674748D01*
X148665133Y-104645959D01*
X148784746Y-104680398D01*
X148846478Y-104749940D01*
X148903034Y-104852740D01*
X148928645Y-104941695D01*
X148928667Y-104943475D01*
X148895233Y-105017443D01*
X148814726Y-105101597D01*
X148716834Y-105170403D01*
X148632333Y-105198333D01*
X148541184Y-105167821D01*
X148441754Y-105094094D01*
X148363634Y-105003866D01*
X148336000Y-104930800D01*
X147765677Y-104930800D01*
X147752931Y-104982933D01*
X147746297Y-105126150D01*
X147752409Y-105255970D01*
X147780895Y-105466175D01*
X148956686Y-105466175D01*
X148990899Y-105336376D01*
X149011461Y-105306423D01*
X149100095Y-105256188D01*
X149225472Y-105243242D01*
X149348356Y-105267511D01*
X149412476Y-105307191D01*
X149469905Y-105415710D01*
X149476553Y-105549352D01*
X149434858Y-105671139D01*
X149384914Y-105725100D01*
X149254105Y-105784862D01*
X149132063Y-105764697D01*
X149053301Y-105712930D01*
X148978813Y-105604578D01*
X148956686Y-105466175D01*
X147780895Y-105466175D01*
X147788000Y-105518602D01*
X147864889Y-105732117D01*
X147996137Y-105927219D01*
X148076081Y-106016837D01*
X148310778Y-106207918D01*
X148574118Y-106327391D01*
X148852953Y-106377281D01*
X149134137Y-106359615D01*
X149134137Y-106359615D01*
G37*
X149134137Y-106359615D02*
X149404523Y-106276419D01*
X149650965Y-106129721D01*
X149860314Y-105921545D01*
X149987126Y-105722283D01*
X150043789Y-105594082D01*
X150076169Y-105466367D01*
X150090299Y-105307397D01*
X150092560Y-105167578D01*
X150092833Y-104819322D01*
X149716147Y-104440775D01*
X149540877Y-104269406D01*
X149406614Y-104151135D01*
X149298972Y-104075030D01*
X149203560Y-104030159D01*
X149157651Y-104016447D01*
X149006529Y-103983888D01*
X148885377Y-103977297D01*
X148753653Y-103997618D01*
X148632333Y-104028665D01*
X148440008Y-104101690D01*
X148244608Y-104208732D01*
X148081681Y-104329072D01*
X148031061Y-104379074D01*
X147975204Y-104460208D01*
X147903721Y-104588500D01*
X147845880Y-104706785D01*
X147783879Y-104856347D01*
X147765677Y-104930800D01*
X148336000Y-104930800D01*
X148360628Y-104858111D01*
X148420246Y-104764030D01*
X148423739Y-104759543D01*
X148533190Y-104674748D01*
X148665133Y-104645959D01*
X148784746Y-104680398D01*
X148846478Y-104749940D01*
X148903034Y-104852740D01*
X148928645Y-104941695D01*
X148928667Y-104943475D01*
X148895233Y-105017443D01*
X148814726Y-105101597D01*
X148716834Y-105170403D01*
X148632333Y-105198333D01*
X148541184Y-105167821D01*
X148441754Y-105094094D01*
X148363634Y-105003866D01*
X148336000Y-104930800D01*
X147765677Y-104930800D01*
X147752931Y-104982933D01*
X147746297Y-105126150D01*
X147752409Y-105255970D01*
X147780895Y-105466175D01*
X148956686Y-105466175D01*
X148990899Y-105336376D01*
X149011461Y-105306423D01*
X149100095Y-105256188D01*
X149225472Y-105243242D01*
X149348356Y-105267511D01*
X149412476Y-105307191D01*
X149469905Y-105415710D01*
X149476553Y-105549352D01*
X149434858Y-105671139D01*
X149384914Y-105725100D01*
X149254105Y-105784862D01*
X149132063Y-105764697D01*
X149053301Y-105712930D01*
X148978813Y-105604578D01*
X148956686Y-105466175D01*
X147780895Y-105466175D01*
X147788000Y-105518602D01*
X147864889Y-105732117D01*
X147996137Y-105927219D01*
X148076081Y-106016837D01*
X148310778Y-106207918D01*
X148574118Y-106327391D01*
X148852953Y-106377281D01*
X149134137Y-106359615D01*
G36*
X156639287Y-104366199D02*
X156730481Y-104340056D01*
X156796247Y-104285047D01*
X156806407Y-104272894D01*
X156878015Y-104129624D01*
X156870145Y-103984898D01*
X156829522Y-103907787D01*
X156759940Y-103854696D01*
X156635284Y-103822867D01*
X156522605Y-103811372D01*
X156371453Y-103806212D01*
X156274675Y-103821034D01*
X156203115Y-103861986D01*
X156178250Y-103883991D01*
X156099792Y-104007416D01*
X156093700Y-104097667D01*
X156210000Y-104097667D01*
X156238243Y-104008778D01*
X156260800Y-103979133D01*
X156341395Y-103943850D01*
X156465719Y-103930011D01*
X156595595Y-103937614D01*
X156692845Y-103966660D01*
X156709533Y-103979133D01*
X156762985Y-104073248D01*
X156742202Y-104159801D01*
X156657518Y-104227148D01*
X156519267Y-104263643D01*
X156454083Y-104267000D01*
X156308988Y-104241649D01*
X156226407Y-104169265D01*
X156210000Y-104097667D01*
X156093700Y-104097667D01*
X156090462Y-104145628D01*
X156150686Y-104270418D01*
X156172111Y-104292189D01*
X156267152Y-104346796D01*
X156409143Y-104370577D01*
X156493351Y-104372833D01*
X156639287Y-104366199D01*
X156639287Y-104366199D01*
G37*
X156639287Y-104366199D02*
X156730481Y-104340056D01*
X156796247Y-104285047D01*
X156806407Y-104272894D01*
X156878015Y-104129624D01*
X156870145Y-103984898D01*
X156829522Y-103907787D01*
X156759940Y-103854696D01*
X156635284Y-103822867D01*
X156522605Y-103811372D01*
X156371453Y-103806212D01*
X156274675Y-103821034D01*
X156203115Y-103861986D01*
X156178250Y-103883991D01*
X156099792Y-104007416D01*
X156093700Y-104097667D01*
X156210000Y-104097667D01*
X156238243Y-104008778D01*
X156260800Y-103979133D01*
X156341395Y-103943850D01*
X156465719Y-103930011D01*
X156595595Y-103937614D01*
X156692845Y-103966660D01*
X156709533Y-103979133D01*
X156762985Y-104073248D01*
X156742202Y-104159801D01*
X156657518Y-104227148D01*
X156519267Y-104263643D01*
X156454083Y-104267000D01*
X156308988Y-104241649D01*
X156226407Y-104169265D01*
X156210000Y-104097667D01*
X156093700Y-104097667D01*
X156090462Y-104145628D01*
X156150686Y-104270418D01*
X156172111Y-104292189D01*
X156267152Y-104346796D01*
X156409143Y-104370577D01*
X156493351Y-104372833D01*
X156639287Y-104366199D01*
G36*
X156416819Y-105160889D02*
X156503014Y-105066420D01*
X156557144Y-104941722D01*
X156563885Y-104902000D01*
X156582237Y-104802649D01*
X156628354Y-104757907D01*
X156730408Y-104740933D01*
X156733181Y-104740695D01*
X156848057Y-104715092D01*
X156887333Y-104666611D01*
X156870978Y-104637327D01*
X156812828Y-104618792D01*
X156699258Y-104608940D01*
X156516641Y-104605709D01*
X156485167Y-104605667D01*
X156083000Y-104605667D01*
X156083000Y-104836100D01*
X156083675Y-104851200D01*
X156210000Y-104851200D01*
X156223413Y-104764401D01*
X156278890Y-104734461D01*
X156315833Y-104732667D01*
X156388209Y-104744215D01*
X156417225Y-104795606D01*
X156421667Y-104876304D01*
X156401113Y-104990347D01*
X156348829Y-105047336D01*
X156278877Y-105035200D01*
X156257492Y-105017225D01*
X156222064Y-104941994D01*
X156210000Y-104851200D01*
X156083675Y-104851200D01*
X156089443Y-104980161D01*
X156114542Y-105067402D01*
X156166949Y-105125077D01*
X156177086Y-105132433D01*
X156264791Y-105182003D01*
X156320563Y-105198333D01*
X156416819Y-105160889D01*
X156416819Y-105160889D01*
G37*
X156416819Y-105160889D02*
X156503014Y-105066420D01*
X156557144Y-104941722D01*
X156563885Y-104902000D01*
X156582237Y-104802649D01*
X156628354Y-104757907D01*
X156730408Y-104740933D01*
X156733181Y-104740695D01*
X156848057Y-104715092D01*
X156887333Y-104666611D01*
X156870978Y-104637327D01*
X156812828Y-104618792D01*
X156699258Y-104608940D01*
X156516641Y-104605709D01*
X156485167Y-104605667D01*
X156083000Y-104605667D01*
X156083000Y-104836100D01*
X156083675Y-104851200D01*
X156210000Y-104851200D01*
X156223413Y-104764401D01*
X156278890Y-104734461D01*
X156315833Y-104732667D01*
X156388209Y-104744215D01*
X156417225Y-104795606D01*
X156421667Y-104876304D01*
X156401113Y-104990347D01*
X156348829Y-105047336D01*
X156278877Y-105035200D01*
X156257492Y-105017225D01*
X156222064Y-104941994D01*
X156210000Y-104851200D01*
X156083675Y-104851200D01*
X156089443Y-104980161D01*
X156114542Y-105067402D01*
X156166949Y-105125077D01*
X156177086Y-105132433D01*
X156264791Y-105182003D01*
X156320563Y-105198333D01*
X156416819Y-105160889D01*
G36*
X156863031Y-105859047D02*
X156879698Y-105798063D01*
X156881363Y-105676027D01*
X156878770Y-105611083D01*
X156866167Y-105346500D01*
X156474583Y-105334328D01*
X156083000Y-105322156D01*
X156083000Y-105598912D01*
X156087513Y-105755245D01*
X156103240Y-105842124D01*
X156133461Y-105874392D01*
X156144180Y-105875667D01*
X156187354Y-105843339D01*
X156212399Y-105740289D01*
X156218264Y-105674583D01*
X156240900Y-105547022D01*
X156281331Y-105477376D01*
X156327989Y-105473156D01*
X156369305Y-105541873D01*
X156377425Y-105571249D01*
X156416928Y-105654174D01*
X156465702Y-105656751D01*
X156506323Y-105578980D01*
X156508242Y-105571249D01*
X156556772Y-105491813D01*
X156635242Y-105473500D01*
X156698875Y-105482195D01*
X156732171Y-105522937D01*
X156747903Y-105617712D01*
X156752069Y-105674583D01*
X156769760Y-105807589D01*
X156803611Y-105868533D01*
X156828173Y-105875667D01*
X156863031Y-105859047D01*
X156863031Y-105859047D01*
G37*
X156863031Y-105859047D02*
X156879698Y-105798063D01*
X156881363Y-105676027D01*
X156878770Y-105611083D01*
X156866167Y-105346500D01*
X156474583Y-105334328D01*
X156083000Y-105322156D01*
X156083000Y-105598912D01*
X156087513Y-105755245D01*
X156103240Y-105842124D01*
X156133461Y-105874392D01*
X156144180Y-105875667D01*
X156187354Y-105843339D01*
X156212399Y-105740289D01*
X156218264Y-105674583D01*
X156240900Y-105547022D01*
X156281331Y-105477376D01*
X156327989Y-105473156D01*
X156369305Y-105541873D01*
X156377425Y-105571249D01*
X156416928Y-105654174D01*
X156465702Y-105656751D01*
X156506323Y-105578980D01*
X156508242Y-105571249D01*
X156556772Y-105491813D01*
X156635242Y-105473500D01*
X156698875Y-105482195D01*
X156732171Y-105522937D01*
X156747903Y-105617712D01*
X156752069Y-105674583D01*
X156769760Y-105807589D01*
X156803611Y-105868533D01*
X156828173Y-105875667D01*
X156863031Y-105859047D01*
G36*
X156700025Y-106632223D02*
X156833004Y-106613601D01*
X156886327Y-106578366D01*
X156862220Y-106523081D01*
X156762906Y-106444312D01*
X156654500Y-106376150D01*
X156534458Y-106299674D01*
X156450388Y-106237184D01*
X156421667Y-106204443D01*
X156459955Y-106186674D01*
X156558719Y-106174890D01*
X156654500Y-106172000D01*
X156794912Y-106166299D01*
X156867202Y-106146295D01*
X156887333Y-106108500D01*
X156872940Y-106078230D01*
X156820298Y-106059074D01*
X156715214Y-106048791D01*
X156543495Y-106045140D01*
X156485167Y-106045000D01*
X156297036Y-106046657D01*
X156178248Y-106053509D01*
X156113510Y-106068384D01*
X156087532Y-106094105D01*
X156084200Y-106119083D01*
X156120757Y-106182425D01*
X156218889Y-106268209D01*
X156327617Y-106341333D01*
X156569833Y-106489500D01*
X156326417Y-106502196D01*
X156178148Y-106516524D01*
X156101447Y-106542450D01*
X156083000Y-106576279D01*
X156098987Y-106605731D01*
X156156106Y-106624373D01*
X156268096Y-106634300D01*
X156448695Y-106637611D01*
X156485167Y-106637667D01*
X156700025Y-106632223D01*
X156700025Y-106632223D01*
G37*
X156700025Y-106632223D02*
X156833004Y-106613601D01*
X156886327Y-106578366D01*
X156862220Y-106523081D01*
X156762906Y-106444312D01*
X156654500Y-106376150D01*
X156534458Y-106299674D01*
X156450388Y-106237184D01*
X156421667Y-106204443D01*
X156459955Y-106186674D01*
X156558719Y-106174890D01*
X156654500Y-106172000D01*
X156794912Y-106166299D01*
X156867202Y-106146295D01*
X156887333Y-106108500D01*
X156872940Y-106078230D01*
X156820298Y-106059074D01*
X156715214Y-106048791D01*
X156543495Y-106045140D01*
X156485167Y-106045000D01*
X156297036Y-106046657D01*
X156178248Y-106053509D01*
X156113510Y-106068384D01*
X156087532Y-106094105D01*
X156084200Y-106119083D01*
X156120757Y-106182425D01*
X156218889Y-106268209D01*
X156327617Y-106341333D01*
X156569833Y-106489500D01*
X156326417Y-106502196D01*
X156178148Y-106516524D01*
X156101447Y-106542450D01*
X156083000Y-106576279D01*
X156098987Y-106605731D01*
X156156106Y-106624373D01*
X156268096Y-106634300D01*
X156448695Y-106637611D01*
X156485167Y-106637667D01*
X156700025Y-106632223D01*
D12*
X146212000Y-100808000D02*
X146212000Y-101508000D01*
X147412000Y-101508000D02*
X147412000Y-100808000D01*
X149952000Y-101508000D02*
X149952000Y-100808000D01*
X148752000Y-100808000D02*
X148752000Y-101508000D01*
X164308000Y-100930000D02*
X165008000Y-100930000D01*
X165008000Y-99730000D02*
X164308000Y-99730000D01*
X140300000Y-109820000D02*
X141000000Y-109820000D01*
X141000000Y-108620000D02*
X140300000Y-108620000D01*
X164308000Y-102708000D02*
X165008000Y-102708000D01*
X165008000Y-101508000D02*
X164308000Y-101508000D01*
X145634000Y-104678000D02*
X145634000Y-103978000D01*
X144434000Y-103978000D02*
X144434000Y-104678000D01*
X160794000Y-107837000D02*
X159594000Y-107837000D01*
X159594000Y-109587000D02*
X160794000Y-109587000D01*
X159594000Y-106793000D02*
X160794000Y-106793000D01*
X160794000Y-105043000D02*
X159594000Y-105043000D01*
X147402000Y-109587000D02*
X148602000Y-109587000D01*
X148602000Y-107837000D02*
X147402000Y-107837000D01*
X154698000Y-107837000D02*
X153498000Y-107837000D01*
X153498000Y-109587000D02*
X154698000Y-109587000D01*
X158486000Y-100862000D02*
G75*
G03X158486000Y-100862000I-100000J0D01*
G01*
X158636000Y-101512000D02*
X158636000Y-101012000D01*
X161536000Y-101512000D02*
X158636000Y-101512000D01*
X161536000Y-101012000D02*
X161536000Y-101512000D01*
X158636000Y-101012000D02*
X161536000Y-101012000D01*
D13*
X139263120Y-99522280D02*
G75*
G03X139263120Y-99522280I-254000J0D01*
G01*
X138795760Y-105912920D02*
X138795760Y-101513640D01*
X138795760Y-101513640D02*
X143794480Y-101513640D01*
X143794480Y-101513640D02*
X143794480Y-105912920D01*
X143794480Y-105912920D02*
X138795760Y-105912920D01*
D12*
X162738000Y-106534000D02*
G75*
G03X162738000Y-106534000I-100000J0D01*
G01*
X162888000Y-107184000D02*
X162888000Y-106684000D01*
X165788000Y-107184000D02*
X162888000Y-107184000D01*
X165788000Y-106684000D02*
X165788000Y-107184000D01*
X162888000Y-106684000D02*
X165788000Y-106684000D01*
X145269143Y-100991334D02*
X145316762Y-100943715D01*
X145364381Y-100800858D01*
X145364381Y-100705620D01*
X145316762Y-100562762D01*
X145221524Y-100467524D01*
X145126286Y-100419905D01*
X144935810Y-100372286D01*
X144792952Y-100372286D01*
X144602476Y-100419905D01*
X144507238Y-100467524D01*
X144412000Y-100562762D01*
X144364381Y-100705620D01*
X144364381Y-100800858D01*
X144412000Y-100943715D01*
X144459619Y-100991334D01*
X145364381Y-101943715D02*
X145364381Y-101372286D01*
X145364381Y-101658000D02*
X144364381Y-101658000D01*
X144507238Y-101562762D01*
X144602476Y-101467524D01*
X144650095Y-101372286D01*
X151609143Y-100991334D02*
X151656762Y-100943715D01*
X151704381Y-100800858D01*
X151704381Y-100705620D01*
X151656762Y-100562762D01*
X151561524Y-100467524D01*
X151466286Y-100419905D01*
X151275810Y-100372286D01*
X151132952Y-100372286D01*
X150942476Y-100419905D01*
X150847238Y-100467524D01*
X150752000Y-100562762D01*
X150704381Y-100705620D01*
X150704381Y-100800858D01*
X150752000Y-100943715D01*
X150799619Y-100991334D01*
X150799619Y-101372286D02*
X150752000Y-101419905D01*
X150704381Y-101515143D01*
X150704381Y-101753239D01*
X150752000Y-101848477D01*
X150799619Y-101896096D01*
X150894857Y-101943715D01*
X150990095Y-101943715D01*
X151132952Y-101896096D01*
X151704381Y-101324667D01*
X151704381Y-101943715D01*
X164824666Y-102587143D02*
X164872285Y-102634762D01*
X165015142Y-102682381D01*
X165110380Y-102682381D01*
X165253238Y-102634762D01*
X165348476Y-102539524D01*
X165396095Y-102444286D01*
X165443714Y-102253810D01*
X165443714Y-102110952D01*
X165396095Y-101920476D01*
X165348476Y-101825238D01*
X165253238Y-101730000D01*
X165110380Y-101682381D01*
X165015142Y-101682381D01*
X164872285Y-101730000D01*
X164824666Y-101777619D01*
X164491333Y-101682381D02*
X163872285Y-101682381D01*
X164205619Y-102063333D01*
X164062761Y-102063333D01*
X163967523Y-102110952D01*
X163919904Y-102158571D01*
X163872285Y-102253810D01*
X163872285Y-102491905D01*
X163919904Y-102587143D01*
X163967523Y-102634762D01*
X164062761Y-102682381D01*
X164348476Y-102682381D01*
X164443714Y-102634762D01*
X164491333Y-102587143D01*
X140816666Y-111477143D02*
X140864285Y-111524762D01*
X141007142Y-111572381D01*
X141102380Y-111572381D01*
X141245238Y-111524762D01*
X141340476Y-111429524D01*
X141388095Y-111334286D01*
X141435714Y-111143810D01*
X141435714Y-111000952D01*
X141388095Y-110810476D01*
X141340476Y-110715238D01*
X141245238Y-110620000D01*
X141102380Y-110572381D01*
X141007142Y-110572381D01*
X140864285Y-110620000D01*
X140816666Y-110667619D01*
X139959523Y-110905714D02*
X139959523Y-111572381D01*
X140197619Y-110524762D02*
X140435714Y-111239048D01*
X139816666Y-111239048D01*
X164824666Y-104365143D02*
X164872285Y-104412762D01*
X165015142Y-104460381D01*
X165110380Y-104460381D01*
X165253238Y-104412762D01*
X165348476Y-104317524D01*
X165396095Y-104222286D01*
X165443714Y-104031810D01*
X165443714Y-103888952D01*
X165396095Y-103698476D01*
X165348476Y-103603238D01*
X165253238Y-103508000D01*
X165110380Y-103460381D01*
X165015142Y-103460381D01*
X164872285Y-103508000D01*
X164824666Y-103555619D01*
X163919904Y-103460381D02*
X164396095Y-103460381D01*
X164443714Y-103936571D01*
X164396095Y-103888952D01*
X164300857Y-103841333D01*
X164062761Y-103841333D01*
X163967523Y-103888952D01*
X163919904Y-103936571D01*
X163872285Y-104031810D01*
X163872285Y-104269905D01*
X163919904Y-104365143D01*
X163967523Y-104412762D01*
X164062761Y-104460381D01*
X164300857Y-104460381D01*
X164396095Y-104412762D01*
X164443714Y-104365143D01*
X147291143Y-104161334D02*
X147338762Y-104113715D01*
X147386381Y-103970858D01*
X147386381Y-103875620D01*
X147338762Y-103732762D01*
X147243524Y-103637524D01*
X147148286Y-103589905D01*
X146957810Y-103542286D01*
X146814952Y-103542286D01*
X146624476Y-103589905D01*
X146529238Y-103637524D01*
X146434000Y-103732762D01*
X146386381Y-103875620D01*
X146386381Y-103970858D01*
X146434000Y-104113715D01*
X146481619Y-104161334D01*
X146386381Y-105018477D02*
X146386381Y-104828000D01*
X146434000Y-104732762D01*
X146481619Y-104685143D01*
X146624476Y-104589905D01*
X146814952Y-104542286D01*
X147195905Y-104542286D01*
X147291143Y-104589905D01*
X147338762Y-104637524D01*
X147386381Y-104732762D01*
X147386381Y-104923239D01*
X147338762Y-105018477D01*
X147291143Y-105066096D01*
X147195905Y-105113715D01*
X146957810Y-105113715D01*
X146862571Y-105066096D01*
X146814952Y-105018477D01*
X146767333Y-104923239D01*
X146767333Y-104732762D01*
X146814952Y-104637524D01*
X146862571Y-104589905D01*
X146957810Y-104542286D01*
X161813048Y-111264381D02*
X161813048Y-110264381D01*
X161432095Y-110264381D01*
X161336857Y-110312000D01*
X161289238Y-110359619D01*
X161241619Y-110454857D01*
X161241619Y-110597714D01*
X161289238Y-110692952D01*
X161336857Y-110740571D01*
X161432095Y-110788190D01*
X161813048Y-110788190D01*
X160955905Y-110264381D02*
X160384476Y-110264381D01*
X160670191Y-111264381D02*
X160670191Y-110264381D01*
X159479714Y-111169143D02*
X159527333Y-111216762D01*
X159670190Y-111264381D01*
X159765428Y-111264381D01*
X159908286Y-111216762D01*
X160003524Y-111121524D01*
X160051143Y-111026286D01*
X160098762Y-110835810D01*
X160098762Y-110692952D01*
X160051143Y-110502476D01*
X160003524Y-110407238D01*
X159908286Y-110312000D01*
X159765428Y-110264381D01*
X159670190Y-110264381D01*
X159527333Y-110312000D01*
X159479714Y-110359619D01*
X158527333Y-111264381D02*
X159098762Y-111264381D01*
X158813048Y-111264381D02*
X158813048Y-110264381D01*
X158908286Y-110407238D01*
X159003524Y-110502476D01*
X159098762Y-110550095D01*
X160360666Y-104270381D02*
X160694000Y-103794190D01*
X160932095Y-104270381D02*
X160932095Y-103270381D01*
X160551142Y-103270381D01*
X160455904Y-103318000D01*
X160408285Y-103365619D01*
X160360666Y-103460857D01*
X160360666Y-103603714D01*
X160408285Y-103698952D01*
X160455904Y-103746571D01*
X160551142Y-103794190D01*
X160932095Y-103794190D01*
X159408285Y-104270381D02*
X159979714Y-104270381D01*
X159694000Y-104270381D02*
X159694000Y-103270381D01*
X159789238Y-103413238D01*
X159884476Y-103508476D01*
X159979714Y-103556095D01*
X148168666Y-107064381D02*
X148502000Y-106588190D01*
X148740095Y-107064381D02*
X148740095Y-106064381D01*
X148359142Y-106064381D01*
X148263904Y-106112000D01*
X148216285Y-106159619D01*
X148168666Y-106254857D01*
X148168666Y-106397714D01*
X148216285Y-106492952D01*
X148263904Y-106540571D01*
X148359142Y-106588190D01*
X148740095Y-106588190D01*
X147787714Y-106159619D02*
X147740095Y-106112000D01*
X147644857Y-106064381D01*
X147406761Y-106064381D01*
X147311523Y-106112000D01*
X147263904Y-106159619D01*
X147216285Y-106254857D01*
X147216285Y-106350095D01*
X147263904Y-106492952D01*
X147835333Y-107064381D01*
X147216285Y-107064381D01*
X154264666Y-111264381D02*
X154598000Y-110788190D01*
X154836095Y-111264381D02*
X154836095Y-110264381D01*
X154455142Y-110264381D01*
X154359904Y-110312000D01*
X154312285Y-110359619D01*
X154264666Y-110454857D01*
X154264666Y-110597714D01*
X154312285Y-110692952D01*
X154359904Y-110740571D01*
X154455142Y-110788190D01*
X154836095Y-110788190D01*
X153931333Y-110264381D02*
X153312285Y-110264381D01*
X153645619Y-110645333D01*
X153502761Y-110645333D01*
X153407523Y-110692952D01*
X153359904Y-110740571D01*
X153312285Y-110835810D01*
X153312285Y-111073905D01*
X153359904Y-111169143D01*
X153407523Y-111216762D01*
X153502761Y-111264381D01*
X153788476Y-111264381D01*
X153883714Y-111216762D01*
X153931333Y-111169143D01*
X156638381Y-100500095D02*
X157447905Y-100500095D01*
X157543143Y-100547714D01*
X157590762Y-100595333D01*
X157638381Y-100690571D01*
X157638381Y-100881048D01*
X157590762Y-100976286D01*
X157543143Y-101023905D01*
X157447905Y-101071524D01*
X156638381Y-101071524D01*
X157638381Y-102071524D02*
X157638381Y-101500095D01*
X157638381Y-101785809D02*
X156638381Y-101785809D01*
X156781238Y-101690571D01*
X156876476Y-101595333D01*
X156924095Y-101500095D01*
D14*
X144687834Y-103132709D02*
X145304691Y-103132709D01*
X145377263Y-103168994D01*
X145413549Y-103205280D01*
X145449834Y-103277851D01*
X145449834Y-103422994D01*
X145413549Y-103495566D01*
X145377263Y-103531851D01*
X145304691Y-103568137D01*
X144687834Y-103568137D01*
X144760406Y-103894709D02*
X144724120Y-103930995D01*
X144687834Y-104003566D01*
X144687834Y-104184995D01*
X144724120Y-104257566D01*
X144760406Y-104293852D01*
X144832977Y-104330137D01*
X144905549Y-104330137D01*
X145014406Y-104293852D01*
X145449834Y-103858423D01*
X145449834Y-104330137D01*
D12*
X160890381Y-106172095D02*
X161699905Y-106172095D01*
X161795143Y-106219714D01*
X161842762Y-106267333D01*
X161890381Y-106362571D01*
X161890381Y-106553048D01*
X161842762Y-106648286D01*
X161795143Y-106695905D01*
X161699905Y-106743524D01*
X160890381Y-106743524D01*
X160890381Y-107124476D02*
X160890381Y-107743524D01*
X161271333Y-107410190D01*
X161271333Y-107553048D01*
X161318952Y-107648286D01*
X161366571Y-107695905D01*
X161461810Y-107743524D01*
X161699905Y-107743524D01*
X161795143Y-107695905D01*
X161842762Y-107648286D01*
X161890381Y-107553048D01*
X161890381Y-107267333D01*
X161842762Y-107172095D01*
X161795143Y-107124476D01*
M02*
