G04 #@! TF.FileFunction,Copper,L1,Top,Signal*
%FSLAX46Y46*%
G04 Gerber Fmt 4.6, Leading zero omitted, Abs format (unit mm)*
G04 Created by KiCad (PCBNEW 4.0.2-stable) date 04/04/2016 12:25:54*
%MOMM*%
G01*
G04 APERTURE LIST*
%ADD10C,0.100000*%
%ADD11O,1.506220X3.014980*%
%ADD12R,1.506220X3.014980*%
%ADD13R,5.400000X5.000000*%
%ADD14R,1.300000X1.500000*%
%ADD15R,1.500000X1.300000*%
%ADD16R,0.650000X1.060000*%
%ADD17R,0.350520X1.399540*%
%ADD18R,0.750000X1.200000*%
%ADD19R,1.200000X0.750000*%
%ADD20C,0.800000*%
%ADD21C,0.300000*%
%ADD22C,0.200000*%
G04 APERTURE END LIST*
D10*
D11*
X144940000Y-97100000D03*
X147480000Y-97100000D03*
X150020000Y-97100000D03*
X152560000Y-97100000D03*
X155100000Y-97100000D03*
X157640000Y-97100000D03*
X160180000Y-97100000D03*
X162720000Y-97100000D03*
X165260000Y-97100000D03*
X142400000Y-97100000D03*
X139860000Y-97100000D03*
X137320000Y-97100000D03*
X167800000Y-97100000D03*
D12*
X134780000Y-97100000D03*
D11*
X157580000Y-112300000D03*
X155040000Y-112300000D03*
X152500000Y-112300000D03*
X149960000Y-112300000D03*
X147420000Y-112300000D03*
X144880000Y-112300000D03*
X142340000Y-112300000D03*
X139800000Y-112300000D03*
X137260000Y-112300000D03*
X160120000Y-112300000D03*
X162660000Y-112300000D03*
X165200000Y-112300000D03*
X134720000Y-112300000D03*
D12*
X167740000Y-112300000D03*
D13*
X140700000Y-87000000D03*
X152200000Y-87000000D03*
D14*
X162560000Y-102950000D03*
X162560000Y-100250000D03*
X157300000Y-106300000D03*
X157300000Y-109000000D03*
X154940000Y-104220000D03*
X154940000Y-101520000D03*
D15*
X149000000Y-107000000D03*
X151700000Y-107000000D03*
D16*
X157800000Y-103970000D03*
X158750000Y-103970000D03*
X159700000Y-103970000D03*
X157800000Y-101770000D03*
X158750000Y-101770000D03*
X159700000Y-101770000D03*
D17*
X143775840Y-100524720D03*
X143125600Y-100524720D03*
X142475360Y-100524720D03*
X141825120Y-100524720D03*
X141174880Y-100524720D03*
X140524640Y-100524720D03*
X139874400Y-100524720D03*
X139224160Y-100524720D03*
X139224160Y-106275280D03*
X139874400Y-106275280D03*
X140524640Y-106275280D03*
X141174880Y-106275280D03*
X141825120Y-106275280D03*
X142475360Y-106275280D03*
X143125600Y-106275280D03*
X143775840Y-106275280D03*
D16*
X162850000Y-107300000D03*
X163800000Y-107300000D03*
X164750000Y-107300000D03*
X162850000Y-105100000D03*
X163800000Y-105100000D03*
X164750000Y-105100000D03*
D18*
X152400000Y-103820000D03*
X152400000Y-101920000D03*
X149200000Y-103850000D03*
X149200000Y-101950000D03*
X154800000Y-106950000D03*
X154800000Y-108850000D03*
D19*
X163000000Y-109220000D03*
X164900000Y-109220000D03*
D18*
X160000000Y-108500000D03*
X160000000Y-106600000D03*
D19*
X140020000Y-109220000D03*
X141920000Y-109220000D03*
D20*
X141823786Y-99309525D03*
X147200000Y-100100000D03*
X145600000Y-104400000D03*
X161757302Y-110057302D03*
X163807317Y-108176403D03*
X158800000Y-109500000D03*
X161600000Y-105749990D03*
X161600000Y-107450010D03*
X157649990Y-89901048D03*
X141688908Y-103211092D03*
X144400000Y-89500000D03*
X140911092Y-103988908D03*
D21*
X141475000Y-108100000D02*
X140049110Y-108100000D01*
X140049110Y-108100000D02*
X139224160Y-107275050D01*
X139224160Y-107275050D02*
X139224160Y-106275280D01*
X141920000Y-109220000D02*
X141920000Y-108545000D01*
X141920000Y-108545000D02*
X141475000Y-108100000D01*
X134720000Y-112300000D02*
X134720000Y-111545620D01*
X134720000Y-111545620D02*
X134700000Y-111525620D01*
X134700000Y-111525620D02*
X134700000Y-106500000D01*
X134700000Y-106500000D02*
X134924720Y-106275280D01*
X134924720Y-106275280D02*
X139224160Y-106275280D01*
X143125600Y-106275280D02*
X143775840Y-106275280D01*
X142475360Y-106275280D02*
X143125600Y-106275280D01*
X141920000Y-109220000D02*
X142145000Y-109220000D01*
X142145000Y-109220000D02*
X143775840Y-107589160D01*
X143775840Y-107589160D02*
X143775840Y-107275050D01*
X143775840Y-107275050D02*
X143775840Y-106275280D01*
X164750000Y-105100000D02*
X165375000Y-105100000D01*
X165375000Y-105100000D02*
X166253110Y-105978110D01*
X166253110Y-105978110D02*
X166253110Y-110492510D01*
X166253110Y-110492510D02*
X165200000Y-111545620D01*
X165200000Y-111545620D02*
X165200000Y-112300000D01*
X164750000Y-105100000D02*
X164750000Y-105930000D01*
X164750000Y-105930000D02*
X164260001Y-106419999D01*
X164260001Y-106419999D02*
X162900001Y-106419999D01*
X162900001Y-106419999D02*
X162850000Y-106470000D01*
X162850000Y-106470000D02*
X162850000Y-107300000D01*
X162660000Y-112300000D02*
X165200000Y-112300000D01*
X160000000Y-106600000D02*
X162150000Y-106600000D01*
X162150000Y-106600000D02*
X162850000Y-107300000D01*
X157300000Y-106300000D02*
X159700000Y-106300000D01*
X159700000Y-106300000D02*
X160000000Y-106600000D01*
X157300000Y-106300000D02*
X158750000Y-104850000D01*
X158750000Y-104850000D02*
X158750000Y-103970000D01*
X154800000Y-106950000D02*
X156650000Y-106950000D01*
X156650000Y-106950000D02*
X157300000Y-106300000D01*
X139800000Y-112300000D02*
X139800000Y-113054380D01*
X139800000Y-113054380D02*
X138596880Y-114257500D01*
X138596880Y-114257500D02*
X134221652Y-114257500D01*
X134221652Y-114257500D02*
X133516880Y-113552728D01*
X133516880Y-113552728D02*
X133516880Y-106756510D01*
X133516880Y-106756510D02*
X139224160Y-101049230D01*
X139224160Y-101049230D02*
X139224160Y-100524720D01*
X140020000Y-109220000D02*
X140020000Y-112080000D01*
X140020000Y-112080000D02*
X139800000Y-112300000D01*
X141823786Y-99309525D02*
X141823786Y-100523386D01*
X141823786Y-100523386D02*
X141825120Y-100524720D01*
X152400000Y-101920000D02*
X151725000Y-101920000D01*
X151725000Y-101920000D02*
X149905000Y-100100000D01*
X149905000Y-100100000D02*
X147200000Y-100100000D01*
X157800000Y-101770000D02*
X155190000Y-101770000D01*
X155190000Y-101770000D02*
X154940000Y-101520000D01*
X152400000Y-101920000D02*
X154540000Y-101920000D01*
X154540000Y-101920000D02*
X154940000Y-101520000D01*
X149000000Y-107000000D02*
X149000000Y-107950000D01*
X149000000Y-107950000D02*
X148623120Y-108326880D01*
X148623120Y-108326880D02*
X148623120Y-113552728D01*
X148623120Y-113552728D02*
X147918348Y-114257500D01*
X147918348Y-114257500D02*
X146921652Y-114257500D01*
X146921652Y-114257500D02*
X146083120Y-113418968D01*
X146083120Y-113418968D02*
X146083120Y-106897528D01*
X146083120Y-106897528D02*
X144311101Y-105125509D01*
X144311101Y-105125509D02*
X139989379Y-105125509D01*
X139989379Y-105125509D02*
X139874400Y-105240488D01*
X139874400Y-105240488D02*
X139874400Y-105275510D01*
X139874400Y-105275510D02*
X139874400Y-106275280D01*
X149200000Y-103850000D02*
X149200000Y-106800000D01*
X149200000Y-106800000D02*
X149000000Y-107000000D01*
X145600000Y-104400000D02*
X142874491Y-101674491D01*
X142874491Y-101674491D02*
X141239901Y-101674491D01*
X141239901Y-101674491D02*
X141174880Y-101609470D01*
X141174880Y-101609470D02*
X141174880Y-101524490D01*
X141174880Y-101524490D02*
X141174880Y-100524720D01*
X163000000Y-109220000D02*
X162594604Y-109220000D01*
X162594604Y-109220000D02*
X161757302Y-110057302D01*
X164750000Y-107300000D02*
X164750000Y-109070000D01*
X164750000Y-109070000D02*
X164900000Y-109220000D01*
X163807317Y-108176403D02*
X163807317Y-107307317D01*
X163807317Y-107307317D02*
X163800000Y-107300000D01*
X160000000Y-108500000D02*
X159800000Y-108500000D01*
X159800000Y-108500000D02*
X158800000Y-109500000D01*
X167800000Y-97100000D02*
X167800000Y-98907490D01*
X167800000Y-98907490D02*
X164857491Y-101849999D01*
X164857491Y-101849999D02*
X161615001Y-101849999D01*
X161615001Y-101849999D02*
X159700000Y-103765000D01*
X159700000Y-103765000D02*
X159700000Y-103970000D01*
X162560000Y-102950000D02*
X164265002Y-102950000D01*
X164265002Y-102950000D02*
X168943111Y-107628109D01*
X168943111Y-107628109D02*
X168943111Y-114167491D01*
X168943111Y-114167491D02*
X168853111Y-114257491D01*
X168853111Y-114257491D02*
X158783111Y-114257491D01*
X158783111Y-114257491D02*
X157580000Y-113054380D01*
X157580000Y-113054380D02*
X157580000Y-112300000D01*
X157300000Y-109000000D02*
X157300000Y-112020000D01*
X157300000Y-112020000D02*
X157580000Y-112300000D01*
X142475360Y-100524720D02*
X143125600Y-100524720D01*
X142900000Y-99715528D02*
X142900000Y-100299120D01*
X142900000Y-100299120D02*
X143125600Y-100524720D01*
X147420000Y-112300000D02*
X147420000Y-102483848D01*
X147420000Y-102483848D02*
X144311101Y-99374949D01*
X144311101Y-99374949D02*
X143240579Y-99374949D01*
X143240579Y-99374949D02*
X142900000Y-99715528D01*
X161600000Y-105749990D02*
X162200010Y-105749990D01*
X162200010Y-105749990D02*
X162850000Y-105100000D01*
X162000000Y-108612510D02*
X162000000Y-107850010D01*
X162000000Y-107850010D02*
X161600000Y-107450010D01*
X160120000Y-112300000D02*
X160120000Y-110492510D01*
X160120000Y-110492510D02*
X162000000Y-108612510D01*
X154940000Y-104220000D02*
X157550000Y-104220000D01*
X157550000Y-104220000D02*
X157800000Y-103970000D01*
X151700000Y-107000000D02*
X152260000Y-107000000D01*
X152260000Y-107000000D02*
X154940000Y-104320000D01*
X154940000Y-104320000D02*
X154940000Y-104220000D01*
X140499520Y-101599495D02*
X140499520Y-102375256D01*
X141335356Y-103211092D02*
X141688908Y-103211092D01*
X140524640Y-100524720D02*
X140524640Y-101574375D01*
X140524640Y-101574375D02*
X140499520Y-101599495D01*
X140499520Y-102375256D02*
X141335356Y-103211092D01*
X152100000Y-87800000D02*
X155100000Y-87800000D01*
X155100000Y-87800000D02*
X157201048Y-89901048D01*
X157201048Y-89901048D02*
X157649990Y-89901048D01*
X140911092Y-103988908D02*
X140911092Y-103635356D01*
X140911092Y-103635356D02*
X139899520Y-102623784D01*
X139899520Y-102623784D02*
X139899520Y-101599495D01*
X139899520Y-101599495D02*
X139874400Y-101574375D01*
X139874400Y-101574375D02*
X139874400Y-100524720D01*
X144400000Y-89500000D02*
X142300000Y-89500000D01*
X142300000Y-89500000D02*
X140600000Y-87800000D01*
D22*
G36*
X159425000Y-93400000D02*
X159428440Y-93435081D01*
X159431642Y-93470268D01*
X159432014Y-93471532D01*
X159432142Y-93472838D01*
X159442338Y-93506608D01*
X159452306Y-93540477D01*
X159452915Y-93541641D01*
X159453295Y-93542901D01*
X159469851Y-93574037D01*
X159486213Y-93605336D01*
X159487039Y-93606363D01*
X159487655Y-93607522D01*
X159509946Y-93634854D01*
X159532073Y-93662374D01*
X159533080Y-93663219D01*
X159533911Y-93664238D01*
X159561060Y-93686698D01*
X159588137Y-93709418D01*
X159589293Y-93710054D01*
X159590303Y-93710889D01*
X159621296Y-93727647D01*
X159652272Y-93744676D01*
X159653525Y-93745074D01*
X159654682Y-93745699D01*
X159688432Y-93756146D01*
X159722033Y-93766805D01*
X159723337Y-93766951D01*
X159724596Y-93767341D01*
X159759776Y-93771039D01*
X159794764Y-93774963D01*
X159797285Y-93774981D01*
X159797382Y-93774991D01*
X159797479Y-93774982D01*
X159800000Y-93775000D01*
X171125000Y-93775000D01*
X171125000Y-115025000D01*
X133175000Y-115025000D01*
X133175000Y-113988666D01*
X133832743Y-114646409D01*
X133871995Y-114678650D01*
X133910920Y-114711312D01*
X133913457Y-114712707D01*
X133915690Y-114714541D01*
X133960469Y-114738552D01*
X134004984Y-114763024D01*
X134007738Y-114763898D01*
X134010290Y-114765266D01*
X134058919Y-114780133D01*
X134107301Y-114795481D01*
X134110173Y-114795803D01*
X134112940Y-114796649D01*
X134163527Y-114801788D01*
X134213973Y-114807446D01*
X134219621Y-114807486D01*
X134219732Y-114807497D01*
X134219835Y-114807487D01*
X134221652Y-114807500D01*
X138596880Y-114807500D01*
X138647442Y-114802542D01*
X138698053Y-114798114D01*
X138700830Y-114797307D01*
X138703709Y-114797025D01*
X138752356Y-114782338D01*
X138801132Y-114768167D01*
X138803699Y-114766836D01*
X138806469Y-114766000D01*
X138851359Y-114742132D01*
X138896432Y-114718768D01*
X138898690Y-114716966D01*
X138901245Y-114715607D01*
X138940655Y-114683465D01*
X138980321Y-114651800D01*
X138984346Y-114647832D01*
X138984429Y-114647764D01*
X138984492Y-114647687D01*
X138985789Y-114646409D01*
X139469547Y-114162650D01*
X139568135Y-114193168D01*
X139791950Y-114216692D01*
X140016071Y-114196295D01*
X140231963Y-114132755D01*
X140431401Y-114028491D01*
X140606789Y-113887476D01*
X140751447Y-113715079D01*
X140859864Y-113517868D01*
X140927912Y-113303355D01*
X140952998Y-113079710D01*
X140953110Y-113063610D01*
X140953110Y-111536390D01*
X141186890Y-111536390D01*
X141186890Y-113063610D01*
X141208851Y-113287584D01*
X141273897Y-113503026D01*
X141379550Y-113701731D01*
X141521787Y-113876131D01*
X141695189Y-114019582D01*
X141893152Y-114126620D01*
X142108135Y-114193168D01*
X142331950Y-114216692D01*
X142556071Y-114196295D01*
X142771963Y-114132755D01*
X142971401Y-114028491D01*
X143146789Y-113887476D01*
X143291447Y-113715079D01*
X143399864Y-113517868D01*
X143467912Y-113303355D01*
X143492998Y-113079710D01*
X143493110Y-113063610D01*
X143493110Y-111536390D01*
X143471149Y-111312416D01*
X143406103Y-111096974D01*
X143300450Y-110898269D01*
X143158213Y-110723869D01*
X142984811Y-110580418D01*
X142786848Y-110473380D01*
X142571865Y-110406832D01*
X142348050Y-110383308D01*
X142123929Y-110403705D01*
X141908037Y-110467245D01*
X141708599Y-110571509D01*
X141533211Y-110712524D01*
X141388553Y-110884921D01*
X141280136Y-111082132D01*
X141212088Y-111296645D01*
X141187002Y-111520290D01*
X141186890Y-111536390D01*
X140953110Y-111536390D01*
X140931149Y-111312416D01*
X140866103Y-111096974D01*
X140760450Y-110898269D01*
X140618213Y-110723869D01*
X140570000Y-110683984D01*
X140570000Y-109996935D01*
X140620000Y-109996935D01*
X140683698Y-109991855D01*
X140791738Y-109958398D01*
X140886179Y-109896165D01*
X140959543Y-109810086D01*
X141006022Y-109706976D01*
X141021935Y-109595000D01*
X141021935Y-108845000D01*
X141016855Y-108781302D01*
X140983398Y-108673262D01*
X140921165Y-108578821D01*
X140835086Y-108505457D01*
X140731976Y-108458978D01*
X140620000Y-108443065D01*
X139420000Y-108443065D01*
X139356302Y-108448145D01*
X139248262Y-108481602D01*
X139153821Y-108543835D01*
X139080457Y-108629914D01*
X139033978Y-108733024D01*
X139018065Y-108845000D01*
X139018065Y-109595000D01*
X139023145Y-109658698D01*
X139056602Y-109766738D01*
X139118835Y-109861179D01*
X139204914Y-109934543D01*
X139308024Y-109981022D01*
X139420000Y-109996935D01*
X139470000Y-109996935D01*
X139470000Y-110437236D01*
X139368037Y-110467245D01*
X139168599Y-110571509D01*
X138993211Y-110712524D01*
X138848553Y-110884921D01*
X138740136Y-111082132D01*
X138672088Y-111296645D01*
X138647002Y-111520290D01*
X138646890Y-111536390D01*
X138646890Y-113063610D01*
X138668851Y-113287584D01*
X138696709Y-113379854D01*
X138369062Y-113707500D01*
X138215614Y-113707500D01*
X138319864Y-113517868D01*
X138387912Y-113303355D01*
X138412998Y-113079710D01*
X138413110Y-113063610D01*
X138413110Y-111536390D01*
X138391149Y-111312416D01*
X138326103Y-111096974D01*
X138220450Y-110898269D01*
X138078213Y-110723869D01*
X137904811Y-110580418D01*
X137706848Y-110473380D01*
X137491865Y-110406832D01*
X137268050Y-110383308D01*
X137043929Y-110403705D01*
X136828037Y-110467245D01*
X136628599Y-110571509D01*
X136453211Y-110712524D01*
X136308553Y-110884921D01*
X136200136Y-111082132D01*
X136132088Y-111296645D01*
X136107002Y-111520290D01*
X136106890Y-111536390D01*
X136106890Y-113063610D01*
X136128851Y-113287584D01*
X136193897Y-113503026D01*
X136299550Y-113701731D01*
X136304255Y-113707500D01*
X135922895Y-113707500D01*
X136024913Y-113470960D01*
X136081110Y-113208380D01*
X136081110Y-112454000D01*
X134874000Y-112454000D01*
X134874000Y-112474000D01*
X134566000Y-112474000D01*
X134566000Y-112454000D01*
X134546000Y-112454000D01*
X134546000Y-112146000D01*
X134566000Y-112146000D01*
X134566000Y-110346357D01*
X134874000Y-110346357D01*
X134874000Y-112146000D01*
X136081110Y-112146000D01*
X136081110Y-111391620D01*
X136024913Y-111129040D01*
X135918569Y-110882469D01*
X135766164Y-110661382D01*
X135573556Y-110474276D01*
X135348146Y-110328341D01*
X135083661Y-110233991D01*
X134874000Y-110346357D01*
X134566000Y-110346357D01*
X134356339Y-110233991D01*
X134091854Y-110328341D01*
X134066880Y-110344510D01*
X134066880Y-108395512D01*
X134992973Y-108395512D01*
X135032724Y-108749897D01*
X135140551Y-109089813D01*
X135312348Y-109402311D01*
X135541572Y-109675488D01*
X135819490Y-109898940D01*
X136135517Y-110064155D01*
X136477616Y-110164840D01*
X136832756Y-110197160D01*
X137187411Y-110159885D01*
X137528070Y-110054433D01*
X137841760Y-109884822D01*
X138116531Y-109657511D01*
X138341918Y-109381160D01*
X138509335Y-109066294D01*
X138612406Y-108724906D01*
X138647205Y-108370000D01*
X138646493Y-108318981D01*
X138601798Y-107965185D01*
X138489235Y-107626809D01*
X138313091Y-107316740D01*
X138080076Y-107046790D01*
X137799065Y-106827240D01*
X137480762Y-106666453D01*
X137137291Y-106570554D01*
X136781734Y-106543196D01*
X136427635Y-106585420D01*
X136088480Y-106695617D01*
X135777189Y-106869592D01*
X135505619Y-107100717D01*
X135284112Y-107380188D01*
X135121108Y-107697361D01*
X135022813Y-108040155D01*
X134992973Y-108395512D01*
X134066880Y-108395512D01*
X134066880Y-106984328D01*
X139343021Y-101708187D01*
X139349520Y-101729711D01*
X139349520Y-102623784D01*
X139354478Y-102674346D01*
X139358906Y-102724957D01*
X139359713Y-102727734D01*
X139359995Y-102730613D01*
X139374682Y-102779260D01*
X139388853Y-102828036D01*
X139390184Y-102830603D01*
X139391020Y-102833373D01*
X139414888Y-102878263D01*
X139438252Y-102923336D01*
X139440054Y-102925594D01*
X139441413Y-102928149D01*
X139473555Y-102967559D01*
X139505220Y-103007225D01*
X139509188Y-103011250D01*
X139509256Y-103011333D01*
X139509333Y-103011396D01*
X139510611Y-103012693D01*
X140174524Y-103676606D01*
X140144850Y-103745842D01*
X140112231Y-103899301D01*
X140110040Y-104056174D01*
X140138362Y-104210485D01*
X140196116Y-104356356D01*
X140281104Y-104488231D01*
X140365387Y-104575509D01*
X139989379Y-104575509D01*
X139938817Y-104580467D01*
X139888206Y-104584895D01*
X139885429Y-104585702D01*
X139882550Y-104585984D01*
X139833903Y-104600671D01*
X139785127Y-104614842D01*
X139782560Y-104616173D01*
X139779790Y-104617009D01*
X139734900Y-104640877D01*
X139689827Y-104664241D01*
X139687569Y-104666043D01*
X139685014Y-104667402D01*
X139645634Y-104699519D01*
X139605938Y-104731208D01*
X139601912Y-104735179D01*
X139601830Y-104735245D01*
X139601768Y-104735320D01*
X139600470Y-104736600D01*
X139485491Y-104851579D01*
X139453250Y-104890831D01*
X139420588Y-104929756D01*
X139419193Y-104932293D01*
X139417359Y-104934526D01*
X139393348Y-104979305D01*
X139368876Y-105023820D01*
X139368002Y-105026574D01*
X139366634Y-105029126D01*
X139351767Y-105077755D01*
X139336419Y-105126137D01*
X139336097Y-105129009D01*
X139335251Y-105131776D01*
X139330112Y-105182363D01*
X139324454Y-105232809D01*
X139324414Y-105238457D01*
X139324403Y-105238568D01*
X139324413Y-105238671D01*
X139324400Y-105240488D01*
X139324400Y-105438506D01*
X139313118Y-105463534D01*
X139297205Y-105575510D01*
X139297205Y-106975050D01*
X139302285Y-107038748D01*
X139335742Y-107146788D01*
X139397975Y-107241229D01*
X139484054Y-107314593D01*
X139587164Y-107361072D01*
X139699140Y-107376985D01*
X140049660Y-107376985D01*
X140113358Y-107371905D01*
X140201135Y-107344723D01*
X140237404Y-107361072D01*
X140349380Y-107376985D01*
X140699900Y-107376985D01*
X140763598Y-107371905D01*
X140851375Y-107344723D01*
X140887644Y-107361072D01*
X140999620Y-107376985D01*
X141350140Y-107376985D01*
X141413838Y-107371905D01*
X141501615Y-107344723D01*
X141537884Y-107361072D01*
X141649860Y-107376985D01*
X142000380Y-107376985D01*
X142064078Y-107371905D01*
X142172118Y-107338448D01*
X142266559Y-107276215D01*
X142339923Y-107190136D01*
X142386402Y-107087026D01*
X142402315Y-106975050D01*
X142402315Y-105675509D01*
X144083283Y-105675509D01*
X145533120Y-107125346D01*
X145533120Y-110587292D01*
X145524811Y-110580418D01*
X145326848Y-110473380D01*
X145111865Y-110406832D01*
X144888050Y-110383308D01*
X144663929Y-110403705D01*
X144448037Y-110467245D01*
X144248599Y-110571509D01*
X144073211Y-110712524D01*
X143928553Y-110884921D01*
X143820136Y-111082132D01*
X143752088Y-111296645D01*
X143727002Y-111520290D01*
X143726890Y-111536390D01*
X143726890Y-113063610D01*
X143748851Y-113287584D01*
X143813897Y-113503026D01*
X143919550Y-113701731D01*
X144061787Y-113876131D01*
X144235189Y-114019582D01*
X144433152Y-114126620D01*
X144648135Y-114193168D01*
X144871950Y-114216692D01*
X145096071Y-114196295D01*
X145311963Y-114132755D01*
X145511401Y-114028491D01*
X145686789Y-113887476D01*
X145726493Y-113840159D01*
X146532743Y-114646408D01*
X146571987Y-114678644D01*
X146610920Y-114711312D01*
X146613454Y-114712705D01*
X146615689Y-114714541D01*
X146660455Y-114738544D01*
X146704984Y-114763024D01*
X146707742Y-114763899D01*
X146710290Y-114765265D01*
X146758873Y-114780119D01*
X146807301Y-114795481D01*
X146810174Y-114795803D01*
X146812940Y-114796649D01*
X146863527Y-114801788D01*
X146913973Y-114807446D01*
X146919621Y-114807486D01*
X146919732Y-114807497D01*
X146919835Y-114807487D01*
X146921652Y-114807500D01*
X147918348Y-114807500D01*
X147968910Y-114802542D01*
X148019521Y-114798114D01*
X148022298Y-114797307D01*
X148025177Y-114797025D01*
X148073824Y-114782338D01*
X148122600Y-114768167D01*
X148125167Y-114766836D01*
X148127937Y-114766000D01*
X148172827Y-114742132D01*
X148217900Y-114718768D01*
X148220158Y-114716966D01*
X148222713Y-114715607D01*
X148262123Y-114683465D01*
X148301789Y-114651800D01*
X148305814Y-114647832D01*
X148305897Y-114647764D01*
X148305960Y-114647687D01*
X148307257Y-114646409D01*
X149012029Y-113941637D01*
X149044270Y-113902385D01*
X149076932Y-113863460D01*
X149078327Y-113860923D01*
X149080161Y-113858690D01*
X149098963Y-113823624D01*
X149141787Y-113876131D01*
X149315189Y-114019582D01*
X149513152Y-114126620D01*
X149728135Y-114193168D01*
X149951950Y-114216692D01*
X150176071Y-114196295D01*
X150391963Y-114132755D01*
X150591401Y-114028491D01*
X150766789Y-113887476D01*
X150911447Y-113715079D01*
X151019864Y-113517868D01*
X151087912Y-113303355D01*
X151112998Y-113079710D01*
X151113110Y-113063610D01*
X151113110Y-111536390D01*
X151346890Y-111536390D01*
X151346890Y-113063610D01*
X151368851Y-113287584D01*
X151433897Y-113503026D01*
X151539550Y-113701731D01*
X151681787Y-113876131D01*
X151855189Y-114019582D01*
X152053152Y-114126620D01*
X152268135Y-114193168D01*
X152491950Y-114216692D01*
X152716071Y-114196295D01*
X152931963Y-114132755D01*
X153131401Y-114028491D01*
X153306789Y-113887476D01*
X153451447Y-113715079D01*
X153559864Y-113517868D01*
X153627912Y-113303355D01*
X153652998Y-113079710D01*
X153653110Y-113063610D01*
X153653110Y-111536390D01*
X153886890Y-111536390D01*
X153886890Y-113063610D01*
X153908851Y-113287584D01*
X153973897Y-113503026D01*
X154079550Y-113701731D01*
X154221787Y-113876131D01*
X154395189Y-114019582D01*
X154593152Y-114126620D01*
X154808135Y-114193168D01*
X155031950Y-114216692D01*
X155256071Y-114196295D01*
X155471963Y-114132755D01*
X155671401Y-114028491D01*
X155846789Y-113887476D01*
X155991447Y-113715079D01*
X156099864Y-113517868D01*
X156167912Y-113303355D01*
X156192998Y-113079710D01*
X156193110Y-113063610D01*
X156193110Y-111536390D01*
X156171149Y-111312416D01*
X156106103Y-111096974D01*
X156000450Y-110898269D01*
X155858213Y-110723869D01*
X155684811Y-110580418D01*
X155486848Y-110473380D01*
X155271865Y-110406832D01*
X155048050Y-110383308D01*
X154823929Y-110403705D01*
X154608037Y-110467245D01*
X154408599Y-110571509D01*
X154233211Y-110712524D01*
X154088553Y-110884921D01*
X153980136Y-111082132D01*
X153912088Y-111296645D01*
X153887002Y-111520290D01*
X153886890Y-111536390D01*
X153653110Y-111536390D01*
X153631149Y-111312416D01*
X153566103Y-111096974D01*
X153460450Y-110898269D01*
X153318213Y-110723869D01*
X153144811Y-110580418D01*
X152946848Y-110473380D01*
X152731865Y-110406832D01*
X152508050Y-110383308D01*
X152283929Y-110403705D01*
X152068037Y-110467245D01*
X151868599Y-110571509D01*
X151693211Y-110712524D01*
X151548553Y-110884921D01*
X151440136Y-111082132D01*
X151372088Y-111296645D01*
X151347002Y-111520290D01*
X151346890Y-111536390D01*
X151113110Y-111536390D01*
X151091149Y-111312416D01*
X151026103Y-111096974D01*
X150920450Y-110898269D01*
X150778213Y-110723869D01*
X150604811Y-110580418D01*
X150406848Y-110473380D01*
X150191865Y-110406832D01*
X149968050Y-110383308D01*
X149743929Y-110403705D01*
X149528037Y-110467245D01*
X149328599Y-110571509D01*
X149173120Y-110696517D01*
X149173120Y-108554698D01*
X149388909Y-108338909D01*
X149421150Y-108299657D01*
X149453812Y-108260732D01*
X149455207Y-108258195D01*
X149457041Y-108255962D01*
X149481052Y-108211183D01*
X149505524Y-108166668D01*
X149506398Y-108163914D01*
X149507766Y-108161362D01*
X149522633Y-108112733D01*
X149537981Y-108064351D01*
X149538303Y-108061479D01*
X149539149Y-108058712D01*
X149539837Y-108051935D01*
X149750000Y-108051935D01*
X149813698Y-108046855D01*
X149921738Y-108013398D01*
X150016179Y-107951165D01*
X150089543Y-107865086D01*
X150136022Y-107761976D01*
X150151935Y-107650000D01*
X150151935Y-106350000D01*
X150548065Y-106350000D01*
X150548065Y-107650000D01*
X150553145Y-107713698D01*
X150586602Y-107821738D01*
X150648835Y-107916179D01*
X150734914Y-107989543D01*
X150838024Y-108036022D01*
X150950000Y-108051935D01*
X152450000Y-108051935D01*
X152513698Y-108046855D01*
X152621738Y-108013398D01*
X152716179Y-107951165D01*
X152789543Y-107865086D01*
X152836022Y-107761976D01*
X152851935Y-107650000D01*
X152851935Y-107185883D01*
X154665882Y-105371935D01*
X155590000Y-105371935D01*
X155653698Y-105366855D01*
X155761738Y-105333398D01*
X155856179Y-105271165D01*
X155929543Y-105185086D01*
X155976022Y-105081976D01*
X155991935Y-104970000D01*
X155991935Y-104770000D01*
X157178318Y-104770000D01*
X157259914Y-104839543D01*
X157363024Y-104886022D01*
X157475000Y-104901935D01*
X157920248Y-104901935D01*
X157674118Y-105148065D01*
X156650000Y-105148065D01*
X156586302Y-105153145D01*
X156478262Y-105186602D01*
X156383821Y-105248835D01*
X156310457Y-105334914D01*
X156263978Y-105438024D01*
X156248065Y-105550000D01*
X156248065Y-106400000D01*
X155576935Y-106400000D01*
X155576935Y-106350000D01*
X155571855Y-106286302D01*
X155538398Y-106178262D01*
X155476165Y-106083821D01*
X155390086Y-106010457D01*
X155286976Y-105963978D01*
X155175000Y-105948065D01*
X154425000Y-105948065D01*
X154361302Y-105953145D01*
X154253262Y-105986602D01*
X154158821Y-106048835D01*
X154085457Y-106134914D01*
X154038978Y-106238024D01*
X154023065Y-106350000D01*
X154023065Y-107550000D01*
X154028145Y-107613698D01*
X154061602Y-107721738D01*
X154123835Y-107816179D01*
X154209914Y-107889543D01*
X154313024Y-107936022D01*
X154425000Y-107951935D01*
X155175000Y-107951935D01*
X155238698Y-107946855D01*
X155346738Y-107913398D01*
X155441179Y-107851165D01*
X155514543Y-107765086D01*
X155561022Y-107661976D01*
X155576935Y-107550000D01*
X155576935Y-107500000D01*
X156650000Y-107500000D01*
X156700562Y-107495042D01*
X156751173Y-107490614D01*
X156753950Y-107489807D01*
X156756829Y-107489525D01*
X156805476Y-107474838D01*
X156854252Y-107460667D01*
X156856819Y-107459336D01*
X156859589Y-107458500D01*
X156871936Y-107451935D01*
X157950000Y-107451935D01*
X158013698Y-107446855D01*
X158121738Y-107413398D01*
X158216179Y-107351165D01*
X158289543Y-107265086D01*
X158336022Y-107161976D01*
X158351935Y-107050000D01*
X158351935Y-106850000D01*
X159223065Y-106850000D01*
X159223065Y-107200000D01*
X159228145Y-107263698D01*
X159261602Y-107371738D01*
X159323835Y-107466179D01*
X159409914Y-107539543D01*
X159433004Y-107549951D01*
X159358821Y-107598835D01*
X159285457Y-107684914D01*
X159238978Y-107788024D01*
X159223065Y-107900000D01*
X159223065Y-108299118D01*
X158822082Y-108700100D01*
X158727143Y-108699437D01*
X158573034Y-108728835D01*
X158427570Y-108787607D01*
X158351935Y-108837101D01*
X158351935Y-108250000D01*
X158346855Y-108186302D01*
X158313398Y-108078262D01*
X158251165Y-107983821D01*
X158165086Y-107910457D01*
X158061976Y-107863978D01*
X157950000Y-107848065D01*
X156650000Y-107848065D01*
X156586302Y-107853145D01*
X156478262Y-107886602D01*
X156383821Y-107948835D01*
X156310457Y-108034914D01*
X156263978Y-108138024D01*
X156248065Y-108250000D01*
X156248065Y-109750000D01*
X156253145Y-109813698D01*
X156286602Y-109921738D01*
X156348835Y-110016179D01*
X156434914Y-110089543D01*
X156538024Y-110136022D01*
X156650000Y-110151935D01*
X156750000Y-110151935D01*
X156750000Y-110740186D01*
X156628553Y-110884921D01*
X156520136Y-111082132D01*
X156452088Y-111296645D01*
X156427002Y-111520290D01*
X156426890Y-111536390D01*
X156426890Y-113063610D01*
X156448851Y-113287584D01*
X156513897Y-113503026D01*
X156619550Y-113701731D01*
X156761787Y-113876131D01*
X156935189Y-114019582D01*
X157133152Y-114126620D01*
X157348135Y-114193168D01*
X157571950Y-114216692D01*
X157796071Y-114196295D01*
X157910437Y-114162635D01*
X158394202Y-114646400D01*
X158433454Y-114678641D01*
X158472379Y-114711303D01*
X158474916Y-114712698D01*
X158477149Y-114714532D01*
X158521928Y-114738543D01*
X158566443Y-114763015D01*
X158569197Y-114763889D01*
X158571749Y-114765257D01*
X158620378Y-114780124D01*
X158668760Y-114795472D01*
X158671632Y-114795794D01*
X158674399Y-114796640D01*
X158724986Y-114801779D01*
X158775432Y-114807437D01*
X158781080Y-114807477D01*
X158781191Y-114807488D01*
X158781294Y-114807478D01*
X158783111Y-114807491D01*
X168853111Y-114807491D01*
X168903673Y-114802533D01*
X168954284Y-114798105D01*
X168957061Y-114797298D01*
X168959940Y-114797016D01*
X169008587Y-114782329D01*
X169057363Y-114768158D01*
X169059930Y-114766827D01*
X169062700Y-114765991D01*
X169107590Y-114742123D01*
X169152663Y-114718759D01*
X169154921Y-114716957D01*
X169157476Y-114715598D01*
X169196886Y-114683456D01*
X169236552Y-114651791D01*
X169240577Y-114647823D01*
X169240660Y-114647755D01*
X169240723Y-114647678D01*
X169242020Y-114646400D01*
X169332020Y-114556400D01*
X169364261Y-114517148D01*
X169396923Y-114478223D01*
X169398318Y-114475686D01*
X169400152Y-114473453D01*
X169424143Y-114428709D01*
X169448635Y-114384159D01*
X169449510Y-114381400D01*
X169450876Y-114378853D01*
X169465730Y-114330270D01*
X169481092Y-114281842D01*
X169481414Y-114278969D01*
X169482260Y-114276203D01*
X169487399Y-114225616D01*
X169493057Y-114175170D01*
X169493097Y-114169522D01*
X169493108Y-114169411D01*
X169493098Y-114169308D01*
X169493111Y-114167491D01*
X169493111Y-107628109D01*
X169488153Y-107577547D01*
X169483725Y-107526936D01*
X169482918Y-107524159D01*
X169482636Y-107521280D01*
X169467949Y-107472633D01*
X169453778Y-107423857D01*
X169452447Y-107421290D01*
X169451611Y-107418520D01*
X169427743Y-107373630D01*
X169404379Y-107328557D01*
X169402577Y-107326299D01*
X169401218Y-107323744D01*
X169369076Y-107284334D01*
X169337411Y-107244668D01*
X169333443Y-107240643D01*
X169333375Y-107240560D01*
X169333298Y-107240497D01*
X169332020Y-107239200D01*
X164728332Y-102635512D01*
X166980768Y-102635512D01*
X167020519Y-102989897D01*
X167128346Y-103329813D01*
X167300143Y-103642311D01*
X167529367Y-103915488D01*
X167807285Y-104138940D01*
X168123312Y-104304155D01*
X168465411Y-104404840D01*
X168820551Y-104437160D01*
X169175206Y-104399885D01*
X169515865Y-104294433D01*
X169829555Y-104124822D01*
X170104326Y-103897511D01*
X170329713Y-103621160D01*
X170497130Y-103306294D01*
X170600201Y-102964906D01*
X170635000Y-102610000D01*
X170634288Y-102558981D01*
X170589593Y-102205185D01*
X170477030Y-101866809D01*
X170300886Y-101556740D01*
X170067871Y-101286790D01*
X169786860Y-101067240D01*
X169468557Y-100906453D01*
X169125086Y-100810554D01*
X168769529Y-100783196D01*
X168415430Y-100825420D01*
X168076275Y-100935617D01*
X167764984Y-101109592D01*
X167493414Y-101340717D01*
X167271907Y-101620188D01*
X167108903Y-101937361D01*
X167010608Y-102280155D01*
X166980768Y-102635512D01*
X164728332Y-102635512D01*
X164653911Y-102561091D01*
X164614659Y-102528850D01*
X164575734Y-102496188D01*
X164573197Y-102494793D01*
X164570964Y-102492959D01*
X164526185Y-102468948D01*
X164481670Y-102444476D01*
X164478916Y-102443602D01*
X164476364Y-102442234D01*
X164427735Y-102427367D01*
X164379353Y-102412019D01*
X164376481Y-102411697D01*
X164373714Y-102410851D01*
X164323127Y-102405712D01*
X164272681Y-102400054D01*
X164267033Y-102400014D01*
X164266922Y-102400003D01*
X164266819Y-102400013D01*
X164265002Y-102400000D01*
X163611935Y-102400000D01*
X163611935Y-102399999D01*
X164857491Y-102399999D01*
X164908053Y-102395041D01*
X164958664Y-102390613D01*
X164961441Y-102389806D01*
X164964320Y-102389524D01*
X165012967Y-102374837D01*
X165061743Y-102360666D01*
X165064310Y-102359335D01*
X165067080Y-102358499D01*
X165111970Y-102334631D01*
X165157043Y-102311267D01*
X165159301Y-102309465D01*
X165161856Y-102308106D01*
X165201266Y-102275964D01*
X165240932Y-102244299D01*
X165244957Y-102240331D01*
X165245040Y-102240263D01*
X165245103Y-102240186D01*
X165246400Y-102238908D01*
X168188909Y-99296399D01*
X168221150Y-99257147D01*
X168253812Y-99218222D01*
X168255207Y-99215685D01*
X168257041Y-99213452D01*
X168281052Y-99168673D01*
X168305524Y-99124158D01*
X168306398Y-99121404D01*
X168307766Y-99118852D01*
X168322633Y-99070223D01*
X168337981Y-99021841D01*
X168338303Y-99018969D01*
X168339149Y-99016202D01*
X168344288Y-98965615D01*
X168349946Y-98915169D01*
X168349986Y-98909521D01*
X168349997Y-98909410D01*
X168349987Y-98909307D01*
X168350000Y-98907490D01*
X168350000Y-98871047D01*
X168431401Y-98828491D01*
X168606789Y-98687476D01*
X168751447Y-98515079D01*
X168859864Y-98317868D01*
X168927912Y-98103355D01*
X168952998Y-97879710D01*
X168953110Y-97863610D01*
X168953110Y-96336390D01*
X168931149Y-96112416D01*
X168866103Y-95896974D01*
X168760450Y-95698269D01*
X168618213Y-95523869D01*
X168444811Y-95380418D01*
X168246848Y-95273380D01*
X168031865Y-95206832D01*
X167808050Y-95183308D01*
X167583929Y-95203705D01*
X167368037Y-95267245D01*
X167168599Y-95371509D01*
X166993211Y-95512524D01*
X166848553Y-95684921D01*
X166740136Y-95882132D01*
X166672088Y-96096645D01*
X166647002Y-96320290D01*
X166646890Y-96336390D01*
X166646890Y-97863610D01*
X166668851Y-98087584D01*
X166733897Y-98303026D01*
X166839550Y-98501731D01*
X166981787Y-98676131D01*
X167130508Y-98799164D01*
X164629673Y-101299999D01*
X161615001Y-101299999D01*
X161564439Y-101304957D01*
X161513828Y-101309385D01*
X161511051Y-101310192D01*
X161508172Y-101310474D01*
X161459525Y-101325161D01*
X161410749Y-101339332D01*
X161408182Y-101340663D01*
X161405412Y-101341499D01*
X161360522Y-101365367D01*
X161315449Y-101388731D01*
X161313191Y-101390533D01*
X161310636Y-101391892D01*
X161271226Y-101424034D01*
X161231560Y-101455699D01*
X161227539Y-101459664D01*
X161227452Y-101459735D01*
X161227385Y-101459816D01*
X161226092Y-101461091D01*
X160426935Y-102260248D01*
X160426935Y-101240000D01*
X160421855Y-101176302D01*
X160388398Y-101068262D01*
X160326165Y-100973821D01*
X160240086Y-100900457D01*
X160136976Y-100853978D01*
X160025000Y-100838065D01*
X159375000Y-100838065D01*
X159311302Y-100843145D01*
X159203262Y-100876602D01*
X159108821Y-100938835D01*
X159035457Y-101024914D01*
X158988978Y-101128024D01*
X158973065Y-101240000D01*
X158973065Y-102300000D01*
X158978145Y-102363698D01*
X159011602Y-102471738D01*
X159073835Y-102566179D01*
X159159914Y-102639543D01*
X159263024Y-102686022D01*
X159375000Y-102701935D01*
X159985247Y-102701935D01*
X159649117Y-103038065D01*
X159375000Y-103038065D01*
X159311302Y-103043145D01*
X159223359Y-103070378D01*
X159186976Y-103053978D01*
X159075000Y-103038065D01*
X158425000Y-103038065D01*
X158361302Y-103043145D01*
X158273359Y-103070378D01*
X158236976Y-103053978D01*
X158125000Y-103038065D01*
X157475000Y-103038065D01*
X157411302Y-103043145D01*
X157303262Y-103076602D01*
X157208821Y-103138835D01*
X157135457Y-103224914D01*
X157088978Y-103328024D01*
X157073065Y-103440000D01*
X157073065Y-103670000D01*
X155991935Y-103670000D01*
X155991935Y-103470000D01*
X155986855Y-103406302D01*
X155953398Y-103298262D01*
X155891165Y-103203821D01*
X155805086Y-103130457D01*
X155701976Y-103083978D01*
X155590000Y-103068065D01*
X154290000Y-103068065D01*
X154226302Y-103073145D01*
X154118262Y-103106602D01*
X154023821Y-103168835D01*
X153950457Y-103254914D01*
X153903978Y-103358024D01*
X153888065Y-103470000D01*
X153888065Y-104594118D01*
X152523651Y-105958532D01*
X152450000Y-105948065D01*
X150950000Y-105948065D01*
X150886302Y-105953145D01*
X150778262Y-105986602D01*
X150683821Y-106048835D01*
X150610457Y-106134914D01*
X150563978Y-106238024D01*
X150548065Y-106350000D01*
X150151935Y-106350000D01*
X150146855Y-106286302D01*
X150113398Y-106178262D01*
X150051165Y-106083821D01*
X149965086Y-106010457D01*
X149861976Y-105963978D01*
X149750000Y-105948065D01*
X149750000Y-104811248D01*
X149841179Y-104751165D01*
X149914543Y-104665086D01*
X149961022Y-104561976D01*
X149976935Y-104450000D01*
X149976935Y-103250000D01*
X149971855Y-103186302D01*
X149938398Y-103078262D01*
X149876165Y-102983821D01*
X149790086Y-102910457D01*
X149686976Y-102863978D01*
X149575000Y-102848065D01*
X148825000Y-102848065D01*
X148761302Y-102853145D01*
X148653262Y-102886602D01*
X148558821Y-102948835D01*
X148485457Y-103034914D01*
X148438978Y-103138024D01*
X148423065Y-103250000D01*
X148423065Y-104450000D01*
X148428145Y-104513698D01*
X148461602Y-104621738D01*
X148523835Y-104716179D01*
X148609914Y-104789543D01*
X148650000Y-104807613D01*
X148650000Y-105948065D01*
X148250000Y-105948065D01*
X148186302Y-105953145D01*
X148078262Y-105986602D01*
X147983821Y-106048835D01*
X147970000Y-106065051D01*
X147970000Y-102483848D01*
X147965042Y-102433286D01*
X147960614Y-102382675D01*
X147959807Y-102379898D01*
X147959525Y-102377019D01*
X147944838Y-102328372D01*
X147930667Y-102279596D01*
X147929336Y-102277029D01*
X147928500Y-102274259D01*
X147904632Y-102229369D01*
X147881268Y-102184296D01*
X147879466Y-102182038D01*
X147878107Y-102179483D01*
X147845965Y-102140073D01*
X147814300Y-102100407D01*
X147810332Y-102096382D01*
X147810264Y-102096299D01*
X147810187Y-102096236D01*
X147808909Y-102094939D01*
X145881236Y-100167266D01*
X146398948Y-100167266D01*
X146427270Y-100321577D01*
X146485024Y-100467448D01*
X146570012Y-100599323D01*
X146678995Y-100712179D01*
X146807824Y-100801717D01*
X146951590Y-100864527D01*
X147104818Y-100898216D01*
X147261672Y-100901502D01*
X147416177Y-100874258D01*
X147562447Y-100817524D01*
X147694912Y-100733459D01*
X147782553Y-100650000D01*
X149677182Y-100650000D01*
X151336091Y-102308909D01*
X151375370Y-102341173D01*
X151414268Y-102373812D01*
X151416801Y-102375205D01*
X151419038Y-102377042D01*
X151463856Y-102401073D01*
X151508332Y-102425524D01*
X151511086Y-102426398D01*
X151513638Y-102427766D01*
X151562267Y-102442633D01*
X151610649Y-102457981D01*
X151613521Y-102458303D01*
X151616288Y-102459149D01*
X151623065Y-102459837D01*
X151623065Y-102520000D01*
X151628145Y-102583698D01*
X151661602Y-102691738D01*
X151723835Y-102786179D01*
X151809914Y-102859543D01*
X151913024Y-102906022D01*
X152025000Y-102921935D01*
X152775000Y-102921935D01*
X152838698Y-102916855D01*
X152946738Y-102883398D01*
X153041179Y-102821165D01*
X153114543Y-102735086D01*
X153161022Y-102631976D01*
X153176935Y-102520000D01*
X153176935Y-102470000D01*
X153945226Y-102470000D01*
X153988835Y-102536179D01*
X154074914Y-102609543D01*
X154178024Y-102656022D01*
X154290000Y-102671935D01*
X155590000Y-102671935D01*
X155653698Y-102666855D01*
X155761738Y-102633398D01*
X155856179Y-102571165D01*
X155929543Y-102485086D01*
X155976022Y-102381976D01*
X155984829Y-102320000D01*
X157074660Y-102320000D01*
X157078145Y-102363698D01*
X157111602Y-102471738D01*
X157173835Y-102566179D01*
X157259914Y-102639543D01*
X157363024Y-102686022D01*
X157475000Y-102701935D01*
X158125000Y-102701935D01*
X158188698Y-102696855D01*
X158296738Y-102663398D01*
X158391179Y-102601165D01*
X158464543Y-102515086D01*
X158511022Y-102411976D01*
X158526935Y-102300000D01*
X158526935Y-101240000D01*
X158521855Y-101176302D01*
X158488398Y-101068262D01*
X158426165Y-100973821D01*
X158340086Y-100900457D01*
X158236976Y-100853978D01*
X158125000Y-100838065D01*
X157475000Y-100838065D01*
X157411302Y-100843145D01*
X157303262Y-100876602D01*
X157208821Y-100938835D01*
X157135457Y-101024914D01*
X157088978Y-101128024D01*
X157075907Y-101220000D01*
X155991935Y-101220000D01*
X155991935Y-100770000D01*
X155986855Y-100706302D01*
X155953398Y-100598262D01*
X155891165Y-100503821D01*
X155805086Y-100430457D01*
X155701976Y-100383978D01*
X155590000Y-100368065D01*
X154290000Y-100368065D01*
X154226302Y-100373145D01*
X154118262Y-100406602D01*
X154023821Y-100468835D01*
X153950457Y-100554914D01*
X153903978Y-100658024D01*
X153888065Y-100770000D01*
X153888065Y-101370000D01*
X153176935Y-101370000D01*
X153176935Y-101320000D01*
X153171855Y-101256302D01*
X153138398Y-101148262D01*
X153076165Y-101053821D01*
X152990086Y-100980457D01*
X152886976Y-100933978D01*
X152775000Y-100918065D01*
X152025000Y-100918065D01*
X151961302Y-100923145D01*
X151853262Y-100956602D01*
X151758821Y-101018835D01*
X151686504Y-101103686D01*
X150293909Y-99711091D01*
X150254657Y-99678850D01*
X150215732Y-99646188D01*
X150213195Y-99644793D01*
X150210962Y-99642959D01*
X150166183Y-99618948D01*
X150121668Y-99594476D01*
X150118914Y-99593602D01*
X150116362Y-99592234D01*
X150067733Y-99577367D01*
X150019351Y-99562019D01*
X150016479Y-99561697D01*
X150013712Y-99560851D01*
X149963125Y-99555712D01*
X149912679Y-99550054D01*
X149907031Y-99550014D01*
X149906920Y-99550003D01*
X149906817Y-99550013D01*
X149905000Y-99550000D01*
X147781317Y-99550000D01*
X147712407Y-99480607D01*
X147582341Y-99392876D01*
X147437711Y-99332079D01*
X147284027Y-99300533D01*
X147127143Y-99299437D01*
X146973034Y-99328835D01*
X146827570Y-99387607D01*
X146696291Y-99473513D01*
X146584199Y-99583282D01*
X146495562Y-99712732D01*
X146433758Y-99856934D01*
X146401139Y-100010393D01*
X146398948Y-100167266D01*
X145881236Y-100167266D01*
X144706691Y-98992721D01*
X144708135Y-98993168D01*
X144931950Y-99016692D01*
X145156071Y-98996295D01*
X145371963Y-98932755D01*
X145571401Y-98828491D01*
X145746789Y-98687476D01*
X145891447Y-98515079D01*
X145999864Y-98317868D01*
X146067912Y-98103355D01*
X146092998Y-97879710D01*
X146093110Y-97863610D01*
X146093110Y-96336390D01*
X146071149Y-96112416D01*
X146029661Y-95975000D01*
X146390676Y-95975000D01*
X146352088Y-96096645D01*
X146327002Y-96320290D01*
X146326890Y-96336390D01*
X146326890Y-97863610D01*
X146348851Y-98087584D01*
X146413897Y-98303026D01*
X146519550Y-98501731D01*
X146661787Y-98676131D01*
X146835189Y-98819582D01*
X147033152Y-98926620D01*
X147248135Y-98993168D01*
X147471950Y-99016692D01*
X147696071Y-98996295D01*
X147911963Y-98932755D01*
X148111401Y-98828491D01*
X148286789Y-98687476D01*
X148431447Y-98515079D01*
X148539864Y-98317868D01*
X148607912Y-98103355D01*
X148632998Y-97879710D01*
X148633110Y-97863610D01*
X148633110Y-96336390D01*
X148611149Y-96112416D01*
X148569661Y-95975000D01*
X148930676Y-95975000D01*
X148892088Y-96096645D01*
X148867002Y-96320290D01*
X148866890Y-96336390D01*
X148866890Y-97863610D01*
X148888851Y-98087584D01*
X148953897Y-98303026D01*
X149059550Y-98501731D01*
X149201787Y-98676131D01*
X149375189Y-98819582D01*
X149573152Y-98926620D01*
X149788135Y-98993168D01*
X150011950Y-99016692D01*
X150236071Y-98996295D01*
X150451963Y-98932755D01*
X150651401Y-98828491D01*
X150826789Y-98687476D01*
X150971447Y-98515079D01*
X151079864Y-98317868D01*
X151147912Y-98103355D01*
X151172998Y-97879710D01*
X151173110Y-97863610D01*
X151173110Y-96336390D01*
X151151149Y-96112416D01*
X151109661Y-95975000D01*
X151470676Y-95975000D01*
X151432088Y-96096645D01*
X151407002Y-96320290D01*
X151406890Y-96336390D01*
X151406890Y-97863610D01*
X151428851Y-98087584D01*
X151493897Y-98303026D01*
X151599550Y-98501731D01*
X151741787Y-98676131D01*
X151915189Y-98819582D01*
X152113152Y-98926620D01*
X152328135Y-98993168D01*
X152551950Y-99016692D01*
X152776071Y-98996295D01*
X152991963Y-98932755D01*
X153191401Y-98828491D01*
X153366789Y-98687476D01*
X153511447Y-98515079D01*
X153619864Y-98317868D01*
X153687912Y-98103355D01*
X153712998Y-97879710D01*
X153713110Y-97863610D01*
X153713110Y-96336390D01*
X153691149Y-96112416D01*
X153649661Y-95975000D01*
X154010676Y-95975000D01*
X153972088Y-96096645D01*
X153947002Y-96320290D01*
X153946890Y-96336390D01*
X153946890Y-97863610D01*
X153968851Y-98087584D01*
X154033897Y-98303026D01*
X154139550Y-98501731D01*
X154281787Y-98676131D01*
X154455189Y-98819582D01*
X154653152Y-98926620D01*
X154868135Y-98993168D01*
X155091950Y-99016692D01*
X155316071Y-98996295D01*
X155531963Y-98932755D01*
X155731401Y-98828491D01*
X155906789Y-98687476D01*
X156051447Y-98515079D01*
X156159864Y-98317868D01*
X156227912Y-98103355D01*
X156252998Y-97879710D01*
X156253110Y-97863610D01*
X156253110Y-96336390D01*
X156231149Y-96112416D01*
X156189661Y-95975000D01*
X156550676Y-95975000D01*
X156512088Y-96096645D01*
X156487002Y-96320290D01*
X156486890Y-96336390D01*
X156486890Y-97863610D01*
X156508851Y-98087584D01*
X156573897Y-98303026D01*
X156679550Y-98501731D01*
X156821787Y-98676131D01*
X156995189Y-98819582D01*
X157193152Y-98926620D01*
X157408135Y-98993168D01*
X157631950Y-99016692D01*
X157856071Y-98996295D01*
X158071963Y-98932755D01*
X158271401Y-98828491D01*
X158446789Y-98687476D01*
X158591447Y-98515079D01*
X158699864Y-98317868D01*
X158767912Y-98103355D01*
X158792998Y-97879710D01*
X158793110Y-97863610D01*
X158793110Y-96336390D01*
X159026890Y-96336390D01*
X159026890Y-97863610D01*
X159048851Y-98087584D01*
X159113897Y-98303026D01*
X159219550Y-98501731D01*
X159361787Y-98676131D01*
X159535189Y-98819582D01*
X159733152Y-98926620D01*
X159948135Y-98993168D01*
X160171950Y-99016692D01*
X160396071Y-98996295D01*
X160611963Y-98932755D01*
X160811401Y-98828491D01*
X160986789Y-98687476D01*
X161131447Y-98515079D01*
X161239864Y-98317868D01*
X161307912Y-98103355D01*
X161332998Y-97879710D01*
X161333110Y-97863610D01*
X161333110Y-96336390D01*
X161566890Y-96336390D01*
X161566890Y-97863610D01*
X161588851Y-98087584D01*
X161653897Y-98303026D01*
X161759550Y-98501731D01*
X161901787Y-98676131D01*
X162075189Y-98819582D01*
X162273152Y-98926620D01*
X162488135Y-98993168D01*
X162711950Y-99016692D01*
X162936071Y-98996295D01*
X163151963Y-98932755D01*
X163351401Y-98828491D01*
X163526789Y-98687476D01*
X163671447Y-98515079D01*
X163779864Y-98317868D01*
X163847912Y-98103355D01*
X163872998Y-97879710D01*
X163873110Y-97863610D01*
X163873110Y-96336390D01*
X164106890Y-96336390D01*
X164106890Y-97863610D01*
X164128851Y-98087584D01*
X164193897Y-98303026D01*
X164299550Y-98501731D01*
X164441787Y-98676131D01*
X164615189Y-98819582D01*
X164813152Y-98926620D01*
X165028135Y-98993168D01*
X165251950Y-99016692D01*
X165476071Y-98996295D01*
X165691963Y-98932755D01*
X165891401Y-98828491D01*
X166066789Y-98687476D01*
X166211447Y-98515079D01*
X166319864Y-98317868D01*
X166387912Y-98103355D01*
X166412998Y-97879710D01*
X166413110Y-97863610D01*
X166413110Y-96336390D01*
X166391149Y-96112416D01*
X166326103Y-95896974D01*
X166220450Y-95698269D01*
X166078213Y-95523869D01*
X165904811Y-95380418D01*
X165706848Y-95273380D01*
X165491865Y-95206832D01*
X165268050Y-95183308D01*
X165043929Y-95203705D01*
X164828037Y-95267245D01*
X164628599Y-95371509D01*
X164453211Y-95512524D01*
X164308553Y-95684921D01*
X164200136Y-95882132D01*
X164132088Y-96096645D01*
X164107002Y-96320290D01*
X164106890Y-96336390D01*
X163873110Y-96336390D01*
X163851149Y-96112416D01*
X163786103Y-95896974D01*
X163680450Y-95698269D01*
X163538213Y-95523869D01*
X163364811Y-95380418D01*
X163166848Y-95273380D01*
X162951865Y-95206832D01*
X162728050Y-95183308D01*
X162503929Y-95203705D01*
X162288037Y-95267245D01*
X162088599Y-95371509D01*
X161913211Y-95512524D01*
X161768553Y-95684921D01*
X161660136Y-95882132D01*
X161592088Y-96096645D01*
X161567002Y-96320290D01*
X161566890Y-96336390D01*
X161333110Y-96336390D01*
X161311149Y-96112416D01*
X161246103Y-95896974D01*
X161140450Y-95698269D01*
X160998213Y-95523869D01*
X160824811Y-95380418D01*
X160626848Y-95273380D01*
X160411865Y-95206832D01*
X160188050Y-95183308D01*
X159963929Y-95203705D01*
X159748037Y-95267245D01*
X159548599Y-95371509D01*
X159373211Y-95512524D01*
X159228553Y-95684921D01*
X159120136Y-95882132D01*
X159052088Y-96096645D01*
X159027002Y-96320290D01*
X159026890Y-96336390D01*
X158793110Y-96336390D01*
X158771149Y-96112416D01*
X158706103Y-95896974D01*
X158600450Y-95698269D01*
X158458213Y-95523869D01*
X158284811Y-95380418D01*
X158086848Y-95273380D01*
X157871865Y-95206832D01*
X157675000Y-95186141D01*
X157675000Y-90701782D01*
X157711662Y-90702550D01*
X157866167Y-90675306D01*
X158012437Y-90618572D01*
X158144902Y-90534507D01*
X158258516Y-90426314D01*
X158348952Y-90298114D01*
X158412764Y-90154789D01*
X158447522Y-90001800D01*
X158450024Y-89822604D01*
X158419551Y-89668704D01*
X158359766Y-89523653D01*
X158272945Y-89392978D01*
X158162397Y-89281655D01*
X158032331Y-89193924D01*
X157887701Y-89133127D01*
X157734017Y-89101581D01*
X157577133Y-89100485D01*
X157423024Y-89129883D01*
X157277560Y-89188655D01*
X157270858Y-89193041D01*
X155488909Y-87411091D01*
X155449657Y-87378850D01*
X155410732Y-87346188D01*
X155408195Y-87344793D01*
X155405962Y-87342959D01*
X155361183Y-87318948D01*
X155316668Y-87294476D01*
X155313914Y-87293602D01*
X155311362Y-87292234D01*
X155301935Y-87289352D01*
X155301935Y-84500000D01*
X155296855Y-84436302D01*
X155277871Y-84375000D01*
X159425000Y-84375000D01*
X159425000Y-93400000D01*
X159425000Y-93400000D01*
G37*
X159425000Y-93400000D02*
X159428440Y-93435081D01*
X159431642Y-93470268D01*
X159432014Y-93471532D01*
X159432142Y-93472838D01*
X159442338Y-93506608D01*
X159452306Y-93540477D01*
X159452915Y-93541641D01*
X159453295Y-93542901D01*
X159469851Y-93574037D01*
X159486213Y-93605336D01*
X159487039Y-93606363D01*
X159487655Y-93607522D01*
X159509946Y-93634854D01*
X159532073Y-93662374D01*
X159533080Y-93663219D01*
X159533911Y-93664238D01*
X159561060Y-93686698D01*
X159588137Y-93709418D01*
X159589293Y-93710054D01*
X159590303Y-93710889D01*
X159621296Y-93727647D01*
X159652272Y-93744676D01*
X159653525Y-93745074D01*
X159654682Y-93745699D01*
X159688432Y-93756146D01*
X159722033Y-93766805D01*
X159723337Y-93766951D01*
X159724596Y-93767341D01*
X159759776Y-93771039D01*
X159794764Y-93774963D01*
X159797285Y-93774981D01*
X159797382Y-93774991D01*
X159797479Y-93774982D01*
X159800000Y-93775000D01*
X171125000Y-93775000D01*
X171125000Y-115025000D01*
X133175000Y-115025000D01*
X133175000Y-113988666D01*
X133832743Y-114646409D01*
X133871995Y-114678650D01*
X133910920Y-114711312D01*
X133913457Y-114712707D01*
X133915690Y-114714541D01*
X133960469Y-114738552D01*
X134004984Y-114763024D01*
X134007738Y-114763898D01*
X134010290Y-114765266D01*
X134058919Y-114780133D01*
X134107301Y-114795481D01*
X134110173Y-114795803D01*
X134112940Y-114796649D01*
X134163527Y-114801788D01*
X134213973Y-114807446D01*
X134219621Y-114807486D01*
X134219732Y-114807497D01*
X134219835Y-114807487D01*
X134221652Y-114807500D01*
X138596880Y-114807500D01*
X138647442Y-114802542D01*
X138698053Y-114798114D01*
X138700830Y-114797307D01*
X138703709Y-114797025D01*
X138752356Y-114782338D01*
X138801132Y-114768167D01*
X138803699Y-114766836D01*
X138806469Y-114766000D01*
X138851359Y-114742132D01*
X138896432Y-114718768D01*
X138898690Y-114716966D01*
X138901245Y-114715607D01*
X138940655Y-114683465D01*
X138980321Y-114651800D01*
X138984346Y-114647832D01*
X138984429Y-114647764D01*
X138984492Y-114647687D01*
X138985789Y-114646409D01*
X139469547Y-114162650D01*
X139568135Y-114193168D01*
X139791950Y-114216692D01*
X140016071Y-114196295D01*
X140231963Y-114132755D01*
X140431401Y-114028491D01*
X140606789Y-113887476D01*
X140751447Y-113715079D01*
X140859864Y-113517868D01*
X140927912Y-113303355D01*
X140952998Y-113079710D01*
X140953110Y-113063610D01*
X140953110Y-111536390D01*
X141186890Y-111536390D01*
X141186890Y-113063610D01*
X141208851Y-113287584D01*
X141273897Y-113503026D01*
X141379550Y-113701731D01*
X141521787Y-113876131D01*
X141695189Y-114019582D01*
X141893152Y-114126620D01*
X142108135Y-114193168D01*
X142331950Y-114216692D01*
X142556071Y-114196295D01*
X142771963Y-114132755D01*
X142971401Y-114028491D01*
X143146789Y-113887476D01*
X143291447Y-113715079D01*
X143399864Y-113517868D01*
X143467912Y-113303355D01*
X143492998Y-113079710D01*
X143493110Y-113063610D01*
X143493110Y-111536390D01*
X143471149Y-111312416D01*
X143406103Y-111096974D01*
X143300450Y-110898269D01*
X143158213Y-110723869D01*
X142984811Y-110580418D01*
X142786848Y-110473380D01*
X142571865Y-110406832D01*
X142348050Y-110383308D01*
X142123929Y-110403705D01*
X141908037Y-110467245D01*
X141708599Y-110571509D01*
X141533211Y-110712524D01*
X141388553Y-110884921D01*
X141280136Y-111082132D01*
X141212088Y-111296645D01*
X141187002Y-111520290D01*
X141186890Y-111536390D01*
X140953110Y-111536390D01*
X140931149Y-111312416D01*
X140866103Y-111096974D01*
X140760450Y-110898269D01*
X140618213Y-110723869D01*
X140570000Y-110683984D01*
X140570000Y-109996935D01*
X140620000Y-109996935D01*
X140683698Y-109991855D01*
X140791738Y-109958398D01*
X140886179Y-109896165D01*
X140959543Y-109810086D01*
X141006022Y-109706976D01*
X141021935Y-109595000D01*
X141021935Y-108845000D01*
X141016855Y-108781302D01*
X140983398Y-108673262D01*
X140921165Y-108578821D01*
X140835086Y-108505457D01*
X140731976Y-108458978D01*
X140620000Y-108443065D01*
X139420000Y-108443065D01*
X139356302Y-108448145D01*
X139248262Y-108481602D01*
X139153821Y-108543835D01*
X139080457Y-108629914D01*
X139033978Y-108733024D01*
X139018065Y-108845000D01*
X139018065Y-109595000D01*
X139023145Y-109658698D01*
X139056602Y-109766738D01*
X139118835Y-109861179D01*
X139204914Y-109934543D01*
X139308024Y-109981022D01*
X139420000Y-109996935D01*
X139470000Y-109996935D01*
X139470000Y-110437236D01*
X139368037Y-110467245D01*
X139168599Y-110571509D01*
X138993211Y-110712524D01*
X138848553Y-110884921D01*
X138740136Y-111082132D01*
X138672088Y-111296645D01*
X138647002Y-111520290D01*
X138646890Y-111536390D01*
X138646890Y-113063610D01*
X138668851Y-113287584D01*
X138696709Y-113379854D01*
X138369062Y-113707500D01*
X138215614Y-113707500D01*
X138319864Y-113517868D01*
X138387912Y-113303355D01*
X138412998Y-113079710D01*
X138413110Y-113063610D01*
X138413110Y-111536390D01*
X138391149Y-111312416D01*
X138326103Y-111096974D01*
X138220450Y-110898269D01*
X138078213Y-110723869D01*
X137904811Y-110580418D01*
X137706848Y-110473380D01*
X137491865Y-110406832D01*
X137268050Y-110383308D01*
X137043929Y-110403705D01*
X136828037Y-110467245D01*
X136628599Y-110571509D01*
X136453211Y-110712524D01*
X136308553Y-110884921D01*
X136200136Y-111082132D01*
X136132088Y-111296645D01*
X136107002Y-111520290D01*
X136106890Y-111536390D01*
X136106890Y-113063610D01*
X136128851Y-113287584D01*
X136193897Y-113503026D01*
X136299550Y-113701731D01*
X136304255Y-113707500D01*
X135922895Y-113707500D01*
X136024913Y-113470960D01*
X136081110Y-113208380D01*
X136081110Y-112454000D01*
X134874000Y-112454000D01*
X134874000Y-112474000D01*
X134566000Y-112474000D01*
X134566000Y-112454000D01*
X134546000Y-112454000D01*
X134546000Y-112146000D01*
X134566000Y-112146000D01*
X134566000Y-110346357D01*
X134874000Y-110346357D01*
X134874000Y-112146000D01*
X136081110Y-112146000D01*
X136081110Y-111391620D01*
X136024913Y-111129040D01*
X135918569Y-110882469D01*
X135766164Y-110661382D01*
X135573556Y-110474276D01*
X135348146Y-110328341D01*
X135083661Y-110233991D01*
X134874000Y-110346357D01*
X134566000Y-110346357D01*
X134356339Y-110233991D01*
X134091854Y-110328341D01*
X134066880Y-110344510D01*
X134066880Y-108395512D01*
X134992973Y-108395512D01*
X135032724Y-108749897D01*
X135140551Y-109089813D01*
X135312348Y-109402311D01*
X135541572Y-109675488D01*
X135819490Y-109898940D01*
X136135517Y-110064155D01*
X136477616Y-110164840D01*
X136832756Y-110197160D01*
X137187411Y-110159885D01*
X137528070Y-110054433D01*
X137841760Y-109884822D01*
X138116531Y-109657511D01*
X138341918Y-109381160D01*
X138509335Y-109066294D01*
X138612406Y-108724906D01*
X138647205Y-108370000D01*
X138646493Y-108318981D01*
X138601798Y-107965185D01*
X138489235Y-107626809D01*
X138313091Y-107316740D01*
X138080076Y-107046790D01*
X137799065Y-106827240D01*
X137480762Y-106666453D01*
X137137291Y-106570554D01*
X136781734Y-106543196D01*
X136427635Y-106585420D01*
X136088480Y-106695617D01*
X135777189Y-106869592D01*
X135505619Y-107100717D01*
X135284112Y-107380188D01*
X135121108Y-107697361D01*
X135022813Y-108040155D01*
X134992973Y-108395512D01*
X134066880Y-108395512D01*
X134066880Y-106984328D01*
X139343021Y-101708187D01*
X139349520Y-101729711D01*
X139349520Y-102623784D01*
X139354478Y-102674346D01*
X139358906Y-102724957D01*
X139359713Y-102727734D01*
X139359995Y-102730613D01*
X139374682Y-102779260D01*
X139388853Y-102828036D01*
X139390184Y-102830603D01*
X139391020Y-102833373D01*
X139414888Y-102878263D01*
X139438252Y-102923336D01*
X139440054Y-102925594D01*
X139441413Y-102928149D01*
X139473555Y-102967559D01*
X139505220Y-103007225D01*
X139509188Y-103011250D01*
X139509256Y-103011333D01*
X139509333Y-103011396D01*
X139510611Y-103012693D01*
X140174524Y-103676606D01*
X140144850Y-103745842D01*
X140112231Y-103899301D01*
X140110040Y-104056174D01*
X140138362Y-104210485D01*
X140196116Y-104356356D01*
X140281104Y-104488231D01*
X140365387Y-104575509D01*
X139989379Y-104575509D01*
X139938817Y-104580467D01*
X139888206Y-104584895D01*
X139885429Y-104585702D01*
X139882550Y-104585984D01*
X139833903Y-104600671D01*
X139785127Y-104614842D01*
X139782560Y-104616173D01*
X139779790Y-104617009D01*
X139734900Y-104640877D01*
X139689827Y-104664241D01*
X139687569Y-104666043D01*
X139685014Y-104667402D01*
X139645634Y-104699519D01*
X139605938Y-104731208D01*
X139601912Y-104735179D01*
X139601830Y-104735245D01*
X139601768Y-104735320D01*
X139600470Y-104736600D01*
X139485491Y-104851579D01*
X139453250Y-104890831D01*
X139420588Y-104929756D01*
X139419193Y-104932293D01*
X139417359Y-104934526D01*
X139393348Y-104979305D01*
X139368876Y-105023820D01*
X139368002Y-105026574D01*
X139366634Y-105029126D01*
X139351767Y-105077755D01*
X139336419Y-105126137D01*
X139336097Y-105129009D01*
X139335251Y-105131776D01*
X139330112Y-105182363D01*
X139324454Y-105232809D01*
X139324414Y-105238457D01*
X139324403Y-105238568D01*
X139324413Y-105238671D01*
X139324400Y-105240488D01*
X139324400Y-105438506D01*
X139313118Y-105463534D01*
X139297205Y-105575510D01*
X139297205Y-106975050D01*
X139302285Y-107038748D01*
X139335742Y-107146788D01*
X139397975Y-107241229D01*
X139484054Y-107314593D01*
X139587164Y-107361072D01*
X139699140Y-107376985D01*
X140049660Y-107376985D01*
X140113358Y-107371905D01*
X140201135Y-107344723D01*
X140237404Y-107361072D01*
X140349380Y-107376985D01*
X140699900Y-107376985D01*
X140763598Y-107371905D01*
X140851375Y-107344723D01*
X140887644Y-107361072D01*
X140999620Y-107376985D01*
X141350140Y-107376985D01*
X141413838Y-107371905D01*
X141501615Y-107344723D01*
X141537884Y-107361072D01*
X141649860Y-107376985D01*
X142000380Y-107376985D01*
X142064078Y-107371905D01*
X142172118Y-107338448D01*
X142266559Y-107276215D01*
X142339923Y-107190136D01*
X142386402Y-107087026D01*
X142402315Y-106975050D01*
X142402315Y-105675509D01*
X144083283Y-105675509D01*
X145533120Y-107125346D01*
X145533120Y-110587292D01*
X145524811Y-110580418D01*
X145326848Y-110473380D01*
X145111865Y-110406832D01*
X144888050Y-110383308D01*
X144663929Y-110403705D01*
X144448037Y-110467245D01*
X144248599Y-110571509D01*
X144073211Y-110712524D01*
X143928553Y-110884921D01*
X143820136Y-111082132D01*
X143752088Y-111296645D01*
X143727002Y-111520290D01*
X143726890Y-111536390D01*
X143726890Y-113063610D01*
X143748851Y-113287584D01*
X143813897Y-113503026D01*
X143919550Y-113701731D01*
X144061787Y-113876131D01*
X144235189Y-114019582D01*
X144433152Y-114126620D01*
X144648135Y-114193168D01*
X144871950Y-114216692D01*
X145096071Y-114196295D01*
X145311963Y-114132755D01*
X145511401Y-114028491D01*
X145686789Y-113887476D01*
X145726493Y-113840159D01*
X146532743Y-114646408D01*
X146571987Y-114678644D01*
X146610920Y-114711312D01*
X146613454Y-114712705D01*
X146615689Y-114714541D01*
X146660455Y-114738544D01*
X146704984Y-114763024D01*
X146707742Y-114763899D01*
X146710290Y-114765265D01*
X146758873Y-114780119D01*
X146807301Y-114795481D01*
X146810174Y-114795803D01*
X146812940Y-114796649D01*
X146863527Y-114801788D01*
X146913973Y-114807446D01*
X146919621Y-114807486D01*
X146919732Y-114807497D01*
X146919835Y-114807487D01*
X146921652Y-114807500D01*
X147918348Y-114807500D01*
X147968910Y-114802542D01*
X148019521Y-114798114D01*
X148022298Y-114797307D01*
X148025177Y-114797025D01*
X148073824Y-114782338D01*
X148122600Y-114768167D01*
X148125167Y-114766836D01*
X148127937Y-114766000D01*
X148172827Y-114742132D01*
X148217900Y-114718768D01*
X148220158Y-114716966D01*
X148222713Y-114715607D01*
X148262123Y-114683465D01*
X148301789Y-114651800D01*
X148305814Y-114647832D01*
X148305897Y-114647764D01*
X148305960Y-114647687D01*
X148307257Y-114646409D01*
X149012029Y-113941637D01*
X149044270Y-113902385D01*
X149076932Y-113863460D01*
X149078327Y-113860923D01*
X149080161Y-113858690D01*
X149098963Y-113823624D01*
X149141787Y-113876131D01*
X149315189Y-114019582D01*
X149513152Y-114126620D01*
X149728135Y-114193168D01*
X149951950Y-114216692D01*
X150176071Y-114196295D01*
X150391963Y-114132755D01*
X150591401Y-114028491D01*
X150766789Y-113887476D01*
X150911447Y-113715079D01*
X151019864Y-113517868D01*
X151087912Y-113303355D01*
X151112998Y-113079710D01*
X151113110Y-113063610D01*
X151113110Y-111536390D01*
X151346890Y-111536390D01*
X151346890Y-113063610D01*
X151368851Y-113287584D01*
X151433897Y-113503026D01*
X151539550Y-113701731D01*
X151681787Y-113876131D01*
X151855189Y-114019582D01*
X152053152Y-114126620D01*
X152268135Y-114193168D01*
X152491950Y-114216692D01*
X152716071Y-114196295D01*
X152931963Y-114132755D01*
X153131401Y-114028491D01*
X153306789Y-113887476D01*
X153451447Y-113715079D01*
X153559864Y-113517868D01*
X153627912Y-113303355D01*
X153652998Y-113079710D01*
X153653110Y-113063610D01*
X153653110Y-111536390D01*
X153886890Y-111536390D01*
X153886890Y-113063610D01*
X153908851Y-113287584D01*
X153973897Y-113503026D01*
X154079550Y-113701731D01*
X154221787Y-113876131D01*
X154395189Y-114019582D01*
X154593152Y-114126620D01*
X154808135Y-114193168D01*
X155031950Y-114216692D01*
X155256071Y-114196295D01*
X155471963Y-114132755D01*
X155671401Y-114028491D01*
X155846789Y-113887476D01*
X155991447Y-113715079D01*
X156099864Y-113517868D01*
X156167912Y-113303355D01*
X156192998Y-113079710D01*
X156193110Y-113063610D01*
X156193110Y-111536390D01*
X156171149Y-111312416D01*
X156106103Y-111096974D01*
X156000450Y-110898269D01*
X155858213Y-110723869D01*
X155684811Y-110580418D01*
X155486848Y-110473380D01*
X155271865Y-110406832D01*
X155048050Y-110383308D01*
X154823929Y-110403705D01*
X154608037Y-110467245D01*
X154408599Y-110571509D01*
X154233211Y-110712524D01*
X154088553Y-110884921D01*
X153980136Y-111082132D01*
X153912088Y-111296645D01*
X153887002Y-111520290D01*
X153886890Y-111536390D01*
X153653110Y-111536390D01*
X153631149Y-111312416D01*
X153566103Y-111096974D01*
X153460450Y-110898269D01*
X153318213Y-110723869D01*
X153144811Y-110580418D01*
X152946848Y-110473380D01*
X152731865Y-110406832D01*
X152508050Y-110383308D01*
X152283929Y-110403705D01*
X152068037Y-110467245D01*
X151868599Y-110571509D01*
X151693211Y-110712524D01*
X151548553Y-110884921D01*
X151440136Y-111082132D01*
X151372088Y-111296645D01*
X151347002Y-111520290D01*
X151346890Y-111536390D01*
X151113110Y-111536390D01*
X151091149Y-111312416D01*
X151026103Y-111096974D01*
X150920450Y-110898269D01*
X150778213Y-110723869D01*
X150604811Y-110580418D01*
X150406848Y-110473380D01*
X150191865Y-110406832D01*
X149968050Y-110383308D01*
X149743929Y-110403705D01*
X149528037Y-110467245D01*
X149328599Y-110571509D01*
X149173120Y-110696517D01*
X149173120Y-108554698D01*
X149388909Y-108338909D01*
X149421150Y-108299657D01*
X149453812Y-108260732D01*
X149455207Y-108258195D01*
X149457041Y-108255962D01*
X149481052Y-108211183D01*
X149505524Y-108166668D01*
X149506398Y-108163914D01*
X149507766Y-108161362D01*
X149522633Y-108112733D01*
X149537981Y-108064351D01*
X149538303Y-108061479D01*
X149539149Y-108058712D01*
X149539837Y-108051935D01*
X149750000Y-108051935D01*
X149813698Y-108046855D01*
X149921738Y-108013398D01*
X150016179Y-107951165D01*
X150089543Y-107865086D01*
X150136022Y-107761976D01*
X150151935Y-107650000D01*
X150151935Y-106350000D01*
X150548065Y-106350000D01*
X150548065Y-107650000D01*
X150553145Y-107713698D01*
X150586602Y-107821738D01*
X150648835Y-107916179D01*
X150734914Y-107989543D01*
X150838024Y-108036022D01*
X150950000Y-108051935D01*
X152450000Y-108051935D01*
X152513698Y-108046855D01*
X152621738Y-108013398D01*
X152716179Y-107951165D01*
X152789543Y-107865086D01*
X152836022Y-107761976D01*
X152851935Y-107650000D01*
X152851935Y-107185883D01*
X154665882Y-105371935D01*
X155590000Y-105371935D01*
X155653698Y-105366855D01*
X155761738Y-105333398D01*
X155856179Y-105271165D01*
X155929543Y-105185086D01*
X155976022Y-105081976D01*
X155991935Y-104970000D01*
X155991935Y-104770000D01*
X157178318Y-104770000D01*
X157259914Y-104839543D01*
X157363024Y-104886022D01*
X157475000Y-104901935D01*
X157920248Y-104901935D01*
X157674118Y-105148065D01*
X156650000Y-105148065D01*
X156586302Y-105153145D01*
X156478262Y-105186602D01*
X156383821Y-105248835D01*
X156310457Y-105334914D01*
X156263978Y-105438024D01*
X156248065Y-105550000D01*
X156248065Y-106400000D01*
X155576935Y-106400000D01*
X155576935Y-106350000D01*
X155571855Y-106286302D01*
X155538398Y-106178262D01*
X155476165Y-106083821D01*
X155390086Y-106010457D01*
X155286976Y-105963978D01*
X155175000Y-105948065D01*
X154425000Y-105948065D01*
X154361302Y-105953145D01*
X154253262Y-105986602D01*
X154158821Y-106048835D01*
X154085457Y-106134914D01*
X154038978Y-106238024D01*
X154023065Y-106350000D01*
X154023065Y-107550000D01*
X154028145Y-107613698D01*
X154061602Y-107721738D01*
X154123835Y-107816179D01*
X154209914Y-107889543D01*
X154313024Y-107936022D01*
X154425000Y-107951935D01*
X155175000Y-107951935D01*
X155238698Y-107946855D01*
X155346738Y-107913398D01*
X155441179Y-107851165D01*
X155514543Y-107765086D01*
X155561022Y-107661976D01*
X155576935Y-107550000D01*
X155576935Y-107500000D01*
X156650000Y-107500000D01*
X156700562Y-107495042D01*
X156751173Y-107490614D01*
X156753950Y-107489807D01*
X156756829Y-107489525D01*
X156805476Y-107474838D01*
X156854252Y-107460667D01*
X156856819Y-107459336D01*
X156859589Y-107458500D01*
X156871936Y-107451935D01*
X157950000Y-107451935D01*
X158013698Y-107446855D01*
X158121738Y-107413398D01*
X158216179Y-107351165D01*
X158289543Y-107265086D01*
X158336022Y-107161976D01*
X158351935Y-107050000D01*
X158351935Y-106850000D01*
X159223065Y-106850000D01*
X159223065Y-107200000D01*
X159228145Y-107263698D01*
X159261602Y-107371738D01*
X159323835Y-107466179D01*
X159409914Y-107539543D01*
X159433004Y-107549951D01*
X159358821Y-107598835D01*
X159285457Y-107684914D01*
X159238978Y-107788024D01*
X159223065Y-107900000D01*
X159223065Y-108299118D01*
X158822082Y-108700100D01*
X158727143Y-108699437D01*
X158573034Y-108728835D01*
X158427570Y-108787607D01*
X158351935Y-108837101D01*
X158351935Y-108250000D01*
X158346855Y-108186302D01*
X158313398Y-108078262D01*
X158251165Y-107983821D01*
X158165086Y-107910457D01*
X158061976Y-107863978D01*
X157950000Y-107848065D01*
X156650000Y-107848065D01*
X156586302Y-107853145D01*
X156478262Y-107886602D01*
X156383821Y-107948835D01*
X156310457Y-108034914D01*
X156263978Y-108138024D01*
X156248065Y-108250000D01*
X156248065Y-109750000D01*
X156253145Y-109813698D01*
X156286602Y-109921738D01*
X156348835Y-110016179D01*
X156434914Y-110089543D01*
X156538024Y-110136022D01*
X156650000Y-110151935D01*
X156750000Y-110151935D01*
X156750000Y-110740186D01*
X156628553Y-110884921D01*
X156520136Y-111082132D01*
X156452088Y-111296645D01*
X156427002Y-111520290D01*
X156426890Y-111536390D01*
X156426890Y-113063610D01*
X156448851Y-113287584D01*
X156513897Y-113503026D01*
X156619550Y-113701731D01*
X156761787Y-113876131D01*
X156935189Y-114019582D01*
X157133152Y-114126620D01*
X157348135Y-114193168D01*
X157571950Y-114216692D01*
X157796071Y-114196295D01*
X157910437Y-114162635D01*
X158394202Y-114646400D01*
X158433454Y-114678641D01*
X158472379Y-114711303D01*
X158474916Y-114712698D01*
X158477149Y-114714532D01*
X158521928Y-114738543D01*
X158566443Y-114763015D01*
X158569197Y-114763889D01*
X158571749Y-114765257D01*
X158620378Y-114780124D01*
X158668760Y-114795472D01*
X158671632Y-114795794D01*
X158674399Y-114796640D01*
X158724986Y-114801779D01*
X158775432Y-114807437D01*
X158781080Y-114807477D01*
X158781191Y-114807488D01*
X158781294Y-114807478D01*
X158783111Y-114807491D01*
X168853111Y-114807491D01*
X168903673Y-114802533D01*
X168954284Y-114798105D01*
X168957061Y-114797298D01*
X168959940Y-114797016D01*
X169008587Y-114782329D01*
X169057363Y-114768158D01*
X169059930Y-114766827D01*
X169062700Y-114765991D01*
X169107590Y-114742123D01*
X169152663Y-114718759D01*
X169154921Y-114716957D01*
X169157476Y-114715598D01*
X169196886Y-114683456D01*
X169236552Y-114651791D01*
X169240577Y-114647823D01*
X169240660Y-114647755D01*
X169240723Y-114647678D01*
X169242020Y-114646400D01*
X169332020Y-114556400D01*
X169364261Y-114517148D01*
X169396923Y-114478223D01*
X169398318Y-114475686D01*
X169400152Y-114473453D01*
X169424143Y-114428709D01*
X169448635Y-114384159D01*
X169449510Y-114381400D01*
X169450876Y-114378853D01*
X169465730Y-114330270D01*
X169481092Y-114281842D01*
X169481414Y-114278969D01*
X169482260Y-114276203D01*
X169487399Y-114225616D01*
X169493057Y-114175170D01*
X169493097Y-114169522D01*
X169493108Y-114169411D01*
X169493098Y-114169308D01*
X169493111Y-114167491D01*
X169493111Y-107628109D01*
X169488153Y-107577547D01*
X169483725Y-107526936D01*
X169482918Y-107524159D01*
X169482636Y-107521280D01*
X169467949Y-107472633D01*
X169453778Y-107423857D01*
X169452447Y-107421290D01*
X169451611Y-107418520D01*
X169427743Y-107373630D01*
X169404379Y-107328557D01*
X169402577Y-107326299D01*
X169401218Y-107323744D01*
X169369076Y-107284334D01*
X169337411Y-107244668D01*
X169333443Y-107240643D01*
X169333375Y-107240560D01*
X169333298Y-107240497D01*
X169332020Y-107239200D01*
X164728332Y-102635512D01*
X166980768Y-102635512D01*
X167020519Y-102989897D01*
X167128346Y-103329813D01*
X167300143Y-103642311D01*
X167529367Y-103915488D01*
X167807285Y-104138940D01*
X168123312Y-104304155D01*
X168465411Y-104404840D01*
X168820551Y-104437160D01*
X169175206Y-104399885D01*
X169515865Y-104294433D01*
X169829555Y-104124822D01*
X170104326Y-103897511D01*
X170329713Y-103621160D01*
X170497130Y-103306294D01*
X170600201Y-102964906D01*
X170635000Y-102610000D01*
X170634288Y-102558981D01*
X170589593Y-102205185D01*
X170477030Y-101866809D01*
X170300886Y-101556740D01*
X170067871Y-101286790D01*
X169786860Y-101067240D01*
X169468557Y-100906453D01*
X169125086Y-100810554D01*
X168769529Y-100783196D01*
X168415430Y-100825420D01*
X168076275Y-100935617D01*
X167764984Y-101109592D01*
X167493414Y-101340717D01*
X167271907Y-101620188D01*
X167108903Y-101937361D01*
X167010608Y-102280155D01*
X166980768Y-102635512D01*
X164728332Y-102635512D01*
X164653911Y-102561091D01*
X164614659Y-102528850D01*
X164575734Y-102496188D01*
X164573197Y-102494793D01*
X164570964Y-102492959D01*
X164526185Y-102468948D01*
X164481670Y-102444476D01*
X164478916Y-102443602D01*
X164476364Y-102442234D01*
X164427735Y-102427367D01*
X164379353Y-102412019D01*
X164376481Y-102411697D01*
X164373714Y-102410851D01*
X164323127Y-102405712D01*
X164272681Y-102400054D01*
X164267033Y-102400014D01*
X164266922Y-102400003D01*
X164266819Y-102400013D01*
X164265002Y-102400000D01*
X163611935Y-102400000D01*
X163611935Y-102399999D01*
X164857491Y-102399999D01*
X164908053Y-102395041D01*
X164958664Y-102390613D01*
X164961441Y-102389806D01*
X164964320Y-102389524D01*
X165012967Y-102374837D01*
X165061743Y-102360666D01*
X165064310Y-102359335D01*
X165067080Y-102358499D01*
X165111970Y-102334631D01*
X165157043Y-102311267D01*
X165159301Y-102309465D01*
X165161856Y-102308106D01*
X165201266Y-102275964D01*
X165240932Y-102244299D01*
X165244957Y-102240331D01*
X165245040Y-102240263D01*
X165245103Y-102240186D01*
X165246400Y-102238908D01*
X168188909Y-99296399D01*
X168221150Y-99257147D01*
X168253812Y-99218222D01*
X168255207Y-99215685D01*
X168257041Y-99213452D01*
X168281052Y-99168673D01*
X168305524Y-99124158D01*
X168306398Y-99121404D01*
X168307766Y-99118852D01*
X168322633Y-99070223D01*
X168337981Y-99021841D01*
X168338303Y-99018969D01*
X168339149Y-99016202D01*
X168344288Y-98965615D01*
X168349946Y-98915169D01*
X168349986Y-98909521D01*
X168349997Y-98909410D01*
X168349987Y-98909307D01*
X168350000Y-98907490D01*
X168350000Y-98871047D01*
X168431401Y-98828491D01*
X168606789Y-98687476D01*
X168751447Y-98515079D01*
X168859864Y-98317868D01*
X168927912Y-98103355D01*
X168952998Y-97879710D01*
X168953110Y-97863610D01*
X168953110Y-96336390D01*
X168931149Y-96112416D01*
X168866103Y-95896974D01*
X168760450Y-95698269D01*
X168618213Y-95523869D01*
X168444811Y-95380418D01*
X168246848Y-95273380D01*
X168031865Y-95206832D01*
X167808050Y-95183308D01*
X167583929Y-95203705D01*
X167368037Y-95267245D01*
X167168599Y-95371509D01*
X166993211Y-95512524D01*
X166848553Y-95684921D01*
X166740136Y-95882132D01*
X166672088Y-96096645D01*
X166647002Y-96320290D01*
X166646890Y-96336390D01*
X166646890Y-97863610D01*
X166668851Y-98087584D01*
X166733897Y-98303026D01*
X166839550Y-98501731D01*
X166981787Y-98676131D01*
X167130508Y-98799164D01*
X164629673Y-101299999D01*
X161615001Y-101299999D01*
X161564439Y-101304957D01*
X161513828Y-101309385D01*
X161511051Y-101310192D01*
X161508172Y-101310474D01*
X161459525Y-101325161D01*
X161410749Y-101339332D01*
X161408182Y-101340663D01*
X161405412Y-101341499D01*
X161360522Y-101365367D01*
X161315449Y-101388731D01*
X161313191Y-101390533D01*
X161310636Y-101391892D01*
X161271226Y-101424034D01*
X161231560Y-101455699D01*
X161227539Y-101459664D01*
X161227452Y-101459735D01*
X161227385Y-101459816D01*
X161226092Y-101461091D01*
X160426935Y-102260248D01*
X160426935Y-101240000D01*
X160421855Y-101176302D01*
X160388398Y-101068262D01*
X160326165Y-100973821D01*
X160240086Y-100900457D01*
X160136976Y-100853978D01*
X160025000Y-100838065D01*
X159375000Y-100838065D01*
X159311302Y-100843145D01*
X159203262Y-100876602D01*
X159108821Y-100938835D01*
X159035457Y-101024914D01*
X158988978Y-101128024D01*
X158973065Y-101240000D01*
X158973065Y-102300000D01*
X158978145Y-102363698D01*
X159011602Y-102471738D01*
X159073835Y-102566179D01*
X159159914Y-102639543D01*
X159263024Y-102686022D01*
X159375000Y-102701935D01*
X159985247Y-102701935D01*
X159649117Y-103038065D01*
X159375000Y-103038065D01*
X159311302Y-103043145D01*
X159223359Y-103070378D01*
X159186976Y-103053978D01*
X159075000Y-103038065D01*
X158425000Y-103038065D01*
X158361302Y-103043145D01*
X158273359Y-103070378D01*
X158236976Y-103053978D01*
X158125000Y-103038065D01*
X157475000Y-103038065D01*
X157411302Y-103043145D01*
X157303262Y-103076602D01*
X157208821Y-103138835D01*
X157135457Y-103224914D01*
X157088978Y-103328024D01*
X157073065Y-103440000D01*
X157073065Y-103670000D01*
X155991935Y-103670000D01*
X155991935Y-103470000D01*
X155986855Y-103406302D01*
X155953398Y-103298262D01*
X155891165Y-103203821D01*
X155805086Y-103130457D01*
X155701976Y-103083978D01*
X155590000Y-103068065D01*
X154290000Y-103068065D01*
X154226302Y-103073145D01*
X154118262Y-103106602D01*
X154023821Y-103168835D01*
X153950457Y-103254914D01*
X153903978Y-103358024D01*
X153888065Y-103470000D01*
X153888065Y-104594118D01*
X152523651Y-105958532D01*
X152450000Y-105948065D01*
X150950000Y-105948065D01*
X150886302Y-105953145D01*
X150778262Y-105986602D01*
X150683821Y-106048835D01*
X150610457Y-106134914D01*
X150563978Y-106238024D01*
X150548065Y-106350000D01*
X150151935Y-106350000D01*
X150146855Y-106286302D01*
X150113398Y-106178262D01*
X150051165Y-106083821D01*
X149965086Y-106010457D01*
X149861976Y-105963978D01*
X149750000Y-105948065D01*
X149750000Y-104811248D01*
X149841179Y-104751165D01*
X149914543Y-104665086D01*
X149961022Y-104561976D01*
X149976935Y-104450000D01*
X149976935Y-103250000D01*
X149971855Y-103186302D01*
X149938398Y-103078262D01*
X149876165Y-102983821D01*
X149790086Y-102910457D01*
X149686976Y-102863978D01*
X149575000Y-102848065D01*
X148825000Y-102848065D01*
X148761302Y-102853145D01*
X148653262Y-102886602D01*
X148558821Y-102948835D01*
X148485457Y-103034914D01*
X148438978Y-103138024D01*
X148423065Y-103250000D01*
X148423065Y-104450000D01*
X148428145Y-104513698D01*
X148461602Y-104621738D01*
X148523835Y-104716179D01*
X148609914Y-104789543D01*
X148650000Y-104807613D01*
X148650000Y-105948065D01*
X148250000Y-105948065D01*
X148186302Y-105953145D01*
X148078262Y-105986602D01*
X147983821Y-106048835D01*
X147970000Y-106065051D01*
X147970000Y-102483848D01*
X147965042Y-102433286D01*
X147960614Y-102382675D01*
X147959807Y-102379898D01*
X147959525Y-102377019D01*
X147944838Y-102328372D01*
X147930667Y-102279596D01*
X147929336Y-102277029D01*
X147928500Y-102274259D01*
X147904632Y-102229369D01*
X147881268Y-102184296D01*
X147879466Y-102182038D01*
X147878107Y-102179483D01*
X147845965Y-102140073D01*
X147814300Y-102100407D01*
X147810332Y-102096382D01*
X147810264Y-102096299D01*
X147810187Y-102096236D01*
X147808909Y-102094939D01*
X145881236Y-100167266D01*
X146398948Y-100167266D01*
X146427270Y-100321577D01*
X146485024Y-100467448D01*
X146570012Y-100599323D01*
X146678995Y-100712179D01*
X146807824Y-100801717D01*
X146951590Y-100864527D01*
X147104818Y-100898216D01*
X147261672Y-100901502D01*
X147416177Y-100874258D01*
X147562447Y-100817524D01*
X147694912Y-100733459D01*
X147782553Y-100650000D01*
X149677182Y-100650000D01*
X151336091Y-102308909D01*
X151375370Y-102341173D01*
X151414268Y-102373812D01*
X151416801Y-102375205D01*
X151419038Y-102377042D01*
X151463856Y-102401073D01*
X151508332Y-102425524D01*
X151511086Y-102426398D01*
X151513638Y-102427766D01*
X151562267Y-102442633D01*
X151610649Y-102457981D01*
X151613521Y-102458303D01*
X151616288Y-102459149D01*
X151623065Y-102459837D01*
X151623065Y-102520000D01*
X151628145Y-102583698D01*
X151661602Y-102691738D01*
X151723835Y-102786179D01*
X151809914Y-102859543D01*
X151913024Y-102906022D01*
X152025000Y-102921935D01*
X152775000Y-102921935D01*
X152838698Y-102916855D01*
X152946738Y-102883398D01*
X153041179Y-102821165D01*
X153114543Y-102735086D01*
X153161022Y-102631976D01*
X153176935Y-102520000D01*
X153176935Y-102470000D01*
X153945226Y-102470000D01*
X153988835Y-102536179D01*
X154074914Y-102609543D01*
X154178024Y-102656022D01*
X154290000Y-102671935D01*
X155590000Y-102671935D01*
X155653698Y-102666855D01*
X155761738Y-102633398D01*
X155856179Y-102571165D01*
X155929543Y-102485086D01*
X155976022Y-102381976D01*
X155984829Y-102320000D01*
X157074660Y-102320000D01*
X157078145Y-102363698D01*
X157111602Y-102471738D01*
X157173835Y-102566179D01*
X157259914Y-102639543D01*
X157363024Y-102686022D01*
X157475000Y-102701935D01*
X158125000Y-102701935D01*
X158188698Y-102696855D01*
X158296738Y-102663398D01*
X158391179Y-102601165D01*
X158464543Y-102515086D01*
X158511022Y-102411976D01*
X158526935Y-102300000D01*
X158526935Y-101240000D01*
X158521855Y-101176302D01*
X158488398Y-101068262D01*
X158426165Y-100973821D01*
X158340086Y-100900457D01*
X158236976Y-100853978D01*
X158125000Y-100838065D01*
X157475000Y-100838065D01*
X157411302Y-100843145D01*
X157303262Y-100876602D01*
X157208821Y-100938835D01*
X157135457Y-101024914D01*
X157088978Y-101128024D01*
X157075907Y-101220000D01*
X155991935Y-101220000D01*
X155991935Y-100770000D01*
X155986855Y-100706302D01*
X155953398Y-100598262D01*
X155891165Y-100503821D01*
X155805086Y-100430457D01*
X155701976Y-100383978D01*
X155590000Y-100368065D01*
X154290000Y-100368065D01*
X154226302Y-100373145D01*
X154118262Y-100406602D01*
X154023821Y-100468835D01*
X153950457Y-100554914D01*
X153903978Y-100658024D01*
X153888065Y-100770000D01*
X153888065Y-101370000D01*
X153176935Y-101370000D01*
X153176935Y-101320000D01*
X153171855Y-101256302D01*
X153138398Y-101148262D01*
X153076165Y-101053821D01*
X152990086Y-100980457D01*
X152886976Y-100933978D01*
X152775000Y-100918065D01*
X152025000Y-100918065D01*
X151961302Y-100923145D01*
X151853262Y-100956602D01*
X151758821Y-101018835D01*
X151686504Y-101103686D01*
X150293909Y-99711091D01*
X150254657Y-99678850D01*
X150215732Y-99646188D01*
X150213195Y-99644793D01*
X150210962Y-99642959D01*
X150166183Y-99618948D01*
X150121668Y-99594476D01*
X150118914Y-99593602D01*
X150116362Y-99592234D01*
X150067733Y-99577367D01*
X150019351Y-99562019D01*
X150016479Y-99561697D01*
X150013712Y-99560851D01*
X149963125Y-99555712D01*
X149912679Y-99550054D01*
X149907031Y-99550014D01*
X149906920Y-99550003D01*
X149906817Y-99550013D01*
X149905000Y-99550000D01*
X147781317Y-99550000D01*
X147712407Y-99480607D01*
X147582341Y-99392876D01*
X147437711Y-99332079D01*
X147284027Y-99300533D01*
X147127143Y-99299437D01*
X146973034Y-99328835D01*
X146827570Y-99387607D01*
X146696291Y-99473513D01*
X146584199Y-99583282D01*
X146495562Y-99712732D01*
X146433758Y-99856934D01*
X146401139Y-100010393D01*
X146398948Y-100167266D01*
X145881236Y-100167266D01*
X144706691Y-98992721D01*
X144708135Y-98993168D01*
X144931950Y-99016692D01*
X145156071Y-98996295D01*
X145371963Y-98932755D01*
X145571401Y-98828491D01*
X145746789Y-98687476D01*
X145891447Y-98515079D01*
X145999864Y-98317868D01*
X146067912Y-98103355D01*
X146092998Y-97879710D01*
X146093110Y-97863610D01*
X146093110Y-96336390D01*
X146071149Y-96112416D01*
X146029661Y-95975000D01*
X146390676Y-95975000D01*
X146352088Y-96096645D01*
X146327002Y-96320290D01*
X146326890Y-96336390D01*
X146326890Y-97863610D01*
X146348851Y-98087584D01*
X146413897Y-98303026D01*
X146519550Y-98501731D01*
X146661787Y-98676131D01*
X146835189Y-98819582D01*
X147033152Y-98926620D01*
X147248135Y-98993168D01*
X147471950Y-99016692D01*
X147696071Y-98996295D01*
X147911963Y-98932755D01*
X148111401Y-98828491D01*
X148286789Y-98687476D01*
X148431447Y-98515079D01*
X148539864Y-98317868D01*
X148607912Y-98103355D01*
X148632998Y-97879710D01*
X148633110Y-97863610D01*
X148633110Y-96336390D01*
X148611149Y-96112416D01*
X148569661Y-95975000D01*
X148930676Y-95975000D01*
X148892088Y-96096645D01*
X148867002Y-96320290D01*
X148866890Y-96336390D01*
X148866890Y-97863610D01*
X148888851Y-98087584D01*
X148953897Y-98303026D01*
X149059550Y-98501731D01*
X149201787Y-98676131D01*
X149375189Y-98819582D01*
X149573152Y-98926620D01*
X149788135Y-98993168D01*
X150011950Y-99016692D01*
X150236071Y-98996295D01*
X150451963Y-98932755D01*
X150651401Y-98828491D01*
X150826789Y-98687476D01*
X150971447Y-98515079D01*
X151079864Y-98317868D01*
X151147912Y-98103355D01*
X151172998Y-97879710D01*
X151173110Y-97863610D01*
X151173110Y-96336390D01*
X151151149Y-96112416D01*
X151109661Y-95975000D01*
X151470676Y-95975000D01*
X151432088Y-96096645D01*
X151407002Y-96320290D01*
X151406890Y-96336390D01*
X151406890Y-97863610D01*
X151428851Y-98087584D01*
X151493897Y-98303026D01*
X151599550Y-98501731D01*
X151741787Y-98676131D01*
X151915189Y-98819582D01*
X152113152Y-98926620D01*
X152328135Y-98993168D01*
X152551950Y-99016692D01*
X152776071Y-98996295D01*
X152991963Y-98932755D01*
X153191401Y-98828491D01*
X153366789Y-98687476D01*
X153511447Y-98515079D01*
X153619864Y-98317868D01*
X153687912Y-98103355D01*
X153712998Y-97879710D01*
X153713110Y-97863610D01*
X153713110Y-96336390D01*
X153691149Y-96112416D01*
X153649661Y-95975000D01*
X154010676Y-95975000D01*
X153972088Y-96096645D01*
X153947002Y-96320290D01*
X153946890Y-96336390D01*
X153946890Y-97863610D01*
X153968851Y-98087584D01*
X154033897Y-98303026D01*
X154139550Y-98501731D01*
X154281787Y-98676131D01*
X154455189Y-98819582D01*
X154653152Y-98926620D01*
X154868135Y-98993168D01*
X155091950Y-99016692D01*
X155316071Y-98996295D01*
X155531963Y-98932755D01*
X155731401Y-98828491D01*
X155906789Y-98687476D01*
X156051447Y-98515079D01*
X156159864Y-98317868D01*
X156227912Y-98103355D01*
X156252998Y-97879710D01*
X156253110Y-97863610D01*
X156253110Y-96336390D01*
X156231149Y-96112416D01*
X156189661Y-95975000D01*
X156550676Y-95975000D01*
X156512088Y-96096645D01*
X156487002Y-96320290D01*
X156486890Y-96336390D01*
X156486890Y-97863610D01*
X156508851Y-98087584D01*
X156573897Y-98303026D01*
X156679550Y-98501731D01*
X156821787Y-98676131D01*
X156995189Y-98819582D01*
X157193152Y-98926620D01*
X157408135Y-98993168D01*
X157631950Y-99016692D01*
X157856071Y-98996295D01*
X158071963Y-98932755D01*
X158271401Y-98828491D01*
X158446789Y-98687476D01*
X158591447Y-98515079D01*
X158699864Y-98317868D01*
X158767912Y-98103355D01*
X158792998Y-97879710D01*
X158793110Y-97863610D01*
X158793110Y-96336390D01*
X159026890Y-96336390D01*
X159026890Y-97863610D01*
X159048851Y-98087584D01*
X159113897Y-98303026D01*
X159219550Y-98501731D01*
X159361787Y-98676131D01*
X159535189Y-98819582D01*
X159733152Y-98926620D01*
X159948135Y-98993168D01*
X160171950Y-99016692D01*
X160396071Y-98996295D01*
X160611963Y-98932755D01*
X160811401Y-98828491D01*
X160986789Y-98687476D01*
X161131447Y-98515079D01*
X161239864Y-98317868D01*
X161307912Y-98103355D01*
X161332998Y-97879710D01*
X161333110Y-97863610D01*
X161333110Y-96336390D01*
X161566890Y-96336390D01*
X161566890Y-97863610D01*
X161588851Y-98087584D01*
X161653897Y-98303026D01*
X161759550Y-98501731D01*
X161901787Y-98676131D01*
X162075189Y-98819582D01*
X162273152Y-98926620D01*
X162488135Y-98993168D01*
X162711950Y-99016692D01*
X162936071Y-98996295D01*
X163151963Y-98932755D01*
X163351401Y-98828491D01*
X163526789Y-98687476D01*
X163671447Y-98515079D01*
X163779864Y-98317868D01*
X163847912Y-98103355D01*
X163872998Y-97879710D01*
X163873110Y-97863610D01*
X163873110Y-96336390D01*
X164106890Y-96336390D01*
X164106890Y-97863610D01*
X164128851Y-98087584D01*
X164193897Y-98303026D01*
X164299550Y-98501731D01*
X164441787Y-98676131D01*
X164615189Y-98819582D01*
X164813152Y-98926620D01*
X165028135Y-98993168D01*
X165251950Y-99016692D01*
X165476071Y-98996295D01*
X165691963Y-98932755D01*
X165891401Y-98828491D01*
X166066789Y-98687476D01*
X166211447Y-98515079D01*
X166319864Y-98317868D01*
X166387912Y-98103355D01*
X166412998Y-97879710D01*
X166413110Y-97863610D01*
X166413110Y-96336390D01*
X166391149Y-96112416D01*
X166326103Y-95896974D01*
X166220450Y-95698269D01*
X166078213Y-95523869D01*
X165904811Y-95380418D01*
X165706848Y-95273380D01*
X165491865Y-95206832D01*
X165268050Y-95183308D01*
X165043929Y-95203705D01*
X164828037Y-95267245D01*
X164628599Y-95371509D01*
X164453211Y-95512524D01*
X164308553Y-95684921D01*
X164200136Y-95882132D01*
X164132088Y-96096645D01*
X164107002Y-96320290D01*
X164106890Y-96336390D01*
X163873110Y-96336390D01*
X163851149Y-96112416D01*
X163786103Y-95896974D01*
X163680450Y-95698269D01*
X163538213Y-95523869D01*
X163364811Y-95380418D01*
X163166848Y-95273380D01*
X162951865Y-95206832D01*
X162728050Y-95183308D01*
X162503929Y-95203705D01*
X162288037Y-95267245D01*
X162088599Y-95371509D01*
X161913211Y-95512524D01*
X161768553Y-95684921D01*
X161660136Y-95882132D01*
X161592088Y-96096645D01*
X161567002Y-96320290D01*
X161566890Y-96336390D01*
X161333110Y-96336390D01*
X161311149Y-96112416D01*
X161246103Y-95896974D01*
X161140450Y-95698269D01*
X160998213Y-95523869D01*
X160824811Y-95380418D01*
X160626848Y-95273380D01*
X160411865Y-95206832D01*
X160188050Y-95183308D01*
X159963929Y-95203705D01*
X159748037Y-95267245D01*
X159548599Y-95371509D01*
X159373211Y-95512524D01*
X159228553Y-95684921D01*
X159120136Y-95882132D01*
X159052088Y-96096645D01*
X159027002Y-96320290D01*
X159026890Y-96336390D01*
X158793110Y-96336390D01*
X158771149Y-96112416D01*
X158706103Y-95896974D01*
X158600450Y-95698269D01*
X158458213Y-95523869D01*
X158284811Y-95380418D01*
X158086848Y-95273380D01*
X157871865Y-95206832D01*
X157675000Y-95186141D01*
X157675000Y-90701782D01*
X157711662Y-90702550D01*
X157866167Y-90675306D01*
X158012437Y-90618572D01*
X158144902Y-90534507D01*
X158258516Y-90426314D01*
X158348952Y-90298114D01*
X158412764Y-90154789D01*
X158447522Y-90001800D01*
X158450024Y-89822604D01*
X158419551Y-89668704D01*
X158359766Y-89523653D01*
X158272945Y-89392978D01*
X158162397Y-89281655D01*
X158032331Y-89193924D01*
X157887701Y-89133127D01*
X157734017Y-89101581D01*
X157577133Y-89100485D01*
X157423024Y-89129883D01*
X157277560Y-89188655D01*
X157270858Y-89193041D01*
X155488909Y-87411091D01*
X155449657Y-87378850D01*
X155410732Y-87346188D01*
X155408195Y-87344793D01*
X155405962Y-87342959D01*
X155361183Y-87318948D01*
X155316668Y-87294476D01*
X155313914Y-87293602D01*
X155311362Y-87292234D01*
X155301935Y-87289352D01*
X155301935Y-84500000D01*
X155296855Y-84436302D01*
X155277871Y-84375000D01*
X159425000Y-84375000D01*
X159425000Y-93400000D01*
G36*
X161508065Y-103700000D02*
X161513145Y-103763698D01*
X161546602Y-103871738D01*
X161608835Y-103966179D01*
X161694914Y-104039543D01*
X161798024Y-104086022D01*
X161910000Y-104101935D01*
X163210000Y-104101935D01*
X163273698Y-104096855D01*
X163381738Y-104063398D01*
X163476179Y-104001165D01*
X163549543Y-103915086D01*
X163596022Y-103811976D01*
X163611935Y-103700000D01*
X163611935Y-103500000D01*
X164037184Y-103500000D01*
X164705249Y-104168065D01*
X164425000Y-104168065D01*
X164361302Y-104173145D01*
X164253262Y-104206602D01*
X164158821Y-104268835D01*
X164085457Y-104354914D01*
X164038978Y-104458024D01*
X164023065Y-104570000D01*
X164023065Y-105630000D01*
X164028145Y-105693698D01*
X164061602Y-105801738D01*
X164077031Y-105825151D01*
X164032183Y-105869999D01*
X163493310Y-105869999D01*
X163514543Y-105845086D01*
X163561022Y-105741976D01*
X163576935Y-105630000D01*
X163576935Y-104570000D01*
X163571855Y-104506302D01*
X163538398Y-104398262D01*
X163476165Y-104303821D01*
X163390086Y-104230457D01*
X163286976Y-104183978D01*
X163175000Y-104168065D01*
X162525000Y-104168065D01*
X162461302Y-104173145D01*
X162353262Y-104206602D01*
X162258821Y-104268835D01*
X162185457Y-104354914D01*
X162138978Y-104458024D01*
X162123065Y-104570000D01*
X162123065Y-105049117D01*
X162070113Y-105102069D01*
X161982341Y-105042866D01*
X161837711Y-104982069D01*
X161684027Y-104950523D01*
X161527143Y-104949427D01*
X161373034Y-104978825D01*
X161227570Y-105037597D01*
X161096291Y-105123503D01*
X160984199Y-105233272D01*
X160895562Y-105362722D01*
X160833758Y-105506924D01*
X160801139Y-105660383D01*
X160798948Y-105817256D01*
X160827270Y-105971567D01*
X160858324Y-106050000D01*
X160776935Y-106050000D01*
X160776935Y-106000000D01*
X160771855Y-105936302D01*
X160738398Y-105828262D01*
X160676165Y-105733821D01*
X160590086Y-105660457D01*
X160486976Y-105613978D01*
X160375000Y-105598065D01*
X159625000Y-105598065D01*
X159561302Y-105603145D01*
X159453262Y-105636602D01*
X159358821Y-105698835D01*
X159315214Y-105750000D01*
X158627817Y-105750000D01*
X159138909Y-105238908D01*
X159171152Y-105199655D01*
X159203812Y-105160732D01*
X159205205Y-105158199D01*
X159207042Y-105155962D01*
X159231073Y-105111144D01*
X159255524Y-105066668D01*
X159256398Y-105063914D01*
X159257766Y-105061362D01*
X159272633Y-105012733D01*
X159287981Y-104964351D01*
X159288303Y-104961479D01*
X159289149Y-104958712D01*
X159294288Y-104908125D01*
X159296237Y-104890742D01*
X159375000Y-104901935D01*
X160025000Y-104901935D01*
X160088698Y-104896855D01*
X160196738Y-104863398D01*
X160291179Y-104801165D01*
X160364543Y-104715086D01*
X160411022Y-104611976D01*
X160426935Y-104500000D01*
X160426935Y-103815883D01*
X161508065Y-102734752D01*
X161508065Y-103700000D01*
X161508065Y-103700000D01*
G37*
X161508065Y-103700000D02*
X161513145Y-103763698D01*
X161546602Y-103871738D01*
X161608835Y-103966179D01*
X161694914Y-104039543D01*
X161798024Y-104086022D01*
X161910000Y-104101935D01*
X163210000Y-104101935D01*
X163273698Y-104096855D01*
X163381738Y-104063398D01*
X163476179Y-104001165D01*
X163549543Y-103915086D01*
X163596022Y-103811976D01*
X163611935Y-103700000D01*
X163611935Y-103500000D01*
X164037184Y-103500000D01*
X164705249Y-104168065D01*
X164425000Y-104168065D01*
X164361302Y-104173145D01*
X164253262Y-104206602D01*
X164158821Y-104268835D01*
X164085457Y-104354914D01*
X164038978Y-104458024D01*
X164023065Y-104570000D01*
X164023065Y-105630000D01*
X164028145Y-105693698D01*
X164061602Y-105801738D01*
X164077031Y-105825151D01*
X164032183Y-105869999D01*
X163493310Y-105869999D01*
X163514543Y-105845086D01*
X163561022Y-105741976D01*
X163576935Y-105630000D01*
X163576935Y-104570000D01*
X163571855Y-104506302D01*
X163538398Y-104398262D01*
X163476165Y-104303821D01*
X163390086Y-104230457D01*
X163286976Y-104183978D01*
X163175000Y-104168065D01*
X162525000Y-104168065D01*
X162461302Y-104173145D01*
X162353262Y-104206602D01*
X162258821Y-104268835D01*
X162185457Y-104354914D01*
X162138978Y-104458024D01*
X162123065Y-104570000D01*
X162123065Y-105049117D01*
X162070113Y-105102069D01*
X161982341Y-105042866D01*
X161837711Y-104982069D01*
X161684027Y-104950523D01*
X161527143Y-104949427D01*
X161373034Y-104978825D01*
X161227570Y-105037597D01*
X161096291Y-105123503D01*
X160984199Y-105233272D01*
X160895562Y-105362722D01*
X160833758Y-105506924D01*
X160801139Y-105660383D01*
X160798948Y-105817256D01*
X160827270Y-105971567D01*
X160858324Y-106050000D01*
X160776935Y-106050000D01*
X160776935Y-106000000D01*
X160771855Y-105936302D01*
X160738398Y-105828262D01*
X160676165Y-105733821D01*
X160590086Y-105660457D01*
X160486976Y-105613978D01*
X160375000Y-105598065D01*
X159625000Y-105598065D01*
X159561302Y-105603145D01*
X159453262Y-105636602D01*
X159358821Y-105698835D01*
X159315214Y-105750000D01*
X158627817Y-105750000D01*
X159138909Y-105238908D01*
X159171152Y-105199655D01*
X159203812Y-105160732D01*
X159205205Y-105158199D01*
X159207042Y-105155962D01*
X159231073Y-105111144D01*
X159255524Y-105066668D01*
X159256398Y-105063914D01*
X159257766Y-105061362D01*
X159272633Y-105012733D01*
X159287981Y-104964351D01*
X159288303Y-104961479D01*
X159289149Y-104958712D01*
X159294288Y-104908125D01*
X159296237Y-104890742D01*
X159375000Y-104901935D01*
X160025000Y-104901935D01*
X160088698Y-104896855D01*
X160196738Y-104863398D01*
X160291179Y-104801165D01*
X160364543Y-104715086D01*
X160411022Y-104611976D01*
X160426935Y-104500000D01*
X160426935Y-103815883D01*
X161508065Y-102734752D01*
X161508065Y-103700000D01*
G36*
X146870000Y-102711666D02*
X146870000Y-110528953D01*
X146788599Y-110571509D01*
X146633120Y-110696517D01*
X146633120Y-106897528D01*
X146628160Y-106846940D01*
X146623734Y-106796355D01*
X146622927Y-106793578D01*
X146622645Y-106790699D01*
X146607958Y-106742052D01*
X146593787Y-106693276D01*
X146592456Y-106690709D01*
X146591620Y-106687939D01*
X146567752Y-106643049D01*
X146544388Y-106597976D01*
X146542586Y-106595718D01*
X146541227Y-106593163D01*
X146509085Y-106553753D01*
X146477420Y-106514087D01*
X146473452Y-106510062D01*
X146473384Y-106509979D01*
X146473307Y-106509916D01*
X146472029Y-106508619D01*
X144700010Y-104736600D01*
X144660758Y-104704359D01*
X144621833Y-104671697D01*
X144619296Y-104670302D01*
X144617063Y-104668468D01*
X144572284Y-104644457D01*
X144527769Y-104619985D01*
X144525015Y-104619111D01*
X144522463Y-104617743D01*
X144473834Y-104602876D01*
X144425452Y-104587528D01*
X144422580Y-104587206D01*
X144419813Y-104586360D01*
X144369226Y-104581221D01*
X144318780Y-104575563D01*
X144313132Y-104575523D01*
X144313021Y-104575512D01*
X144312918Y-104575522D01*
X144311101Y-104575509D01*
X141455210Y-104575509D01*
X141519618Y-104514174D01*
X141610054Y-104385974D01*
X141673866Y-104242649D01*
X141708624Y-104089660D01*
X141709712Y-104011738D01*
X141750580Y-104012594D01*
X141905085Y-103985350D01*
X142051355Y-103928616D01*
X142183820Y-103844551D01*
X142297434Y-103736358D01*
X142387870Y-103608158D01*
X142451682Y-103464833D01*
X142486440Y-103311844D01*
X142488942Y-103132648D01*
X142458469Y-102978748D01*
X142398684Y-102833697D01*
X142311863Y-102703022D01*
X142201315Y-102591699D01*
X142071249Y-102503968D01*
X141926619Y-102443171D01*
X141772935Y-102411625D01*
X141616051Y-102410529D01*
X141461942Y-102439927D01*
X141376521Y-102474440D01*
X141109445Y-102207363D01*
X141125550Y-102212472D01*
X141128422Y-102212794D01*
X141131189Y-102213640D01*
X141181771Y-102218778D01*
X141232222Y-102224437D01*
X141237871Y-102224477D01*
X141237982Y-102224488D01*
X141238085Y-102224478D01*
X141239901Y-102224491D01*
X142646673Y-102224491D01*
X144800195Y-104378013D01*
X144798948Y-104467266D01*
X144827270Y-104621577D01*
X144885024Y-104767448D01*
X144970012Y-104899323D01*
X145078995Y-105012179D01*
X145207824Y-105101717D01*
X145351590Y-105164527D01*
X145504818Y-105198216D01*
X145661672Y-105201502D01*
X145816177Y-105174258D01*
X145962447Y-105117524D01*
X146094912Y-105033459D01*
X146208526Y-104925266D01*
X146298962Y-104797066D01*
X146362774Y-104653741D01*
X146397532Y-104500752D01*
X146400034Y-104321556D01*
X146369561Y-104167656D01*
X146309776Y-104022605D01*
X146222955Y-103891930D01*
X146112407Y-103780607D01*
X145982341Y-103692876D01*
X145837711Y-103632079D01*
X145684027Y-103600533D01*
X145577608Y-103599790D01*
X143528722Y-101550904D01*
X143567039Y-101525655D01*
X143640403Y-101439576D01*
X143686882Y-101336466D01*
X143702795Y-101224490D01*
X143702795Y-99924949D01*
X144083283Y-99924949D01*
X146870000Y-102711666D01*
X146870000Y-102711666D01*
G37*
X146870000Y-102711666D02*
X146870000Y-110528953D01*
X146788599Y-110571509D01*
X146633120Y-110696517D01*
X146633120Y-106897528D01*
X146628160Y-106846940D01*
X146623734Y-106796355D01*
X146622927Y-106793578D01*
X146622645Y-106790699D01*
X146607958Y-106742052D01*
X146593787Y-106693276D01*
X146592456Y-106690709D01*
X146591620Y-106687939D01*
X146567752Y-106643049D01*
X146544388Y-106597976D01*
X146542586Y-106595718D01*
X146541227Y-106593163D01*
X146509085Y-106553753D01*
X146477420Y-106514087D01*
X146473452Y-106510062D01*
X146473384Y-106509979D01*
X146473307Y-106509916D01*
X146472029Y-106508619D01*
X144700010Y-104736600D01*
X144660758Y-104704359D01*
X144621833Y-104671697D01*
X144619296Y-104670302D01*
X144617063Y-104668468D01*
X144572284Y-104644457D01*
X144527769Y-104619985D01*
X144525015Y-104619111D01*
X144522463Y-104617743D01*
X144473834Y-104602876D01*
X144425452Y-104587528D01*
X144422580Y-104587206D01*
X144419813Y-104586360D01*
X144369226Y-104581221D01*
X144318780Y-104575563D01*
X144313132Y-104575523D01*
X144313021Y-104575512D01*
X144312918Y-104575522D01*
X144311101Y-104575509D01*
X141455210Y-104575509D01*
X141519618Y-104514174D01*
X141610054Y-104385974D01*
X141673866Y-104242649D01*
X141708624Y-104089660D01*
X141709712Y-104011738D01*
X141750580Y-104012594D01*
X141905085Y-103985350D01*
X142051355Y-103928616D01*
X142183820Y-103844551D01*
X142297434Y-103736358D01*
X142387870Y-103608158D01*
X142451682Y-103464833D01*
X142486440Y-103311844D01*
X142488942Y-103132648D01*
X142458469Y-102978748D01*
X142398684Y-102833697D01*
X142311863Y-102703022D01*
X142201315Y-102591699D01*
X142071249Y-102503968D01*
X141926619Y-102443171D01*
X141772935Y-102411625D01*
X141616051Y-102410529D01*
X141461942Y-102439927D01*
X141376521Y-102474440D01*
X141109445Y-102207363D01*
X141125550Y-102212472D01*
X141128422Y-102212794D01*
X141131189Y-102213640D01*
X141181771Y-102218778D01*
X141232222Y-102224437D01*
X141237871Y-102224477D01*
X141237982Y-102224488D01*
X141238085Y-102224478D01*
X141239901Y-102224491D01*
X142646673Y-102224491D01*
X144800195Y-104378013D01*
X144798948Y-104467266D01*
X144827270Y-104621577D01*
X144885024Y-104767448D01*
X144970012Y-104899323D01*
X145078995Y-105012179D01*
X145207824Y-105101717D01*
X145351590Y-105164527D01*
X145504818Y-105198216D01*
X145661672Y-105201502D01*
X145816177Y-105174258D01*
X145962447Y-105117524D01*
X146094912Y-105033459D01*
X146208526Y-104925266D01*
X146298962Y-104797066D01*
X146362774Y-104653741D01*
X146397532Y-104500752D01*
X146400034Y-104321556D01*
X146369561Y-104167656D01*
X146309776Y-104022605D01*
X146222955Y-103891930D01*
X146112407Y-103780607D01*
X145982341Y-103692876D01*
X145837711Y-103632079D01*
X145684027Y-103600533D01*
X145577608Y-103599790D01*
X143528722Y-101550904D01*
X143567039Y-101525655D01*
X143640403Y-101439576D01*
X143686882Y-101336466D01*
X143702795Y-101224490D01*
X143702795Y-99924949D01*
X144083283Y-99924949D01*
X146870000Y-102711666D01*
G36*
X137613978Y-84388024D02*
X137598065Y-84500000D01*
X137598065Y-89500000D01*
X137603145Y-89563698D01*
X137636602Y-89671738D01*
X137698835Y-89766179D01*
X137784914Y-89839543D01*
X137888024Y-89886022D01*
X138000000Y-89901935D01*
X141926949Y-89901935D01*
X141950343Y-89921150D01*
X141954931Y-89925000D01*
X135300000Y-89925000D01*
X135264919Y-89928440D01*
X135229732Y-89931642D01*
X135228468Y-89932014D01*
X135227162Y-89932142D01*
X135193392Y-89942338D01*
X135159523Y-89952306D01*
X135158359Y-89952915D01*
X135157099Y-89953295D01*
X135125963Y-89969851D01*
X135094664Y-89986213D01*
X135093637Y-89987039D01*
X135092478Y-89987655D01*
X135065146Y-90009946D01*
X135037626Y-90032073D01*
X135036781Y-90033080D01*
X135035762Y-90033911D01*
X135013302Y-90061060D01*
X134990582Y-90088137D01*
X134989946Y-90089293D01*
X134989111Y-90090303D01*
X134972353Y-90121296D01*
X134955324Y-90152272D01*
X134954926Y-90153525D01*
X134954301Y-90154682D01*
X134943854Y-90188432D01*
X134933195Y-90222033D01*
X134933049Y-90223337D01*
X134932659Y-90224596D01*
X134928961Y-90259776D01*
X134925037Y-90294764D01*
X134925019Y-90297285D01*
X134925009Y-90297382D01*
X134925018Y-90297479D01*
X134925000Y-90300000D01*
X134925000Y-95190575D01*
X134026890Y-95190575D01*
X133963192Y-95195655D01*
X133855152Y-95229112D01*
X133760711Y-95291345D01*
X133687347Y-95377424D01*
X133640868Y-95480534D01*
X133624955Y-95592510D01*
X133624955Y-98607490D01*
X133630035Y-98671188D01*
X133663492Y-98779228D01*
X133725725Y-98873669D01*
X133811804Y-98947033D01*
X133914914Y-98993512D01*
X134026890Y-99009425D01*
X135533110Y-99009425D01*
X135596808Y-99004345D01*
X135704848Y-98970888D01*
X135799289Y-98908655D01*
X135872653Y-98822576D01*
X135919132Y-98719466D01*
X135935045Y-98607490D01*
X135935045Y-95975000D01*
X136230676Y-95975000D01*
X136192088Y-96096645D01*
X136167002Y-96320290D01*
X136166890Y-96336390D01*
X136166890Y-97863610D01*
X136188851Y-98087584D01*
X136253897Y-98303026D01*
X136359550Y-98501731D01*
X136501787Y-98676131D01*
X136675189Y-98819582D01*
X136873152Y-98926620D01*
X137088135Y-98993168D01*
X137311950Y-99016692D01*
X137536071Y-98996295D01*
X137751963Y-98932755D01*
X137951401Y-98828491D01*
X138126789Y-98687476D01*
X138271447Y-98515079D01*
X138379864Y-98317868D01*
X138447912Y-98103355D01*
X138472998Y-97879710D01*
X138473110Y-97863610D01*
X138473110Y-97254000D01*
X138498890Y-97254000D01*
X138498890Y-98008380D01*
X138555087Y-98270960D01*
X138661431Y-98517531D01*
X138813836Y-98738618D01*
X139006444Y-98925724D01*
X139231854Y-99071659D01*
X139496339Y-99166009D01*
X139706000Y-99053643D01*
X139706000Y-97254000D01*
X140014000Y-97254000D01*
X140014000Y-99053643D01*
X140223661Y-99166009D01*
X140488146Y-99071659D01*
X140713556Y-98925724D01*
X140906164Y-98738618D01*
X141058569Y-98517531D01*
X141164913Y-98270960D01*
X141221110Y-98008380D01*
X141221110Y-97254000D01*
X140014000Y-97254000D01*
X139706000Y-97254000D01*
X138498890Y-97254000D01*
X138473110Y-97254000D01*
X138473110Y-96336390D01*
X138451149Y-96112416D01*
X138409661Y-95975000D01*
X138545251Y-95975000D01*
X138498890Y-96191620D01*
X138498890Y-96946000D01*
X139706000Y-96946000D01*
X139706000Y-96926000D01*
X140014000Y-96926000D01*
X140014000Y-96946000D01*
X141221110Y-96946000D01*
X141221110Y-96191620D01*
X141174749Y-95975000D01*
X141310676Y-95975000D01*
X141272088Y-96096645D01*
X141247002Y-96320290D01*
X141246890Y-96336390D01*
X141246890Y-97863610D01*
X141268851Y-98087584D01*
X141333897Y-98303026D01*
X141439550Y-98501731D01*
X141500999Y-98577075D01*
X141451356Y-98597132D01*
X141320077Y-98683038D01*
X141207985Y-98792807D01*
X141119348Y-98922257D01*
X141057544Y-99066459D01*
X141024925Y-99219918D01*
X141022734Y-99376791D01*
X141031218Y-99423015D01*
X140999620Y-99423015D01*
X140935922Y-99428095D01*
X140848145Y-99455277D01*
X140811876Y-99438928D01*
X140699900Y-99423015D01*
X140349380Y-99423015D01*
X140285682Y-99428095D01*
X140197905Y-99455277D01*
X140161636Y-99438928D01*
X140049660Y-99423015D01*
X139699140Y-99423015D01*
X139635442Y-99428095D01*
X139547665Y-99455277D01*
X139511396Y-99438928D01*
X139399420Y-99423015D01*
X139048900Y-99423015D01*
X138985202Y-99428095D01*
X138877162Y-99461552D01*
X138782721Y-99523785D01*
X138709357Y-99609864D01*
X138662878Y-99712974D01*
X138646965Y-99824950D01*
X138646965Y-100848607D01*
X133175000Y-106320572D01*
X133175000Y-84700000D01*
X133400000Y-84700000D01*
X133400000Y-87600000D01*
X133406839Y-87636346D01*
X133428319Y-87669727D01*
X133461094Y-87692121D01*
X133500000Y-87700000D01*
X136500000Y-87700000D01*
X136536346Y-87693161D01*
X136569727Y-87671681D01*
X136592121Y-87638906D01*
X136600000Y-87600000D01*
X136600000Y-84700000D01*
X136593161Y-84663654D01*
X136571681Y-84630273D01*
X136538906Y-84607879D01*
X136500000Y-84600000D01*
X133500000Y-84600000D01*
X133463654Y-84606839D01*
X133430273Y-84628319D01*
X133407879Y-84661094D01*
X133400000Y-84700000D01*
X133175000Y-84700000D01*
X133175000Y-84375000D01*
X137619849Y-84375000D01*
X137613978Y-84388024D01*
X137613978Y-84388024D01*
G37*
X137613978Y-84388024D02*
X137598065Y-84500000D01*
X137598065Y-89500000D01*
X137603145Y-89563698D01*
X137636602Y-89671738D01*
X137698835Y-89766179D01*
X137784914Y-89839543D01*
X137888024Y-89886022D01*
X138000000Y-89901935D01*
X141926949Y-89901935D01*
X141950343Y-89921150D01*
X141954931Y-89925000D01*
X135300000Y-89925000D01*
X135264919Y-89928440D01*
X135229732Y-89931642D01*
X135228468Y-89932014D01*
X135227162Y-89932142D01*
X135193392Y-89942338D01*
X135159523Y-89952306D01*
X135158359Y-89952915D01*
X135157099Y-89953295D01*
X135125963Y-89969851D01*
X135094664Y-89986213D01*
X135093637Y-89987039D01*
X135092478Y-89987655D01*
X135065146Y-90009946D01*
X135037626Y-90032073D01*
X135036781Y-90033080D01*
X135035762Y-90033911D01*
X135013302Y-90061060D01*
X134990582Y-90088137D01*
X134989946Y-90089293D01*
X134989111Y-90090303D01*
X134972353Y-90121296D01*
X134955324Y-90152272D01*
X134954926Y-90153525D01*
X134954301Y-90154682D01*
X134943854Y-90188432D01*
X134933195Y-90222033D01*
X134933049Y-90223337D01*
X134932659Y-90224596D01*
X134928961Y-90259776D01*
X134925037Y-90294764D01*
X134925019Y-90297285D01*
X134925009Y-90297382D01*
X134925018Y-90297479D01*
X134925000Y-90300000D01*
X134925000Y-95190575D01*
X134026890Y-95190575D01*
X133963192Y-95195655D01*
X133855152Y-95229112D01*
X133760711Y-95291345D01*
X133687347Y-95377424D01*
X133640868Y-95480534D01*
X133624955Y-95592510D01*
X133624955Y-98607490D01*
X133630035Y-98671188D01*
X133663492Y-98779228D01*
X133725725Y-98873669D01*
X133811804Y-98947033D01*
X133914914Y-98993512D01*
X134026890Y-99009425D01*
X135533110Y-99009425D01*
X135596808Y-99004345D01*
X135704848Y-98970888D01*
X135799289Y-98908655D01*
X135872653Y-98822576D01*
X135919132Y-98719466D01*
X135935045Y-98607490D01*
X135935045Y-95975000D01*
X136230676Y-95975000D01*
X136192088Y-96096645D01*
X136167002Y-96320290D01*
X136166890Y-96336390D01*
X136166890Y-97863610D01*
X136188851Y-98087584D01*
X136253897Y-98303026D01*
X136359550Y-98501731D01*
X136501787Y-98676131D01*
X136675189Y-98819582D01*
X136873152Y-98926620D01*
X137088135Y-98993168D01*
X137311950Y-99016692D01*
X137536071Y-98996295D01*
X137751963Y-98932755D01*
X137951401Y-98828491D01*
X138126789Y-98687476D01*
X138271447Y-98515079D01*
X138379864Y-98317868D01*
X138447912Y-98103355D01*
X138472998Y-97879710D01*
X138473110Y-97863610D01*
X138473110Y-97254000D01*
X138498890Y-97254000D01*
X138498890Y-98008380D01*
X138555087Y-98270960D01*
X138661431Y-98517531D01*
X138813836Y-98738618D01*
X139006444Y-98925724D01*
X139231854Y-99071659D01*
X139496339Y-99166009D01*
X139706000Y-99053643D01*
X139706000Y-97254000D01*
X140014000Y-97254000D01*
X140014000Y-99053643D01*
X140223661Y-99166009D01*
X140488146Y-99071659D01*
X140713556Y-98925724D01*
X140906164Y-98738618D01*
X141058569Y-98517531D01*
X141164913Y-98270960D01*
X141221110Y-98008380D01*
X141221110Y-97254000D01*
X140014000Y-97254000D01*
X139706000Y-97254000D01*
X138498890Y-97254000D01*
X138473110Y-97254000D01*
X138473110Y-96336390D01*
X138451149Y-96112416D01*
X138409661Y-95975000D01*
X138545251Y-95975000D01*
X138498890Y-96191620D01*
X138498890Y-96946000D01*
X139706000Y-96946000D01*
X139706000Y-96926000D01*
X140014000Y-96926000D01*
X140014000Y-96946000D01*
X141221110Y-96946000D01*
X141221110Y-96191620D01*
X141174749Y-95975000D01*
X141310676Y-95975000D01*
X141272088Y-96096645D01*
X141247002Y-96320290D01*
X141246890Y-96336390D01*
X141246890Y-97863610D01*
X141268851Y-98087584D01*
X141333897Y-98303026D01*
X141439550Y-98501731D01*
X141500999Y-98577075D01*
X141451356Y-98597132D01*
X141320077Y-98683038D01*
X141207985Y-98792807D01*
X141119348Y-98922257D01*
X141057544Y-99066459D01*
X141024925Y-99219918D01*
X141022734Y-99376791D01*
X141031218Y-99423015D01*
X140999620Y-99423015D01*
X140935922Y-99428095D01*
X140848145Y-99455277D01*
X140811876Y-99438928D01*
X140699900Y-99423015D01*
X140349380Y-99423015D01*
X140285682Y-99428095D01*
X140197905Y-99455277D01*
X140161636Y-99438928D01*
X140049660Y-99423015D01*
X139699140Y-99423015D01*
X139635442Y-99428095D01*
X139547665Y-99455277D01*
X139511396Y-99438928D01*
X139399420Y-99423015D01*
X139048900Y-99423015D01*
X138985202Y-99428095D01*
X138877162Y-99461552D01*
X138782721Y-99523785D01*
X138709357Y-99609864D01*
X138662878Y-99712974D01*
X138646965Y-99824950D01*
X138646965Y-100848607D01*
X133175000Y-106320572D01*
X133175000Y-84700000D01*
X133400000Y-84700000D01*
X133400000Y-87600000D01*
X133406839Y-87636346D01*
X133428319Y-87669727D01*
X133461094Y-87692121D01*
X133500000Y-87700000D01*
X136500000Y-87700000D01*
X136536346Y-87693161D01*
X136569727Y-87671681D01*
X136592121Y-87638906D01*
X136600000Y-87600000D01*
X136600000Y-84700000D01*
X136593161Y-84663654D01*
X136571681Y-84630273D01*
X136538906Y-84607879D01*
X136500000Y-84600000D01*
X133500000Y-84600000D01*
X133463654Y-84606839D01*
X133430273Y-84628319D01*
X133407879Y-84661094D01*
X133400000Y-84700000D01*
X133175000Y-84700000D01*
X133175000Y-84375000D01*
X137619849Y-84375000D01*
X137613978Y-84388024D01*
M02*
