G04 #@! TF.FileFunction,Copper,L2,Bot,Signal*
%FSLAX46Y46*%
G04 Gerber Fmt 4.6, Leading zero omitted, Abs format (unit mm)*
G04 Created by KiCad (PCBNEW 4.0.2-stable) date 04/04/2016 12:25:54*
%MOMM*%
G01*
G04 APERTURE LIST*
%ADD10C,0.100000*%
%ADD11O,1.506220X3.014980*%
%ADD12R,1.506220X3.014980*%
%ADD13C,0.800000*%
%ADD14C,0.300000*%
G04 APERTURE END LIST*
D10*
D11*
X144940000Y-97100000D03*
X147480000Y-97100000D03*
X150020000Y-97100000D03*
X152560000Y-97100000D03*
X155100000Y-97100000D03*
X157640000Y-97100000D03*
X160180000Y-97100000D03*
X162720000Y-97100000D03*
X165260000Y-97100000D03*
X142400000Y-97100000D03*
X139860000Y-97100000D03*
X137320000Y-97100000D03*
X167800000Y-97100000D03*
D12*
X134780000Y-97100000D03*
D11*
X157580000Y-112300000D03*
X155040000Y-112300000D03*
X152500000Y-112300000D03*
X149960000Y-112300000D03*
X147420000Y-112300000D03*
X144880000Y-112300000D03*
X142340000Y-112300000D03*
X139800000Y-112300000D03*
X137260000Y-112300000D03*
X160120000Y-112300000D03*
X162660000Y-112300000D03*
X165200000Y-112300000D03*
X134720000Y-112300000D03*
D12*
X167740000Y-112300000D03*
D13*
X141823786Y-99309525D03*
X147200000Y-100100000D03*
X145600000Y-104400000D03*
X161757302Y-110057302D03*
X163807317Y-108176403D03*
X158800000Y-109500000D03*
X161600000Y-105749990D03*
X161600000Y-107450010D03*
X157649990Y-89901048D03*
X141688908Y-103211092D03*
X144400000Y-89500000D03*
X140911092Y-103988908D03*
D14*
X147200000Y-100100000D02*
X142614261Y-100100000D01*
X142614261Y-100100000D02*
X141823786Y-99309525D01*
X156100000Y-104400000D02*
X145600000Y-104400000D01*
X161757302Y-110057302D02*
X156100000Y-104400000D01*
X158800000Y-109500000D02*
X159909608Y-109500000D01*
X159909608Y-109500000D02*
X161456880Y-111047272D01*
X161456880Y-111047272D02*
X161456880Y-113552728D01*
X161456880Y-113552728D02*
X162161652Y-114257500D01*
X162161652Y-114257500D02*
X163158348Y-114257500D01*
X163158348Y-114257500D02*
X163996880Y-113418968D01*
X163996880Y-113418968D02*
X163996880Y-108365966D01*
X163996880Y-108365966D02*
X163807317Y-108176403D01*
X161600000Y-107450010D02*
X161600000Y-105749990D01*
X147368214Y-101266757D02*
X147375736Y-101200000D01*
X147968214Y-101083244D02*
X147975736Y-101150000D01*
X141688908Y-103211092D02*
X141866725Y-103388909D01*
X159932041Y-95099726D02*
X159875736Y-95106071D01*
X156968214Y-101266757D02*
X156975736Y-101200000D01*
X147375736Y-101200000D02*
X147375736Y-101150000D01*
X146805445Y-101330166D02*
X146841186Y-101387047D01*
X161765158Y-100846093D02*
X161817605Y-100696209D01*
X146841186Y-101387047D02*
X146888689Y-101434550D01*
X154688689Y-100565451D02*
X154745570Y-100529710D01*
X163710285Y-95143117D02*
X163662782Y-95190620D01*
X159213598Y-101484885D02*
X159242536Y-101466702D01*
X154745570Y-100529710D02*
X154808979Y-100507522D01*
X154808979Y-100507522D02*
X154875736Y-100500000D01*
X148583257Y-100733244D02*
X148605445Y-100669835D01*
X169770290Y-95904429D02*
X169792478Y-95841020D01*
X148605445Y-100669835D02*
X148641186Y-100612954D01*
X156910285Y-101387047D02*
X156946026Y-101330166D01*
X145875736Y-101500000D02*
X145942492Y-101492479D01*
X166841186Y-95143117D02*
X166805445Y-95086236D01*
X148641186Y-100612954D02*
X148688689Y-100565451D01*
X150383257Y-101266757D02*
X150405445Y-101330166D01*
X150375736Y-101200000D02*
X150383257Y-101266757D01*
X141866725Y-103388909D02*
X143986827Y-103388909D01*
X166062782Y-95140620D02*
X166005901Y-95176361D01*
X146710285Y-100812954D02*
X146746026Y-100869835D01*
X146775736Y-101200000D02*
X146783257Y-101266757D01*
X162658454Y-94660658D02*
X162614429Y-94704683D01*
X166775736Y-94900000D02*
X166768214Y-94833243D01*
X152542492Y-100507522D02*
X152605901Y-100529710D01*
X160605901Y-94629709D02*
X160542492Y-94607521D01*
X149005901Y-100529710D02*
X149062782Y-100565451D01*
X153008979Y-101492479D02*
X153075736Y-101500000D01*
X156862782Y-101434550D02*
X156910285Y-101387047D01*
X143986827Y-103388909D02*
X145875736Y-101500000D01*
X146746026Y-100869835D02*
X146768214Y-100933244D01*
X162769937Y-94606970D02*
X162711171Y-94627534D01*
X149662782Y-101434550D02*
X149710285Y-101387047D01*
X149605901Y-101470291D02*
X149662782Y-101434550D01*
X145942492Y-101492479D02*
X146005901Y-101470291D01*
X166888689Y-95190620D02*
X166841186Y-95143117D01*
X159275736Y-94600000D02*
X157900000Y-93224264D01*
X146183257Y-100933244D02*
X146205445Y-100869835D01*
X146205445Y-100869835D02*
X146241186Y-100812954D01*
X148088689Y-101434550D02*
X148145570Y-101470291D01*
X157275736Y-100500000D02*
X157342492Y-100507522D01*
X146005901Y-101470291D02*
X146062782Y-101434550D01*
X155710285Y-101387047D02*
X155746026Y-101330166D01*
X157405901Y-100529710D02*
X157462782Y-100565451D01*
X150262782Y-100565451D02*
X150310285Y-100612954D01*
X150310285Y-100612954D02*
X150346026Y-100669835D01*
X147441186Y-100962954D02*
X147488689Y-100915451D01*
X146888689Y-101434550D02*
X146945570Y-101470291D01*
X152005901Y-101470291D02*
X152062782Y-101434550D01*
X147862782Y-100915451D02*
X147910285Y-100962954D01*
X146062782Y-101434550D02*
X146110285Y-101387047D01*
X167310285Y-95143117D02*
X167262782Y-95190620D01*
X161115114Y-102618841D02*
X161133297Y-102647779D01*
X146175736Y-101000000D02*
X146183257Y-100933244D01*
X153675736Y-100500000D02*
X153742492Y-100507522D01*
X154583257Y-100733244D02*
X154605445Y-100669835D01*
X160662782Y-94665450D02*
X160605901Y-94629709D01*
X146146026Y-101330166D02*
X146168214Y-101266757D01*
X154605445Y-100669835D02*
X154641186Y-100612954D01*
X146110285Y-101387047D02*
X146146026Y-101330166D01*
X162493112Y-95051387D02*
X162449087Y-95095412D01*
X147946026Y-101019835D02*
X147968214Y-101083244D01*
X166569091Y-100396004D02*
X166598239Y-100335478D01*
X149475736Y-101500000D02*
X149542492Y-101492479D01*
X146288689Y-100765451D02*
X146345570Y-100729710D01*
X153608979Y-100507522D02*
X153675736Y-100500000D01*
X148145570Y-101470291D02*
X148208979Y-101492479D01*
X151145570Y-100529710D02*
X151208979Y-100507522D01*
X146168214Y-101266757D02*
X146175736Y-101200000D01*
X147675736Y-100850000D02*
X147742492Y-100857522D01*
X146175736Y-101200000D02*
X146175736Y-101000000D01*
X146241186Y-100812954D02*
X146288689Y-100765451D01*
X147975736Y-101200000D02*
X147983257Y-101266757D01*
X147983257Y-101266757D02*
X148005445Y-101330166D01*
X169500000Y-96074264D02*
X169566756Y-96066742D01*
X146345570Y-100729710D02*
X146408979Y-100707522D01*
X149408979Y-101492479D02*
X149475736Y-101500000D01*
X146408979Y-100707522D02*
X146475736Y-100700000D01*
X146945570Y-101470291D02*
X147008979Y-101492479D01*
X147008979Y-101492479D02*
X147075736Y-101500000D01*
X165688689Y-95140620D02*
X165641186Y-95093117D01*
X148405901Y-101470291D02*
X148462782Y-101434550D01*
X147075736Y-101500000D02*
X147142492Y-101492479D01*
X147805901Y-100879710D02*
X147862782Y-100915451D01*
X146475736Y-100700000D02*
X146542492Y-100707522D01*
X164975736Y-94900000D02*
X164975736Y-94906071D01*
X146605901Y-100729710D02*
X146662782Y-100765451D01*
X146542492Y-100707522D02*
X146605901Y-100729710D01*
X150368214Y-100733244D02*
X150375736Y-100800000D01*
X159284885Y-101413598D02*
X159296173Y-101381340D01*
X150346026Y-100669835D02*
X150368214Y-100733244D01*
X146662782Y-100765451D02*
X146710285Y-100812954D01*
X146768214Y-100933244D02*
X146775736Y-101000000D01*
X169123638Y-96504429D02*
X169101450Y-96441020D01*
X146775736Y-101000000D02*
X146775736Y-101200000D01*
X169327172Y-96081785D02*
X169393929Y-96074264D01*
X166275426Y-99772483D02*
X166233540Y-99719960D01*
X146783257Y-101266757D02*
X146805445Y-101330166D01*
X165005445Y-94769834D02*
X164983257Y-94833243D01*
X152746026Y-100669835D02*
X152768214Y-100733244D01*
X147142492Y-101492479D02*
X147205901Y-101470291D01*
X169566756Y-96066742D02*
X169630165Y-96044554D01*
X148942492Y-100507522D02*
X149005901Y-100529710D01*
X147205901Y-101470291D02*
X147262782Y-101434550D01*
X160841186Y-95243117D02*
X160805445Y-95186236D01*
X156375736Y-101200000D02*
X156383257Y-101266757D01*
X167064520Y-99671032D02*
X167130014Y-99685981D01*
X147262782Y-101434550D02*
X147310285Y-101387047D01*
X147742492Y-100857522D02*
X147805901Y-100879710D01*
X156608979Y-101492479D02*
X156675736Y-101500000D01*
X147310285Y-101387047D02*
X147346026Y-101330166D01*
X147346026Y-101330166D02*
X147368214Y-101266757D01*
X148041186Y-101387047D02*
X148088689Y-101434550D01*
X166146026Y-95036236D02*
X166110285Y-95093117D01*
X152408979Y-100507522D02*
X152475736Y-100500000D01*
X150946026Y-101330166D02*
X150968214Y-101266757D01*
X160768214Y-94833243D02*
X160746026Y-94769834D01*
X147375736Y-101150000D02*
X147383257Y-101083244D01*
X153910285Y-100612954D02*
X153946026Y-100669835D01*
X165275736Y-94600000D02*
X165208979Y-94607521D01*
X167323213Y-99641885D02*
X167375736Y-99600000D01*
X157088689Y-100565451D02*
X157145570Y-100529710D01*
X147383257Y-101083244D02*
X147405445Y-101019835D01*
X150975736Y-101200000D02*
X150975736Y-100800000D01*
X153975736Y-101200000D02*
X153983257Y-101266757D01*
X150975736Y-100800000D02*
X150983257Y-100733244D01*
X155542492Y-101492479D02*
X155605901Y-101470291D01*
X147405445Y-101019835D02*
X147441186Y-100962954D01*
X147488689Y-100915451D02*
X147545570Y-100879710D01*
X167375736Y-94956071D02*
X167368214Y-95022827D01*
X157462782Y-100565451D02*
X157510285Y-100612954D01*
X154005445Y-101330166D02*
X154041186Y-101387047D01*
X147545570Y-100879710D02*
X147608979Y-100857522D01*
X155768214Y-101266757D02*
X155775736Y-101200000D01*
X147608979Y-100857522D02*
X147675736Y-100850000D01*
X154088689Y-101434550D02*
X154145570Y-101470291D01*
X149710285Y-101387047D02*
X149746026Y-101330166D01*
X167441186Y-94712953D02*
X167405445Y-94769834D01*
X157583257Y-101266757D02*
X157605445Y-101330166D01*
X147910285Y-100962954D02*
X147946026Y-101019835D01*
X166233540Y-99400741D02*
X166275426Y-99348219D01*
X147975736Y-101150000D02*
X147975736Y-101200000D01*
X148005445Y-101330166D02*
X148041186Y-101387047D01*
X148208979Y-101492479D02*
X148275736Y-101500000D01*
X160833004Y-100449468D02*
X160945289Y-100561753D01*
X151875736Y-101500000D02*
X151942492Y-101492479D01*
X157041186Y-100612954D02*
X157088689Y-100565451D01*
X148275736Y-101500000D02*
X148342492Y-101492479D01*
X153946026Y-100669835D02*
X153968214Y-100733244D01*
X153968214Y-100733244D02*
X153975736Y-100800000D01*
X153975736Y-100800000D02*
X153975736Y-101200000D01*
X162831806Y-94600000D02*
X162769937Y-94606970D01*
X151575736Y-100800000D02*
X151575736Y-101200000D01*
X148342492Y-101492479D02*
X148405901Y-101470291D01*
X148462782Y-101434550D02*
X148510285Y-101387047D01*
X148510285Y-101387047D02*
X148546026Y-101330166D01*
X160009132Y-100294758D02*
X160390867Y-100294758D01*
X148568214Y-101266757D02*
X148575736Y-101200000D01*
X148546026Y-101330166D02*
X148568214Y-101266757D01*
X166183257Y-94833243D02*
X166175736Y-94900000D01*
X148575736Y-101200000D02*
X148575736Y-100800000D01*
X169792478Y-95841020D02*
X169800000Y-95774264D01*
X148575736Y-100800000D02*
X148583257Y-100733244D01*
X162560741Y-94816166D02*
X162546800Y-94939904D01*
X159332041Y-94606344D02*
X159275736Y-94600000D01*
X167545570Y-94629709D02*
X167488689Y-94665450D01*
X148688689Y-100565451D02*
X148745570Y-100529710D01*
X166945570Y-95226361D02*
X166888689Y-95190620D01*
X148745570Y-100529710D02*
X148808979Y-100507522D01*
X148808979Y-100507522D02*
X148875736Y-100500000D01*
X163175736Y-94956071D02*
X163175736Y-94900000D01*
X148875736Y-100500000D02*
X148942492Y-100507522D01*
X154942492Y-100507522D02*
X155005901Y-100529710D01*
X149146026Y-100669835D02*
X149168214Y-100733244D01*
X149110285Y-100612954D02*
X149146026Y-100669835D01*
X149062782Y-100565451D02*
X149110285Y-100612954D01*
X149175736Y-100800000D02*
X149175736Y-101200000D01*
X149168214Y-100733244D02*
X149175736Y-100800000D01*
X155062782Y-100565451D02*
X155110285Y-100612954D01*
X149175736Y-101200000D02*
X149183257Y-101266757D01*
X165546026Y-94769834D02*
X165510285Y-94712953D01*
X149183257Y-101266757D02*
X149205445Y-101330166D01*
X164805901Y-95176361D02*
X164742492Y-95198549D01*
X149205445Y-101330166D02*
X149241186Y-101387047D01*
X153075736Y-101500000D02*
X153142492Y-101492479D01*
X149241186Y-101387047D02*
X149288689Y-101434550D01*
X153142492Y-101492479D02*
X153205901Y-101470291D01*
X149288689Y-101434550D02*
X149345570Y-101470291D01*
X161700000Y-101800000D02*
X161747379Y-101800000D01*
X149345570Y-101470291D02*
X149408979Y-101492479D01*
X169500000Y-96674264D02*
X169393929Y-96674264D01*
X149542492Y-101492479D02*
X149605901Y-101470291D01*
X165041186Y-94712953D02*
X165005445Y-94769834D01*
X149746026Y-101330166D02*
X149768214Y-101266757D01*
X157546026Y-100669835D02*
X157568214Y-100733244D01*
X149775736Y-101200000D02*
X149775736Y-100800000D01*
X166168214Y-94972827D02*
X166146026Y-95036236D01*
X154041186Y-101387047D02*
X154088689Y-101434550D01*
X165405901Y-94629709D02*
X165342492Y-94607521D01*
X149775736Y-100800000D02*
X149783257Y-100733244D01*
X149768214Y-101266757D02*
X149775736Y-101200000D01*
X164205901Y-94629709D02*
X164142492Y-94607521D01*
X149783257Y-100733244D02*
X149805445Y-100669835D01*
X157575736Y-100800000D02*
X157575736Y-101200000D01*
X149805445Y-100669835D02*
X149841186Y-100612954D01*
X157568214Y-100733244D02*
X157575736Y-100800000D01*
X149841186Y-100612954D02*
X149888689Y-100565451D01*
X155775736Y-101200000D02*
X155775736Y-100800000D01*
X149888689Y-100565451D02*
X149945570Y-100529710D01*
X149945570Y-100529710D02*
X150008979Y-100507522D01*
X159242536Y-101466702D02*
X159266702Y-101442536D01*
X155175736Y-101200000D02*
X155183257Y-101266757D01*
X160783257Y-95122827D02*
X160775736Y-95056071D01*
X150008979Y-100507522D02*
X150075736Y-100500000D01*
X151546026Y-100669835D02*
X151568214Y-100733244D01*
X150075736Y-100500000D02*
X150142492Y-100507522D01*
X156946026Y-101330166D02*
X156968214Y-101266757D01*
X150205901Y-100529710D02*
X150262782Y-100565451D01*
X169159379Y-96561310D02*
X169123638Y-96504429D01*
X150142492Y-100507522D02*
X150205901Y-100529710D01*
X151605445Y-101330166D02*
X151641186Y-101387047D01*
X150375736Y-100800000D02*
X150375736Y-101200000D01*
X163280383Y-100449468D02*
X163392668Y-100561753D01*
X161100000Y-101003890D02*
X161100000Y-102552621D01*
X153375736Y-101200000D02*
X153375736Y-100800000D01*
X150441186Y-101387047D02*
X150488689Y-101434550D01*
X150405445Y-101330166D02*
X150441186Y-101387047D01*
X150488689Y-101434550D02*
X150545570Y-101470291D01*
X155888689Y-100565451D02*
X155945570Y-100529710D01*
X150545570Y-101470291D02*
X150608979Y-101492479D01*
X156742492Y-101492479D02*
X156805901Y-101470291D01*
X155408979Y-101492479D02*
X155475736Y-101500000D01*
X156675736Y-101500000D02*
X156742492Y-101492479D01*
X150608979Y-101492479D02*
X150675736Y-101500000D01*
X150675736Y-101500000D02*
X150742492Y-101492479D01*
X150805901Y-101470291D02*
X150862782Y-101434550D01*
X150742492Y-101492479D02*
X150805901Y-101470291D01*
X163700000Y-101500000D02*
X165475736Y-101500000D01*
X150862782Y-101434550D02*
X150910285Y-101387047D01*
X150910285Y-101387047D02*
X150946026Y-101330166D01*
X152146026Y-101330166D02*
X152168214Y-101266757D01*
X152168214Y-101266757D02*
X152175736Y-101200000D01*
X166768214Y-94833243D02*
X166746026Y-94769834D01*
X166783257Y-95022827D02*
X166775736Y-94956071D01*
X161747379Y-101800000D02*
X161747379Y-101003890D01*
X150968214Y-101266757D02*
X150975736Y-101200000D01*
X150983257Y-100733244D02*
X151005445Y-100669835D01*
X155605901Y-101470291D02*
X155662782Y-101434550D01*
X151005445Y-100669835D02*
X151041186Y-100612954D01*
X161157463Y-102671945D02*
X161186401Y-102690128D01*
X155783257Y-100733244D02*
X155805445Y-100669835D01*
X161186401Y-102690128D02*
X161218659Y-102701416D01*
X151041186Y-100612954D02*
X151088689Y-100565451D01*
X151088689Y-100565451D02*
X151145570Y-100529710D01*
X154462782Y-101434550D02*
X154510285Y-101387047D01*
X159300000Y-101003890D02*
X159317779Y-100846093D01*
X151208979Y-100507522D02*
X151275736Y-100500000D01*
X157900000Y-89724264D02*
X157649990Y-89901048D01*
X169566756Y-96681785D02*
X169500000Y-96674264D01*
X166598239Y-100335478D02*
X166613187Y-100269984D01*
X151275736Y-100500000D02*
X151342492Y-100507522D01*
X151342492Y-100507522D02*
X151405901Y-100529710D01*
X166542492Y-94607521D02*
X166475736Y-94600000D01*
X151405901Y-100529710D02*
X151462782Y-100565451D01*
X155841186Y-100612954D02*
X155888689Y-100565451D01*
X151462782Y-100565451D02*
X151510285Y-100612954D01*
X151641186Y-101387047D02*
X151688689Y-101434550D01*
X151510285Y-100612954D02*
X151546026Y-100669835D01*
X151688689Y-101434550D02*
X151745570Y-101470291D01*
X151568214Y-100733244D02*
X151575736Y-100800000D01*
X151575736Y-101200000D02*
X151583257Y-101266757D01*
X151583257Y-101266757D02*
X151605445Y-101330166D01*
X164946026Y-95036236D02*
X164910285Y-95093117D01*
X153488689Y-100565451D02*
X153545570Y-100529710D01*
X151745570Y-101470291D02*
X151808979Y-101492479D01*
X151808979Y-101492479D02*
X151875736Y-101500000D01*
X151942492Y-101492479D02*
X152005901Y-101470291D01*
X152062782Y-101434550D02*
X152110285Y-101387047D01*
X152110285Y-101387047D02*
X152146026Y-101330166D01*
X165088689Y-94665450D02*
X165041186Y-94712953D01*
X169393929Y-96674264D02*
X169327172Y-96666742D01*
X154275736Y-101500000D02*
X154342492Y-101492479D01*
X166327949Y-99306334D02*
X166388475Y-99277186D01*
X163183257Y-95022827D02*
X163175736Y-94956071D01*
X152175736Y-101200000D02*
X152175736Y-100800000D01*
X165208979Y-94607521D02*
X165145570Y-94629709D01*
X152175736Y-100800000D02*
X152183257Y-100733244D01*
X152183257Y-100733244D02*
X152205445Y-100669835D01*
X152205445Y-100669835D02*
X152241186Y-100612954D01*
X152241186Y-100612954D02*
X152288689Y-100565451D01*
X152288689Y-100565451D02*
X152345570Y-100529710D01*
X152345570Y-100529710D02*
X152408979Y-100507522D01*
X152475736Y-100500000D02*
X152542492Y-100507522D01*
X161218659Y-102701416D02*
X161252621Y-102705242D01*
X152605901Y-100529710D02*
X152662782Y-100565451D01*
X161613598Y-102690128D02*
X161642536Y-102671945D01*
X156310285Y-100612954D02*
X156346026Y-100669835D01*
X152662782Y-100565451D02*
X152710285Y-100612954D01*
X161747379Y-101003890D02*
X161765158Y-100846093D01*
X152710285Y-100612954D02*
X152746026Y-100669835D01*
X152768214Y-100733244D02*
X152775736Y-100800000D01*
X152775736Y-100800000D02*
X152775736Y-101200000D01*
X159875736Y-95106071D02*
X159781806Y-95106071D01*
X152775736Y-101200000D02*
X152783257Y-101266757D01*
X163666038Y-101496173D02*
X163700000Y-101500000D01*
X152783257Y-101266757D02*
X152805445Y-101330166D01*
X152805445Y-101330166D02*
X152841186Y-101387047D01*
X166613187Y-100202805D02*
X166598239Y-100137311D01*
X152841186Y-101387047D02*
X152888689Y-101434550D01*
X153205901Y-101470291D02*
X153262782Y-101434550D01*
X152888689Y-101434550D02*
X152945570Y-101470291D01*
X161545570Y-94629709D02*
X161488689Y-94665450D01*
X152945570Y-101470291D02*
X153008979Y-101492479D01*
X161737604Y-94606970D02*
X161675736Y-94600000D01*
X153262782Y-101434550D02*
X153310285Y-101387047D01*
X160103712Y-94962823D02*
X160073566Y-95010800D01*
X155241186Y-101387047D02*
X155288689Y-101434550D01*
X153310285Y-101387047D02*
X153346026Y-101330166D01*
X153346026Y-101330166D02*
X153368214Y-101266757D01*
X153368214Y-101266757D02*
X153375736Y-101200000D01*
X162456511Y-100294758D02*
X162838246Y-100294758D01*
X153383257Y-100733244D02*
X153405445Y-100669835D01*
X162711171Y-94627534D02*
X162658454Y-94660658D01*
X153375736Y-100800000D02*
X153383257Y-100733244D01*
X153405445Y-100669835D02*
X153441186Y-100612954D01*
X153441186Y-100612954D02*
X153488689Y-100565451D01*
X153545570Y-100529710D02*
X153608979Y-100507522D01*
X161684885Y-102618841D02*
X161696173Y-102586583D01*
X160073566Y-95010800D02*
X160033500Y-95050866D01*
X166345570Y-94629709D02*
X166288689Y-94665450D01*
X153742492Y-100507522D02*
X153805901Y-100529710D01*
X155288689Y-101434550D02*
X155345570Y-101470291D01*
X153805901Y-100529710D02*
X153862782Y-100565451D01*
X155345570Y-101470291D02*
X155408979Y-101492479D01*
X161696173Y-102586583D02*
X161700000Y-102552621D01*
X169393929Y-96074264D02*
X169500000Y-96074264D01*
X156441186Y-101387047D02*
X156488689Y-101434550D01*
X153862782Y-100565451D02*
X153910285Y-100612954D01*
X157145570Y-100529710D02*
X157208979Y-100507522D01*
X153983257Y-101266757D02*
X154005445Y-101330166D01*
X154145570Y-101470291D02*
X154208979Y-101492479D01*
X166710285Y-94712953D02*
X166662782Y-94665450D01*
X157808979Y-101492479D02*
X157875736Y-101500000D01*
X154208979Y-101492479D02*
X154275736Y-101500000D01*
X154342492Y-101492479D02*
X154405901Y-101470291D01*
X160325500Y-94606344D02*
X160272018Y-94625058D01*
X154405901Y-101470291D02*
X154462782Y-101434550D01*
X161142492Y-95348549D02*
X161075736Y-95356071D01*
X154546026Y-101330166D02*
X154568214Y-101266757D01*
X154510285Y-101387047D02*
X154546026Y-101330166D01*
X154568214Y-101266757D02*
X154575736Y-101200000D01*
X154575736Y-101200000D02*
X154575736Y-100800000D01*
X154575736Y-100800000D02*
X154583257Y-100733244D01*
X154641186Y-100612954D02*
X154688689Y-100565451D01*
X154875736Y-100500000D02*
X154942492Y-100507522D01*
X155005901Y-100529710D02*
X155062782Y-100565451D01*
X155110285Y-100612954D02*
X155146026Y-100669835D01*
X155146026Y-100669835D02*
X155168214Y-100733244D01*
X155168214Y-100733244D02*
X155175736Y-100800000D01*
X155175736Y-100800000D02*
X155175736Y-101200000D01*
X155805445Y-100669835D02*
X155841186Y-100612954D01*
X155183257Y-101266757D02*
X155205445Y-101330166D01*
X155205445Y-101330166D02*
X155241186Y-101387047D01*
X155475736Y-101500000D02*
X155542492Y-101492479D01*
X155662782Y-101434550D02*
X155710285Y-101387047D01*
X161581340Y-102701416D02*
X161613598Y-102690128D01*
X157342492Y-100507522D02*
X157405901Y-100529710D01*
X155746026Y-101330166D02*
X155768214Y-101266757D01*
X159147379Y-101500000D02*
X159181340Y-101496173D01*
X155775736Y-100800000D02*
X155783257Y-100733244D01*
X163475736Y-95256071D02*
X163408979Y-95248549D01*
X167262687Y-99671032D02*
X167323213Y-99641885D01*
X157875736Y-101500000D02*
X159147379Y-101500000D01*
X155945570Y-100529710D02*
X156008979Y-100507522D01*
X159535115Y-94909341D02*
X159522426Y-94796729D01*
X169263763Y-96103973D02*
X169327172Y-96081785D01*
X162298714Y-100312537D02*
X162456511Y-100294758D01*
X156008979Y-100507522D02*
X156075736Y-100500000D01*
X156075736Y-100500000D02*
X156142492Y-100507522D01*
X167488689Y-94665450D02*
X167441186Y-94712953D01*
X156142492Y-100507522D02*
X156205901Y-100529710D01*
X156205901Y-100529710D02*
X156262782Y-100565451D01*
X156262782Y-100565451D02*
X156310285Y-100612954D01*
X166746026Y-94769834D02*
X166710285Y-94712953D01*
X156346026Y-100669835D02*
X156368214Y-100733244D01*
X156368214Y-100733244D02*
X156375736Y-100800000D01*
X156375736Y-100800000D02*
X156375736Y-101200000D01*
X169327172Y-96666742D02*
X169263763Y-96644554D01*
X156383257Y-101266757D02*
X156405445Y-101330166D01*
X156405445Y-101330166D02*
X156441186Y-101387047D01*
X156488689Y-101434550D02*
X156545570Y-101470291D01*
X169734549Y-95961310D02*
X169770290Y-95904429D01*
X156545570Y-101470291D02*
X156608979Y-101492479D01*
X156805901Y-101470291D02*
X156862782Y-101434550D01*
X166805445Y-95086236D02*
X166783257Y-95022827D01*
X156975736Y-101200000D02*
X156975736Y-100800000D01*
X156975736Y-100800000D02*
X156983257Y-100733244D01*
X163562493Y-101413598D02*
X163580676Y-101442536D01*
X165875736Y-95206071D02*
X165808979Y-95198549D01*
X156983257Y-100733244D02*
X157005445Y-100669835D01*
X157005445Y-100669835D02*
X157041186Y-100612954D01*
X157208979Y-100507522D02*
X157275736Y-100500000D01*
X159473566Y-94695270D02*
X159433500Y-94655204D01*
X157510285Y-100612954D02*
X157546026Y-100669835D01*
X163775736Y-94956071D02*
X163768214Y-95022827D01*
X157575736Y-101200000D02*
X157583257Y-101266757D01*
X157605445Y-101330166D02*
X157641186Y-101387047D01*
X164608979Y-95198549D02*
X164545570Y-95176361D01*
X161946800Y-94816166D02*
X161926236Y-94757400D01*
X163145927Y-100364984D02*
X163280383Y-100449468D01*
X157641186Y-101387047D02*
X157688689Y-101434550D01*
X157688689Y-101434550D02*
X157745570Y-101470291D01*
X166647168Y-99306334D02*
X166699690Y-99348219D01*
X157745570Y-101470291D02*
X157808979Y-101492479D01*
X159181340Y-101496173D02*
X159213598Y-101484885D01*
X164008979Y-94607521D02*
X163945570Y-94629709D01*
X163542492Y-95248549D02*
X163475736Y-95256071D01*
X166605901Y-94629709D02*
X166542492Y-94607521D01*
X159266702Y-101442536D02*
X159284885Y-101413598D01*
X159296173Y-101381340D02*
X159300000Y-101347379D01*
X159300000Y-101347379D02*
X159300000Y-101003890D01*
X159317779Y-100846093D02*
X159370226Y-100696209D01*
X159370226Y-100696209D02*
X159454710Y-100561753D01*
X159454710Y-100561753D02*
X159566995Y-100449468D01*
X159566995Y-100449468D02*
X159701451Y-100364984D01*
X159701451Y-100364984D02*
X159851335Y-100312537D01*
X159851335Y-100312537D02*
X160009132Y-100294758D01*
X157900000Y-93224264D02*
X157900000Y-89724264D01*
X160390867Y-100294758D02*
X160548664Y-100312537D01*
X165145570Y-94629709D02*
X165088689Y-94665450D01*
X160548664Y-100312537D02*
X160698548Y-100364984D01*
X160698548Y-100364984D02*
X160833004Y-100449468D01*
X160945289Y-100561753D02*
X161029773Y-100696209D01*
X161029773Y-100696209D02*
X161082220Y-100846093D01*
X169687046Y-96008813D02*
X169734549Y-95961310D01*
X161082220Y-100846093D02*
X161100000Y-101003890D01*
X162838246Y-100294758D02*
X162996043Y-100312537D01*
X161100000Y-102552621D02*
X161103826Y-102586583D01*
X161103826Y-102586583D02*
X161115114Y-102618841D01*
X161133297Y-102647779D02*
X161157463Y-102671945D01*
X161252621Y-102705242D02*
X161547379Y-102705242D01*
X165510285Y-94712953D02*
X165462782Y-94665450D01*
X169800000Y-96974264D02*
X169792478Y-96907507D01*
X161547379Y-102705242D02*
X161581340Y-102701416D01*
X161642536Y-102671945D02*
X161666702Y-102647779D01*
X165462782Y-94665450D02*
X165405901Y-94629709D01*
X161666702Y-102647779D02*
X161684885Y-102618841D01*
X163580676Y-101442536D02*
X163604842Y-101466702D01*
X161700000Y-102552621D02*
X161700000Y-101800000D01*
X161817605Y-100696209D02*
X161902089Y-100561753D01*
X169734549Y-96787217D02*
X169687046Y-96739714D01*
X161902089Y-100561753D02*
X162014374Y-100449468D01*
X163529599Y-100846093D02*
X163547379Y-101003890D01*
X162014374Y-100449468D02*
X162148830Y-100364984D01*
X162148830Y-100364984D02*
X162298714Y-100312537D01*
X162996043Y-100312537D02*
X163145927Y-100364984D01*
X167375736Y-99600000D02*
X168775736Y-99600000D01*
X163392668Y-100561753D02*
X163477152Y-100696209D01*
X163477152Y-100696209D02*
X163529599Y-100846093D01*
X163547379Y-101003890D02*
X163547379Y-101347379D01*
X163547379Y-101347379D02*
X163551205Y-101381340D01*
X163551205Y-101381340D02*
X163562493Y-101413598D01*
X163604842Y-101466702D02*
X163633780Y-101484885D01*
X165475736Y-101500000D02*
X166527207Y-100448528D01*
X166569091Y-100076785D02*
X166527206Y-100024263D01*
X163633780Y-101484885D02*
X163666038Y-101496173D01*
X166527207Y-100448528D02*
X166569091Y-100396004D01*
X166613187Y-100269984D02*
X166613187Y-100202805D01*
X166598239Y-100137311D02*
X166569091Y-100076785D01*
X166527206Y-100024263D02*
X166275426Y-99772483D01*
X166233540Y-99719960D02*
X166204393Y-99659434D01*
X166204393Y-99659434D02*
X166189444Y-99593940D01*
X164975736Y-94906071D02*
X164968214Y-94972827D01*
X163110285Y-94712953D02*
X163062782Y-94665450D01*
X166189444Y-99593940D02*
X166189444Y-99526761D01*
X166189444Y-99526761D02*
X166204393Y-99461267D01*
X166204393Y-99461267D02*
X166233540Y-99400741D01*
X166275426Y-99348219D02*
X166327949Y-99306334D01*
X166388475Y-99277186D02*
X166453969Y-99262238D01*
X166453969Y-99262238D02*
X166521148Y-99262238D01*
X162942492Y-94607521D02*
X162875736Y-94600000D01*
X169206882Y-96139714D02*
X169263763Y-96103973D01*
X166521148Y-99262238D02*
X166586642Y-99277186D01*
X163888689Y-94665450D02*
X163841186Y-94712953D01*
X166586642Y-99277186D02*
X166647168Y-99306334D01*
X166699690Y-99348219D02*
X166951471Y-99600000D01*
X166951471Y-99600000D02*
X167003994Y-99641885D01*
X160183975Y-94695270D02*
X160153829Y-94743247D01*
X167003994Y-99641885D02*
X167064520Y-99671032D01*
X169101450Y-96441020D02*
X169093929Y-96374264D01*
X167130014Y-99685981D02*
X167197193Y-99685981D01*
X167197193Y-99685981D02*
X167262687Y-99671032D01*
X160746026Y-94769834D02*
X160710285Y-94712953D01*
X168775736Y-99600000D02*
X169800000Y-98575736D01*
X169800000Y-98575736D02*
X169800000Y-96974264D01*
X161008979Y-95348549D02*
X160945570Y-95326361D01*
X166005901Y-95176361D02*
X165942492Y-95198549D01*
X169792478Y-96907507D02*
X169770290Y-96844098D01*
X163062782Y-94665450D02*
X163005901Y-94629709D01*
X169770290Y-96844098D02*
X169734549Y-96787217D01*
X169687046Y-96739714D02*
X169630165Y-96703973D01*
X166288689Y-94665450D02*
X166241186Y-94712953D01*
X169630165Y-96703973D02*
X169566756Y-96681785D01*
X169263763Y-96644554D02*
X169206882Y-96608813D01*
X169206882Y-96608813D02*
X169159379Y-96561310D01*
X160272018Y-94625058D02*
X160224041Y-94655204D01*
X169093929Y-96374264D02*
X169101450Y-96307507D01*
X163768214Y-95022827D02*
X163746026Y-95086236D01*
X169101450Y-96307507D02*
X169123638Y-96244098D01*
X169123638Y-96244098D02*
X169159379Y-96187217D01*
X169159379Y-96187217D02*
X169206882Y-96139714D01*
X169630165Y-96044554D02*
X169687046Y-96008813D01*
X163746026Y-95086236D02*
X163710285Y-95143117D01*
X166110285Y-95093117D02*
X166062782Y-95140620D01*
X169800000Y-95774264D02*
X169800000Y-95724264D01*
X169800000Y-95724264D02*
X168675736Y-94600000D01*
X168675736Y-94600000D02*
X167675736Y-94600000D01*
X167675736Y-94600000D02*
X167608979Y-94607521D01*
X167608979Y-94607521D02*
X167545570Y-94629709D01*
X161608979Y-94607521D02*
X161545570Y-94629709D01*
X167405445Y-94769834D02*
X167383257Y-94833243D01*
X167383257Y-94833243D02*
X167375736Y-94900000D01*
X167375736Y-94900000D02*
X167375736Y-94956071D01*
X167368214Y-95022827D02*
X167346026Y-95086236D01*
X167346026Y-95086236D02*
X167310285Y-95143117D01*
X167262782Y-95190620D02*
X167205901Y-95226361D01*
X167205901Y-95226361D02*
X167142492Y-95248549D01*
X167142492Y-95248549D02*
X167075736Y-95256071D01*
X167075736Y-95256071D02*
X167008979Y-95248549D01*
X162614429Y-94704683D02*
X162581305Y-94757400D01*
X167008979Y-95248549D02*
X166945570Y-95226361D01*
X166775736Y-94956071D02*
X166775736Y-94900000D01*
X166662782Y-94665450D02*
X166605901Y-94629709D01*
X166475736Y-94600000D02*
X166408979Y-94607521D01*
X166408979Y-94607521D02*
X166345570Y-94629709D01*
X163168214Y-94833243D02*
X163146026Y-94769834D01*
X166241186Y-94712953D02*
X166205445Y-94769834D01*
X161926236Y-94757400D02*
X161893112Y-94704683D01*
X166205445Y-94769834D02*
X166183257Y-94833243D01*
X166175736Y-94900000D02*
X166175736Y-94906071D01*
X159583975Y-95010800D02*
X159553829Y-94962823D01*
X166175736Y-94906071D02*
X166168214Y-94972827D01*
X165942492Y-95198549D02*
X165875736Y-95206071D01*
X165808979Y-95198549D02*
X165745570Y-95176361D01*
X165745570Y-95176361D02*
X165688689Y-95140620D01*
X165641186Y-95093117D02*
X165605445Y-95036236D01*
X165605445Y-95036236D02*
X165583257Y-94972827D01*
X165583257Y-94972827D02*
X165575736Y-94906071D01*
X165575736Y-94906071D02*
X165575736Y-94900000D01*
X165575736Y-94900000D02*
X165568214Y-94833243D01*
X165568214Y-94833243D02*
X165546026Y-94769834D01*
X165342492Y-94607521D02*
X165275736Y-94600000D01*
X164983257Y-94833243D02*
X164975736Y-94900000D01*
X164968214Y-94972827D02*
X164946026Y-95036236D01*
X164910285Y-95093117D02*
X164862782Y-95140620D01*
X164862782Y-95140620D02*
X164805901Y-95176361D01*
X164742492Y-95198549D02*
X164675736Y-95206071D01*
X164675736Y-95206071D02*
X164608979Y-95198549D01*
X164545570Y-95176361D02*
X164488689Y-95140620D01*
X164488689Y-95140620D02*
X164441186Y-95093117D01*
X164441186Y-95093117D02*
X164405445Y-95036236D01*
X164405445Y-95036236D02*
X164383257Y-94972827D01*
X164383257Y-94972827D02*
X164375736Y-94906071D01*
X164375736Y-94906071D02*
X164375736Y-94900000D01*
X164375736Y-94900000D02*
X164368214Y-94833243D01*
X164368214Y-94833243D02*
X164346026Y-94769834D01*
X164346026Y-94769834D02*
X164310285Y-94712953D01*
X163005901Y-94629709D02*
X162942492Y-94607521D01*
X164310285Y-94712953D02*
X164262782Y-94665450D01*
X164262782Y-94665450D02*
X164205901Y-94629709D01*
X161075736Y-95356071D02*
X161008979Y-95348549D01*
X164142492Y-94607521D02*
X164075736Y-94600000D01*
X164075736Y-94600000D02*
X164008979Y-94607521D01*
X163945570Y-94629709D02*
X163888689Y-94665450D01*
X163841186Y-94712953D02*
X163805445Y-94769834D01*
X163805445Y-94769834D02*
X163783257Y-94833243D01*
X163783257Y-94833243D02*
X163775736Y-94900000D01*
X163775736Y-94900000D02*
X163775736Y-94956071D01*
X163662782Y-95190620D02*
X163605901Y-95226361D01*
X163605901Y-95226361D02*
X163542492Y-95248549D01*
X163408979Y-95248549D02*
X163345570Y-95226361D01*
X163345570Y-95226361D02*
X163288689Y-95190620D01*
X163288689Y-95190620D02*
X163241186Y-95143117D01*
X163241186Y-95143117D02*
X163205445Y-95086236D01*
X163205445Y-95086236D02*
X163183257Y-95022827D01*
X159624041Y-95050866D02*
X159583975Y-95010800D01*
X163175736Y-94900000D02*
X163168214Y-94833243D01*
X163146026Y-94769834D02*
X163110285Y-94712953D01*
X162875736Y-94600000D02*
X162831806Y-94600000D01*
X162581305Y-94757400D02*
X162560741Y-94816166D01*
X162546800Y-94939904D02*
X162526236Y-94998670D01*
X162526236Y-94998670D02*
X162493112Y-95051387D01*
X162449087Y-95095412D02*
X162396370Y-95128536D01*
X162396370Y-95128536D02*
X162337604Y-95149100D01*
X162337604Y-95149100D02*
X162275736Y-95156071D01*
X162275736Y-95156071D02*
X162231806Y-95156071D01*
X162231806Y-95156071D02*
X162169937Y-95149100D01*
X162169937Y-95149100D02*
X162111171Y-95128536D01*
X162111171Y-95128536D02*
X162058454Y-95095412D01*
X162058454Y-95095412D02*
X162014429Y-95051387D01*
X162014429Y-95051387D02*
X161981305Y-94998670D01*
X161981305Y-94998670D02*
X161960741Y-94939904D01*
X161960741Y-94939904D02*
X161946800Y-94816166D01*
X161893112Y-94704683D02*
X161849087Y-94660658D01*
X161849087Y-94660658D02*
X161796370Y-94627534D01*
X161796370Y-94627534D02*
X161737604Y-94606970D01*
X161675736Y-94600000D02*
X161608979Y-94607521D01*
X161488689Y-94665450D02*
X161441186Y-94712953D01*
X161441186Y-94712953D02*
X161405445Y-94769834D01*
X161405445Y-94769834D02*
X161383257Y-94833243D01*
X161383257Y-94833243D02*
X161375736Y-94900000D01*
X161375736Y-94900000D02*
X161375736Y-95056071D01*
X161375736Y-95056071D02*
X161368214Y-95122827D01*
X161368214Y-95122827D02*
X161346026Y-95186236D01*
X161346026Y-95186236D02*
X161310285Y-95243117D01*
X161310285Y-95243117D02*
X161262782Y-95290620D01*
X161262782Y-95290620D02*
X161205901Y-95326361D01*
X161205901Y-95326361D02*
X161142492Y-95348549D01*
X160945570Y-95326361D02*
X160888689Y-95290620D01*
X160888689Y-95290620D02*
X160841186Y-95243117D01*
X160805445Y-95186236D02*
X160783257Y-95122827D01*
X160775736Y-95056071D02*
X160775736Y-94900000D01*
X160775736Y-94900000D02*
X160768214Y-94833243D01*
X160710285Y-94712953D02*
X160662782Y-94665450D01*
X160542492Y-94607521D02*
X160475736Y-94600000D01*
X160475736Y-94600000D02*
X160381806Y-94600000D01*
X160381806Y-94600000D02*
X160325500Y-94606344D01*
X160224041Y-94655204D02*
X160183975Y-94695270D01*
X160153829Y-94743247D02*
X160135115Y-94796729D01*
X160135115Y-94796729D02*
X160122426Y-94909341D01*
X160122426Y-94909341D02*
X160103712Y-94962823D01*
X160033500Y-95050866D02*
X159985523Y-95081012D01*
X159985523Y-95081012D02*
X159932041Y-95099726D01*
X159781806Y-95106071D02*
X159725500Y-95099726D01*
X159725500Y-95099726D02*
X159672018Y-95081012D01*
X159672018Y-95081012D02*
X159624041Y-95050866D01*
X159553829Y-94962823D02*
X159535115Y-94909341D01*
X159522426Y-94796729D02*
X159503712Y-94743247D01*
X159503712Y-94743247D02*
X159473566Y-94695270D01*
X159433500Y-94655204D02*
X159385523Y-94625058D01*
X159385523Y-94625058D02*
X159332041Y-94606344D01*
X157649990Y-89901048D02*
X157721862Y-89546126D01*
X159900000Y-101390867D02*
X159900000Y-101047379D01*
X140911092Y-103988908D02*
X141208722Y-103988908D01*
X161209132Y-103305242D02*
X161590867Y-103305242D01*
X161051335Y-103287463D02*
X161209132Y-103305242D01*
X162380676Y-100952221D02*
X162404842Y-100928055D01*
X141208722Y-103988908D02*
X141280907Y-104061093D01*
X141280907Y-104061093D02*
X142096910Y-104061092D01*
X159900000Y-101047379D02*
X159903826Y-101013417D01*
X160500000Y-101047379D02*
X160500000Y-102596110D01*
X142096910Y-104061092D02*
X142169094Y-103988908D01*
X170400000Y-98824264D02*
X170400000Y-95475736D01*
X162889915Y-100928055D02*
X162914081Y-100952221D01*
X159190867Y-102100000D02*
X159348664Y-102082220D01*
X162229773Y-102903791D02*
X162282220Y-102753907D01*
X142169094Y-103988908D02*
X144235356Y-103988908D01*
X159348664Y-102082220D02*
X159498548Y-102029773D01*
X144235356Y-103988908D02*
X146124264Y-102100000D01*
X146124264Y-102100000D02*
X159190867Y-102100000D01*
X162033004Y-103150532D02*
X162145289Y-103038247D01*
X160654710Y-103038247D02*
X160766995Y-103150532D01*
X159498548Y-102029773D02*
X159633004Y-101945289D01*
X160484885Y-100981159D02*
X160496173Y-101013417D01*
X159882220Y-101548664D02*
X159900000Y-101390867D01*
X160413598Y-100909872D02*
X160442536Y-100928055D01*
X159633004Y-101945289D02*
X159745289Y-101833004D01*
X159986401Y-100909872D02*
X160018659Y-100898584D01*
X159745289Y-101833004D02*
X159829773Y-101698548D01*
X159829773Y-101698548D02*
X159882220Y-101548664D01*
X162500000Y-100894758D02*
X162794758Y-100894758D01*
X159933297Y-100952221D02*
X159957463Y-100928055D01*
X160442536Y-100928055D02*
X160466702Y-100952221D01*
X159903826Y-101013417D02*
X159915114Y-100981159D01*
X160347379Y-100894758D02*
X160381340Y-100898584D01*
X162828719Y-100898584D02*
X162860977Y-100909872D01*
X159915114Y-100981159D02*
X159933297Y-100952221D01*
X160052621Y-100894758D02*
X160347379Y-100894758D01*
X159957463Y-100928055D02*
X159986401Y-100909872D01*
X160018659Y-100898584D02*
X160052621Y-100894758D01*
X162145289Y-103038247D02*
X162229773Y-102903791D01*
X160381340Y-100898584D02*
X160413598Y-100909872D01*
X162943552Y-101013417D02*
X162947379Y-101047379D01*
X160466702Y-100952221D02*
X160484885Y-100981159D01*
X160570226Y-102903791D02*
X160654710Y-103038247D01*
X160496173Y-101013417D02*
X160500000Y-101047379D01*
X163102089Y-101833004D02*
X163214374Y-101945289D01*
X148353874Y-88946126D02*
X147800000Y-89500000D01*
X162404842Y-100928055D02*
X162433780Y-100909872D01*
X160500000Y-102596110D02*
X160517779Y-102753907D01*
X160517779Y-102753907D02*
X160570226Y-102903791D01*
X162860977Y-100909872D02*
X162889915Y-100928055D01*
X160766995Y-103150532D02*
X160901451Y-103235016D01*
X160901451Y-103235016D02*
X161051335Y-103287463D01*
X162932264Y-100981159D02*
X162943552Y-101013417D01*
X157970390Y-88946126D02*
X148353874Y-88946126D01*
X161590867Y-103305242D02*
X161748664Y-103287463D01*
X161748664Y-103287463D02*
X161898548Y-103235016D01*
X161898548Y-103235016D02*
X162033004Y-103150532D01*
X162282220Y-102753907D02*
X162300000Y-102596110D01*
X162300000Y-102596110D02*
X162300000Y-101800000D01*
X162300000Y-101800000D02*
X162347379Y-101800000D01*
X162347379Y-101800000D02*
X162347379Y-101047379D01*
X163498714Y-102082220D02*
X163656511Y-102100000D01*
X162347379Y-101047379D02*
X162351205Y-101013417D01*
X162351205Y-101013417D02*
X162362493Y-100981159D01*
X162362493Y-100981159D02*
X162380676Y-100952221D01*
X162433780Y-100909872D02*
X162466038Y-100898584D01*
X162466038Y-100898584D02*
X162500000Y-100894758D01*
X162794758Y-100894758D02*
X162828719Y-100898584D01*
X162914081Y-100952221D02*
X162932264Y-100981159D01*
X162947379Y-101047379D02*
X162947379Y-101390867D01*
X162947379Y-101390867D02*
X162965158Y-101548664D01*
X158500000Y-92975736D02*
X158500000Y-89475736D01*
X162965158Y-101548664D02*
X163017605Y-101698548D01*
X163656511Y-102100000D02*
X165724264Y-102100000D01*
X163017605Y-101698548D02*
X163102089Y-101833004D01*
X163214374Y-101945289D02*
X163348830Y-102029773D01*
X163348830Y-102029773D02*
X163498714Y-102082220D01*
X165724264Y-102100000D02*
X167624264Y-100200000D01*
X167624264Y-100200000D02*
X169024264Y-100200000D01*
X169024264Y-100200000D02*
X170400000Y-98824264D01*
X170400000Y-95475736D02*
X168924264Y-94000000D01*
X168924264Y-94000000D02*
X159524264Y-94000000D01*
X159524264Y-94000000D02*
X158500000Y-92975736D01*
X158500000Y-89475736D02*
X157970390Y-88946126D01*
X147800000Y-89500000D02*
X144400000Y-89500000D01*
M02*
