M48
;DRILL file {KiCad 4.0.2-stable} date 04/04/2016 12:31:24
;FORMAT={-:-/ absolute / metric / decimal}
FMAT,2
METRIC,TZ
T1C0.500
T2C0.998
%
G90
G05
M71
T1
X140.911Y-103.989
X141.689Y-103.211
X141.824Y-99.31
X144.4Y-89.5
X145.6Y-104.4
X147.2Y-100.1
X157.65Y-89.901
X158.8Y-109.5
X161.6Y-105.75
X161.6Y-107.45
X161.757Y-110.057
X163.807Y-108.176
T2
X134.72Y-112.3
X134.78Y-97.1
X137.26Y-112.3
X137.32Y-97.1
X139.8Y-112.3
X139.86Y-97.1
X142.34Y-112.3
X142.4Y-97.1
X144.88Y-112.3
X144.94Y-97.1
X147.42Y-112.3
X147.48Y-97.1
X149.96Y-112.3
X150.02Y-97.1
X152.5Y-112.3
X152.56Y-97.1
X155.04Y-112.3
X155.1Y-97.1
X157.58Y-112.3
X157.64Y-97.1
X160.12Y-112.3
X160.18Y-97.1
X162.66Y-112.3
X162.72Y-97.1
X165.2Y-112.3
X165.26Y-97.1
X167.74Y-112.3
X167.8Y-97.1
T0
M30
