G04 #@! TF.FileFunction,Copper,L2,Bot,Signal*
%FSLAX46Y46*%
G04 Gerber Fmt 4.6, Leading zero omitted, Abs format (unit mm)*
G04 Created by KiCad (PCBNEW 4.0.2-stable) date 04/04/2016 12:36:13*
%MOMM*%
G01*
G04 APERTURE LIST*
%ADD10C,0.100000*%
%ADD11C,0.150000*%
%ADD12R,0.350520X1.399540*%
%ADD13R,1.300000X1.500000*%
%ADD14R,1.500000X1.300000*%
%ADD15R,0.500000X0.625000*%
%ADD16R,0.750000X1.200000*%
%ADD17R,1.200000X0.750000*%
%ADD18O,1.506220X3.014980*%
%ADD19R,1.506220X3.014980*%
%ADD20R,5.400000X5.000000*%
%ADD21C,0.600000*%
%ADD22C,0.500000*%
%ADD23C,0.300000*%
%ADD24C,0.200000*%
%ADD25C,0.254000*%
G04 APERTURE END LIST*
D10*
D11*
X138272205Y-108370000D02*
G75*
G03X138272205Y-108370000I-1452205J0D01*
G01*
X147762205Y-87232205D02*
G75*
G03X147762205Y-87232205I-1452205J0D01*
G01*
X170260000Y-102610000D02*
G75*
G03X170260000Y-102610000I-1452205J0D01*
G01*
X138272205Y-108370000D02*
G75*
G03X138272205Y-108370000I-1452205J0D01*
G01*
X157300000Y-95600000D02*
X135300000Y-95600000D01*
X157300000Y-90300000D02*
X157300000Y-95600000D01*
X135300000Y-90300000D02*
X157300000Y-90300000D01*
X135300000Y-95600000D02*
X135300000Y-90300000D01*
X171500000Y-115400000D02*
X132800000Y-115400000D01*
X171500000Y-115200000D02*
X171500000Y-115400000D01*
X171500000Y-111400000D02*
X171500000Y-115200000D01*
X171500000Y-103100000D02*
X171500000Y-111400000D01*
X171500000Y-93400000D02*
X171500000Y-103100000D01*
X159800000Y-93400000D02*
X171500000Y-93400000D01*
X159800000Y-84000000D02*
X159800000Y-93400000D01*
X132800000Y-84000000D02*
X159800000Y-84000000D01*
X132800000Y-84400000D02*
X132800000Y-84000000D01*
X132800000Y-85400000D02*
X132800000Y-84400000D01*
X132800000Y-115400000D02*
X132800000Y-85400000D01*
D12*
X143576040Y-106583480D03*
X142925800Y-106583480D03*
X142275560Y-106583480D03*
X141625320Y-106583480D03*
X140975080Y-106583480D03*
X140324840Y-106583480D03*
X139674600Y-106583480D03*
X139024360Y-106583480D03*
X139024360Y-100832920D03*
X139674600Y-100832920D03*
X140324840Y-100832920D03*
X140975080Y-100832920D03*
X141625320Y-100832920D03*
X142275560Y-100832920D03*
X142925800Y-100832920D03*
X143576040Y-100832920D03*
D13*
X153035000Y-102383600D03*
X153035000Y-105083600D03*
X157378400Y-101443800D03*
X157378400Y-104143800D03*
D14*
X147298400Y-109016800D03*
X144598400Y-109016800D03*
X153216600Y-109016800D03*
X150516600Y-109016800D03*
D15*
X160340000Y-100293000D03*
X161290000Y-100293000D03*
X162240000Y-100293000D03*
X160340000Y-102743000D03*
X161290000Y-102743000D03*
X162240000Y-102743000D03*
X166080400Y-105892600D03*
X167030400Y-105892600D03*
X167980400Y-105892600D03*
X166080400Y-108342600D03*
X167030400Y-108342600D03*
X167980400Y-108342600D03*
D16*
X145846800Y-103190000D03*
X145846800Y-105090000D03*
X155270200Y-109027000D03*
X155270200Y-107127000D03*
D17*
X149362200Y-100685600D03*
X147462200Y-100685600D03*
D16*
X158927800Y-109179400D03*
X158927800Y-107279400D03*
D17*
X161686200Y-105664000D03*
X163586200Y-105664000D03*
X161813200Y-109270800D03*
X163713200Y-109270800D03*
D18*
X144940000Y-97100000D03*
X147480000Y-97100000D03*
X150020000Y-97100000D03*
X152560000Y-97100000D03*
X155100000Y-97100000D03*
X157640000Y-97100000D03*
X160180000Y-97100000D03*
X162720000Y-97100000D03*
X165260000Y-97100000D03*
X142400000Y-97100000D03*
X139860000Y-97100000D03*
X137320000Y-97100000D03*
X167800000Y-97100000D03*
D19*
X134780000Y-97100000D03*
D18*
X157580000Y-112300000D03*
X155040000Y-112300000D03*
X152500000Y-112300000D03*
X149960000Y-112300000D03*
X147420000Y-112300000D03*
X144880000Y-112300000D03*
X142340000Y-112300000D03*
X139800000Y-112300000D03*
X137260000Y-112300000D03*
X160120000Y-112300000D03*
X162660000Y-112300000D03*
X165200000Y-112300000D03*
X134720000Y-112300000D03*
D19*
X167740000Y-112300000D03*
D20*
X141833600Y-86766400D03*
X153333600Y-86766400D03*
D21*
X165347273Y-109230700D03*
X160375600Y-104648000D03*
X134315200Y-109245400D03*
X135204200Y-100838000D03*
X141655800Y-108432600D03*
X143002000Y-108635800D03*
X147675600Y-106934000D03*
X159131000Y-102768400D03*
X142595600Y-102971600D03*
X147243800Y-105486200D03*
X158953200Y-104038400D03*
X157149800Y-109778800D03*
X149758400Y-107213400D03*
X151282400Y-99695000D03*
D22*
X166538912Y-109256590D02*
X165347273Y-109230700D01*
X165347273Y-109230700D02*
X164827410Y-109256590D01*
X161290000Y-102743000D02*
X161290000Y-103733600D01*
X161290000Y-103733600D02*
X160375600Y-104648000D01*
X167030400Y-108342600D02*
X167030400Y-108765102D01*
X167030400Y-108765102D02*
X166538912Y-109256590D01*
X164813200Y-109270800D02*
X163713200Y-109270800D01*
X164827410Y-109256590D02*
X164813200Y-109270800D01*
X161290000Y-102743000D02*
X161290000Y-103165502D01*
X161290000Y-103165502D02*
X157328502Y-107127000D01*
X157328502Y-107127000D02*
X156145200Y-107127000D01*
X156145200Y-107127000D02*
X155270200Y-107127000D01*
X134315200Y-109245400D02*
X134315200Y-111895200D01*
X134315200Y-111895200D02*
X134720000Y-112300000D01*
X139024360Y-100832920D02*
X135209280Y-100832920D01*
X135209280Y-100832920D02*
X135204200Y-100838000D01*
X155270200Y-107127000D02*
X155078400Y-107127000D01*
X155270200Y-106902000D02*
X155270200Y-107127000D01*
X143576040Y-100832920D02*
X143576040Y-100919240D01*
X162660000Y-112300000D02*
X165200000Y-112300000D01*
X167360600Y-100609400D02*
X166014400Y-101955600D01*
X166014400Y-101955600D02*
X163474400Y-101955600D01*
X170154600Y-100609400D02*
X167360600Y-100609400D01*
X170688000Y-101142800D02*
X170154600Y-100609400D01*
X170688000Y-105349631D02*
X170688000Y-101142800D01*
X168722631Y-107315000D02*
X170688000Y-105349631D01*
X168722631Y-107315000D02*
X167765300Y-107315000D01*
X166080400Y-105892600D02*
X166080400Y-106253831D01*
X149362200Y-100685600D02*
X156620200Y-100685600D01*
X156620200Y-100685600D02*
X157378400Y-101443800D01*
X157378400Y-101443800D02*
X160951700Y-101443800D01*
X160951700Y-101443800D02*
X161290000Y-101105500D01*
X161290000Y-101105500D02*
X161290000Y-100293000D01*
X163017200Y-101498400D02*
X161682900Y-101498400D01*
X161682900Y-101498400D02*
X161290000Y-101105500D01*
X163474400Y-101955600D02*
X163017200Y-101498400D01*
X163474400Y-103632000D02*
X163474400Y-101955600D01*
X163017200Y-104089200D02*
X163474400Y-103632000D01*
X162386000Y-104089200D02*
X163017200Y-104089200D01*
X161686200Y-105664000D02*
X161686200Y-104789000D01*
X161686200Y-104789000D02*
X162386000Y-104089200D01*
X166690300Y-107315000D02*
X167765300Y-107315000D01*
X167765300Y-107315000D02*
X167980400Y-107530100D01*
X167980400Y-107530100D02*
X167980400Y-108342600D01*
X166080400Y-105892600D02*
X166080400Y-106705100D01*
X166080400Y-106705100D02*
X166690300Y-107315000D01*
X167980400Y-108342600D02*
X167980400Y-109155100D01*
X167980400Y-109155100D02*
X167178900Y-109956600D01*
X167178900Y-109956600D02*
X165535910Y-109956600D01*
X165535910Y-109956600D02*
X165200000Y-110292510D01*
X165200000Y-110292510D02*
X165200000Y-112300000D01*
X139800000Y-112300000D02*
X139800000Y-114307490D01*
X139800000Y-114307490D02*
X140393320Y-114900810D01*
X140393320Y-114900810D02*
X160739990Y-114900810D01*
X160739990Y-114900810D02*
X161323120Y-114317680D01*
X161323120Y-114317680D02*
X161323120Y-110635880D01*
X161323120Y-110635880D02*
X161813200Y-110145800D01*
X161813200Y-110145800D02*
X161813200Y-109270800D01*
X139024360Y-106583480D02*
X139024360Y-111524360D01*
X139024360Y-111524360D02*
X139800000Y-112300000D01*
D23*
X140249720Y-105458705D02*
X140324840Y-105533825D01*
X139828952Y-103483600D02*
X140249720Y-103904368D01*
X140324840Y-105533825D02*
X140324840Y-106583480D01*
X140249720Y-103904368D02*
X140249720Y-105458705D01*
X133682152Y-103483600D02*
X139828952Y-103483600D01*
X133650800Y-103452248D02*
X133682152Y-103483600D01*
X133650800Y-87327152D02*
X133650800Y-103452248D01*
X133711552Y-87266400D02*
X133650800Y-87327152D01*
X152833600Y-87266400D02*
X149123400Y-87266400D01*
X153333600Y-86766400D02*
X152833600Y-87266400D01*
X138853599Y-89616401D02*
X138783599Y-89546401D01*
X138783599Y-87266400D02*
X133711552Y-87266400D01*
X149123400Y-87266400D02*
X146773399Y-89616401D01*
X146773399Y-89616401D02*
X138853599Y-89616401D01*
X138783599Y-89546401D02*
X138783599Y-87266400D01*
D24*
X140309600Y-106568240D02*
X140324840Y-106583480D01*
D23*
X141833600Y-86766400D02*
X139086308Y-86766400D01*
X136756965Y-85117080D02*
X136693556Y-85094892D01*
X136118556Y-103991121D02*
X136181965Y-104013309D01*
X138328245Y-86717547D02*
X138307700Y-86738092D01*
X136718556Y-105976078D02*
X136781965Y-105953890D01*
X138907700Y-86535201D02*
X138883098Y-86519742D01*
X135093556Y-86758878D02*
X135026800Y-86766400D01*
X139086308Y-86766400D02*
X139057435Y-86763147D01*
X138283098Y-86753551D02*
X138255672Y-86763147D01*
X138883098Y-86519742D02*
X138855672Y-86510146D01*
X137326800Y-85387371D02*
X137326800Y-86466400D01*
X137226800Y-86766400D02*
X137160043Y-86758878D01*
X133504448Y-86766400D02*
X133150800Y-87120048D01*
X138457435Y-86510146D02*
X138430009Y-86519742D01*
X139057435Y-86763147D02*
X139030009Y-86753551D01*
X135326800Y-86466400D02*
X135319278Y-86533156D01*
X137886349Y-105870646D02*
X137922090Y-105813765D01*
X137039753Y-86700949D02*
X136992250Y-86653446D01*
X139030009Y-86753551D02*
X139005407Y-86738092D01*
X135693556Y-85094892D02*
X135626800Y-85087371D01*
X136626800Y-85087371D02*
X136560043Y-85094892D01*
X137626800Y-85087371D02*
X137560043Y-85094892D01*
X137897090Y-85257205D02*
X137861349Y-85200324D01*
X137185043Y-103991121D02*
X137251800Y-103983600D01*
X135051800Y-103983600D02*
X135118556Y-103991121D01*
X138226800Y-86766400D02*
X138160043Y-86758878D01*
X137926800Y-86466400D02*
X137926800Y-85387371D01*
X137813846Y-85152821D02*
X137756965Y-85117080D01*
X137417250Y-105870646D02*
X137464753Y-105918149D01*
X137718556Y-105976078D02*
X137781965Y-105953890D01*
X138826800Y-86506892D02*
X138486308Y-86506892D01*
X135934321Y-86533156D02*
X135926800Y-86466400D01*
X136039753Y-86700949D02*
X135992250Y-86653446D01*
X138943704Y-86580348D02*
X138928245Y-86555746D01*
X136356509Y-85257205D02*
X136334321Y-85320614D01*
X139005407Y-86738092D02*
X138984862Y-86717547D01*
X138984862Y-86717547D02*
X138969403Y-86692945D01*
X137381509Y-105813765D02*
X137417250Y-105870646D01*
X138405407Y-86535201D02*
X138384862Y-86555746D01*
X138969403Y-86692945D02*
X138959807Y-86665519D01*
X136026800Y-86766400D02*
X136226800Y-86766400D01*
X138959807Y-86665519D02*
X138953300Y-86607774D01*
X137251800Y-103983600D02*
X137051800Y-103983600D01*
X137439753Y-85152821D02*
X137392250Y-85200324D01*
X137392250Y-85200324D02*
X137356509Y-85257205D01*
X138255672Y-86763147D02*
X138226800Y-86766400D01*
X138185043Y-103991121D02*
X138251800Y-103983600D01*
X135392250Y-85200324D02*
X135356509Y-85257205D01*
X138953300Y-86607774D02*
X138943704Y-86580348D01*
X136121634Y-104013309D02*
X136185043Y-103991121D01*
X137992250Y-86653446D02*
X137956509Y-86596565D01*
X138160043Y-86758878D02*
X138096634Y-86736690D01*
X135496634Y-85117080D02*
X135439753Y-85152821D01*
X136286349Y-104096553D02*
X136322090Y-104153434D01*
X138928245Y-86555746D02*
X138907700Y-86535201D01*
X137156965Y-86736690D02*
X137093556Y-86758878D01*
X137238846Y-104049050D02*
X137286349Y-104096553D01*
X138369403Y-86580348D02*
X138359807Y-86607774D01*
X135838846Y-105918149D02*
X135886349Y-105870646D01*
X138855672Y-86510146D02*
X138826800Y-86506892D01*
X137326800Y-86466400D02*
X137319278Y-86533156D01*
X138039753Y-86700949D02*
X137992250Y-86653446D01*
X133150800Y-87120048D02*
X133150800Y-103659352D01*
X138486308Y-86506892D02*
X138457435Y-86510146D01*
X137560043Y-85094892D02*
X137496634Y-85117080D01*
X139621848Y-103983600D02*
X139749720Y-104111472D01*
X137261349Y-86653446D02*
X137213846Y-86700949D01*
X135261349Y-86653446D02*
X135213846Y-86700949D01*
X138430009Y-86519742D02*
X138405407Y-86535201D01*
X135322090Y-104153434D02*
X135344278Y-104216843D01*
X139749720Y-104111472D02*
X139749720Y-105458705D01*
X138384862Y-86555746D02*
X138369403Y-86580348D01*
X136093556Y-86758878D02*
X136026800Y-86766400D01*
X135297090Y-86596565D02*
X135261349Y-86653446D01*
X138353300Y-86665519D02*
X138343704Y-86692945D01*
X137926800Y-85387371D02*
X137919278Y-85320614D01*
X137861349Y-85200324D02*
X137813846Y-85152821D01*
X137319278Y-86533156D02*
X137297090Y-86596565D01*
X138359807Y-86607774D02*
X138353300Y-86665519D01*
X138343704Y-86692945D02*
X138328245Y-86717547D01*
X135560043Y-85094892D02*
X135496634Y-85117080D01*
X138307700Y-86738092D02*
X138283098Y-86753551D01*
X137356509Y-85257205D02*
X137334321Y-85320614D01*
X137297090Y-86596565D02*
X137261349Y-86653446D01*
X135956509Y-86596565D02*
X135934321Y-86533156D01*
X138096634Y-86736690D02*
X138039753Y-86700949D01*
X137959321Y-104216843D02*
X137981509Y-104153434D01*
X137956509Y-86596565D02*
X137934321Y-86533156D01*
X137934321Y-86533156D02*
X137926800Y-86466400D01*
X136651800Y-105983600D02*
X136718556Y-105976078D01*
X136496634Y-85117080D02*
X136439753Y-85152821D01*
X136926800Y-85387371D02*
X136919278Y-85320614D01*
X137919278Y-85320614D02*
X137897090Y-85257205D01*
X136297090Y-86596565D02*
X136261349Y-86653446D01*
X137756965Y-85117080D02*
X137693556Y-85094892D01*
X136585043Y-105976078D02*
X136651800Y-105983600D01*
X136956509Y-86596565D02*
X136934321Y-86533156D01*
X137096634Y-86736690D02*
X137039753Y-86700949D01*
X135334321Y-85320614D02*
X135326800Y-85387371D01*
X137693556Y-85094892D02*
X137626800Y-85087371D01*
X136861349Y-85200324D02*
X136813846Y-85152821D01*
X137496634Y-85117080D02*
X137439753Y-85152821D01*
X137334321Y-85320614D02*
X137326800Y-85387371D01*
X137213846Y-86700949D02*
X137156965Y-86736690D01*
X139749720Y-105458705D02*
X139674600Y-105533825D01*
X137093556Y-86758878D02*
X137026800Y-86766400D01*
X133475048Y-103983600D02*
X135051800Y-103983600D01*
X135926800Y-86466400D02*
X135926800Y-85387371D01*
X137026800Y-86766400D02*
X137226800Y-86766400D01*
X137160043Y-86758878D02*
X137096634Y-86736690D01*
X136992250Y-86653446D02*
X136956509Y-86596565D01*
X136934321Y-86533156D02*
X136926800Y-86466400D01*
X136392250Y-85200324D02*
X136356509Y-85257205D01*
X135926800Y-85387371D02*
X135919278Y-85320614D01*
X136926800Y-86466400D02*
X136926800Y-85387371D01*
X136919278Y-85320614D02*
X136897090Y-85257205D01*
X136897090Y-85257205D02*
X136861349Y-85200324D01*
X135464753Y-105918149D02*
X135521634Y-105953890D01*
X135118556Y-103991121D02*
X135181965Y-104013309D01*
X136813846Y-85152821D02*
X136756965Y-85117080D01*
X136693556Y-85094892D02*
X136626800Y-85087371D01*
X135356509Y-85257205D02*
X135334321Y-85320614D01*
X135344278Y-104216843D02*
X135351800Y-104283600D01*
X136560043Y-85094892D02*
X136496634Y-85117080D01*
X136439753Y-85152821D02*
X136392250Y-85200324D01*
X136334321Y-85320614D02*
X136326800Y-85387371D01*
X135861349Y-85200324D02*
X135813846Y-85152821D01*
X136326800Y-85387371D02*
X136326800Y-86466400D01*
X135026800Y-86766400D02*
X133504448Y-86766400D01*
X136326800Y-86466400D02*
X136319278Y-86533156D01*
X136319278Y-86533156D02*
X136297090Y-86596565D01*
X136261349Y-86653446D02*
X136213846Y-86700949D01*
X136213846Y-86700949D02*
X136156965Y-86736690D01*
X136156965Y-86736690D02*
X136093556Y-86758878D01*
X137781965Y-105953890D02*
X137838846Y-105918149D01*
X136226800Y-86766400D02*
X136160043Y-86758878D01*
X136160043Y-86758878D02*
X136096634Y-86736690D01*
X136096634Y-86736690D02*
X136039753Y-86700949D01*
X137322090Y-104153434D02*
X137344278Y-104216843D01*
X135156965Y-86736690D02*
X135093556Y-86758878D01*
X135992250Y-86653446D02*
X135956509Y-86596565D01*
X135919278Y-85320614D02*
X135897090Y-85257205D01*
X135897090Y-85257205D02*
X135861349Y-85200324D01*
X135813846Y-85152821D02*
X135756965Y-85117080D01*
X136344278Y-104216843D02*
X136351800Y-104283600D01*
X135756965Y-85117080D02*
X135693556Y-85094892D01*
X135626800Y-85087371D02*
X135560043Y-85094892D01*
X136051800Y-103983600D02*
X136118556Y-103991121D01*
X135439753Y-85152821D02*
X135392250Y-85200324D01*
X137981509Y-104153434D02*
X138017250Y-104096553D01*
X135326800Y-85387371D02*
X135326800Y-86466400D01*
X135319278Y-86533156D02*
X135297090Y-86596565D01*
X135213846Y-86700949D02*
X135156965Y-86736690D01*
X133150800Y-103659352D02*
X133475048Y-103983600D01*
X135181965Y-104013309D02*
X135238846Y-104049050D01*
X135238846Y-104049050D02*
X135286349Y-104096553D01*
X136251800Y-103983600D02*
X136051800Y-103983600D01*
X135286349Y-104096553D02*
X135322090Y-104153434D01*
X135359321Y-105750356D02*
X135381509Y-105813765D01*
X135521634Y-105953890D02*
X135585043Y-105976078D01*
X135351800Y-104283600D02*
X135351800Y-105683600D01*
X135351800Y-105683600D02*
X135359321Y-105750356D01*
X135381509Y-105813765D02*
X135417250Y-105870646D01*
X136944278Y-105750356D02*
X136951800Y-105683600D01*
X135417250Y-105870646D02*
X135464753Y-105918149D01*
X135585043Y-105976078D02*
X135651800Y-105983600D01*
X135651800Y-105983600D02*
X135718556Y-105976078D01*
X135718556Y-105976078D02*
X135781965Y-105953890D01*
X137359321Y-105750356D02*
X137381509Y-105813765D01*
X135781965Y-105953890D02*
X135838846Y-105918149D01*
X135886349Y-105870646D02*
X135922090Y-105813765D01*
X137838846Y-105918149D02*
X137886349Y-105870646D01*
X135922090Y-105813765D02*
X135944278Y-105750356D01*
X137121634Y-104013309D02*
X137185043Y-103991121D01*
X135944278Y-105750356D02*
X135951800Y-105683600D01*
X135951800Y-105683600D02*
X135951800Y-104283600D01*
X135951800Y-104283600D02*
X135959321Y-104216843D01*
X135959321Y-104216843D02*
X135981509Y-104153434D01*
X135981509Y-104153434D02*
X136017250Y-104096553D01*
X136017250Y-104096553D02*
X136064753Y-104049050D01*
X136064753Y-104049050D02*
X136121634Y-104013309D01*
X136464753Y-105918149D02*
X136521634Y-105953890D01*
X136185043Y-103991121D02*
X136251800Y-103983600D01*
X136181965Y-104013309D02*
X136238846Y-104049050D01*
X136238846Y-104049050D02*
X136286349Y-104096553D01*
X137651800Y-105983600D02*
X137718556Y-105976078D01*
X136322090Y-104153434D02*
X136344278Y-104216843D01*
X136351800Y-104283600D02*
X136351800Y-105683600D01*
X136351800Y-105683600D02*
X136359321Y-105750356D01*
X136359321Y-105750356D02*
X136381509Y-105813765D01*
X136381509Y-105813765D02*
X136417250Y-105870646D01*
X136417250Y-105870646D02*
X136464753Y-105918149D01*
X136521634Y-105953890D02*
X136585043Y-105976078D01*
X136781965Y-105953890D02*
X136838846Y-105918149D01*
X136838846Y-105918149D02*
X136886349Y-105870646D01*
X136886349Y-105870646D02*
X136922090Y-105813765D01*
X136922090Y-105813765D02*
X136944278Y-105750356D01*
X136951800Y-105683600D02*
X136951800Y-104283600D01*
X136951800Y-104283600D02*
X136959321Y-104216843D01*
X136959321Y-104216843D02*
X136981509Y-104153434D01*
X138017250Y-104096553D02*
X138064753Y-104049050D01*
X136981509Y-104153434D02*
X137017250Y-104096553D01*
X137017250Y-104096553D02*
X137064753Y-104049050D01*
X137064753Y-104049050D02*
X137121634Y-104013309D01*
X137051800Y-103983600D02*
X137118556Y-103991121D01*
X138064753Y-104049050D02*
X138121634Y-104013309D01*
X137118556Y-103991121D02*
X137181965Y-104013309D01*
X137181965Y-104013309D02*
X137238846Y-104049050D01*
X137464753Y-105918149D02*
X137521634Y-105953890D01*
X137286349Y-104096553D02*
X137322090Y-104153434D01*
X137344278Y-104216843D02*
X137351800Y-104283600D01*
X137351800Y-104283600D02*
X137351800Y-105683600D01*
X137585043Y-105976078D02*
X137651800Y-105983600D01*
X137351800Y-105683600D02*
X137359321Y-105750356D01*
X137521634Y-105953890D02*
X137585043Y-105976078D01*
X137922090Y-105813765D02*
X137944278Y-105750356D01*
X137944278Y-105750356D02*
X137951800Y-105683600D01*
X137951800Y-105683600D02*
X137951800Y-104283600D01*
X137951800Y-104283600D02*
X137959321Y-104216843D01*
X138121634Y-104013309D02*
X138185043Y-103991121D01*
X138251800Y-103983600D02*
X139621848Y-103983600D01*
X139674600Y-105533825D02*
X139674600Y-106583480D01*
D24*
X139623800Y-106532680D02*
X139674600Y-106583480D01*
X141655800Y-108432600D02*
X141655800Y-106613960D01*
X141655800Y-106613960D02*
X141625320Y-106583480D01*
X144598400Y-109016800D02*
X143383000Y-109016800D01*
X143383000Y-109016800D02*
X143002000Y-108635800D01*
X147675600Y-106934000D02*
X145846800Y-105105200D01*
X145846800Y-105105200D02*
X145846800Y-105090000D01*
X160340000Y-102743000D02*
X159156400Y-102743000D01*
X159156400Y-102743000D02*
X159131000Y-102768400D01*
X145846800Y-105090000D02*
X145846800Y-107868400D01*
X145846800Y-107868400D02*
X144698400Y-109016800D01*
X144698400Y-109016800D02*
X144598400Y-109016800D01*
X142163800Y-102539800D02*
X140481710Y-102539800D01*
X140481710Y-102539800D02*
X139674600Y-101732690D01*
X139674600Y-101732690D02*
X139674600Y-100832920D01*
X142595600Y-102971600D02*
X142163800Y-102539800D01*
X153216600Y-109016800D02*
X153116600Y-109016800D01*
X153116600Y-109016800D02*
X149586000Y-105486200D01*
X149586000Y-105486200D02*
X147243800Y-105486200D01*
X153216600Y-109016800D02*
X155260000Y-109016800D01*
X155260000Y-109016800D02*
X155270200Y-109027000D01*
X158927800Y-109179400D02*
X158352800Y-109179400D01*
X156286200Y-109931200D02*
X155905200Y-110312200D01*
X158352800Y-109179400D02*
X157860000Y-108686600D01*
X157860000Y-108686600D02*
X157022800Y-108686600D01*
X148818600Y-110312200D02*
X148742400Y-110388400D01*
X141046200Y-109118400D02*
X141020800Y-109118400D01*
X157022800Y-108686600D02*
X156286200Y-109423200D01*
X148361400Y-114350800D02*
X141401800Y-114350800D01*
X156286200Y-109423200D02*
X156286200Y-109931200D01*
X141020800Y-109118400D02*
X140975080Y-109072680D01*
X155905200Y-110312200D02*
X148818600Y-110312200D01*
X148742400Y-110388400D02*
X148742400Y-113969800D01*
X148742400Y-113969800D02*
X148361400Y-114350800D01*
X141401800Y-114350800D02*
X141046200Y-113995200D01*
X141046200Y-113995200D02*
X141046200Y-109118400D01*
X140975080Y-109072680D02*
X140975080Y-106583480D01*
X164338000Y-106680000D02*
X160102200Y-106680000D01*
X160102200Y-106680000D02*
X159502800Y-107279400D01*
X167980400Y-105892600D02*
X167980400Y-105293200D01*
X167980400Y-105293200D02*
X167843200Y-105156000D01*
X167843200Y-105156000D02*
X165379400Y-105156000D01*
X165379400Y-105156000D02*
X165277800Y-105257600D01*
X165277800Y-105257600D02*
X165277800Y-105384600D01*
X165277800Y-105384600D02*
X164820600Y-105841800D01*
X164820600Y-105841800D02*
X164820600Y-106197400D01*
X164820600Y-106197400D02*
X164338000Y-106680000D01*
X159537400Y-107244800D02*
X159502800Y-107279400D01*
X159502800Y-107279400D02*
X158927800Y-107279400D01*
X167030400Y-105892600D02*
X167030400Y-106426000D01*
X163811200Y-105664000D02*
X163586200Y-105664000D01*
X167030400Y-106426000D02*
X167335200Y-106730800D01*
X167335200Y-106730800D02*
X168529000Y-106730800D01*
X168529000Y-106730800D02*
X168757600Y-106502200D01*
X168757600Y-105257600D02*
X167894000Y-104394000D01*
X168757600Y-106502200D02*
X168757600Y-105257600D01*
X164693600Y-104394000D02*
X164693600Y-104781600D01*
X167894000Y-104394000D02*
X164693600Y-104394000D01*
X164693600Y-104781600D02*
X163811200Y-105664000D01*
X167800000Y-97100000D02*
X167800000Y-98807490D01*
X166314490Y-100293000D02*
X162690000Y-100293000D01*
X167800000Y-98807490D02*
X166314490Y-100293000D01*
X162690000Y-100293000D02*
X162240000Y-100293000D01*
X158953200Y-104038400D02*
X157483800Y-104038400D01*
X157483800Y-104038400D02*
X157378400Y-104143800D01*
X157580000Y-112300000D02*
X157580000Y-110209000D01*
X157580000Y-110209000D02*
X157149800Y-109778800D01*
X157378400Y-104143800D02*
X154695200Y-104143800D01*
X154695200Y-104143800D02*
X153035000Y-102483600D01*
X153035000Y-102483600D02*
X153035000Y-102383600D01*
X142275560Y-106583480D02*
X142925800Y-106583480D01*
X143052800Y-110236000D02*
X142275560Y-109458760D01*
X142275560Y-109458760D02*
X142275560Y-106583480D01*
X146110380Y-110236000D02*
X143052800Y-110236000D01*
X147420000Y-112300000D02*
X147420000Y-111545620D01*
X147420000Y-111545620D02*
X146110380Y-110236000D01*
X160120000Y-112300000D02*
X160120000Y-108662800D01*
X160120000Y-108662800D02*
X160578800Y-108204000D01*
X165491800Y-108204000D02*
X165630400Y-108342600D01*
X160578800Y-108204000D02*
X165491800Y-108204000D01*
X165630400Y-108342600D02*
X166080400Y-108342600D01*
X149758400Y-107213400D02*
X150516600Y-107971600D01*
X150516600Y-107971600D02*
X150516600Y-109016800D01*
X160340000Y-100293000D02*
X159890000Y-100293000D01*
X159890000Y-100293000D02*
X159292000Y-99695000D01*
X159292000Y-99695000D02*
X151282400Y-99695000D01*
X147298400Y-109016800D02*
X148248400Y-109016800D01*
X148248400Y-109016800D02*
X150516600Y-109016800D01*
D25*
G36*
X133273373Y-104470485D02*
X133475048Y-104510600D01*
X134824800Y-104510600D01*
X134824800Y-105683600D01*
X134830621Y-105712866D01*
X134828113Y-105742601D01*
X134835634Y-105809356D01*
X134853617Y-105865779D01*
X134861895Y-105924415D01*
X134884083Y-105987824D01*
X134914168Y-106038826D01*
X134935286Y-106094148D01*
X134971027Y-106151029D01*
X135011710Y-106194060D01*
X135044605Y-106243291D01*
X135092107Y-106290794D01*
X135141340Y-106323690D01*
X135184370Y-106364372D01*
X135241252Y-106400113D01*
X135296572Y-106421230D01*
X135347575Y-106451316D01*
X135410984Y-106473504D01*
X135469617Y-106481782D01*
X135526035Y-106499764D01*
X135592792Y-106507286D01*
X135651798Y-106502309D01*
X135710808Y-106507286D01*
X135777564Y-106499764D01*
X135833982Y-106481782D01*
X135892615Y-106473504D01*
X135956024Y-106451316D01*
X136007026Y-106421231D01*
X136062348Y-106400113D01*
X136119229Y-106364372D01*
X136151800Y-106333579D01*
X136184370Y-106364372D01*
X136241252Y-106400113D01*
X136296572Y-106421230D01*
X136347575Y-106451316D01*
X136410984Y-106473504D01*
X136469617Y-106481782D01*
X136526035Y-106499764D01*
X136592792Y-106507286D01*
X136625118Y-106504559D01*
X136091292Y-106610744D01*
X135473524Y-107023524D01*
X135060744Y-107641292D01*
X134915795Y-108370000D01*
X135060744Y-109098708D01*
X135473524Y-109716476D01*
X136091292Y-110129256D01*
X136820000Y-110274205D01*
X137548708Y-110129256D01*
X138166476Y-109716476D01*
X138397360Y-109370934D01*
X138397360Y-111524360D01*
X138445088Y-111764303D01*
X138524339Y-111882910D01*
X138581004Y-111967716D01*
X138669890Y-112056602D01*
X138669890Y-113091299D01*
X138755915Y-113523773D01*
X139000892Y-113890407D01*
X139173000Y-114005406D01*
X139173000Y-114307490D01*
X139220728Y-114547433D01*
X139227537Y-114557623D01*
X139356644Y-114750846D01*
X139553798Y-114948000D01*
X133252000Y-114948000D01*
X133252000Y-112427000D01*
X133331890Y-112427000D01*
X133331890Y-113181380D01*
X133486154Y-113702919D01*
X133828260Y-114125724D01*
X134306125Y-114385427D01*
X134378326Y-114399783D01*
X134593000Y-114277162D01*
X134593000Y-112427000D01*
X134847000Y-112427000D01*
X134847000Y-114277162D01*
X135061674Y-114399783D01*
X135133875Y-114385427D01*
X135611740Y-114125724D01*
X135953846Y-113702919D01*
X136108110Y-113181380D01*
X136108110Y-112427000D01*
X134847000Y-112427000D01*
X134593000Y-112427000D01*
X133331890Y-112427000D01*
X133252000Y-112427000D01*
X133252000Y-111418620D01*
X133331890Y-111418620D01*
X133331890Y-112173000D01*
X134593000Y-112173000D01*
X134593000Y-110322838D01*
X134847000Y-110322838D01*
X134847000Y-112173000D01*
X136108110Y-112173000D01*
X136108110Y-111508701D01*
X136129890Y-111508701D01*
X136129890Y-113091299D01*
X136215915Y-113523773D01*
X136460892Y-113890407D01*
X136827526Y-114135384D01*
X137260000Y-114221409D01*
X137692474Y-114135384D01*
X138059108Y-113890407D01*
X138304085Y-113523773D01*
X138390110Y-113091299D01*
X138390110Y-111508701D01*
X138304085Y-111076227D01*
X138059108Y-110709593D01*
X137692474Y-110464616D01*
X137260000Y-110378591D01*
X136827526Y-110464616D01*
X136460892Y-110709593D01*
X136215915Y-111076227D01*
X136129890Y-111508701D01*
X136108110Y-111508701D01*
X136108110Y-111418620D01*
X135953846Y-110897081D01*
X135611740Y-110474276D01*
X135133875Y-110214573D01*
X135061674Y-110200217D01*
X134847000Y-110322838D01*
X134593000Y-110322838D01*
X134378326Y-110200217D01*
X134306125Y-110214573D01*
X133828260Y-110474276D01*
X133486154Y-110897081D01*
X133331890Y-111418620D01*
X133252000Y-111418620D01*
X133252000Y-104456204D01*
X133273373Y-104470485D01*
X133273373Y-104470485D01*
G37*
X133273373Y-104470485D02*
X133475048Y-104510600D01*
X134824800Y-104510600D01*
X134824800Y-105683600D01*
X134830621Y-105712866D01*
X134828113Y-105742601D01*
X134835634Y-105809356D01*
X134853617Y-105865779D01*
X134861895Y-105924415D01*
X134884083Y-105987824D01*
X134914168Y-106038826D01*
X134935286Y-106094148D01*
X134971027Y-106151029D01*
X135011710Y-106194060D01*
X135044605Y-106243291D01*
X135092107Y-106290794D01*
X135141340Y-106323690D01*
X135184370Y-106364372D01*
X135241252Y-106400113D01*
X135296572Y-106421230D01*
X135347575Y-106451316D01*
X135410984Y-106473504D01*
X135469617Y-106481782D01*
X135526035Y-106499764D01*
X135592792Y-106507286D01*
X135651798Y-106502309D01*
X135710808Y-106507286D01*
X135777564Y-106499764D01*
X135833982Y-106481782D01*
X135892615Y-106473504D01*
X135956024Y-106451316D01*
X136007026Y-106421231D01*
X136062348Y-106400113D01*
X136119229Y-106364372D01*
X136151800Y-106333579D01*
X136184370Y-106364372D01*
X136241252Y-106400113D01*
X136296572Y-106421230D01*
X136347575Y-106451316D01*
X136410984Y-106473504D01*
X136469617Y-106481782D01*
X136526035Y-106499764D01*
X136592792Y-106507286D01*
X136625118Y-106504559D01*
X136091292Y-106610744D01*
X135473524Y-107023524D01*
X135060744Y-107641292D01*
X134915795Y-108370000D01*
X135060744Y-109098708D01*
X135473524Y-109716476D01*
X136091292Y-110129256D01*
X136820000Y-110274205D01*
X137548708Y-110129256D01*
X138166476Y-109716476D01*
X138397360Y-109370934D01*
X138397360Y-111524360D01*
X138445088Y-111764303D01*
X138524339Y-111882910D01*
X138581004Y-111967716D01*
X138669890Y-112056602D01*
X138669890Y-113091299D01*
X138755915Y-113523773D01*
X139000892Y-113890407D01*
X139173000Y-114005406D01*
X139173000Y-114307490D01*
X139220728Y-114547433D01*
X139227537Y-114557623D01*
X139356644Y-114750846D01*
X139553798Y-114948000D01*
X133252000Y-114948000D01*
X133252000Y-112427000D01*
X133331890Y-112427000D01*
X133331890Y-113181380D01*
X133486154Y-113702919D01*
X133828260Y-114125724D01*
X134306125Y-114385427D01*
X134378326Y-114399783D01*
X134593000Y-114277162D01*
X134593000Y-112427000D01*
X134847000Y-112427000D01*
X134847000Y-114277162D01*
X135061674Y-114399783D01*
X135133875Y-114385427D01*
X135611740Y-114125724D01*
X135953846Y-113702919D01*
X136108110Y-113181380D01*
X136108110Y-112427000D01*
X134847000Y-112427000D01*
X134593000Y-112427000D01*
X133331890Y-112427000D01*
X133252000Y-112427000D01*
X133252000Y-111418620D01*
X133331890Y-111418620D01*
X133331890Y-112173000D01*
X134593000Y-112173000D01*
X134593000Y-110322838D01*
X134847000Y-110322838D01*
X134847000Y-112173000D01*
X136108110Y-112173000D01*
X136108110Y-111508701D01*
X136129890Y-111508701D01*
X136129890Y-113091299D01*
X136215915Y-113523773D01*
X136460892Y-113890407D01*
X136827526Y-114135384D01*
X137260000Y-114221409D01*
X137692474Y-114135384D01*
X138059108Y-113890407D01*
X138304085Y-113523773D01*
X138390110Y-113091299D01*
X138390110Y-111508701D01*
X138304085Y-111076227D01*
X138059108Y-110709593D01*
X137692474Y-110464616D01*
X137260000Y-110378591D01*
X136827526Y-110464616D01*
X136460892Y-110709593D01*
X136215915Y-111076227D01*
X136129890Y-111508701D01*
X136108110Y-111508701D01*
X136108110Y-111418620D01*
X135953846Y-110897081D01*
X135611740Y-110474276D01*
X135133875Y-110214573D01*
X135061674Y-110200217D01*
X134847000Y-110322838D01*
X134593000Y-110322838D01*
X134378326Y-110200217D01*
X134306125Y-110214573D01*
X133828260Y-110474276D01*
X133486154Y-110897081D01*
X133331890Y-111418620D01*
X133252000Y-111418620D01*
X133252000Y-104456204D01*
X133273373Y-104470485D01*
G36*
X165447860Y-108783291D02*
X165471002Y-108787894D01*
X165472303Y-108794808D01*
X165554870Y-108923120D01*
X165680853Y-109009201D01*
X165830400Y-109039485D01*
X166266760Y-109039485D01*
X166420701Y-109193427D01*
X166654090Y-109290100D01*
X166746650Y-109290100D01*
X166903398Y-109133352D01*
X166903398Y-109290100D01*
X166958688Y-109290100D01*
X166919188Y-109329600D01*
X165535910Y-109329600D01*
X165295967Y-109377328D01*
X165121654Y-109493800D01*
X165092554Y-109513244D01*
X164948200Y-109657598D01*
X164948200Y-109556550D01*
X164789450Y-109397800D01*
X163840200Y-109397800D01*
X163840200Y-110122050D01*
X163998950Y-110280800D01*
X164439509Y-110280800D01*
X164587525Y-110219490D01*
X164573000Y-110292510D01*
X164573000Y-110594594D01*
X164400892Y-110709593D01*
X164155915Y-111076227D01*
X164069890Y-111508701D01*
X164069890Y-111673000D01*
X163790110Y-111673000D01*
X163790110Y-111508701D01*
X163704085Y-111076227D01*
X163459108Y-110709593D01*
X163092474Y-110464616D01*
X162660000Y-110378591D01*
X162356976Y-110438867D01*
X162392473Y-110385742D01*
X162440200Y-110145800D01*
X162440200Y-110025105D01*
X162552908Y-110003897D01*
X162569727Y-109993074D01*
X162574873Y-110005499D01*
X162753502Y-110184127D01*
X162986891Y-110280800D01*
X163427450Y-110280800D01*
X163586200Y-110122050D01*
X163586200Y-109397800D01*
X163566200Y-109397800D01*
X163566200Y-109143800D01*
X163586200Y-109143800D01*
X163586200Y-109123800D01*
X163840200Y-109123800D01*
X163840200Y-109143800D01*
X164789450Y-109143800D01*
X164948200Y-108985050D01*
X164948200Y-108769490D01*
X164911546Y-108681000D01*
X165294771Y-108681000D01*
X165447860Y-108783291D01*
X165447860Y-108783291D01*
G37*
X165447860Y-108783291D02*
X165471002Y-108787894D01*
X165472303Y-108794808D01*
X165554870Y-108923120D01*
X165680853Y-109009201D01*
X165830400Y-109039485D01*
X166266760Y-109039485D01*
X166420701Y-109193427D01*
X166654090Y-109290100D01*
X166746650Y-109290100D01*
X166903398Y-109133352D01*
X166903398Y-109290100D01*
X166958688Y-109290100D01*
X166919188Y-109329600D01*
X165535910Y-109329600D01*
X165295967Y-109377328D01*
X165121654Y-109493800D01*
X165092554Y-109513244D01*
X164948200Y-109657598D01*
X164948200Y-109556550D01*
X164789450Y-109397800D01*
X163840200Y-109397800D01*
X163840200Y-110122050D01*
X163998950Y-110280800D01*
X164439509Y-110280800D01*
X164587525Y-110219490D01*
X164573000Y-110292510D01*
X164573000Y-110594594D01*
X164400892Y-110709593D01*
X164155915Y-111076227D01*
X164069890Y-111508701D01*
X164069890Y-111673000D01*
X163790110Y-111673000D01*
X163790110Y-111508701D01*
X163704085Y-111076227D01*
X163459108Y-110709593D01*
X163092474Y-110464616D01*
X162660000Y-110378591D01*
X162356976Y-110438867D01*
X162392473Y-110385742D01*
X162440200Y-110145800D01*
X162440200Y-110025105D01*
X162552908Y-110003897D01*
X162569727Y-109993074D01*
X162574873Y-110005499D01*
X162753502Y-110184127D01*
X162986891Y-110280800D01*
X163427450Y-110280800D01*
X163586200Y-110122050D01*
X163586200Y-109397800D01*
X163566200Y-109397800D01*
X163566200Y-109143800D01*
X163586200Y-109143800D01*
X163586200Y-109123800D01*
X163840200Y-109123800D01*
X163840200Y-109143800D01*
X164789450Y-109143800D01*
X164948200Y-108985050D01*
X164948200Y-108769490D01*
X164911546Y-108681000D01*
X165294771Y-108681000D01*
X165447860Y-108783291D01*
G36*
X159348000Y-93400000D02*
X159382406Y-93572973D01*
X159480388Y-93719612D01*
X159627027Y-93817594D01*
X159800000Y-93852000D01*
X171048000Y-93852000D01*
X171048000Y-100616088D01*
X170597956Y-100166044D01*
X170552529Y-100135691D01*
X170394543Y-100030128D01*
X170154600Y-99982400D01*
X167360600Y-99982400D01*
X167284541Y-99997529D01*
X168137290Y-99144780D01*
X168240691Y-98990031D01*
X168254486Y-98920676D01*
X168599108Y-98690407D01*
X168844085Y-98323773D01*
X168930110Y-97891299D01*
X168930110Y-96308701D01*
X168844085Y-95876227D01*
X168599108Y-95509593D01*
X168232474Y-95264616D01*
X167800000Y-95178591D01*
X167367526Y-95264616D01*
X167000892Y-95509593D01*
X166755915Y-95876227D01*
X166669890Y-96308701D01*
X166669890Y-97891299D01*
X166755915Y-98323773D01*
X167000892Y-98690407D01*
X167145727Y-98787183D01*
X166116910Y-99816000D01*
X162832144Y-99816000D01*
X162765530Y-99712480D01*
X162639547Y-99626399D01*
X162490000Y-99596115D01*
X161990000Y-99596115D01*
X161850292Y-99622403D01*
X161764497Y-99677611D01*
X161689547Y-99626399D01*
X161540000Y-99596115D01*
X161040000Y-99596115D01*
X160900292Y-99622403D01*
X160814497Y-99677611D01*
X160739547Y-99626399D01*
X160590000Y-99596115D01*
X160090000Y-99596115D01*
X159950292Y-99622403D01*
X159916030Y-99644450D01*
X159629290Y-99357710D01*
X159474540Y-99254309D01*
X159292000Y-99218000D01*
X151762820Y-99218000D01*
X151666390Y-99121402D01*
X151417654Y-99018118D01*
X151148327Y-99017883D01*
X150899411Y-99120733D01*
X150708802Y-99311010D01*
X150605518Y-99559746D01*
X150605283Y-99829073D01*
X150700122Y-100058600D01*
X150248039Y-100058600D01*
X150237730Y-100042580D01*
X150111747Y-99956499D01*
X149962200Y-99926215D01*
X148762200Y-99926215D01*
X148622492Y-99952503D01*
X148605673Y-99963326D01*
X148600527Y-99950901D01*
X148421898Y-99772273D01*
X148188509Y-99675600D01*
X147747950Y-99675600D01*
X147589200Y-99834350D01*
X147589200Y-100558600D01*
X147609200Y-100558600D01*
X147609200Y-100812600D01*
X147589200Y-100812600D01*
X147589200Y-101536850D01*
X147747950Y-101695600D01*
X148188509Y-101695600D01*
X148421898Y-101598927D01*
X148600527Y-101420299D01*
X148605009Y-101409478D01*
X148612653Y-101414701D01*
X148762200Y-101444985D01*
X149962200Y-101444985D01*
X150101908Y-101418697D01*
X150230220Y-101336130D01*
X150246297Y-101312600D01*
X152187642Y-101312600D01*
X152116980Y-101358070D01*
X152030899Y-101484053D01*
X152000615Y-101633600D01*
X152000615Y-103133600D01*
X152026903Y-103273308D01*
X152109470Y-103401620D01*
X152235453Y-103487701D01*
X152385000Y-103517985D01*
X153394805Y-103517985D01*
X153575420Y-103698600D01*
X153320750Y-103698600D01*
X153162000Y-103857350D01*
X153162000Y-104956600D01*
X154161250Y-104956600D01*
X154320000Y-104797850D01*
X154320000Y-104443180D01*
X154357910Y-104481090D01*
X154512659Y-104584491D01*
X154695200Y-104620800D01*
X156344015Y-104620800D01*
X156344015Y-104893800D01*
X156370303Y-105033508D01*
X156452870Y-105161820D01*
X156578853Y-105247901D01*
X156728400Y-105278185D01*
X158028400Y-105278185D01*
X158168108Y-105251897D01*
X158296420Y-105169330D01*
X158382501Y-105043347D01*
X158412785Y-104893800D01*
X158412785Y-104515400D01*
X158472780Y-104515400D01*
X158569210Y-104611998D01*
X158817946Y-104715282D01*
X159087273Y-104715517D01*
X159336189Y-104612667D01*
X159526798Y-104422390D01*
X159630082Y-104173654D01*
X159630317Y-103904327D01*
X159527467Y-103655411D01*
X159337190Y-103464802D01*
X159277941Y-103440200D01*
X159513989Y-103342667D01*
X159636870Y-103220000D01*
X159747856Y-103220000D01*
X159814470Y-103323520D01*
X159940453Y-103409601D01*
X160090000Y-103439885D01*
X160526360Y-103439885D01*
X160680301Y-103593827D01*
X160913690Y-103690500D01*
X161006250Y-103690500D01*
X161165000Y-103531750D01*
X161165000Y-102870000D01*
X161143000Y-102870000D01*
X161143000Y-102616000D01*
X161165000Y-102616000D01*
X161165000Y-102596000D01*
X161415000Y-102596000D01*
X161415000Y-102616000D01*
X161437000Y-102616000D01*
X161437000Y-102870000D01*
X161415000Y-102870000D01*
X161415000Y-103531750D01*
X161573750Y-103690500D01*
X161666310Y-103690500D01*
X161899699Y-103593827D01*
X162053640Y-103439885D01*
X162490000Y-103439885D01*
X162629708Y-103413597D01*
X162758020Y-103331030D01*
X162844101Y-103205047D01*
X162847400Y-103188756D01*
X162847400Y-103372288D01*
X162757488Y-103462200D01*
X162386000Y-103462200D01*
X162146058Y-103509927D01*
X161942644Y-103645844D01*
X161242844Y-104345644D01*
X161106928Y-104549057D01*
X161059200Y-104789000D01*
X161059200Y-104909695D01*
X160946492Y-104930903D01*
X160818180Y-105013470D01*
X160732099Y-105139453D01*
X160701815Y-105289000D01*
X160701815Y-106039000D01*
X160728103Y-106178708D01*
X160743735Y-106203000D01*
X160102200Y-106203000D01*
X159919660Y-106239309D01*
X159764910Y-106342710D01*
X159624496Y-106483124D01*
X159578330Y-106411380D01*
X159452347Y-106325299D01*
X159302800Y-106295015D01*
X158552800Y-106295015D01*
X158413092Y-106321303D01*
X158284780Y-106403870D01*
X158198699Y-106529853D01*
X158168415Y-106679400D01*
X158168415Y-107879400D01*
X158194703Y-108019108D01*
X158277270Y-108147420D01*
X158398831Y-108230480D01*
X158284780Y-108303870D01*
X158230821Y-108382841D01*
X158197290Y-108349310D01*
X158042540Y-108245909D01*
X157860000Y-108209600D01*
X157022800Y-108209600D01*
X156840260Y-108245909D01*
X156685510Y-108349310D01*
X156029585Y-109005235D01*
X156029585Y-108427000D01*
X156003297Y-108287292D01*
X155992474Y-108270473D01*
X156004899Y-108265327D01*
X156183527Y-108086698D01*
X156280200Y-107853309D01*
X156280200Y-107412750D01*
X156121450Y-107254000D01*
X155397200Y-107254000D01*
X155397200Y-107274000D01*
X155143200Y-107274000D01*
X155143200Y-107254000D01*
X154418950Y-107254000D01*
X154260200Y-107412750D01*
X154260200Y-107853309D01*
X154356873Y-108086698D01*
X154535501Y-108265327D01*
X154546322Y-108269809D01*
X154541099Y-108277453D01*
X154510815Y-108427000D01*
X154510815Y-108539800D01*
X154350985Y-108539800D01*
X154350985Y-108366800D01*
X154324697Y-108227092D01*
X154242130Y-108098780D01*
X154116147Y-108012699D01*
X153966600Y-107982415D01*
X152756795Y-107982415D01*
X150143730Y-105369350D01*
X151750000Y-105369350D01*
X151750000Y-105959909D01*
X151846673Y-106193298D01*
X152025301Y-106371927D01*
X152258690Y-106468600D01*
X152749250Y-106468600D01*
X152908000Y-106309850D01*
X152908000Y-105210600D01*
X153162000Y-105210600D01*
X153162000Y-106309850D01*
X153320750Y-106468600D01*
X153811310Y-106468600D01*
X153975256Y-106400691D01*
X154260200Y-106400691D01*
X154260200Y-106841250D01*
X154418950Y-107000000D01*
X155143200Y-107000000D01*
X155143200Y-106050750D01*
X155397200Y-106050750D01*
X155397200Y-107000000D01*
X156121450Y-107000000D01*
X156280200Y-106841250D01*
X156280200Y-106400691D01*
X156183527Y-106167302D01*
X156004899Y-105988673D01*
X155771510Y-105892000D01*
X155555950Y-105892000D01*
X155397200Y-106050750D01*
X155143200Y-106050750D01*
X154984450Y-105892000D01*
X154768890Y-105892000D01*
X154535501Y-105988673D01*
X154356873Y-106167302D01*
X154260200Y-106400691D01*
X153975256Y-106400691D01*
X154044699Y-106371927D01*
X154223327Y-106193298D01*
X154320000Y-105959909D01*
X154320000Y-105369350D01*
X154161250Y-105210600D01*
X153162000Y-105210600D01*
X152908000Y-105210600D01*
X151908750Y-105210600D01*
X151750000Y-105369350D01*
X150143730Y-105369350D01*
X149923290Y-105148910D01*
X149768540Y-105045509D01*
X149586000Y-105009200D01*
X147724220Y-105009200D01*
X147627790Y-104912602D01*
X147379054Y-104809318D01*
X147109727Y-104809083D01*
X146860811Y-104911933D01*
X146670202Y-105102210D01*
X146625660Y-105209480D01*
X146606185Y-105190005D01*
X146606185Y-104490000D01*
X146579897Y-104350292D01*
X146569074Y-104333473D01*
X146581499Y-104328327D01*
X146702534Y-104207291D01*
X151750000Y-104207291D01*
X151750000Y-104797850D01*
X151908750Y-104956600D01*
X152908000Y-104956600D01*
X152908000Y-103857350D01*
X152749250Y-103698600D01*
X152258690Y-103698600D01*
X152025301Y-103795273D01*
X151846673Y-103973902D01*
X151750000Y-104207291D01*
X146702534Y-104207291D01*
X146760127Y-104149698D01*
X146856800Y-103916309D01*
X146856800Y-103475750D01*
X146698050Y-103317000D01*
X145973800Y-103317000D01*
X145973800Y-103337000D01*
X145719800Y-103337000D01*
X145719800Y-103317000D01*
X144995550Y-103317000D01*
X144836800Y-103475750D01*
X144836800Y-103916309D01*
X144933473Y-104149698D01*
X145112101Y-104328327D01*
X145122922Y-104332809D01*
X145117699Y-104340453D01*
X145087415Y-104490000D01*
X145087415Y-105690000D01*
X145113703Y-105829708D01*
X145196270Y-105958020D01*
X145322253Y-106044101D01*
X145369800Y-106053730D01*
X145369800Y-107670820D01*
X145058205Y-107982415D01*
X143848400Y-107982415D01*
X143708692Y-108008703D01*
X143580380Y-108091270D01*
X143513182Y-108189616D01*
X143385990Y-108062202D01*
X143137254Y-107958918D01*
X142867927Y-107958683D01*
X142752560Y-108006352D01*
X142752560Y-107667635D01*
X142887140Y-107667635D01*
X143041081Y-107821577D01*
X143274470Y-107918250D01*
X143329660Y-107918250D01*
X143488410Y-107759500D01*
X143488410Y-106710480D01*
X143663670Y-106710480D01*
X143663670Y-107759500D01*
X143822420Y-107918250D01*
X143877610Y-107918250D01*
X144110999Y-107821577D01*
X144289627Y-107642948D01*
X144386300Y-107409559D01*
X144386300Y-106869230D01*
X144227550Y-106710480D01*
X143663670Y-106710480D01*
X143488410Y-106710480D01*
X143485445Y-106710480D01*
X143485445Y-106456480D01*
X143488410Y-106456480D01*
X143488410Y-105407460D01*
X143663670Y-105407460D01*
X143663670Y-106456480D01*
X144227550Y-106456480D01*
X144386300Y-106297730D01*
X144386300Y-105757401D01*
X144289627Y-105524012D01*
X144110999Y-105345383D01*
X143877610Y-105248710D01*
X143822420Y-105248710D01*
X143663670Y-105407460D01*
X143488410Y-105407460D01*
X143329660Y-105248710D01*
X143274470Y-105248710D01*
X143041081Y-105345383D01*
X142887140Y-105499325D01*
X142750540Y-105499325D01*
X142610832Y-105525613D01*
X142602431Y-105531019D01*
X142600367Y-105529609D01*
X142450820Y-105499325D01*
X142100300Y-105499325D01*
X141960592Y-105525613D01*
X141952191Y-105531019D01*
X141950127Y-105529609D01*
X141800580Y-105499325D01*
X141450060Y-105499325D01*
X141310352Y-105525613D01*
X141301951Y-105531019D01*
X141299887Y-105529609D01*
X141150340Y-105499325D01*
X140844978Y-105499325D01*
X140811725Y-105332151D01*
X140776720Y-105279763D01*
X140776720Y-103904368D01*
X140736605Y-103702694D01*
X140622365Y-103531723D01*
X140201597Y-103110955D01*
X140030627Y-102996715D01*
X139828952Y-102956600D01*
X134177800Y-102956600D01*
X134177800Y-101118670D01*
X138214100Y-101118670D01*
X138214100Y-101658999D01*
X138310773Y-101892388D01*
X138489401Y-102071017D01*
X138722790Y-102167690D01*
X138777980Y-102167690D01*
X138936730Y-102008940D01*
X138936730Y-100959920D01*
X138372850Y-100959920D01*
X138214100Y-101118670D01*
X134177800Y-101118670D01*
X134177800Y-100006841D01*
X138214100Y-100006841D01*
X138214100Y-100547170D01*
X138372850Y-100705920D01*
X138936730Y-100705920D01*
X138936730Y-99656900D01*
X139111990Y-99656900D01*
X139111990Y-100705920D01*
X139114955Y-100705920D01*
X139114955Y-100959920D01*
X139111990Y-100959920D01*
X139111990Y-102008940D01*
X139270740Y-102167690D01*
X139325930Y-102167690D01*
X139403068Y-102135738D01*
X140144420Y-102877090D01*
X140299170Y-102980491D01*
X140481710Y-103016800D01*
X141918561Y-103016800D01*
X141918483Y-103105673D01*
X142021333Y-103354589D01*
X142211610Y-103545198D01*
X142460346Y-103648482D01*
X142729673Y-103648717D01*
X142978589Y-103545867D01*
X143169198Y-103355590D01*
X143272482Y-103106854D01*
X143272717Y-102837527D01*
X143169867Y-102588611D01*
X143045165Y-102463691D01*
X144836800Y-102463691D01*
X144836800Y-102904250D01*
X144995550Y-103063000D01*
X145719800Y-103063000D01*
X145719800Y-102113750D01*
X145973800Y-102113750D01*
X145973800Y-103063000D01*
X146698050Y-103063000D01*
X146856800Y-102904250D01*
X146856800Y-102463691D01*
X146760127Y-102230302D01*
X146581499Y-102051673D01*
X146348110Y-101955000D01*
X146132550Y-101955000D01*
X145973800Y-102113750D01*
X145719800Y-102113750D01*
X145561050Y-101955000D01*
X145345490Y-101955000D01*
X145112101Y-102051673D01*
X144933473Y-102230302D01*
X144836800Y-102463691D01*
X143045165Y-102463691D01*
X142979590Y-102398002D01*
X142730854Y-102294718D01*
X142593178Y-102294598D01*
X142501090Y-102202510D01*
X142402562Y-102136675D01*
X142402562Y-102075872D01*
X142449610Y-102095360D01*
X142521940Y-102167690D01*
X142577130Y-102167690D01*
X142600680Y-102157935D01*
X142624230Y-102167690D01*
X142679420Y-102167690D01*
X142751750Y-102095360D01*
X142810519Y-102071017D01*
X142925800Y-101955735D01*
X143041081Y-102071017D01*
X143099850Y-102095360D01*
X143172180Y-102167690D01*
X143227370Y-102167690D01*
X143250920Y-102157935D01*
X143274470Y-102167690D01*
X143329660Y-102167690D01*
X143401990Y-102095360D01*
X143460759Y-102071017D01*
X143639387Y-101892388D01*
X143663670Y-101833764D01*
X143663670Y-102008940D01*
X143822420Y-102167690D01*
X143877610Y-102167690D01*
X144110999Y-102071017D01*
X144289627Y-101892388D01*
X144386300Y-101658999D01*
X144386300Y-101118670D01*
X144238980Y-100971350D01*
X146227200Y-100971350D01*
X146227200Y-101186910D01*
X146323873Y-101420299D01*
X146502502Y-101598927D01*
X146735891Y-101695600D01*
X147176450Y-101695600D01*
X147335200Y-101536850D01*
X147335200Y-100812600D01*
X146385950Y-100812600D01*
X146227200Y-100971350D01*
X144238980Y-100971350D01*
X144227550Y-100959920D01*
X143663670Y-100959920D01*
X143663670Y-101046280D01*
X143577310Y-100959920D01*
X142778800Y-100959920D01*
X142778800Y-100705920D01*
X143577310Y-100705920D01*
X143663670Y-100619560D01*
X143663670Y-100705920D01*
X144227550Y-100705920D01*
X144386300Y-100547170D01*
X144386300Y-100184290D01*
X146227200Y-100184290D01*
X146227200Y-100399850D01*
X146385950Y-100558600D01*
X147335200Y-100558600D01*
X147335200Y-99834350D01*
X147176450Y-99675600D01*
X146735891Y-99675600D01*
X146502502Y-99772273D01*
X146323873Y-99950901D01*
X146227200Y-100184290D01*
X144386300Y-100184290D01*
X144386300Y-100006841D01*
X144289627Y-99773452D01*
X144110999Y-99594823D01*
X143877610Y-99498150D01*
X143822420Y-99498150D01*
X143663670Y-99656900D01*
X143663670Y-99832076D01*
X143639387Y-99773452D01*
X143460759Y-99594823D01*
X143401990Y-99570480D01*
X143329660Y-99498150D01*
X143274470Y-99498150D01*
X143250920Y-99507905D01*
X143227370Y-99498150D01*
X143172180Y-99498150D01*
X143099850Y-99570480D01*
X143041081Y-99594823D01*
X142925800Y-99710105D01*
X142810519Y-99594823D01*
X142751750Y-99570480D01*
X142679420Y-99498150D01*
X142624230Y-99498150D01*
X142600680Y-99507905D01*
X142577130Y-99498150D01*
X142521940Y-99498150D01*
X142449610Y-99570480D01*
X142390841Y-99594823D01*
X142212213Y-99773452D01*
X142187930Y-99832076D01*
X142187930Y-99656900D01*
X142029180Y-99498150D01*
X141973990Y-99498150D01*
X141740601Y-99594823D01*
X141586660Y-99748765D01*
X141450060Y-99748765D01*
X141310352Y-99775053D01*
X141301951Y-99780459D01*
X141299887Y-99779049D01*
X141150340Y-99748765D01*
X140799820Y-99748765D01*
X140660112Y-99775053D01*
X140651711Y-99780459D01*
X140649647Y-99779049D01*
X140500100Y-99748765D01*
X140149580Y-99748765D01*
X140009872Y-99775053D01*
X140001471Y-99780459D01*
X139999407Y-99779049D01*
X139849860Y-99748765D01*
X139713260Y-99748765D01*
X139559319Y-99594823D01*
X139325930Y-99498150D01*
X139270740Y-99498150D01*
X139111990Y-99656900D01*
X138936730Y-99656900D01*
X138777980Y-99498150D01*
X138722790Y-99498150D01*
X138489401Y-99594823D01*
X138310773Y-99773452D01*
X138214100Y-100006841D01*
X134177800Y-100006841D01*
X134177800Y-98991875D01*
X135533110Y-98991875D01*
X135672818Y-98965587D01*
X135801130Y-98883020D01*
X135887211Y-98757037D01*
X135917495Y-98607490D01*
X135917495Y-96052000D01*
X136240951Y-96052000D01*
X136189890Y-96308701D01*
X136189890Y-97891299D01*
X136275915Y-98323773D01*
X136520892Y-98690407D01*
X136887526Y-98935384D01*
X137320000Y-99021409D01*
X137752474Y-98935384D01*
X138119108Y-98690407D01*
X138364085Y-98323773D01*
X138450110Y-97891299D01*
X138450110Y-97227000D01*
X138471890Y-97227000D01*
X138471890Y-97981380D01*
X138626154Y-98502919D01*
X138968260Y-98925724D01*
X139446125Y-99185427D01*
X139518326Y-99199783D01*
X139733000Y-99077162D01*
X139733000Y-97227000D01*
X139987000Y-97227000D01*
X139987000Y-99077162D01*
X140201674Y-99199783D01*
X140273875Y-99185427D01*
X140751740Y-98925724D01*
X141093846Y-98502919D01*
X141248110Y-97981380D01*
X141248110Y-97227000D01*
X139987000Y-97227000D01*
X139733000Y-97227000D01*
X138471890Y-97227000D01*
X138450110Y-97227000D01*
X138450110Y-96308701D01*
X138399049Y-96052000D01*
X138521174Y-96052000D01*
X138471890Y-96218620D01*
X138471890Y-96973000D01*
X139733000Y-96973000D01*
X139733000Y-96953000D01*
X139987000Y-96953000D01*
X139987000Y-96973000D01*
X141248110Y-96973000D01*
X141248110Y-96218620D01*
X141198826Y-96052000D01*
X141320951Y-96052000D01*
X141269890Y-96308701D01*
X141269890Y-97891299D01*
X141355915Y-98323773D01*
X141600892Y-98690407D01*
X141967526Y-98935384D01*
X142400000Y-99021409D01*
X142832474Y-98935384D01*
X143199108Y-98690407D01*
X143444085Y-98323773D01*
X143530110Y-97891299D01*
X143530110Y-96308701D01*
X143479049Y-96052000D01*
X143860951Y-96052000D01*
X143809890Y-96308701D01*
X143809890Y-97891299D01*
X143895915Y-98323773D01*
X144140892Y-98690407D01*
X144507526Y-98935384D01*
X144940000Y-99021409D01*
X145372474Y-98935384D01*
X145739108Y-98690407D01*
X145984085Y-98323773D01*
X146070110Y-97891299D01*
X146070110Y-96308701D01*
X146019049Y-96052000D01*
X146400951Y-96052000D01*
X146349890Y-96308701D01*
X146349890Y-97891299D01*
X146435915Y-98323773D01*
X146680892Y-98690407D01*
X147047526Y-98935384D01*
X147480000Y-99021409D01*
X147912474Y-98935384D01*
X148279108Y-98690407D01*
X148524085Y-98323773D01*
X148610110Y-97891299D01*
X148610110Y-96308701D01*
X148559049Y-96052000D01*
X148940951Y-96052000D01*
X148889890Y-96308701D01*
X148889890Y-97891299D01*
X148975915Y-98323773D01*
X149220892Y-98690407D01*
X149587526Y-98935384D01*
X150020000Y-99021409D01*
X150452474Y-98935384D01*
X150819108Y-98690407D01*
X151064085Y-98323773D01*
X151150110Y-97891299D01*
X151150110Y-96308701D01*
X151099049Y-96052000D01*
X151480951Y-96052000D01*
X151429890Y-96308701D01*
X151429890Y-97891299D01*
X151515915Y-98323773D01*
X151760892Y-98690407D01*
X152127526Y-98935384D01*
X152560000Y-99021409D01*
X152992474Y-98935384D01*
X153359108Y-98690407D01*
X153604085Y-98323773D01*
X153690110Y-97891299D01*
X153690110Y-96308701D01*
X153639049Y-96052000D01*
X154020951Y-96052000D01*
X153969890Y-96308701D01*
X153969890Y-97891299D01*
X154055915Y-98323773D01*
X154300892Y-98690407D01*
X154667526Y-98935384D01*
X155100000Y-99021409D01*
X155532474Y-98935384D01*
X155899108Y-98690407D01*
X156144085Y-98323773D01*
X156230110Y-97891299D01*
X156230110Y-96308701D01*
X156179049Y-96052000D01*
X156560951Y-96052000D01*
X156509890Y-96308701D01*
X156509890Y-97891299D01*
X156595915Y-98323773D01*
X156840892Y-98690407D01*
X157207526Y-98935384D01*
X157640000Y-99021409D01*
X158072474Y-98935384D01*
X158439108Y-98690407D01*
X158684085Y-98323773D01*
X158770110Y-97891299D01*
X158770110Y-96308701D01*
X159049890Y-96308701D01*
X159049890Y-97891299D01*
X159135915Y-98323773D01*
X159380892Y-98690407D01*
X159747526Y-98935384D01*
X160180000Y-99021409D01*
X160612474Y-98935384D01*
X160979108Y-98690407D01*
X161224085Y-98323773D01*
X161310110Y-97891299D01*
X161310110Y-96308701D01*
X161589890Y-96308701D01*
X161589890Y-97891299D01*
X161675915Y-98323773D01*
X161920892Y-98690407D01*
X162287526Y-98935384D01*
X162720000Y-99021409D01*
X163152474Y-98935384D01*
X163519108Y-98690407D01*
X163764085Y-98323773D01*
X163850110Y-97891299D01*
X163850110Y-96308701D01*
X164129890Y-96308701D01*
X164129890Y-97891299D01*
X164215915Y-98323773D01*
X164460892Y-98690407D01*
X164827526Y-98935384D01*
X165260000Y-99021409D01*
X165692474Y-98935384D01*
X166059108Y-98690407D01*
X166304085Y-98323773D01*
X166390110Y-97891299D01*
X166390110Y-96308701D01*
X166304085Y-95876227D01*
X166059108Y-95509593D01*
X165692474Y-95264616D01*
X165260000Y-95178591D01*
X164827526Y-95264616D01*
X164460892Y-95509593D01*
X164215915Y-95876227D01*
X164129890Y-96308701D01*
X163850110Y-96308701D01*
X163764085Y-95876227D01*
X163519108Y-95509593D01*
X163152474Y-95264616D01*
X162720000Y-95178591D01*
X162287526Y-95264616D01*
X161920892Y-95509593D01*
X161675915Y-95876227D01*
X161589890Y-96308701D01*
X161310110Y-96308701D01*
X161224085Y-95876227D01*
X160979108Y-95509593D01*
X160612474Y-95264616D01*
X160180000Y-95178591D01*
X159747526Y-95264616D01*
X159380892Y-95509593D01*
X159135915Y-95876227D01*
X159049890Y-96308701D01*
X158770110Y-96308701D01*
X158684085Y-95876227D01*
X158439108Y-95509593D01*
X158072474Y-95264616D01*
X157752000Y-95200869D01*
X157752000Y-90300000D01*
X157717594Y-90127027D01*
X157619612Y-89980388D01*
X157472973Y-89882406D01*
X157300000Y-89848000D01*
X147287090Y-89848000D01*
X149341690Y-87793400D01*
X150249215Y-87793400D01*
X150249215Y-89266400D01*
X150275503Y-89406108D01*
X150358070Y-89534420D01*
X150484053Y-89620501D01*
X150633600Y-89650785D01*
X156033600Y-89650785D01*
X156173308Y-89624497D01*
X156301620Y-89541930D01*
X156387701Y-89415947D01*
X156417985Y-89266400D01*
X156417985Y-84452000D01*
X159348000Y-84452000D01*
X159348000Y-93400000D01*
X159348000Y-93400000D01*
G37*
X159348000Y-93400000D02*
X159382406Y-93572973D01*
X159480388Y-93719612D01*
X159627027Y-93817594D01*
X159800000Y-93852000D01*
X171048000Y-93852000D01*
X171048000Y-100616088D01*
X170597956Y-100166044D01*
X170552529Y-100135691D01*
X170394543Y-100030128D01*
X170154600Y-99982400D01*
X167360600Y-99982400D01*
X167284541Y-99997529D01*
X168137290Y-99144780D01*
X168240691Y-98990031D01*
X168254486Y-98920676D01*
X168599108Y-98690407D01*
X168844085Y-98323773D01*
X168930110Y-97891299D01*
X168930110Y-96308701D01*
X168844085Y-95876227D01*
X168599108Y-95509593D01*
X168232474Y-95264616D01*
X167800000Y-95178591D01*
X167367526Y-95264616D01*
X167000892Y-95509593D01*
X166755915Y-95876227D01*
X166669890Y-96308701D01*
X166669890Y-97891299D01*
X166755915Y-98323773D01*
X167000892Y-98690407D01*
X167145727Y-98787183D01*
X166116910Y-99816000D01*
X162832144Y-99816000D01*
X162765530Y-99712480D01*
X162639547Y-99626399D01*
X162490000Y-99596115D01*
X161990000Y-99596115D01*
X161850292Y-99622403D01*
X161764497Y-99677611D01*
X161689547Y-99626399D01*
X161540000Y-99596115D01*
X161040000Y-99596115D01*
X160900292Y-99622403D01*
X160814497Y-99677611D01*
X160739547Y-99626399D01*
X160590000Y-99596115D01*
X160090000Y-99596115D01*
X159950292Y-99622403D01*
X159916030Y-99644450D01*
X159629290Y-99357710D01*
X159474540Y-99254309D01*
X159292000Y-99218000D01*
X151762820Y-99218000D01*
X151666390Y-99121402D01*
X151417654Y-99018118D01*
X151148327Y-99017883D01*
X150899411Y-99120733D01*
X150708802Y-99311010D01*
X150605518Y-99559746D01*
X150605283Y-99829073D01*
X150700122Y-100058600D01*
X150248039Y-100058600D01*
X150237730Y-100042580D01*
X150111747Y-99956499D01*
X149962200Y-99926215D01*
X148762200Y-99926215D01*
X148622492Y-99952503D01*
X148605673Y-99963326D01*
X148600527Y-99950901D01*
X148421898Y-99772273D01*
X148188509Y-99675600D01*
X147747950Y-99675600D01*
X147589200Y-99834350D01*
X147589200Y-100558600D01*
X147609200Y-100558600D01*
X147609200Y-100812600D01*
X147589200Y-100812600D01*
X147589200Y-101536850D01*
X147747950Y-101695600D01*
X148188509Y-101695600D01*
X148421898Y-101598927D01*
X148600527Y-101420299D01*
X148605009Y-101409478D01*
X148612653Y-101414701D01*
X148762200Y-101444985D01*
X149962200Y-101444985D01*
X150101908Y-101418697D01*
X150230220Y-101336130D01*
X150246297Y-101312600D01*
X152187642Y-101312600D01*
X152116980Y-101358070D01*
X152030899Y-101484053D01*
X152000615Y-101633600D01*
X152000615Y-103133600D01*
X152026903Y-103273308D01*
X152109470Y-103401620D01*
X152235453Y-103487701D01*
X152385000Y-103517985D01*
X153394805Y-103517985D01*
X153575420Y-103698600D01*
X153320750Y-103698600D01*
X153162000Y-103857350D01*
X153162000Y-104956600D01*
X154161250Y-104956600D01*
X154320000Y-104797850D01*
X154320000Y-104443180D01*
X154357910Y-104481090D01*
X154512659Y-104584491D01*
X154695200Y-104620800D01*
X156344015Y-104620800D01*
X156344015Y-104893800D01*
X156370303Y-105033508D01*
X156452870Y-105161820D01*
X156578853Y-105247901D01*
X156728400Y-105278185D01*
X158028400Y-105278185D01*
X158168108Y-105251897D01*
X158296420Y-105169330D01*
X158382501Y-105043347D01*
X158412785Y-104893800D01*
X158412785Y-104515400D01*
X158472780Y-104515400D01*
X158569210Y-104611998D01*
X158817946Y-104715282D01*
X159087273Y-104715517D01*
X159336189Y-104612667D01*
X159526798Y-104422390D01*
X159630082Y-104173654D01*
X159630317Y-103904327D01*
X159527467Y-103655411D01*
X159337190Y-103464802D01*
X159277941Y-103440200D01*
X159513989Y-103342667D01*
X159636870Y-103220000D01*
X159747856Y-103220000D01*
X159814470Y-103323520D01*
X159940453Y-103409601D01*
X160090000Y-103439885D01*
X160526360Y-103439885D01*
X160680301Y-103593827D01*
X160913690Y-103690500D01*
X161006250Y-103690500D01*
X161165000Y-103531750D01*
X161165000Y-102870000D01*
X161143000Y-102870000D01*
X161143000Y-102616000D01*
X161165000Y-102616000D01*
X161165000Y-102596000D01*
X161415000Y-102596000D01*
X161415000Y-102616000D01*
X161437000Y-102616000D01*
X161437000Y-102870000D01*
X161415000Y-102870000D01*
X161415000Y-103531750D01*
X161573750Y-103690500D01*
X161666310Y-103690500D01*
X161899699Y-103593827D01*
X162053640Y-103439885D01*
X162490000Y-103439885D01*
X162629708Y-103413597D01*
X162758020Y-103331030D01*
X162844101Y-103205047D01*
X162847400Y-103188756D01*
X162847400Y-103372288D01*
X162757488Y-103462200D01*
X162386000Y-103462200D01*
X162146058Y-103509927D01*
X161942644Y-103645844D01*
X161242844Y-104345644D01*
X161106928Y-104549057D01*
X161059200Y-104789000D01*
X161059200Y-104909695D01*
X160946492Y-104930903D01*
X160818180Y-105013470D01*
X160732099Y-105139453D01*
X160701815Y-105289000D01*
X160701815Y-106039000D01*
X160728103Y-106178708D01*
X160743735Y-106203000D01*
X160102200Y-106203000D01*
X159919660Y-106239309D01*
X159764910Y-106342710D01*
X159624496Y-106483124D01*
X159578330Y-106411380D01*
X159452347Y-106325299D01*
X159302800Y-106295015D01*
X158552800Y-106295015D01*
X158413092Y-106321303D01*
X158284780Y-106403870D01*
X158198699Y-106529853D01*
X158168415Y-106679400D01*
X158168415Y-107879400D01*
X158194703Y-108019108D01*
X158277270Y-108147420D01*
X158398831Y-108230480D01*
X158284780Y-108303870D01*
X158230821Y-108382841D01*
X158197290Y-108349310D01*
X158042540Y-108245909D01*
X157860000Y-108209600D01*
X157022800Y-108209600D01*
X156840260Y-108245909D01*
X156685510Y-108349310D01*
X156029585Y-109005235D01*
X156029585Y-108427000D01*
X156003297Y-108287292D01*
X155992474Y-108270473D01*
X156004899Y-108265327D01*
X156183527Y-108086698D01*
X156280200Y-107853309D01*
X156280200Y-107412750D01*
X156121450Y-107254000D01*
X155397200Y-107254000D01*
X155397200Y-107274000D01*
X155143200Y-107274000D01*
X155143200Y-107254000D01*
X154418950Y-107254000D01*
X154260200Y-107412750D01*
X154260200Y-107853309D01*
X154356873Y-108086698D01*
X154535501Y-108265327D01*
X154546322Y-108269809D01*
X154541099Y-108277453D01*
X154510815Y-108427000D01*
X154510815Y-108539800D01*
X154350985Y-108539800D01*
X154350985Y-108366800D01*
X154324697Y-108227092D01*
X154242130Y-108098780D01*
X154116147Y-108012699D01*
X153966600Y-107982415D01*
X152756795Y-107982415D01*
X150143730Y-105369350D01*
X151750000Y-105369350D01*
X151750000Y-105959909D01*
X151846673Y-106193298D01*
X152025301Y-106371927D01*
X152258690Y-106468600D01*
X152749250Y-106468600D01*
X152908000Y-106309850D01*
X152908000Y-105210600D01*
X153162000Y-105210600D01*
X153162000Y-106309850D01*
X153320750Y-106468600D01*
X153811310Y-106468600D01*
X153975256Y-106400691D01*
X154260200Y-106400691D01*
X154260200Y-106841250D01*
X154418950Y-107000000D01*
X155143200Y-107000000D01*
X155143200Y-106050750D01*
X155397200Y-106050750D01*
X155397200Y-107000000D01*
X156121450Y-107000000D01*
X156280200Y-106841250D01*
X156280200Y-106400691D01*
X156183527Y-106167302D01*
X156004899Y-105988673D01*
X155771510Y-105892000D01*
X155555950Y-105892000D01*
X155397200Y-106050750D01*
X155143200Y-106050750D01*
X154984450Y-105892000D01*
X154768890Y-105892000D01*
X154535501Y-105988673D01*
X154356873Y-106167302D01*
X154260200Y-106400691D01*
X153975256Y-106400691D01*
X154044699Y-106371927D01*
X154223327Y-106193298D01*
X154320000Y-105959909D01*
X154320000Y-105369350D01*
X154161250Y-105210600D01*
X153162000Y-105210600D01*
X152908000Y-105210600D01*
X151908750Y-105210600D01*
X151750000Y-105369350D01*
X150143730Y-105369350D01*
X149923290Y-105148910D01*
X149768540Y-105045509D01*
X149586000Y-105009200D01*
X147724220Y-105009200D01*
X147627790Y-104912602D01*
X147379054Y-104809318D01*
X147109727Y-104809083D01*
X146860811Y-104911933D01*
X146670202Y-105102210D01*
X146625660Y-105209480D01*
X146606185Y-105190005D01*
X146606185Y-104490000D01*
X146579897Y-104350292D01*
X146569074Y-104333473D01*
X146581499Y-104328327D01*
X146702534Y-104207291D01*
X151750000Y-104207291D01*
X151750000Y-104797850D01*
X151908750Y-104956600D01*
X152908000Y-104956600D01*
X152908000Y-103857350D01*
X152749250Y-103698600D01*
X152258690Y-103698600D01*
X152025301Y-103795273D01*
X151846673Y-103973902D01*
X151750000Y-104207291D01*
X146702534Y-104207291D01*
X146760127Y-104149698D01*
X146856800Y-103916309D01*
X146856800Y-103475750D01*
X146698050Y-103317000D01*
X145973800Y-103317000D01*
X145973800Y-103337000D01*
X145719800Y-103337000D01*
X145719800Y-103317000D01*
X144995550Y-103317000D01*
X144836800Y-103475750D01*
X144836800Y-103916309D01*
X144933473Y-104149698D01*
X145112101Y-104328327D01*
X145122922Y-104332809D01*
X145117699Y-104340453D01*
X145087415Y-104490000D01*
X145087415Y-105690000D01*
X145113703Y-105829708D01*
X145196270Y-105958020D01*
X145322253Y-106044101D01*
X145369800Y-106053730D01*
X145369800Y-107670820D01*
X145058205Y-107982415D01*
X143848400Y-107982415D01*
X143708692Y-108008703D01*
X143580380Y-108091270D01*
X143513182Y-108189616D01*
X143385990Y-108062202D01*
X143137254Y-107958918D01*
X142867927Y-107958683D01*
X142752560Y-108006352D01*
X142752560Y-107667635D01*
X142887140Y-107667635D01*
X143041081Y-107821577D01*
X143274470Y-107918250D01*
X143329660Y-107918250D01*
X143488410Y-107759500D01*
X143488410Y-106710480D01*
X143663670Y-106710480D01*
X143663670Y-107759500D01*
X143822420Y-107918250D01*
X143877610Y-107918250D01*
X144110999Y-107821577D01*
X144289627Y-107642948D01*
X144386300Y-107409559D01*
X144386300Y-106869230D01*
X144227550Y-106710480D01*
X143663670Y-106710480D01*
X143488410Y-106710480D01*
X143485445Y-106710480D01*
X143485445Y-106456480D01*
X143488410Y-106456480D01*
X143488410Y-105407460D01*
X143663670Y-105407460D01*
X143663670Y-106456480D01*
X144227550Y-106456480D01*
X144386300Y-106297730D01*
X144386300Y-105757401D01*
X144289627Y-105524012D01*
X144110999Y-105345383D01*
X143877610Y-105248710D01*
X143822420Y-105248710D01*
X143663670Y-105407460D01*
X143488410Y-105407460D01*
X143329660Y-105248710D01*
X143274470Y-105248710D01*
X143041081Y-105345383D01*
X142887140Y-105499325D01*
X142750540Y-105499325D01*
X142610832Y-105525613D01*
X142602431Y-105531019D01*
X142600367Y-105529609D01*
X142450820Y-105499325D01*
X142100300Y-105499325D01*
X141960592Y-105525613D01*
X141952191Y-105531019D01*
X141950127Y-105529609D01*
X141800580Y-105499325D01*
X141450060Y-105499325D01*
X141310352Y-105525613D01*
X141301951Y-105531019D01*
X141299887Y-105529609D01*
X141150340Y-105499325D01*
X140844978Y-105499325D01*
X140811725Y-105332151D01*
X140776720Y-105279763D01*
X140776720Y-103904368D01*
X140736605Y-103702694D01*
X140622365Y-103531723D01*
X140201597Y-103110955D01*
X140030627Y-102996715D01*
X139828952Y-102956600D01*
X134177800Y-102956600D01*
X134177800Y-101118670D01*
X138214100Y-101118670D01*
X138214100Y-101658999D01*
X138310773Y-101892388D01*
X138489401Y-102071017D01*
X138722790Y-102167690D01*
X138777980Y-102167690D01*
X138936730Y-102008940D01*
X138936730Y-100959920D01*
X138372850Y-100959920D01*
X138214100Y-101118670D01*
X134177800Y-101118670D01*
X134177800Y-100006841D01*
X138214100Y-100006841D01*
X138214100Y-100547170D01*
X138372850Y-100705920D01*
X138936730Y-100705920D01*
X138936730Y-99656900D01*
X139111990Y-99656900D01*
X139111990Y-100705920D01*
X139114955Y-100705920D01*
X139114955Y-100959920D01*
X139111990Y-100959920D01*
X139111990Y-102008940D01*
X139270740Y-102167690D01*
X139325930Y-102167690D01*
X139403068Y-102135738D01*
X140144420Y-102877090D01*
X140299170Y-102980491D01*
X140481710Y-103016800D01*
X141918561Y-103016800D01*
X141918483Y-103105673D01*
X142021333Y-103354589D01*
X142211610Y-103545198D01*
X142460346Y-103648482D01*
X142729673Y-103648717D01*
X142978589Y-103545867D01*
X143169198Y-103355590D01*
X143272482Y-103106854D01*
X143272717Y-102837527D01*
X143169867Y-102588611D01*
X143045165Y-102463691D01*
X144836800Y-102463691D01*
X144836800Y-102904250D01*
X144995550Y-103063000D01*
X145719800Y-103063000D01*
X145719800Y-102113750D01*
X145973800Y-102113750D01*
X145973800Y-103063000D01*
X146698050Y-103063000D01*
X146856800Y-102904250D01*
X146856800Y-102463691D01*
X146760127Y-102230302D01*
X146581499Y-102051673D01*
X146348110Y-101955000D01*
X146132550Y-101955000D01*
X145973800Y-102113750D01*
X145719800Y-102113750D01*
X145561050Y-101955000D01*
X145345490Y-101955000D01*
X145112101Y-102051673D01*
X144933473Y-102230302D01*
X144836800Y-102463691D01*
X143045165Y-102463691D01*
X142979590Y-102398002D01*
X142730854Y-102294718D01*
X142593178Y-102294598D01*
X142501090Y-102202510D01*
X142402562Y-102136675D01*
X142402562Y-102075872D01*
X142449610Y-102095360D01*
X142521940Y-102167690D01*
X142577130Y-102167690D01*
X142600680Y-102157935D01*
X142624230Y-102167690D01*
X142679420Y-102167690D01*
X142751750Y-102095360D01*
X142810519Y-102071017D01*
X142925800Y-101955735D01*
X143041081Y-102071017D01*
X143099850Y-102095360D01*
X143172180Y-102167690D01*
X143227370Y-102167690D01*
X143250920Y-102157935D01*
X143274470Y-102167690D01*
X143329660Y-102167690D01*
X143401990Y-102095360D01*
X143460759Y-102071017D01*
X143639387Y-101892388D01*
X143663670Y-101833764D01*
X143663670Y-102008940D01*
X143822420Y-102167690D01*
X143877610Y-102167690D01*
X144110999Y-102071017D01*
X144289627Y-101892388D01*
X144386300Y-101658999D01*
X144386300Y-101118670D01*
X144238980Y-100971350D01*
X146227200Y-100971350D01*
X146227200Y-101186910D01*
X146323873Y-101420299D01*
X146502502Y-101598927D01*
X146735891Y-101695600D01*
X147176450Y-101695600D01*
X147335200Y-101536850D01*
X147335200Y-100812600D01*
X146385950Y-100812600D01*
X146227200Y-100971350D01*
X144238980Y-100971350D01*
X144227550Y-100959920D01*
X143663670Y-100959920D01*
X143663670Y-101046280D01*
X143577310Y-100959920D01*
X142778800Y-100959920D01*
X142778800Y-100705920D01*
X143577310Y-100705920D01*
X143663670Y-100619560D01*
X143663670Y-100705920D01*
X144227550Y-100705920D01*
X144386300Y-100547170D01*
X144386300Y-100184290D01*
X146227200Y-100184290D01*
X146227200Y-100399850D01*
X146385950Y-100558600D01*
X147335200Y-100558600D01*
X147335200Y-99834350D01*
X147176450Y-99675600D01*
X146735891Y-99675600D01*
X146502502Y-99772273D01*
X146323873Y-99950901D01*
X146227200Y-100184290D01*
X144386300Y-100184290D01*
X144386300Y-100006841D01*
X144289627Y-99773452D01*
X144110999Y-99594823D01*
X143877610Y-99498150D01*
X143822420Y-99498150D01*
X143663670Y-99656900D01*
X143663670Y-99832076D01*
X143639387Y-99773452D01*
X143460759Y-99594823D01*
X143401990Y-99570480D01*
X143329660Y-99498150D01*
X143274470Y-99498150D01*
X143250920Y-99507905D01*
X143227370Y-99498150D01*
X143172180Y-99498150D01*
X143099850Y-99570480D01*
X143041081Y-99594823D01*
X142925800Y-99710105D01*
X142810519Y-99594823D01*
X142751750Y-99570480D01*
X142679420Y-99498150D01*
X142624230Y-99498150D01*
X142600680Y-99507905D01*
X142577130Y-99498150D01*
X142521940Y-99498150D01*
X142449610Y-99570480D01*
X142390841Y-99594823D01*
X142212213Y-99773452D01*
X142187930Y-99832076D01*
X142187930Y-99656900D01*
X142029180Y-99498150D01*
X141973990Y-99498150D01*
X141740601Y-99594823D01*
X141586660Y-99748765D01*
X141450060Y-99748765D01*
X141310352Y-99775053D01*
X141301951Y-99780459D01*
X141299887Y-99779049D01*
X141150340Y-99748765D01*
X140799820Y-99748765D01*
X140660112Y-99775053D01*
X140651711Y-99780459D01*
X140649647Y-99779049D01*
X140500100Y-99748765D01*
X140149580Y-99748765D01*
X140009872Y-99775053D01*
X140001471Y-99780459D01*
X139999407Y-99779049D01*
X139849860Y-99748765D01*
X139713260Y-99748765D01*
X139559319Y-99594823D01*
X139325930Y-99498150D01*
X139270740Y-99498150D01*
X139111990Y-99656900D01*
X138936730Y-99656900D01*
X138777980Y-99498150D01*
X138722790Y-99498150D01*
X138489401Y-99594823D01*
X138310773Y-99773452D01*
X138214100Y-100006841D01*
X134177800Y-100006841D01*
X134177800Y-98991875D01*
X135533110Y-98991875D01*
X135672818Y-98965587D01*
X135801130Y-98883020D01*
X135887211Y-98757037D01*
X135917495Y-98607490D01*
X135917495Y-96052000D01*
X136240951Y-96052000D01*
X136189890Y-96308701D01*
X136189890Y-97891299D01*
X136275915Y-98323773D01*
X136520892Y-98690407D01*
X136887526Y-98935384D01*
X137320000Y-99021409D01*
X137752474Y-98935384D01*
X138119108Y-98690407D01*
X138364085Y-98323773D01*
X138450110Y-97891299D01*
X138450110Y-97227000D01*
X138471890Y-97227000D01*
X138471890Y-97981380D01*
X138626154Y-98502919D01*
X138968260Y-98925724D01*
X139446125Y-99185427D01*
X139518326Y-99199783D01*
X139733000Y-99077162D01*
X139733000Y-97227000D01*
X139987000Y-97227000D01*
X139987000Y-99077162D01*
X140201674Y-99199783D01*
X140273875Y-99185427D01*
X140751740Y-98925724D01*
X141093846Y-98502919D01*
X141248110Y-97981380D01*
X141248110Y-97227000D01*
X139987000Y-97227000D01*
X139733000Y-97227000D01*
X138471890Y-97227000D01*
X138450110Y-97227000D01*
X138450110Y-96308701D01*
X138399049Y-96052000D01*
X138521174Y-96052000D01*
X138471890Y-96218620D01*
X138471890Y-96973000D01*
X139733000Y-96973000D01*
X139733000Y-96953000D01*
X139987000Y-96953000D01*
X139987000Y-96973000D01*
X141248110Y-96973000D01*
X141248110Y-96218620D01*
X141198826Y-96052000D01*
X141320951Y-96052000D01*
X141269890Y-96308701D01*
X141269890Y-97891299D01*
X141355915Y-98323773D01*
X141600892Y-98690407D01*
X141967526Y-98935384D01*
X142400000Y-99021409D01*
X142832474Y-98935384D01*
X143199108Y-98690407D01*
X143444085Y-98323773D01*
X143530110Y-97891299D01*
X143530110Y-96308701D01*
X143479049Y-96052000D01*
X143860951Y-96052000D01*
X143809890Y-96308701D01*
X143809890Y-97891299D01*
X143895915Y-98323773D01*
X144140892Y-98690407D01*
X144507526Y-98935384D01*
X144940000Y-99021409D01*
X145372474Y-98935384D01*
X145739108Y-98690407D01*
X145984085Y-98323773D01*
X146070110Y-97891299D01*
X146070110Y-96308701D01*
X146019049Y-96052000D01*
X146400951Y-96052000D01*
X146349890Y-96308701D01*
X146349890Y-97891299D01*
X146435915Y-98323773D01*
X146680892Y-98690407D01*
X147047526Y-98935384D01*
X147480000Y-99021409D01*
X147912474Y-98935384D01*
X148279108Y-98690407D01*
X148524085Y-98323773D01*
X148610110Y-97891299D01*
X148610110Y-96308701D01*
X148559049Y-96052000D01*
X148940951Y-96052000D01*
X148889890Y-96308701D01*
X148889890Y-97891299D01*
X148975915Y-98323773D01*
X149220892Y-98690407D01*
X149587526Y-98935384D01*
X150020000Y-99021409D01*
X150452474Y-98935384D01*
X150819108Y-98690407D01*
X151064085Y-98323773D01*
X151150110Y-97891299D01*
X151150110Y-96308701D01*
X151099049Y-96052000D01*
X151480951Y-96052000D01*
X151429890Y-96308701D01*
X151429890Y-97891299D01*
X151515915Y-98323773D01*
X151760892Y-98690407D01*
X152127526Y-98935384D01*
X152560000Y-99021409D01*
X152992474Y-98935384D01*
X153359108Y-98690407D01*
X153604085Y-98323773D01*
X153690110Y-97891299D01*
X153690110Y-96308701D01*
X153639049Y-96052000D01*
X154020951Y-96052000D01*
X153969890Y-96308701D01*
X153969890Y-97891299D01*
X154055915Y-98323773D01*
X154300892Y-98690407D01*
X154667526Y-98935384D01*
X155100000Y-99021409D01*
X155532474Y-98935384D01*
X155899108Y-98690407D01*
X156144085Y-98323773D01*
X156230110Y-97891299D01*
X156230110Y-96308701D01*
X156179049Y-96052000D01*
X156560951Y-96052000D01*
X156509890Y-96308701D01*
X156509890Y-97891299D01*
X156595915Y-98323773D01*
X156840892Y-98690407D01*
X157207526Y-98935384D01*
X157640000Y-99021409D01*
X158072474Y-98935384D01*
X158439108Y-98690407D01*
X158684085Y-98323773D01*
X158770110Y-97891299D01*
X158770110Y-96308701D01*
X159049890Y-96308701D01*
X159049890Y-97891299D01*
X159135915Y-98323773D01*
X159380892Y-98690407D01*
X159747526Y-98935384D01*
X160180000Y-99021409D01*
X160612474Y-98935384D01*
X160979108Y-98690407D01*
X161224085Y-98323773D01*
X161310110Y-97891299D01*
X161310110Y-96308701D01*
X161589890Y-96308701D01*
X161589890Y-97891299D01*
X161675915Y-98323773D01*
X161920892Y-98690407D01*
X162287526Y-98935384D01*
X162720000Y-99021409D01*
X163152474Y-98935384D01*
X163519108Y-98690407D01*
X163764085Y-98323773D01*
X163850110Y-97891299D01*
X163850110Y-96308701D01*
X164129890Y-96308701D01*
X164129890Y-97891299D01*
X164215915Y-98323773D01*
X164460892Y-98690407D01*
X164827526Y-98935384D01*
X165260000Y-99021409D01*
X165692474Y-98935384D01*
X166059108Y-98690407D01*
X166304085Y-98323773D01*
X166390110Y-97891299D01*
X166390110Y-96308701D01*
X166304085Y-95876227D01*
X166059108Y-95509593D01*
X165692474Y-95264616D01*
X165260000Y-95178591D01*
X164827526Y-95264616D01*
X164460892Y-95509593D01*
X164215915Y-95876227D01*
X164129890Y-96308701D01*
X163850110Y-96308701D01*
X163764085Y-95876227D01*
X163519108Y-95509593D01*
X163152474Y-95264616D01*
X162720000Y-95178591D01*
X162287526Y-95264616D01*
X161920892Y-95509593D01*
X161675915Y-95876227D01*
X161589890Y-96308701D01*
X161310110Y-96308701D01*
X161224085Y-95876227D01*
X160979108Y-95509593D01*
X160612474Y-95264616D01*
X160180000Y-95178591D01*
X159747526Y-95264616D01*
X159380892Y-95509593D01*
X159135915Y-95876227D01*
X159049890Y-96308701D01*
X158770110Y-96308701D01*
X158684085Y-95876227D01*
X158439108Y-95509593D01*
X158072474Y-95264616D01*
X157752000Y-95200869D01*
X157752000Y-90300000D01*
X157717594Y-90127027D01*
X157619612Y-89980388D01*
X157472973Y-89882406D01*
X157300000Y-89848000D01*
X147287090Y-89848000D01*
X149341690Y-87793400D01*
X150249215Y-87793400D01*
X150249215Y-89266400D01*
X150275503Y-89406108D01*
X150358070Y-89534420D01*
X150484053Y-89620501D01*
X150633600Y-89650785D01*
X156033600Y-89650785D01*
X156173308Y-89624497D01*
X156301620Y-89541930D01*
X156387701Y-89415947D01*
X156417985Y-89266400D01*
X156417985Y-84452000D01*
X159348000Y-84452000D01*
X159348000Y-93400000D01*
G36*
X167155400Y-108215600D02*
X167177400Y-108215600D01*
X167177400Y-108469600D01*
X167155400Y-108469600D01*
X167155400Y-108489600D01*
X166905400Y-108489600D01*
X166905400Y-108469600D01*
X166883400Y-108469600D01*
X166883400Y-108215600D01*
X166905400Y-108215600D01*
X166905400Y-108195600D01*
X167155400Y-108195600D01*
X167155400Y-108215600D01*
X167155400Y-108215600D01*
G37*
X167155400Y-108215600D02*
X167177400Y-108215600D01*
X167177400Y-108469600D01*
X167155400Y-108469600D01*
X167155400Y-108489600D01*
X166905400Y-108489600D01*
X166905400Y-108469600D01*
X166883400Y-108469600D01*
X166883400Y-108215600D01*
X166905400Y-108215600D01*
X166905400Y-108195600D01*
X167155400Y-108195600D01*
X167155400Y-108215600D01*
G36*
X146555109Y-89089401D02*
X146546330Y-89089401D01*
X146557289Y-89087221D01*
X146555109Y-89089401D01*
X146555109Y-89089401D01*
G37*
X146555109Y-89089401D02*
X146546330Y-89089401D01*
X146557289Y-89087221D01*
X146555109Y-89089401D01*
G36*
X145050421Y-88636744D02*
X145177507Y-88861013D01*
X145210572Y-88899068D01*
X145255838Y-88921260D01*
X145286016Y-88925384D01*
X145487103Y-88928526D01*
X145581292Y-88991461D01*
X146073670Y-89089401D01*
X144983200Y-89089401D01*
X144983200Y-88591828D01*
X145050421Y-88636744D01*
X145050421Y-88636744D01*
G37*
X145050421Y-88636744D02*
X145177507Y-88861013D01*
X145210572Y-88899068D01*
X145255838Y-88921260D01*
X145286016Y-88925384D01*
X145487103Y-88928526D01*
X145581292Y-88991461D01*
X146073670Y-89089401D01*
X144983200Y-89089401D01*
X144983200Y-88591828D01*
X145050421Y-88636744D01*
G36*
X150215600Y-86739400D02*
X149123400Y-86739400D01*
X148955185Y-86772860D01*
X148921725Y-86779515D01*
X148750755Y-86893755D01*
X148165016Y-87479494D01*
X148214205Y-87232205D01*
X148069256Y-86503497D01*
X148030173Y-86445006D01*
X148031180Y-86387628D01*
X148022043Y-86338050D01*
X147991401Y-86293069D01*
X147821323Y-86132440D01*
X147656476Y-85885729D01*
X147327002Y-85665581D01*
X147077001Y-85429469D01*
X147034209Y-85402818D01*
X146989800Y-85394800D01*
X146645826Y-85394800D01*
X146310000Y-85328000D01*
X145974174Y-85394800D01*
X145770600Y-85394800D01*
X145700799Y-85415702D01*
X145627865Y-85463685D01*
X145581292Y-85472949D01*
X144963524Y-85885729D01*
X144945613Y-85912535D01*
X144935379Y-85919268D01*
X144953720Y-84452000D01*
X150215600Y-84452000D01*
X150215600Y-86739400D01*
X150215600Y-86739400D01*
G37*
X150215600Y-86739400D02*
X149123400Y-86739400D01*
X148955185Y-86772860D01*
X148921725Y-86779515D01*
X148750755Y-86893755D01*
X148165016Y-87479494D01*
X148214205Y-87232205D01*
X148069256Y-86503497D01*
X148030173Y-86445006D01*
X148031180Y-86387628D01*
X148022043Y-86338050D01*
X147991401Y-86293069D01*
X147821323Y-86132440D01*
X147656476Y-85885729D01*
X147327002Y-85665581D01*
X147077001Y-85429469D01*
X147034209Y-85402818D01*
X146989800Y-85394800D01*
X146645826Y-85394800D01*
X146310000Y-85328000D01*
X145974174Y-85394800D01*
X145770600Y-85394800D01*
X145700799Y-85415702D01*
X145627865Y-85463685D01*
X145581292Y-85472949D01*
X144963524Y-85885729D01*
X144945613Y-85912535D01*
X144935379Y-85919268D01*
X144953720Y-84452000D01*
X150215600Y-84452000D01*
X150215600Y-86739400D01*
G36*
X138256599Y-89546401D02*
X138296714Y-89748076D01*
X138363482Y-89848000D01*
X135300000Y-89848000D01*
X135127027Y-89882406D01*
X134980388Y-89980388D01*
X134882406Y-90127027D01*
X134848000Y-90300000D01*
X134848000Y-95119398D01*
X134177800Y-95112113D01*
X134177800Y-87793400D01*
X138256599Y-87793400D01*
X138256599Y-89546401D01*
X138256599Y-89546401D01*
G37*
X138256599Y-89546401D02*
X138296714Y-89748076D01*
X138363482Y-89848000D01*
X135300000Y-89848000D01*
X135127027Y-89882406D01*
X134980388Y-89980388D01*
X134882406Y-90127027D01*
X134848000Y-90300000D01*
X134848000Y-95119398D01*
X134177800Y-95112113D01*
X134177800Y-87793400D01*
X138256599Y-87793400D01*
X138256599Y-89546401D01*
G36*
X138684000Y-85979892D02*
X138486308Y-85979892D01*
X138457033Y-85985715D01*
X138453800Y-85985442D01*
X138453800Y-85387371D01*
X138447978Y-85358100D01*
X138450486Y-85328363D01*
X138442964Y-85261606D01*
X138424982Y-85205188D01*
X138416704Y-85146555D01*
X138394516Y-85083146D01*
X138364430Y-85032143D01*
X138343313Y-84976823D01*
X138307572Y-84919941D01*
X138266890Y-84876911D01*
X138233994Y-84827678D01*
X138186491Y-84780176D01*
X138137260Y-84747281D01*
X138094229Y-84706598D01*
X138037348Y-84670857D01*
X137982026Y-84649739D01*
X137931024Y-84619654D01*
X137867615Y-84597466D01*
X137808979Y-84589188D01*
X137752556Y-84571205D01*
X137685801Y-84563684D01*
X137626799Y-84568661D01*
X137567800Y-84563684D01*
X137501043Y-84571205D01*
X137444620Y-84589188D01*
X137385984Y-84597466D01*
X137322575Y-84619654D01*
X137271572Y-84649740D01*
X137216252Y-84670857D01*
X137159370Y-84706598D01*
X137126800Y-84737391D01*
X137094229Y-84706598D01*
X137037348Y-84670857D01*
X136982026Y-84649739D01*
X136931024Y-84619654D01*
X136867615Y-84597466D01*
X136808979Y-84589188D01*
X136752556Y-84571205D01*
X136685801Y-84563684D01*
X136626799Y-84568661D01*
X136567800Y-84563684D01*
X136501043Y-84571205D01*
X136444620Y-84589188D01*
X136385984Y-84597466D01*
X136322575Y-84619654D01*
X136271572Y-84649740D01*
X136216252Y-84670857D01*
X136159370Y-84706598D01*
X136126800Y-84737391D01*
X136094229Y-84706598D01*
X136037348Y-84670857D01*
X135982026Y-84649739D01*
X135931024Y-84619654D01*
X135867615Y-84597466D01*
X135808979Y-84589188D01*
X135752556Y-84571205D01*
X135685801Y-84563684D01*
X135626799Y-84568661D01*
X135567800Y-84563684D01*
X135501043Y-84571205D01*
X135444620Y-84589188D01*
X135385984Y-84597466D01*
X135322575Y-84619654D01*
X135271572Y-84649740D01*
X135216252Y-84670857D01*
X135159370Y-84706598D01*
X135116340Y-84747280D01*
X135067107Y-84780176D01*
X135019605Y-84827679D01*
X134986710Y-84876910D01*
X134946027Y-84919941D01*
X134910286Y-84976822D01*
X134889168Y-85032144D01*
X134859083Y-85083146D01*
X134836895Y-85146555D01*
X134828617Y-85205193D01*
X134810634Y-85261615D01*
X134803113Y-85328371D01*
X134805621Y-85358105D01*
X134799800Y-85387371D01*
X134799800Y-86239400D01*
X133504448Y-86239400D01*
X133302774Y-86279515D01*
X133252000Y-86313441D01*
X133252000Y-84452000D01*
X138684000Y-84452000D01*
X138684000Y-85979892D01*
X138684000Y-85979892D01*
G37*
X138684000Y-85979892D02*
X138486308Y-85979892D01*
X138457033Y-85985715D01*
X138453800Y-85985442D01*
X138453800Y-85387371D01*
X138447978Y-85358100D01*
X138450486Y-85328363D01*
X138442964Y-85261606D01*
X138424982Y-85205188D01*
X138416704Y-85146555D01*
X138394516Y-85083146D01*
X138364430Y-85032143D01*
X138343313Y-84976823D01*
X138307572Y-84919941D01*
X138266890Y-84876911D01*
X138233994Y-84827678D01*
X138186491Y-84780176D01*
X138137260Y-84747281D01*
X138094229Y-84706598D01*
X138037348Y-84670857D01*
X137982026Y-84649739D01*
X137931024Y-84619654D01*
X137867615Y-84597466D01*
X137808979Y-84589188D01*
X137752556Y-84571205D01*
X137685801Y-84563684D01*
X137626799Y-84568661D01*
X137567800Y-84563684D01*
X137501043Y-84571205D01*
X137444620Y-84589188D01*
X137385984Y-84597466D01*
X137322575Y-84619654D01*
X137271572Y-84649740D01*
X137216252Y-84670857D01*
X137159370Y-84706598D01*
X137126800Y-84737391D01*
X137094229Y-84706598D01*
X137037348Y-84670857D01*
X136982026Y-84649739D01*
X136931024Y-84619654D01*
X136867615Y-84597466D01*
X136808979Y-84589188D01*
X136752556Y-84571205D01*
X136685801Y-84563684D01*
X136626799Y-84568661D01*
X136567800Y-84563684D01*
X136501043Y-84571205D01*
X136444620Y-84589188D01*
X136385984Y-84597466D01*
X136322575Y-84619654D01*
X136271572Y-84649740D01*
X136216252Y-84670857D01*
X136159370Y-84706598D01*
X136126800Y-84737391D01*
X136094229Y-84706598D01*
X136037348Y-84670857D01*
X135982026Y-84649739D01*
X135931024Y-84619654D01*
X135867615Y-84597466D01*
X135808979Y-84589188D01*
X135752556Y-84571205D01*
X135685801Y-84563684D01*
X135626799Y-84568661D01*
X135567800Y-84563684D01*
X135501043Y-84571205D01*
X135444620Y-84589188D01*
X135385984Y-84597466D01*
X135322575Y-84619654D01*
X135271572Y-84649740D01*
X135216252Y-84670857D01*
X135159370Y-84706598D01*
X135116340Y-84747280D01*
X135067107Y-84780176D01*
X135019605Y-84827679D01*
X134986710Y-84876910D01*
X134946027Y-84919941D01*
X134910286Y-84976822D01*
X134889168Y-85032144D01*
X134859083Y-85083146D01*
X134836895Y-85146555D01*
X134828617Y-85205193D01*
X134810634Y-85261615D01*
X134803113Y-85328371D01*
X134805621Y-85358105D01*
X134799800Y-85387371D01*
X134799800Y-86239400D01*
X133504448Y-86239400D01*
X133302774Y-86279515D01*
X133252000Y-86313441D01*
X133252000Y-84452000D01*
X138684000Y-84452000D01*
X138684000Y-85979892D01*
M02*
