G04 #@! TF.FileFunction,Soldermask,Bot*
%FSLAX46Y46*%
G04 Gerber Fmt 4.6, Leading zero omitted, Abs format (unit mm)*
G04 Created by KiCad (PCBNEW 4.0.2-stable) date 04/04/2016 12:36:13*
%MOMM*%
G01*
G04 APERTURE LIST*
%ADD10C,0.100000*%
%ADD11C,0.150000*%
%ADD12R,0.750520X1.799540*%
%ADD13R,1.700000X1.900000*%
%ADD14R,1.900000X1.700000*%
%ADD15R,0.900000X1.025000*%
%ADD16R,1.150000X1.600000*%
%ADD17R,1.600000X1.150000*%
%ADD18O,1.906220X3.414980*%
%ADD19R,1.906220X3.414980*%
%ADD20R,5.800000X5.400000*%
G04 APERTURE END LIST*
D10*
D11*
X138272205Y-108370000D02*
G75*
G03X138272205Y-108370000I-1452205J0D01*
G01*
X147762205Y-87232205D02*
G75*
G03X147762205Y-87232205I-1452205J0D01*
G01*
X170260000Y-102610000D02*
G75*
G03X170260000Y-102610000I-1452205J0D01*
G01*
X138272205Y-108370000D02*
G75*
G03X138272205Y-108370000I-1452205J0D01*
G01*
X157300000Y-95600000D02*
X135300000Y-95600000D01*
X157300000Y-90300000D02*
X157300000Y-95600000D01*
X135300000Y-90300000D02*
X157300000Y-90300000D01*
X135300000Y-95600000D02*
X135300000Y-90300000D01*
X171500000Y-115400000D02*
X132800000Y-115400000D01*
X171500000Y-115200000D02*
X171500000Y-115400000D01*
X171500000Y-111400000D02*
X171500000Y-115200000D01*
X171500000Y-103100000D02*
X171500000Y-111400000D01*
X171500000Y-93400000D02*
X171500000Y-103100000D01*
X159800000Y-93400000D02*
X171500000Y-93400000D01*
X159800000Y-84000000D02*
X159800000Y-93400000D01*
X132800000Y-84000000D02*
X159800000Y-84000000D01*
X132800000Y-84400000D02*
X132800000Y-84000000D01*
X132800000Y-85400000D02*
X132800000Y-84400000D01*
X132800000Y-115400000D02*
X132800000Y-85400000D01*
D12*
X143576040Y-106583480D03*
X142925800Y-106583480D03*
X142275560Y-106583480D03*
X141625320Y-106583480D03*
X140975080Y-106583480D03*
X140324840Y-106583480D03*
X139674600Y-106583480D03*
X139024360Y-106583480D03*
X139024360Y-100832920D03*
X139674600Y-100832920D03*
X140324840Y-100832920D03*
X140975080Y-100832920D03*
X141625320Y-100832920D03*
X142275560Y-100832920D03*
X142925800Y-100832920D03*
X143576040Y-100832920D03*
D13*
X153035000Y-102383600D03*
X153035000Y-105083600D03*
X157378400Y-101443800D03*
X157378400Y-104143800D03*
D14*
X147298400Y-109016800D03*
X144598400Y-109016800D03*
X153216600Y-109016800D03*
X150516600Y-109016800D03*
D15*
X160340000Y-100293000D03*
X161290000Y-100293000D03*
X162240000Y-100293000D03*
X160340000Y-102743000D03*
X161290000Y-102743000D03*
X162240000Y-102743000D03*
X166080400Y-105892600D03*
X167030400Y-105892600D03*
X167980400Y-105892600D03*
X166080400Y-108342600D03*
X167030400Y-108342600D03*
X167980400Y-108342600D03*
D16*
X145846800Y-103190000D03*
X145846800Y-105090000D03*
X155270200Y-109027000D03*
X155270200Y-107127000D03*
D17*
X149362200Y-100685600D03*
X147462200Y-100685600D03*
D16*
X158927800Y-109179400D03*
X158927800Y-107279400D03*
D17*
X161686200Y-105664000D03*
X163586200Y-105664000D03*
X161813200Y-109270800D03*
X163713200Y-109270800D03*
D18*
X144940000Y-97100000D03*
X147480000Y-97100000D03*
X150020000Y-97100000D03*
X152560000Y-97100000D03*
X155100000Y-97100000D03*
X157640000Y-97100000D03*
X160180000Y-97100000D03*
X162720000Y-97100000D03*
X165260000Y-97100000D03*
X142400000Y-97100000D03*
X139860000Y-97100000D03*
X137320000Y-97100000D03*
X167800000Y-97100000D03*
D19*
X134780000Y-97100000D03*
D18*
X157580000Y-112300000D03*
X155040000Y-112300000D03*
X152500000Y-112300000D03*
X149960000Y-112300000D03*
X147420000Y-112300000D03*
X144880000Y-112300000D03*
X142340000Y-112300000D03*
X139800000Y-112300000D03*
X137260000Y-112300000D03*
X160120000Y-112300000D03*
X162660000Y-112300000D03*
X165200000Y-112300000D03*
X134720000Y-112300000D03*
D19*
X167740000Y-112300000D03*
D20*
X141833600Y-86766400D03*
X153333600Y-86766400D03*
M02*
