G04 #@! TF.FileFunction,Legend,Bot*
%FSLAX46Y46*%
G04 Gerber Fmt 4.6, Leading zero omitted, Abs format (unit mm)*
G04 Created by KiCad (PCBNEW 4.0.2-stable) date 04/04/2016 12:36:13*
%MOMM*%
G01*
G04 APERTURE LIST*
%ADD10C,0.100000*%
%ADD11C,0.150000*%
%ADD12C,0.203200*%
%ADD13C,0.050000*%
%ADD14C,0.152400*%
G04 APERTURE END LIST*
D10*
D11*
X138272205Y-108370000D02*
G75*
G03X138272205Y-108370000I-1452205J0D01*
G01*
X147762205Y-87232205D02*
G75*
G03X147762205Y-87232205I-1452205J0D01*
G01*
X170260000Y-102610000D02*
G75*
G03X170260000Y-102610000I-1452205J0D01*
G01*
X138272205Y-108370000D02*
G75*
G03X138272205Y-108370000I-1452205J0D01*
G01*
X157300000Y-95600000D02*
X135300000Y-95600000D01*
X157300000Y-90300000D02*
X157300000Y-95600000D01*
X135300000Y-90300000D02*
X157300000Y-90300000D01*
X135300000Y-95600000D02*
X135300000Y-90300000D01*
X171500000Y-115400000D02*
X132800000Y-115400000D01*
X171500000Y-115200000D02*
X171500000Y-115400000D01*
X171500000Y-111400000D02*
X171500000Y-115200000D01*
X171500000Y-103100000D02*
X171500000Y-111400000D01*
X171500000Y-93400000D02*
X171500000Y-103100000D01*
X159800000Y-93400000D02*
X171500000Y-93400000D01*
X159800000Y-84000000D02*
X159800000Y-93400000D01*
X132800000Y-84000000D02*
X159800000Y-84000000D01*
X132800000Y-84400000D02*
X132800000Y-84000000D01*
X132800000Y-85400000D02*
X132800000Y-84400000D01*
X132800000Y-115400000D02*
X132800000Y-85400000D01*
D12*
X139268200Y-99517200D02*
G75*
G03X139268200Y-99517200I-254000J0D01*
G01*
X138800840Y-105907840D02*
X138800840Y-101508560D01*
X138800840Y-101508560D02*
X143799560Y-101508560D01*
X143799560Y-101508560D02*
X143799560Y-105907840D01*
X143799560Y-105907840D02*
X138800840Y-105907840D01*
D11*
X153910000Y-104333600D02*
X153910000Y-103133600D01*
X152160000Y-103133600D02*
X152160000Y-104333600D01*
X158253400Y-103393800D02*
X158253400Y-102193800D01*
X156503400Y-102193800D02*
X156503400Y-103393800D01*
X145348400Y-109891800D02*
X146548400Y-109891800D01*
X146548400Y-108141800D02*
X145348400Y-108141800D01*
X151266600Y-109891800D02*
X152466600Y-109891800D01*
X152466600Y-108141800D02*
X151266600Y-108141800D01*
D13*
X163040000Y-102543000D02*
G75*
G03X163040000Y-102543000I-100000J0D01*
G01*
D11*
X162940000Y-100793000D02*
X159840000Y-100793000D01*
X162940000Y-102243000D02*
X162940000Y-100793000D01*
X159840000Y-102243000D02*
X159840000Y-100793000D01*
X162940000Y-102243000D02*
X159840000Y-102243000D01*
D13*
X168780400Y-108142600D02*
G75*
G03X168780400Y-108142600I-100000J0D01*
G01*
D11*
X168680400Y-106392600D02*
X165580400Y-106392600D01*
X168680400Y-107842600D02*
X168680400Y-106392600D01*
X165580400Y-107842600D02*
X165580400Y-106392600D01*
X168680400Y-107842600D02*
X165580400Y-107842600D01*
X145246800Y-103790000D02*
X145246800Y-104490000D01*
X146446800Y-104490000D02*
X146446800Y-103790000D01*
X155870200Y-108427000D02*
X155870200Y-107727000D01*
X154670200Y-107727000D02*
X154670200Y-108427000D01*
X148762200Y-100085600D02*
X148062200Y-100085600D01*
X148062200Y-101285600D02*
X148762200Y-101285600D01*
X159527800Y-108579400D02*
X159527800Y-107879400D01*
X158327800Y-107879400D02*
X158327800Y-108579400D01*
X162286200Y-106264000D02*
X162986200Y-106264000D01*
X162986200Y-105064000D02*
X162286200Y-105064000D01*
X162413200Y-109870800D02*
X163113200Y-109870800D01*
X163113200Y-108670800D02*
X162413200Y-108670800D01*
D14*
X137682514Y-102467229D02*
X138299371Y-102467229D01*
X138371943Y-102503514D01*
X138408229Y-102539800D01*
X138444514Y-102612371D01*
X138444514Y-102757514D01*
X138408229Y-102830086D01*
X138371943Y-102866371D01*
X138299371Y-102902657D01*
X137682514Y-102902657D01*
X137755086Y-103229229D02*
X137718800Y-103265515D01*
X137682514Y-103338086D01*
X137682514Y-103519515D01*
X137718800Y-103592086D01*
X137755086Y-103628372D01*
X137827657Y-103664657D01*
X137900229Y-103664657D01*
X138009086Y-103628372D01*
X138444514Y-103192943D01*
X138444514Y-103664657D01*
D11*
X151810981Y-102139952D02*
X150810981Y-102139952D01*
X150810981Y-102520905D01*
X150858600Y-102616143D01*
X150906219Y-102663762D01*
X151001457Y-102711381D01*
X151144314Y-102711381D01*
X151239552Y-102663762D01*
X151287171Y-102616143D01*
X151334790Y-102520905D01*
X151334790Y-102139952D01*
X150810981Y-102997095D02*
X150810981Y-103568524D01*
X151810981Y-103282809D02*
X150810981Y-103282809D01*
X151715743Y-104473286D02*
X151763362Y-104425667D01*
X151810981Y-104282810D01*
X151810981Y-104187572D01*
X151763362Y-104044714D01*
X151668124Y-103949476D01*
X151572886Y-103901857D01*
X151382410Y-103854238D01*
X151239552Y-103854238D01*
X151049076Y-103901857D01*
X150953838Y-103949476D01*
X150858600Y-104044714D01*
X150810981Y-104187572D01*
X150810981Y-104282810D01*
X150858600Y-104425667D01*
X150906219Y-104473286D01*
X151810981Y-105425667D02*
X151810981Y-104854238D01*
X151810981Y-105139952D02*
X150810981Y-105139952D01*
X150953838Y-105044714D01*
X151049076Y-104949476D01*
X151096695Y-104854238D01*
X156230581Y-101763534D02*
X155754390Y-101430200D01*
X156230581Y-101192105D02*
X155230581Y-101192105D01*
X155230581Y-101573058D01*
X155278200Y-101668296D01*
X155325819Y-101715915D01*
X155421057Y-101763534D01*
X155563914Y-101763534D01*
X155659152Y-101715915D01*
X155706771Y-101668296D01*
X155754390Y-101573058D01*
X155754390Y-101192105D01*
X156230581Y-102715915D02*
X156230581Y-102144486D01*
X156230581Y-102430200D02*
X155230581Y-102430200D01*
X155373438Y-102334962D01*
X155468676Y-102239724D01*
X155516295Y-102144486D01*
X146216666Y-107741981D02*
X146550000Y-107265790D01*
X146788095Y-107741981D02*
X146788095Y-106741981D01*
X146407142Y-106741981D01*
X146311904Y-106789600D01*
X146264285Y-106837219D01*
X146216666Y-106932457D01*
X146216666Y-107075314D01*
X146264285Y-107170552D01*
X146311904Y-107218171D01*
X146407142Y-107265790D01*
X146788095Y-107265790D01*
X145835714Y-106837219D02*
X145788095Y-106789600D01*
X145692857Y-106741981D01*
X145454761Y-106741981D01*
X145359523Y-106789600D01*
X145311904Y-106837219D01*
X145264285Y-106932457D01*
X145264285Y-107027695D01*
X145311904Y-107170552D01*
X145883333Y-107741981D01*
X145264285Y-107741981D01*
X151906266Y-107868981D02*
X152239600Y-107392790D01*
X152477695Y-107868981D02*
X152477695Y-106868981D01*
X152096742Y-106868981D01*
X152001504Y-106916600D01*
X151953885Y-106964219D01*
X151906266Y-107059457D01*
X151906266Y-107202314D01*
X151953885Y-107297552D01*
X152001504Y-107345171D01*
X152096742Y-107392790D01*
X152477695Y-107392790D01*
X151572933Y-106868981D02*
X150953885Y-106868981D01*
X151287219Y-107249933D01*
X151144361Y-107249933D01*
X151049123Y-107297552D01*
X151001504Y-107345171D01*
X150953885Y-107440410D01*
X150953885Y-107678505D01*
X151001504Y-107773743D01*
X151049123Y-107821362D01*
X151144361Y-107868981D01*
X151430076Y-107868981D01*
X151525314Y-107821362D01*
X151572933Y-107773743D01*
X163292381Y-100881095D02*
X164101905Y-100881095D01*
X164197143Y-100928714D01*
X164244762Y-100976333D01*
X164292381Y-101071571D01*
X164292381Y-101262048D01*
X164244762Y-101357286D01*
X164197143Y-101404905D01*
X164101905Y-101452524D01*
X163292381Y-101452524D01*
X164292381Y-102452524D02*
X164292381Y-101881095D01*
X164292381Y-102166809D02*
X163292381Y-102166809D01*
X163435238Y-102071571D01*
X163530476Y-101976333D01*
X163578095Y-101881095D01*
X169032781Y-106480695D02*
X169842305Y-106480695D01*
X169937543Y-106528314D01*
X169985162Y-106575933D01*
X170032781Y-106671171D01*
X170032781Y-106861648D01*
X169985162Y-106956886D01*
X169937543Y-107004505D01*
X169842305Y-107052124D01*
X169032781Y-107052124D01*
X169032781Y-107433076D02*
X169032781Y-108052124D01*
X169413733Y-107718790D01*
X169413733Y-107861648D01*
X169461352Y-107956886D01*
X169508971Y-108004505D01*
X169604210Y-108052124D01*
X169842305Y-108052124D01*
X169937543Y-108004505D01*
X169985162Y-107956886D01*
X170032781Y-107861648D01*
X170032781Y-107575933D01*
X169985162Y-107480695D01*
X169937543Y-107433076D01*
X147804143Y-103973334D02*
X147851762Y-103925715D01*
X147899381Y-103782858D01*
X147899381Y-103687620D01*
X147851762Y-103544762D01*
X147756524Y-103449524D01*
X147661286Y-103401905D01*
X147470810Y-103354286D01*
X147327952Y-103354286D01*
X147137476Y-103401905D01*
X147042238Y-103449524D01*
X146947000Y-103544762D01*
X146899381Y-103687620D01*
X146899381Y-103782858D01*
X146947000Y-103925715D01*
X146994619Y-103973334D01*
X147899381Y-104925715D02*
X147899381Y-104354286D01*
X147899381Y-104640000D02*
X146899381Y-104640000D01*
X147042238Y-104544762D01*
X147137476Y-104449524D01*
X147185095Y-104354286D01*
X157125943Y-107884934D02*
X157173562Y-107837315D01*
X157221181Y-107694458D01*
X157221181Y-107599220D01*
X157173562Y-107456362D01*
X157078324Y-107361124D01*
X156983086Y-107313505D01*
X156792610Y-107265886D01*
X156649752Y-107265886D01*
X156459276Y-107313505D01*
X156364038Y-107361124D01*
X156268800Y-107456362D01*
X156221181Y-107599220D01*
X156221181Y-107694458D01*
X156268800Y-107837315D01*
X156316419Y-107884934D01*
X156316419Y-108265886D02*
X156268800Y-108313505D01*
X156221181Y-108408743D01*
X156221181Y-108646839D01*
X156268800Y-108742077D01*
X156316419Y-108789696D01*
X156411657Y-108837315D01*
X156506895Y-108837315D01*
X156649752Y-108789696D01*
X157221181Y-108218267D01*
X157221181Y-108837315D01*
X148756666Y-102642943D02*
X148804285Y-102690562D01*
X148947142Y-102738181D01*
X149042380Y-102738181D01*
X149185238Y-102690562D01*
X149280476Y-102595324D01*
X149328095Y-102500086D01*
X149375714Y-102309610D01*
X149375714Y-102166752D01*
X149328095Y-101976276D01*
X149280476Y-101881038D01*
X149185238Y-101785800D01*
X149042380Y-101738181D01*
X148947142Y-101738181D01*
X148804285Y-101785800D01*
X148756666Y-101833419D01*
X148423333Y-101738181D02*
X147804285Y-101738181D01*
X148137619Y-102119133D01*
X147994761Y-102119133D01*
X147899523Y-102166752D01*
X147851904Y-102214371D01*
X147804285Y-102309610D01*
X147804285Y-102547705D01*
X147851904Y-102642943D01*
X147899523Y-102690562D01*
X147994761Y-102738181D01*
X148280476Y-102738181D01*
X148375714Y-102690562D01*
X148423333Y-102642943D01*
X160986743Y-107275334D02*
X161034362Y-107227715D01*
X161081981Y-107084858D01*
X161081981Y-106989620D01*
X161034362Y-106846762D01*
X160939124Y-106751524D01*
X160843886Y-106703905D01*
X160653410Y-106656286D01*
X160510552Y-106656286D01*
X160320076Y-106703905D01*
X160224838Y-106751524D01*
X160129600Y-106846762D01*
X160081981Y-106989620D01*
X160081981Y-107084858D01*
X160129600Y-107227715D01*
X160177219Y-107275334D01*
X160415314Y-108132477D02*
X161081981Y-108132477D01*
X160034362Y-107894381D02*
X160748648Y-107656286D01*
X160748648Y-108275334D01*
X162802866Y-104751143D02*
X162850485Y-104798762D01*
X162993342Y-104846381D01*
X163088580Y-104846381D01*
X163231438Y-104798762D01*
X163326676Y-104703524D01*
X163374295Y-104608286D01*
X163421914Y-104417810D01*
X163421914Y-104274952D01*
X163374295Y-104084476D01*
X163326676Y-103989238D01*
X163231438Y-103894000D01*
X163088580Y-103846381D01*
X162993342Y-103846381D01*
X162850485Y-103894000D01*
X162802866Y-103941619D01*
X161898104Y-103846381D02*
X162374295Y-103846381D01*
X162421914Y-104322571D01*
X162374295Y-104274952D01*
X162279057Y-104227333D01*
X162040961Y-104227333D01*
X161945723Y-104274952D01*
X161898104Y-104322571D01*
X161850485Y-104417810D01*
X161850485Y-104655905D01*
X161898104Y-104751143D01*
X161945723Y-104798762D01*
X162040961Y-104846381D01*
X162279057Y-104846381D01*
X162374295Y-104798762D01*
X162421914Y-104751143D01*
X162955266Y-108357943D02*
X163002885Y-108405562D01*
X163145742Y-108453181D01*
X163240980Y-108453181D01*
X163383838Y-108405562D01*
X163479076Y-108310324D01*
X163526695Y-108215086D01*
X163574314Y-108024610D01*
X163574314Y-107881752D01*
X163526695Y-107691276D01*
X163479076Y-107596038D01*
X163383838Y-107500800D01*
X163240980Y-107453181D01*
X163145742Y-107453181D01*
X163002885Y-107500800D01*
X162955266Y-107548419D01*
X162098123Y-107453181D02*
X162288600Y-107453181D01*
X162383838Y-107500800D01*
X162431457Y-107548419D01*
X162526695Y-107691276D01*
X162574314Y-107881752D01*
X162574314Y-108262705D01*
X162526695Y-108357943D01*
X162479076Y-108405562D01*
X162383838Y-108453181D01*
X162193361Y-108453181D01*
X162098123Y-108405562D01*
X162050504Y-108357943D01*
X162002885Y-108262705D01*
X162002885Y-108024610D01*
X162050504Y-107929371D01*
X162098123Y-107881752D01*
X162193361Y-107834133D01*
X162383838Y-107834133D01*
X162479076Y-107881752D01*
X162526695Y-107929371D01*
X162574314Y-108024610D01*
X148393124Y-84848781D02*
X147726457Y-85848781D01*
X147726457Y-84848781D02*
X148393124Y-85848781D01*
X146821695Y-85848781D02*
X147393124Y-85848781D01*
X147107410Y-85848781D02*
X147107410Y-84848781D01*
X147202648Y-84991638D01*
X147297886Y-85086876D01*
X147393124Y-85134495D01*
M02*
