M48
;DRILL file {KiCad 4.0.2-stable} date 04/04/2016 12:36:03
;FORMAT={-:-/ absolute / metric / decimal}
FMAT,2
METRIC,TZ
T1C0.300
T2C0.998
%
G90
G05
M71
T1
X134.315Y-109.245
X135.204Y-100.838
X141.656Y-108.433
X142.596Y-102.972
X143.002Y-108.636
X147.244Y-105.486
X147.676Y-106.934
X149.758Y-107.213
X151.282Y-99.695
X157.15Y-109.779
X158.953Y-104.038
X159.131Y-102.768
X160.376Y-104.648
X165.347Y-109.231
T2
X134.72Y-112.3
X134.78Y-97.1
X137.26Y-112.3
X137.32Y-97.1
X139.8Y-112.3
X139.86Y-97.1
X142.34Y-112.3
X142.4Y-97.1
X144.88Y-112.3
X144.94Y-97.1
X147.42Y-112.3
X147.48Y-97.1
X149.96Y-112.3
X150.02Y-97.1
X152.5Y-112.3
X152.56Y-97.1
X155.04Y-112.3
X155.1Y-97.1
X157.58Y-112.3
X157.64Y-97.1
X160.12Y-112.3
X160.18Y-97.1
X162.66Y-112.3
X162.72Y-97.1
X165.2Y-112.3
X165.26Y-97.1
X167.74Y-112.3
X167.8Y-97.1
T0
M30
